<?xml version="1.0" encoding="utf-8"?>
<!-- Generator: Adobe Illustrator 16.0.3, SVG Export Plug-In . SVG Version: 6.00 Build 0)  -->
<!DOCTYPE svg PUBLIC "-//W3C//DTD SVG 1.1//EN" "http://www.w3.org/Graphics/SVG/1.1/DTD/svg11.dtd">
<svg version="1.1" id="图层_1" xmlns="http://www.w3.org/2000/svg" xmlns:xlink="http://www.w3.org/1999/xlink" x="0px" y="0px"
	 width="34px" height="34px" viewBox="0 0 34 34" enable-background="new 0 0 34 34" xml:space="preserve">
<g>
	<g>
		<path fill="#FFFFFF" d="M20.25,1.098c-0.082-0.016-0.162-0.027-0.242-0.033c-0.733-0.026-1.376,0.475-1.52,1.192
			c-0.082,0.387-0.008,0.786,0.215,1.121c0.22,0.333,0.555,0.561,0.948,0.641c3.143,0.647,5.854,2.479,7.622,5.164
			c1.767,2.684,2.388,5.886,1.741,9.024c-0.082,0.389-0.006,0.787,0.215,1.121c0.222,0.334,0.557,0.561,0.95,0.641
			c0.08,0.017,0.165,0.027,0.247,0.033c0.312,0.01,0.613-0.076,0.879-0.243c0.335-0.221,0.561-0.555,0.641-0.943
			C33.606,10.709,28.368,2.769,20.25,1.098z M22.821,23.484c0.086,0.06,2.059,1.32,3.574,2.873c0.571,0.587,1.525,1.568,1.498,2.712
			c-0.021,0.775-0.464,1.558-1.349,2.382c-0.22,0.216-2.193,2.055-5.347,2.055c-0.863,0-1.751-0.136-2.636-0.405
			c-0.932-0.279-1.882-0.717-2.813-1.293c-3.688-2.173-6.533-4.97-9.239-9.072C1.863,15.684,1.728,9.642,1.75,8.504
			c0.006-5.255,4.394-7.32,4.896-7.541c0.69-0.318,1.287-0.47,1.844-0.47c0.264,0,0.516,0.038,0.754,0.108
			c0.485,0.146,1.151,0.523,1.604,1.499c0.615,1.32,1.198,3.219,1.597,5.207c0.42,2.059-0.739,2.642-1.86,3.197l-0.042,0.021
			c0,0-1.983,0.825-2.329,0.97c-0.344,0.14-0.522,0.529-0.404,0.879c0.797,2.415,2.022,4.921,3.531,7.245
			c1.481,2.285,3.25,4.393,5.104,6.102c0.135,0.119,0.302,0.189,0.486,0.189l0.058-0.006c0.195-0.017,0.377-0.114,0.503-0.27
			c0.3-0.389,0.764-0.943,1.25-1.408c0.926-0.878,1.762-1.304,2.555-1.304c0.215,0,0.438,0.032,0.641,0.097
			C22.136,23.069,22.46,23.242,22.821,23.484z M16.545,13.318c-0.393-0.081-0.728-0.308-0.948-0.642
			c-0.222-0.334-0.296-0.733-0.216-1.121c0.15-0.717,0.788-1.218,1.521-1.186c0.08,0,0.16,0.01,0.247,0.027
			c3.467,0.71,5.707,4.107,4.99,7.568c-0.08,0.387-0.306,0.721-0.641,0.942c-0.264,0.173-0.565,0.253-0.879,0.242
			c-0.08-0.005-0.16-0.011-0.242-0.032c-0.393-0.08-0.728-0.307-0.948-0.641c-0.222-0.334-0.297-0.729-0.217-1.122
			c0.185-0.895,0.012-1.811-0.494-2.577C18.216,14.024,17.447,13.501,16.545,13.318z M18.098,8.65
			c-0.808-0.167-1.325-0.954-1.159-1.757c0.151-0.717,0.788-1.219,1.521-1.191c0.08,0.006,0.16,0.011,0.247,0.033
			c2.809,0.576,5.224,2.209,6.804,4.609c1.577,2.392,2.129,5.25,1.552,8.052c-0.082,0.389-0.308,0.729-0.643,0.943
			c-0.264,0.174-0.565,0.26-0.877,0.244c-0.082-0.006-0.162-0.018-0.249-0.033c-0.803-0.168-1.325-0.953-1.157-1.758
			c0.414-2.021,0.02-4.085-1.123-5.811C21.871,10.246,20.125,9.066,18.098,8.65z"/>
	</g>
</g>
</svg>
