<?xml version="1.0" encoding="utf-8"?>
<!-- Generator: Adobe Illustrator 16.0.3, SVG Export Plug-In . SVG Version: 6.00 Build 0)  -->
<!DOCTYPE svg PUBLIC "-//W3C//DTD SVG 1.1//EN" "http://www.w3.org/Graphics/SVG/1.1/DTD/svg11.dtd">
<svg version="1.1" id="图层_1" xmlns="http://www.w3.org/2000/svg" xmlns:xlink="http://www.w3.org/1999/xlink" x="0px" y="0px"
	 width="80px" height="60px" viewBox="0 0 80 60" enable-background="new 0 0 80 60" xml:space="preserve">
<g>
	<path fill-rule="evenodd" clip-rule="evenodd" fill="#A4621A" d="M62.407,1.672c-1.538,0-2.308-1.155-3.847-1.155
		c-4.134,0-6.249,1.923-10.383,1.923c-0.673,0-0.96-0.674-1.537-0.769c-5.674,0-8.848,0-14.52,0c-1.733,0-2.788-0.771-4.519-0.771
		c-2.5,0-3.846,1.155-6.347,1.155c-1.249,0-2.02-0.769-3.27-0.769c-3.076,0-7.114,0.384-7.114,3.46c0,2.213,1.922,3.173,1.922,5.384
		c0,7.21-0.672,5.119-0.095,12.328c-0.577,4.903,1.25-1.431,1.25,3.474c0,3.557-1.73,5.575-1.73,9.134c0,2.402,0.191,3.847,0,6.249
		c1.057,0.095,1.538,0.384,2.596,0.384c3.172,0,4.807-1.155,7.98-1.539l6.54,1.539c3.845,0,6.056,0,9.902,0
		c5.672,0,8.652-3.078,14.326-3.078c2.018,0,2.596,2.31,4.616,2.31c1.345,0,2.21-0.481,3.462-0.771l3.075,0.771
		c1.922-0.962,3.846-2.211,3.846-4.424c0-3.364-1.537-5.288-1.537-8.653c0-2.979,1.154-2.402,1.154-5.384
		c0-6.634-1.154,2.562-1.154-4.071c0-3.749,1.922-5.672,1.922-9.422c0-3.076-1.922-4.617-1.922-7.691
		c-1.059-0.097-1.636-0.386-2.692-0.386C63.562,0.902,63.177,1.672,62.407,1.672z"/>
	<path fill-rule="evenodd" clip-rule="evenodd" fill="#A4621A" d="M68.964,13.342c-0.377,1.539-0.5,2.512-0.5,4.113
		c0,1.757,0.471,2.7,0.784,4.457c0-2.542,0-3.988,0-6.529C69.248,14.723,69.186,13.972,68.964,13.342z"/>
	<path fill-rule="evenodd" clip-rule="evenodd" fill="#A4621A" d="M11.256,8.603c0.44,0.879,0.784,1.35,0.784,2.291
		c0,1.381-0.564,2.103-0.784,3.484c-0.189-1.819-0.504-2.826-0.504-4.645C10.752,9.262,11.036,9.011,11.256,8.603z"/>
	<path fill-rule="evenodd" clip-rule="evenodd" fill="#A4621A" d="M14.334,1.161C17.41,0.156,19.763,1.821,22.524,0
		c-2.292,0-3.579,0-5.869,0C15.65,0,15.242,0.722,14.334,1.161z"/>
	<path fill-rule="evenodd" clip-rule="evenodd" fill="#A4621A" d="M23.563,1.037c0.785,0,1.161-0.253,1.916-0.504l0.407-0.408
		c-1.223,0-2.041,0.093-3.107,0.659C23.061,0.878,23.249,1.037,23.563,1.037z"/>
	<g>
		<path fill-rule="evenodd" clip-rule="evenodd" fill="#FFFFFF" d="M22.204,27.036c-0.023-0.093-0.045-0.176-0.065-0.249
			c0.027-0.16,0.058-0.315,0.091-0.465c0.033-0.155,0.06-0.313,0.083-0.473c0.054-0.24,0.122-0.431,0.199-0.574
			c0.082-0.145,0.172-0.235,0.267-0.276l0.532-0.224c0.062-0.021,0.147-0.048,0.256-0.081c0.063,0,0.106,0.025,0.135,0.081
			c0.027,0.056,0.042,0.135,0.042,0.241c0,0.039-0.014,0.151-0.042,0.333c-0.029,0.183-0.067,0.442-0.118,0.774
			c-0.011,0.078-0.021,0.159-0.033,0.242c-0.005,0.081-0.018,0.164-0.034,0.249c0,0.054-0.019,0.122-0.058,0.199
			c-0.038,0.074-0.087,0.159-0.149,0.259c0.026,0.11-0.034,0.379-0.182,0.806c-0.145,0.427-0.373,1.004-0.684,1.73
			c-0.261,0.604-0.491,1.136-0.688,1.587c-0.201,0.456-0.375,0.831-0.524,1.122c-0.078,0.156-0.167,0.326-0.267,0.508
			c-0.1,0.178-0.203,0.365-0.309,0.558c0.052,0.116,0.098,0.222,0.143,0.315c-0.006,0.079-0.016,0.133-0.033,0.168
			c-0.079,0.089-0.176,0.201-0.292,0.34c-0.116,0.139-0.253,0.293-0.408,0.465c-0.106,0.05-0.218,0.106-0.342,0.166
			c-0.083,0.112-0.15,0.208-0.207,0.292c-0.106,0.06-0.206,0.106-0.299,0.135c-0.089,0.033-0.174,0.048-0.249,0.048
			c-0.139,0-0.271-0.067-0.392-0.201c-0.116-0.131-0.174-0.269-0.174-0.408c0-0.093,0.062-0.208,0.191-0.348
			c0.127-0.139,0.198-0.231,0.216-0.274l-0.027-0.083l-0.083-0.108c-0.02-0.139-0.051-0.263-0.091-0.375
			c-0.037-0.116-0.085-0.228-0.141-0.334c-0.098-0.164-0.187-0.367-0.264-0.606c-0.079-0.243-0.151-0.521-0.217-0.833
			c-0.026-0.143-0.049-0.257-0.067-0.338c-0.01-0.091-0.015-0.148-0.015-0.178c-0.023-0.039-0.048-0.092-0.078-0.164
			c-0.027-0.073-0.058-0.156-0.091-0.251c-0.027-0.182-0.062-0.411-0.108-0.689c-0.039-0.278-0.081-0.603-0.124-0.973
			c0-0.044-0.009-0.097-0.025-0.156c-0.012-0.062-0.031-0.137-0.058-0.226c-0.033-0.083-0.056-0.155-0.066-0.214
			c-0.013-0.064-0.017-0.118-0.017-0.168c0.004-0.161,0.008-0.319,0.008-0.475c-0.033-0.122-0.044-0.191-0.033-0.214l0.067-0.327
			c-0.056-0.075-0.104-0.172-0.143-0.28c-0.033-0.112-0.049-0.243-0.049-0.392c0-0.056,0.01-0.108,0.025-0.156
			c0.017-0.052,0.037-0.099,0.06-0.143c-0.029-0.089-0.05-0.176-0.068-0.267c-0.017-0.094-0.025-0.193-0.025-0.299
			c-0.056-0.083-0.097-0.164-0.125-0.239c-0.022-0.085-0.025-0.156-0.007-0.218l0.05-0.332c-0.023-0.083-0.042-0.153-0.058-0.208
			c0.06-0.333,0.113-0.597,0.158-0.798c0.044-0.199,0.077-0.328,0.1-0.382c0.083-0.193,0.199-0.35,0.349-0.465
			c0.154-0.122,0.347-0.205,0.575-0.249c0.075-0.056,0.143-0.101,0.198-0.133c0.061-0.033,0.116-0.05,0.165-0.05
			c0.062,0,0.116,0.029,0.166,0.091c0.056,0.056,0.099,0.139,0.135,0.249c0.027,0.095,0.042,0.186,0.049,0.276
			c0.01,0.089,0.014,0.168,0.008,0.239c-0.023,0.207-0.044,0.44-0.066,0.707c-0.022,0.266-0.04,0.563-0.049,0.89
			c-0.011,0.041-0.038,0.102-0.077,0.191c-0.037,0.083-0.058,0.149-0.058,0.201c0,0.054,0.021,0.143,0.058,0.265
			c0.04,0.122,0.058,0.212,0.06,0.266c0,0.035-0.005,0.095-0.018,0.184c-0.011,0.089-0.027,0.259-0.049,0.506
			c0.022,0.129,0.049,0.261,0.085,0.4c0,0.06-0.009,0.16-0.025,0.301c-0.02,0.135-0.025,0.239-0.025,0.305
			c0,0.041,0.004,0.071,0.015,0.093c0.013,0.015,0.034,0.09,0.068,0.224c0.006,0.124,0.017,0.263,0.033,0.425
			c0.023,0.155,0.048,0.34,0.076,0.556c0.026,0.189,0.06,0.425,0.098,0.707c0.043,0.284,0.087,0.61,0.126,0.981l0.009,0.276
			c0,0.039,0.01,0.085,0.033,0.139c0.021,0.05,0.054,0.104,0.098,0.159c0.034,0.15,0.07,0.311,0.108,0.482
			c0.038,0.174,0.077,0.35,0.116,0.533c0.013,0.06,0.031,0.108,0.058,0.141c0.029,0.033,0.058,0.05,0.091,0.05
			c0.123-0.122,0.22-0.248,0.292-0.375c0.049-0.06,0.114-0.172,0.192-0.334c0.083-0.164,0.178-0.386,0.29-0.664
			c0.029-0.072,0.072-0.157,0.125-0.257c0.056-0.101,0.121-0.212,0.192-0.342c0.073-0.11,0.172-0.311,0.298-0.606
			c0.128-0.293,0.284-0.682,0.466-1.165c0.151-0.4,0.274-0.738,0.375-1.014c0.105-0.278,0.18-0.491,0.225-0.642L22.204,27.036z"/>
		<path fill-rule="evenodd" clip-rule="evenodd" fill="#FFFFFF" d="M23.202,32.657c0.065-0.116,0.152-0.232,0.256-0.35
			c0.107-0.122,0.24-0.247,0.402-0.373c0.016-0.112,0.034-0.22,0.049-0.325c0.018-0.112,0.027-0.222,0.034-0.334
			c0.016-0.075,0.042-0.168,0.074-0.272c0.037-0.106,0.079-0.22,0.124-0.342c0.05-0.122,0.116-0.274,0.199-0.458
			c0.089-0.182,0.203-0.386,0.342-0.614c0.118-0.129,0.238-0.269,0.367-0.417c0.127-0.154,0.255-0.311,0.382-0.465
			c0.06-0.05,0.126-0.097,0.199-0.141c0.073-0.044,0.145-0.094,0.217-0.15c0.067-0.021,0.141-0.042,0.223-0.058
			c0.083-0.017,0.174-0.025,0.274-0.025c0.141,0,0.25,0.014,0.333,0.041c0.089,0.029,0.161,0.075,0.217,0.143
			c0.037,0.044,0.074,0.11,0.108,0.199c0.039,0.089,0.074,0.197,0.107,0.326c0.016,0.108,0.038,0.232,0.058,0.363
			c0-0.033-0.01-0.018-0.034,0.042c-0.015,0.062-0.042,0.158-0.082,0.292l-0.074,0.267c-0.079,0.265-0.253,0.573-0.524,0.921
			c-0.271,0.35-0.637,0.75-1.099,1.199c-0.038,0.039-0.071,0.089-0.1,0.149c-0.027,0.056-0.042,0.118-0.042,0.184
			c0,0.116,0.021,0.218,0.058,0.307c0.045,0.089,0.105,0.155,0.184,0.201c0.043,0.033,0.114,0.065,0.207,0.098
			c0.102,0.033,0.218,0.066,0.349,0.091c0.216-0.015,0.416-0.05,0.591-0.106c0.177-0.056,0.335-0.122,0.473-0.201
			c0.029-0.018,0.073-0.039,0.133-0.068c0.062-0.033,0.122-0.073,0.184-0.124c0.073,0.162,0.135,0.305,0.191,0.433
			c0.056,0.129,0.098,0.237,0.134,0.334c-0.317,0.311-0.604,0.546-0.865,0.705c-0.257,0.156-0.491,0.233-0.708,0.233
			c-0.089,0.054-0.191,0.097-0.307,0.125c-0.111,0.023-0.243,0.033-0.398,0.033c-0.206,0-0.389-0.031-0.549-0.091
			c-0.157-0.062-0.285-0.149-0.39-0.269c-0.056-0.052-0.112-0.133-0.168-0.24c-0.054-0.112-0.112-0.241-0.174-0.39
			c-0.05-0.124-0.098-0.212-0.141-0.269c-0.045-0.06-0.095-0.091-0.149-0.091c-0.046,0-0.095,0.023-0.151,0.065
			c-0.055,0.041-0.116,0.103-0.183,0.186c-0.022-0.083-0.06-0.188-0.118-0.309C23.362,32.993,23.291,32.839,23.202,32.657z
			 M25.863,29.956c-0.124,0-0.286,0.16-0.493,0.483c-0.205,0.314-0.306,0.548-0.306,0.697c0,0.033,0.004,0.058,0.017,0.075
			c0.017,0.011,0.047,0.015,0.091,0.015c0.062,0,0.112-0.031,0.149-0.09c0.041-0.066,0.075-0.128,0.11-0.184
			c0.06-0.054,0.118-0.112,0.174-0.174c0.06-0.066,0.118-0.131,0.176-0.191c0.066-0.077,0.116-0.154,0.149-0.233
			c0.033-0.077,0.049-0.155,0.049-0.232c0-0.05-0.012-0.089-0.033-0.116C25.93,29.971,25.901,29.956,25.863,29.956z"/>
		<path fill-rule="evenodd" clip-rule="evenodd" fill="#FFFFFF" d="M27.261,32.657c0.089-0.116,0.176-0.237,0.265-0.367
			c0.406-0.331,0.735-0.649,0.991-0.956c0.259-0.307,0.448-0.599,0.564-0.863l-0.083-0.4c0.072-0.137,0.251-0.301,0.534-0.49
			c0.288-0.188,0.52-0.284,0.698-0.284c0.188,0,0.346,0.056,0.473,0.168c0.133,0.11,0.261,0.226,0.383,0.348
			c0.06,0.041,0.105,0.072,0.132,0.093c0.222,0.166,0.387,0.396,0.499,0.691c0.111,0.293,0.165,0.651,0.165,1.072
			c0,0.22-0.085,0.541-0.257,0.956c-0.172,0.409-0.256,0.72-0.256,0.931c0,0.027,0.006,0.05,0.024,0.067
			c0.021,0.016,0.048,0.025,0.083,0.025c0.07,0,0.157-0.029,0.257-0.093c0.1-0.065,0.207-0.154,0.324-0.267
			c0.294-0.288,0.471-0.444,0.533-0.473c0.06-0.035,0.136-0.085,0.223-0.158c0.045,0.112,0.097,0.23,0.159,0.359
			c0.06,0.125,0.118,0.262,0.174,0.407c-0.049,0.042-0.107,0.097-0.174,0.156c-0.062,0.062-0.137,0.131-0.226,0.207
			c-0.187,0.141-0.435,0.309-0.739,0.508c-0.3,0.195-0.659,0.421-1.082,0.674c-0.11,0.073-0.238,0.131-0.38,0.176
			c-0.234,0-0.409-0.035-0.526-0.101c-0.116-0.071-0.174-0.185-0.174-0.342c0-0.06,0.013-0.129,0.033-0.207
			c0.029-0.083,0.065-0.172,0.107-0.267c0.034-0.071,0.071-0.143,0.11-0.216c0.04-0.075,0.073-0.154,0.1-0.233
			c0.123-0.348,0.213-0.672,0.275-0.973c0.067-0.298,0.101-0.566,0.101-0.806c0-0.293-0.048-0.52-0.141-0.674
			c-0.092-0.154-0.226-0.241-0.41-0.265c-0.121,0.066-0.254,0.16-0.397,0.282c-0.145,0.122-0.292,0.274-0.441,0.456
			c-0.161,0.201-0.304,0.365-0.433,0.491c-0.127,0.129-0.232,0.214-0.317,0.259c-0.048,0.083-0.129,0.179-0.239,0.282
			c-0.112,0.106-0.259,0.22-0.44,0.342c-0.014,0.023-0.029,0.056-0.05,0.101c-0.023,0.044-0.058,0.094-0.108,0.15
			c-0.044-0.129-0.094-0.253-0.15-0.375C27.387,32.92,27.327,32.791,27.261,32.657z"/>
		<path fill-rule="evenodd" clip-rule="evenodd" fill="#FFFFFF" d="M32.682,32.657c0.039-0.042,0.087-0.106,0.143-0.182
			c0.056-0.083,0.124-0.178,0.207-0.284c0.073-0.06,0.155-0.141,0.251-0.24c0.093-0.106,0.199-0.237,0.314-0.392
			c0.044-0.095,0.097-0.197,0.159-0.309c0.066-0.116,0.141-0.251,0.224-0.408c0.033-0.148,0.11-0.318,0.234-0.506
			c0.12-0.193,0.29-0.411,0.508-0.649c0.303-0.338,0.623-0.697,0.954-1.08c0.174-0.255,0.357-0.444,0.558-0.567
			c0.206-0.12,0.423-0.182,0.657-0.182c0.155,0,0.271,0.069,0.349,0.208c0.083,0.139,0.125,0.344,0.125,0.614
			c0,0.1-0.071,0.255-0.207,0.465c-0.132,0.212-0.34,0.481-0.617,0.807c-0.17,0.205-0.352,0.411-0.541,0.616
			c-0.187,0.199-0.375,0.403-0.556,0.614c-0.083,0.078-0.172,0.165-0.265,0.259c-0.089,0.089-0.187,0.189-0.292,0.297
			c-0.033,0.116-0.068,0.248-0.107,0.392c0,0.218,0.014,0.406,0.041,0.566c0.027,0.154,0.068,0.29,0.125,0.398
			c0.027,0.041,0.085,0.129,0.177,0.268c0.093,0.131,0.216,0.305,0.372,0.523c0.04,0.054,0.087,0.11,0.141,0.166
			c0.056,0.056,0.121,0.112,0.192,0.165c0.083-0.033,0.246-0.18,0.483-0.44c0.238-0.265,0.558-0.639,0.965-1.122l0.313,0.767
			c-0.037,0.042-0.111,0.133-0.223,0.272c-0.105,0.133-0.236,0.311-0.391,0.533c-0.176,0.234-0.358,0.481-0.541,0.75
			c0,0.056,0.025,0.118,0.075,0.189c0.056,0.074,0.122,0.155,0.201,0.244c0.143,0.166,0.265,0.382,0.366,0.647
			c0.104,0.268,0.185,0.591,0.241,0.973c-0.006,0.027-0.016,0.073-0.025,0.135c-0.006,0.06-0.012,0.127-0.016,0.207
			c-0.067,0.637-0.46,1.274-1.18,1.912c-0.716,0.639-1.393,0.958-2.03,0.958c-0.294,0-0.528-0.041-0.706-0.116
			c-0.172-0.074-0.294-0.186-0.366-0.334c-0.027-0.074-0.05-0.213-0.068-0.425c-0.016-0.21-0.024-0.49-0.024-0.84
			c0-0.033,0.016-0.099,0.049-0.199c0.027-0.095,0.077-0.226,0.149-0.39c0.04-0.112,0.091-0.228,0.159-0.352
			c0.071-0.116,0.145-0.243,0.224-0.38c0.078-0.118,0.154-0.232,0.232-0.342c0.085-0.112,0.16-0.22,0.233-0.332
			c0.176-0.195,0.335-0.367,0.473-0.516c0.106-0.106,0.188-0.205,0.242-0.301c0.062-0.093,0.09-0.176,0.092-0.248
			c-0.188-0.261-0.378-0.51-0.565-0.749c-0.201-0.249-0.363-0.5-0.493-0.748c-0.12-0.251-0.201-0.506-0.239-0.767
			c-0.006-0.033-0.029-0.085-0.067-0.156c-0.128,0.122-0.252,0.245-0.375,0.375c-0.022-0.083-0.06-0.188-0.116-0.309
			C32.843,32.993,32.771,32.839,32.682,32.657z M35.411,36.149c-0.034,0-0.112,0.079-0.232,0.235
			c-0.116,0.154-0.278,0.384-0.484,0.689c-0.116,0.184-0.232,0.367-0.348,0.556c-0.116,0.188-0.239,0.375-0.367,0.558
			c-0.043,0.06-0.108,0.205-0.19,0.431c-0.085,0.228-0.126,0.373-0.126,0.433c0,0.106,0.029,0.185,0.083,0.233
			c0.062,0.05,0.152,0.076,0.275,0.076c0.426,0,0.865-0.232,1.314-0.699c0.45-0.459,0.673-0.904,0.673-1.329
			c0-0.091-0.016-0.195-0.049-0.317c-0.034-0.118-0.077-0.247-0.133-0.392c-0.071-0.16-0.141-0.28-0.208-0.355
			C35.551,36.189,35.482,36.149,35.411,36.149z"/>
		<path fill-rule="evenodd" clip-rule="evenodd" fill="#FFFFFF" d="M37.132,32.657c0.022-0.039,0.054-0.081,0.092-0.124
			c0.033-0.05,0.073-0.108,0.124-0.174c0.056-0.046,0.128-0.11,0.217-0.193c0.09-0.083,0.188-0.179,0.3-0.292
			c0.099-0.11,0.219-0.247,0.365-0.405c0.145-0.168,0.319-0.367,0.525-0.601c0.087-0.093,0.199-0.212,0.331-0.355
			c0.132-0.152,0.292-0.328,0.474-0.533c0.155-0.183,0.321-0.318,0.499-0.407c0.178-0.089,0.367-0.133,0.565-0.133
			c0.201,0,0.346,0.064,0.441,0.191c0.095,0.122,0.141,0.303,0.141,0.541c0,0.127-0.046,0.371-0.141,0.73
			c-0.095,0.361-0.24,0.838-0.441,1.431c-0.05,0.112-0.097,0.216-0.141,0.316c-0.033,0.072-0.056,0.137-0.066,0.189
			c-0.011,0.056-0.017,0.098-0.017,0.127c0,0.033,0.019,0.073,0.058,0.124c0.027-0.016,0.052-0.039,0.076-0.066
			c0.026-0.027,0.058-0.062,0.09-0.1c0.042-0.085,0.112-0.168,0.201-0.259c0.093-0.093,0.205-0.195,0.331-0.305
			c0.05-0.097,0.113-0.188,0.192-0.276c0.083-0.094,0.174-0.179,0.273-0.259c0.022-0.019,0.05-0.058,0.085-0.106
			c0.038-0.05,0.082-0.103,0.133-0.158c0.07-0.072,0.157-0.147,0.257-0.226c0.099-0.075,0.217-0.156,0.349-0.24
			c0.149-0.077,0.284-0.139,0.4-0.181c0.119-0.046,0.228-0.07,0.314-0.07c0.174,0,0.324,0.042,0.46,0.127
			c0.132,0.081,0.243,0.212,0.34,0.388c0.111,0.346,0.214,0.665,0.316,0.956c0.06,0.174,0.126,0.301,0.198,0.384
			c0.076,0.081,0.163,0.124,0.259,0.124c0.07,0,0.134-0.014,0.19-0.042c0.062-0.025,0.115-0.067,0.166-0.124l0.333,0.767
			c-0.094,0.075-0.19,0.156-0.293,0.24c-0.099,0.083-0.196,0.164-0.289,0.243c-0.128,0.116-0.246,0.197-0.357,0.247
			c-0.11,0.046-0.223,0.066-0.334,0.066c-0.126,0-0.248-0.025-0.364-0.082c-0.116-0.056-0.216-0.139-0.301-0.249
			c-0.042-0.046-0.099-0.124-0.165-0.241c-0.068-0.124-0.145-0.272-0.234-0.45c-0.069-0.073-0.154-0.166-0.247-0.282
			c-0.09-0.122-0.195-0.265-0.316-0.425l-0.076-0.023c-0.104,0.033-0.21,0.082-0.316,0.149c-0.099,0.065-0.206,0.152-0.322,0.259
			c-0.251,0.22-0.431,0.359-0.543,0.413c-0.109,0.056-0.184,0.12-0.224,0.193c-0.078,0.131-0.21,0.303-0.399,0.516
			c-0.188,0.21-0.424,0.459-0.706,0.747c-0.074,0.072-0.145,0.145-0.218,0.216c-0.072,0.066-0.142,0.133-0.214,0.199
			c-0.074,0.062-0.156,0.104-0.251,0.125c-0.087,0.027-0.188,0.042-0.297,0.042c-0.224,0-0.344-0.078-0.367-0.226
			c-0.017-0.154-0.033-0.311-0.05-0.465c0.083-0.232,0.177-0.523,0.284-0.873c0.104-0.35,0.226-0.757,0.365-1.222
			c0-0.027,0.008-0.064,0.025-0.108c0.022-0.048,0.047-0.114,0.074-0.191c0.029-0.074,0.048-0.133,0.058-0.184
			c0.014-0.056,0.018-0.103,0.018-0.141s-0.013-0.069-0.042-0.093c-0.027-0.019-0.07-0.033-0.132-0.033
			c-0.054,0-0.131,0.033-0.224,0.103c-0.089,0.065-0.199,0.172-0.324,0.314c-0.156,0.167-0.28,0.296-0.375,0.39
			c-0.094,0.095-0.159,0.149-0.191,0.166c-0.056,0.039-0.122,0.095-0.199,0.168c-0.072,0.071-0.157,0.15-0.25,0.239
			c-0.01,0.023-0.026,0.056-0.049,0.101c-0.023,0.044-0.058,0.094-0.108,0.15c-0.023-0.083-0.062-0.188-0.118-0.309
			C37.293,32.993,37.222,32.839,37.132,32.657z"/>
		<path fill-rule="evenodd" clip-rule="evenodd" fill="#FFFFFF" d="M45.224,32.291l0.758-0.499c0.027-0.027,0.061-0.062,0.099-0.108
			c0.041-0.048,0.083-0.118,0.134-0.207c0.038-0.072,0.088-0.131,0.15-0.184c0.066-0.05,0.141-0.093,0.224-0.133
			c0.044-0.056,0.108-0.124,0.19-0.208c0.083-0.083,0.19-0.178,0.316-0.29c0.062-0.033,0.14-0.082,0.234-0.141
			c0.093-0.066,0.194-0.153,0.306-0.259c0.506-0.477,0.946-0.834,1.322-1.072c0.384-0.24,0.705-0.359,0.966-0.359
			c0.144,0,0.248,0.031,0.317,0.091c0.069,0.064,0.106,0.149,0.106,0.259c0,0.116-0.021,0.22-0.066,0.309
			c-0.038,0.087-0.103,0.164-0.192,0.224c-0.138,0.098-0.287,0.21-0.448,0.332c-0.089,0.118-0.197,0.241-0.323,0.376
			c-0.129,0.125-0.277,0.253-0.451,0.38c-0.055,0.072-0.102,0.135-0.142,0.191c-0.026,0.027-0.078,0.077-0.156,0.15
			c-0.079,0.072-0.181,0.155-0.307,0.249c-0.059,0.12-0.178,0.28-0.369,0.473c-0.182,0.193-0.428,0.429-0.738,0.699
			c-0.04,0.039-0.107,0.127-0.21,0.265c-0.099,0.141-0.227,0.322-0.388,0.55l0.058,0.075c0.121-0.039,0.248-0.106,0.382-0.201
			c0.134-0.093,0.28-0.218,0.441-0.375c0.188-0.17,0.339-0.309,0.455-0.414c0.124-0.112,0.209-0.183,0.259-0.218
			c0.039-0.021,0.077-0.044,0.118-0.066c0.038-0.023,0.083-0.05,0.133-0.083c0.255-0.305,0.492-0.531,0.715-0.674
			c0.221-0.151,0.426-0.224,0.613-0.224c0.118,0,0.207,0.046,0.268,0.141c0.061,0.089,0.098,0.224,0.107,0.407
			c-0.01,0.276-0.017,0.544-0.017,0.798c-0.007,0.179,0.042,0.338,0.144,0.482c0.103,0.139,0.24,0.207,0.405,0.207
			c0.049,0,0.098-0.011,0.141-0.041c0.05-0.027,0.102-0.063,0.151-0.108c0.039-0.05,0.074-0.097,0.107-0.141
			c0.04-0.044,0.076-0.089,0.118-0.133c0.021-0.011,0.051-0.029,0.092-0.058c0.042-0.027,0.085-0.06,0.123-0.101
			c0.077,0.166,0.142,0.315,0.191,0.44c0.055,0.124,0.097,0.229,0.124,0.326c-0.127,0.116-0.255,0.238-0.381,0.363
			c-0.124,0.124-0.253,0.241-0.392,0.351c-0.168,0.127-0.326,0.224-0.482,0.292c-0.155,0.06-0.311,0.091-0.466,0.091
			c-0.359,0-0.638-0.104-0.833-0.309c-0.193-0.205-0.308-0.516-0.341-0.931c0-0.05-0.008-0.1-0.024-0.148
			c-0.011-0.056-0.038-0.11-0.082-0.166c-0.027,0.027-0.059,0.058-0.092,0.091c-0.033,0.027-0.072,0.065-0.116,0.116
			c-0.072,0.056-0.163,0.124-0.275,0.208c-0.105,0.083-0.229,0.184-0.374,0.299c-0.195,0.201-0.356,0.363-0.489,0.491
			c-0.135,0.127-0.228,0.218-0.283,0.274c-0.112,0.095-0.241,0.189-0.392,0.282c-0.145,0.094-0.306,0.193-0.49,0.292
			c-0.116,0.06-0.217,0.108-0.301,0.141c-0.083,0.039-0.143,0.058-0.181,0.058c-0.266,0-0.464-0.063-0.591-0.191
			c-0.126-0.131-0.192-0.334-0.192-0.606c0-0.151,0.033-0.292,0.102-0.423c0.06-0.139,0.155-0.272,0.281-0.4
			c0.01-0.073,0.017-0.131,0.017-0.174c0-0.029-0.009-0.056-0.025-0.083c-0.01-0.033-0.025-0.071-0.049-0.11
			c-0.033-0.078-0.068-0.165-0.108-0.257c-0.043-0.099-0.091-0.205-0.143-0.317c0.025-0.021,0.058-0.064,0.103-0.124
			C45.122,32.468,45.169,32.387,45.224,32.291z"/>
		<path fill-rule="evenodd" clip-rule="evenodd" fill="#FFFFFF" d="M51.229,32.657c0.023-0.039,0.054-0.081,0.091-0.124
			c0.034-0.05,0.075-0.108,0.125-0.174c0.056-0.046,0.128-0.11,0.217-0.193c0.089-0.083,0.189-0.179,0.3-0.292
			c0.1-0.11,0.22-0.247,0.364-0.405c0.146-0.168,0.318-0.367,0.524-0.601c0.089-0.093,0.201-0.212,0.333-0.355
			c0.134-0.152,0.29-0.328,0.475-0.533c0.155-0.183,0.321-0.318,0.499-0.407s0.364-0.133,0.564-0.133
			c0.201,0,0.346,0.064,0.441,0.191c0.095,0.122,0.141,0.303,0.141,0.541c0,0.127-0.046,0.371-0.141,0.73
			c-0.096,0.361-0.24,0.838-0.441,1.431c-0.049,0.112-0.098,0.216-0.141,0.316c-0.033,0.072-0.056,0.137-0.066,0.189
			c-0.012,0.056-0.019,0.098-0.019,0.127c0,0.033,0.021,0.073,0.061,0.124c0.027-0.016,0.052-0.039,0.073-0.066
			c0.027-0.027,0.059-0.062,0.092-0.1c0.044-0.085,0.109-0.168,0.201-0.259c0.094-0.093,0.203-0.195,0.331-0.305
			c0.05-0.097,0.114-0.188,0.19-0.276c0.085-0.094,0.177-0.179,0.275-0.259c0.022-0.019,0.05-0.058,0.083-0.106
			c0.038-0.05,0.085-0.103,0.135-0.158c0.069-0.072,0.156-0.147,0.256-0.226c0.1-0.075,0.216-0.156,0.351-0.24
			c0.148-0.077,0.283-0.139,0.398-0.181c0.121-0.046,0.229-0.07,0.315-0.07c0.174,0,0.325,0.042,0.457,0.127
			c0.135,0.081,0.246,0.212,0.341,0.388c0.112,0.346,0.217,0.665,0.315,0.956c0.062,0.174,0.129,0.301,0.2,0.384
			c0.077,0.081,0.164,0.124,0.259,0.124c0.071,0,0.136-0.014,0.191-0.042c0.062-0.025,0.116-0.067,0.165-0.124l0.333,0.767
			c-0.093,0.075-0.191,0.156-0.291,0.24c-0.1,0.083-0.197,0.164-0.29,0.243c-0.128,0.116-0.249,0.197-0.358,0.247
			c-0.108,0.046-0.221,0.066-0.333,0.066c-0.126,0-0.249-0.025-0.365-0.082c-0.115-0.056-0.216-0.139-0.299-0.249
			c-0.045-0.046-0.101-0.124-0.166-0.241c-0.067-0.124-0.145-0.272-0.233-0.45c-0.073-0.073-0.156-0.166-0.25-0.282
			c-0.089-0.122-0.193-0.265-0.316-0.425l-0.073-0.023c-0.106,0.033-0.212,0.082-0.316,0.149c-0.101,0.065-0.208,0.152-0.324,0.259
			c-0.25,0.22-0.431,0.359-0.541,0.413c-0.11,0.056-0.186,0.12-0.225,0.193c-0.079,0.131-0.211,0.303-0.399,0.516
			c-0.188,0.21-0.425,0.459-0.706,0.747c-0.072,0.072-0.145,0.145-0.217,0.216c-0.072,0.066-0.143,0.133-0.216,0.199
			c-0.072,0.062-0.155,0.104-0.25,0.125c-0.089,0.027-0.189,0.042-0.298,0.042c-0.224,0-0.344-0.078-0.366-0.226
			c-0.018-0.154-0.034-0.311-0.05-0.465c0.083-0.232,0.176-0.523,0.281-0.873s0.229-0.757,0.366-1.222
			c0-0.027,0.009-0.064,0.024-0.108c0.022-0.048,0.048-0.114,0.075-0.191c0.029-0.074,0.047-0.133,0.058-0.184
			c0.012-0.056,0.017-0.103,0.017-0.141s-0.013-0.069-0.042-0.093c-0.026-0.019-0.069-0.033-0.132-0.033
			c-0.056,0-0.13,0.033-0.223,0.103c-0.09,0.065-0.199,0.172-0.326,0.314c-0.155,0.167-0.278,0.296-0.374,0.39
			c-0.094,0.095-0.157,0.149-0.19,0.166c-0.056,0.039-0.123,0.095-0.199,0.168c-0.075,0.071-0.157,0.15-0.251,0.239
			c-0.01,0.023-0.026,0.056-0.049,0.101s-0.06,0.094-0.109,0.15c-0.021-0.083-0.061-0.188-0.116-0.309
			C51.391,32.993,51.317,32.839,51.229,32.657z"/>
		<path fill-rule="evenodd" clip-rule="evenodd" fill="#FFFFFF" d="M59.054,32.657c0.038-0.039,0.081-0.089,0.125-0.149
			c0.041-0.065,0.085-0.139,0.142-0.218l0.64-0.44c0.078-0.093,0.196-0.212,0.358-0.355c0.161-0.15,0.359-0.332,0.599-0.542
			c0.029-0.06,0.071-0.129,0.131-0.207c0.067-0.083,0.146-0.165,0.234-0.242c0.077-0.071,0.156-0.137,0.234-0.201
			c0.076-0.066,0.149-0.129,0.215-0.189c0.083-0.083,0.162-0.168,0.232-0.251c0.079-0.083,0.157-0.164,0.233-0.239
			c0.089-0.079,0.181-0.139,0.276-0.184c0.093-0.044,0.194-0.067,0.305-0.067c0.123,0,0.215,0.017,0.276,0.05
			c0.065,0.029,0.102,0.07,0.108,0.126c-0.057,0.127-0.114,0.255-0.177,0.38l0.051,0.077c0.243-0.095,0.436-0.164,0.574-0.208
			s0.228-0.068,0.265-0.068c0.406,0,0.708,0.125,0.907,0.377c0.204,0.243,0.309,0.614,0.309,1.112c0,0.094-0.012,0.205-0.033,0.334
			c-0.022,0.125-0.059,0.265-0.109,0.415c-0.054,0.166-0.116,0.305-0.184,0.417c-0.06,0.108-0.12,0.189-0.174,0.24
			c0.021,0.073,0.047,0.124,0.075,0.156c0.027,0.029,0.063,0.042,0.108,0.042c0.044,0,0.089-0.014,0.131-0.042
			c0.051-0.025,0.11-0.067,0.176-0.124c0.057,0.122,0.108,0.251,0.159,0.382c0.056,0.127,0.111,0.255,0.168,0.384
			c-0.103,0.089-0.199,0.174-0.293,0.257c-0.096,0.083-0.194,0.162-0.301,0.241c-0.127,0.106-0.248,0.182-0.363,0.232
			c-0.112,0.046-0.224,0.066-0.333,0.066c-0.129,0-0.234-0.029-0.317-0.091c-0.083-0.06-0.148-0.147-0.198-0.257
			c-0.14,0.183-0.31,0.353-0.508,0.508c-0.194,0.148-0.412,0.272-0.649,0.373c-0.139,0.068-0.266,0.12-0.381,0.158
			c-0.111,0.035-0.214,0.05-0.309,0.05c-0.028,0-0.083,0.012-0.166,0.033c-0.079,0.023-0.143,0.033-0.192,0.033
			c-0.316,0-0.603-0.131-0.854-0.398c-0.257-0.267-0.383-0.564-0.383-0.89c0-0.133,0.03-0.307,0.091-0.523
			c0.061-0.222,0.092-0.354,0.092-0.392c0-0.037-0.016-0.067-0.043-0.091c-0.022-0.027-0.056-0.042-0.099-0.042
			c-0.028,0-0.096,0.042-0.2,0.125c-0.104,0.085-0.255,0.203-0.448,0.357c-0.016,0.023-0.037,0.056-0.06,0.101
			s-0.059,0.094-0.107,0.15c-0.044-0.129-0.094-0.257-0.149-0.384C59.182,32.908,59.121,32.779,59.054,32.657z M63.055,31.136
			c-0.029,0.007-0.07,0.037-0.126,0.09c-0.05,0.05-0.1,0.114-0.15,0.193c-0.078,0.127-0.165,0.265-0.265,0.415
			c-0.062,0.066-0.127,0.12-0.2,0.158c-0.066,0.033-0.144,0.058-0.232,0.076c-0.056,0.006-0.113,0.06-0.176,0.164
			c-0.06,0.101-0.119,0.247-0.181,0.442c-0.063,0.172-0.106,0.318-0.134,0.44c-0.029,0.122-0.04,0.226-0.04,0.309
			c0,0.155,0.036,0.271,0.115,0.348c0.075,0.079,0.196,0.118,0.355,0.118c0.257,0,0.488-0.071,0.699-0.208
			c0.216-0.143,0.419-0.357,0.607-0.641c0.089-0.104,0.171-0.205,0.25-0.299c0.043-0.033,0.079-0.085,0.108-0.156
			c0.026-0.079,0.056-0.172,0.083-0.284l0.148-0.475c-0.05-0.164-0.096-0.295-0.141-0.388c-0.044-0.102-0.089-0.162-0.133-0.185
			c-0.029-0.016-0.09-0.033-0.183-0.048C63.367,31.18,63.23,31.159,63.055,31.136z"/>
	</g>
	<g>
		<path fill-rule="evenodd" clip-rule="evenodd" fill="#FFFFFF" d="M13.083,49.937h-0.567c0-0.16,0.005-0.452,0.009-0.871
			c0.004-0.417,0.008-1.018,0.008-1.8c0-0.309-0.002-0.716-0.004-1.218c-0.002-0.502-0.006-1.024-0.013-1.564h0.567
			c-0.004,0.388-0.008,0.84-0.012,1.355c-0.004,0.514-0.004,0.933-0.004,1.259c0,0.827,0.002,1.466,0.006,1.919
			C13.077,49.468,13.081,49.777,13.083,49.937z"/>
		<path fill-rule="evenodd" clip-rule="evenodd" fill="#FFFFFF" d="M16.42,49.433l-0.062,0.517c-0.017,0.004-0.058,0.006-0.12,0.008
			c-0.062,0.002-0.118,0.004-0.164,0.004c-0.469,0-0.825-0.116-1.068-0.346c-0.242-0.233-0.362-0.589-0.362-1.072
			c0-0.299,0.002-0.624,0.004-0.969c0.004-0.346,0.006-0.771,0.006-1.282h-0.577v-0.479h0.608V44.85h0.5v0.964h1.234v0.479h-1.234
			c0,0.056-0.004,0.226-0.008,0.508c-0.002,0.282-0.002,0.491-0.002,0.627c0,0.114,0,0.255,0,0.421c0,0.166,0,0.361,0,0.589
			c0,0.355,0.081,0.608,0.24,0.767c0.162,0.154,0.41,0.231,0.745,0.231c0.042,0,0.089,0,0.147,0
			C16.366,49.435,16.404,49.433,16.42,49.433z"/>
		<path fill-rule="evenodd" clip-rule="evenodd" fill="#FFFFFF" d="M19.687,47.618c0,0.672,0,1.22-0.004,1.646
			c-0.002,0.423-0.002,0.652-0.002,0.684c-0.023,0.003-0.13,0.011-0.321,0.029c-0.19,0.017-0.437,0.029-0.736,0.029
			c-0.191,0-0.379-0.021-0.57-0.063c-0.191-0.039-0.356-0.099-0.492-0.174c-0.186-0.101-0.334-0.238-0.45-0.412
			c-0.112-0.174-0.168-0.382-0.168-0.627c0-0.259,0.067-0.479,0.201-0.668c0.135-0.189,0.322-0.344,0.562-0.46
			c0.149-0.073,0.348-0.139,0.596-0.197c0.25-0.06,0.534-0.103,0.854-0.133c-0.013-0.212-0.058-0.386-0.136-0.521
			c-0.075-0.135-0.187-0.239-0.333-0.309c-0.102-0.05-0.213-0.083-0.338-0.104c-0.124-0.02-0.269-0.031-0.435-0.031
			c-0.103,0-0.19,0.002-0.264,0.007c-0.071,0.006-0.17,0.012-0.294,0.02l0.055-0.541c0.036-0.004,0.102-0.008,0.206-0.012
			c0.103-0.008,0.242-0.014,0.417-0.014c0.274,0,0.514,0.035,0.725,0.103c0.215,0.065,0.391,0.172,0.532,0.322
			c0.13,0.141,0.23,0.315,0.295,0.525C19.654,46.922,19.687,47.222,19.687,47.618z M19.158,48.599c0-0.093,0-0.208,0-0.35
			c0-0.143,0-0.305-0.002-0.49c-0.1,0.005-0.279,0.031-0.531,0.073c-0.253,0.042-0.466,0.101-0.638,0.178
			c-0.128,0.058-0.243,0.143-0.343,0.257c-0.101,0.114-0.15,0.257-0.15,0.425c0,0.184,0.043,0.336,0.128,0.45
			c0.085,0.108,0.201,0.197,0.348,0.257c0.112,0.044,0.236,0.078,0.373,0.101c0.137,0.02,0.282,0.029,0.433,0.029
			c0.045,0,0.104-0.002,0.17-0.004c0.066-0.003,0.136-0.005,0.21-0.007c0-0.021,0-0.11,0-0.271
			C19.158,49.085,19.158,48.869,19.158,48.599z"/>
		<path fill-rule="evenodd" clip-rule="evenodd" fill="#FFFFFF" d="M21.5,49.937h-0.544c0.002-0.031,0.004-0.429,0.006-1.188
			c0.004-0.763,0.006-1.396,0.008-1.9c0-0.323-0.002-0.728-0.004-1.221c0-0.496-0.004-1.048-0.01-1.663H21.5
			c-0.004,0.417-0.009,0.902-0.011,1.454c-0.002,0.55-0.004,1.012-0.004,1.391c0,0.821,0.002,1.541,0.006,2.159
			C21.496,49.585,21.5,49.908,21.5,49.937z"/>
		<path fill-rule="evenodd" clip-rule="evenodd" fill="#FFFFFF" d="M23.413,45.026h-0.606v-0.703h0.606V45.026z M23.382,49.937
			h-0.545c0.002-0.042,0.004-0.309,0.006-0.8c0.005-0.494,0.007-0.9,0.007-1.22c0-0.28,0-0.585-0.002-0.921
			c0-0.334-0.005-0.73-0.011-1.182h0.545c-0.006,0.394-0.011,0.761-0.015,1.101c-0.003,0.34-0.005,0.643-0.005,0.91
			c0,0.633,0.005,1.141,0.009,1.524C23.378,49.73,23.382,49.927,23.382,49.937z"/>
		<path fill-rule="evenodd" clip-rule="evenodd" fill="#FFFFFF" d="M27.072,47.618c0,0.672-0.002,1.22-0.004,1.646
			c-0.002,0.423-0.004,0.652-0.004,0.684c-0.021,0.003-0.128,0.011-0.319,0.029c-0.191,0.017-0.438,0.029-0.738,0.029
			c-0.19,0-0.378-0.021-0.568-0.063c-0.19-0.039-0.356-0.099-0.494-0.174c-0.183-0.101-0.332-0.238-0.448-0.412
			c-0.112-0.174-0.168-0.382-0.168-0.627c0-0.259,0.065-0.479,0.199-0.668c0.136-0.189,0.322-0.344,0.56-0.46
			c0.151-0.073,0.351-0.139,0.597-0.197c0.253-0.06,0.536-0.103,0.857-0.133c-0.016-0.212-0.06-0.386-0.137-0.521
			c-0.074-0.135-0.186-0.239-0.333-0.309c-0.102-0.05-0.213-0.083-0.337-0.104c-0.125-0.02-0.271-0.031-0.436-0.031
			c-0.104,0-0.19,0.002-0.266,0.007c-0.069,0.006-0.169,0.012-0.293,0.02l0.056-0.541c0.035-0.004,0.102-0.008,0.203-0.012
			c0.104-0.008,0.245-0.014,0.421-0.014c0.271,0,0.513,0.035,0.724,0.103c0.212,0.065,0.391,0.172,0.529,0.322
			c0.133,0.141,0.232,0.315,0.299,0.525C27.039,46.922,27.072,47.222,27.072,47.618z M26.545,48.599c0-0.093,0-0.208,0-0.35
			c0-0.143,0-0.305-0.002-0.49c-0.103,0.005-0.28,0.031-0.533,0.073c-0.252,0.042-0.465,0.101-0.637,0.178
			c-0.127,0.058-0.241,0.143-0.346,0.257c-0.096,0.114-0.146,0.257-0.146,0.425c0,0.184,0.043,0.336,0.125,0.45
			c0.088,0.108,0.204,0.197,0.351,0.257c0.112,0.044,0.236,0.078,0.371,0.101c0.138,0.02,0.283,0.029,0.435,0.029
			c0.045,0,0.103-0.002,0.17-0.004c0.066-0.003,0.136-0.005,0.211-0.007c0-0.021,0-0.11,0-0.271
			C26.545,49.085,26.545,48.869,26.545,48.599z"/>
		<path fill-rule="evenodd" clip-rule="evenodd" fill="#FFFFFF" d="M31.162,49.937h-0.544c0.002-0.073,0.005-0.327,0.007-0.753
			c0.007-0.427,0.009-0.689,0.009-0.79c0-0.141-0.002-0.348-0.004-0.624c0-0.278,0-0.479-0.005-0.606
			c-0.007-0.313-0.056-0.537-0.152-0.672c-0.093-0.135-0.257-0.203-0.488-0.203c-0.14,0-0.315,0.046-0.52,0.147
			c-0.207,0.096-0.417,0.22-0.629,0.375c0,0.029,0,0.189-0.002,0.484c-0.002,0.294-0.004,0.56-0.004,0.802
			c0,0.314,0.002,0.697,0.006,1.141c0.009,0.446,0.013,0.68,0.013,0.699h-0.546c0-0.018,0.004-0.184,0.008-0.497
			c0.004-0.314,0.006-0.782,0.006-1.402c0-0.284-0.002-0.618-0.004-1c0-0.384-0.002-0.792-0.01-1.224h0.538l-0.004,0.469l0.004,0.01
			c0.324-0.218,0.59-0.369,0.804-0.454c0.215-0.087,0.395-0.131,0.538-0.131c0.293,0,0.53,0.11,0.707,0.333
			c0.179,0.218,0.268,0.516,0.268,0.896c0,0.342-0.002,0.637-0.006,0.888c-0.004,0.247-0.004,0.446-0.004,0.603
			c0,0.247,0.003,0.556,0.006,0.929C31.158,49.725,31.162,49.919,31.162,49.937z"/>
		<path fill-rule="evenodd" clip-rule="evenodd" fill="#FFFFFF" d="M37.9,49.612l-0.431,0.421c-0.051-0.066-0.23-0.299-0.538-0.707
			c-0.308-0.409-0.782-1.047-1.422-1.914l0.002-0.039c0.087-0.027,0.203-0.085,0.348-0.174c0.145-0.093,0.267-0.191,0.367-0.297
			c0.085-0.093,0.157-0.207,0.22-0.342c0.065-0.137,0.097-0.319,0.097-0.547c0-0.208-0.047-0.388-0.143-0.539
			c-0.091-0.151-0.217-0.263-0.38-0.332c-0.133-0.06-0.274-0.095-0.421-0.106c-0.147-0.014-0.283-0.021-0.408-0.021
			c-0.083,0-0.145,0-0.188,0.005c-0.043,0-0.077,0-0.098,0c-0.004,0.516-0.008,0.97-0.01,1.364c0,0.394,0,0.672,0,0.836
			c0,0.371,0.002,0.875,0.004,1.516c0.004,0.637,0.006,1.039,0.01,1.199H34.34c0.002-0.16,0.007-0.475,0.011-0.942
			c0.004-0.471,0.008-1.055,0.008-1.753c0-0.135,0-0.388,0-0.753c0-0.367-0.008-1.035-0.019-2.004c0.022,0,0.138-0.002,0.346-0.008
			c0.208-0.008,0.397-0.01,0.572-0.01c0.198,0,0.393,0.016,0.581,0.042c0.188,0.027,0.373,0.085,0.553,0.174
			c0.228,0.114,0.408,0.284,0.54,0.506c0.134,0.22,0.201,0.479,0.201,0.776c0,0.388-0.102,0.709-0.304,0.968
			c-0.199,0.255-0.389,0.444-0.57,0.57v0.019c0.315,0.437,0.661,0.885,1.035,1.346C37.67,49.329,37.873,49.578,37.9,49.612z"/>
		<path fill-rule="evenodd" clip-rule="evenodd" fill="#FFFFFF" d="M41.329,47.728h-2.491c0.002,0.288,0.054,0.552,0.155,0.792
			c0.102,0.239,0.255,0.438,0.465,0.597c0.133,0.099,0.284,0.176,0.454,0.228c0.17,0.048,0.375,0.071,0.615,0.071
			c0.13,0,0.248-0.004,0.358-0.012c0.11-0.006,0.178-0.013,0.203-0.015l-0.062,0.541c-0.02,0.004-0.079,0.008-0.183,0.012
			c-0.103,0.009-0.226,0.013-0.366,0.013c-0.369,0-0.688-0.056-0.962-0.166c-0.27-0.116-0.494-0.27-0.668-0.469
			c-0.151-0.166-0.277-0.376-0.382-0.635c-0.104-0.257-0.156-0.544-0.156-0.859c0-0.311,0.04-0.591,0.118-0.84
			s0.194-0.481,0.352-0.695c0.134-0.186,0.301-0.328,0.5-0.429c0.203-0.101,0.412-0.153,0.629-0.153
			c0.213,0,0.402,0.041,0.568,0.116c0.165,0.075,0.31,0.191,0.431,0.348c0.136,0.174,0.24,0.386,0.31,0.643
			C41.289,47.067,41.326,47.371,41.329,47.728z M40.796,47.27c-0.038-0.338-0.137-0.601-0.294-0.792
			c-0.157-0.191-0.364-0.288-0.621-0.288s-0.471,0.099-0.643,0.292c-0.172,0.193-0.292,0.456-0.359,0.788H40.796z"/>
		<path fill-rule="evenodd" clip-rule="evenodd" fill="#FFFFFF" d="M44.136,48.746c0,0.201-0.043,0.378-0.125,0.539
			c-0.083,0.156-0.19,0.282-0.325,0.382c-0.141,0.101-0.306,0.18-0.498,0.236c-0.191,0.052-0.403,0.077-0.636,0.077
			c-0.111,0-0.228-0.006-0.351-0.021c-0.119-0.009-0.188-0.017-0.204-0.021l-0.021-0.533c0.021,0.004,0.101,0.012,0.239,0.025
			c0.14,0.011,0.278,0.015,0.416,0.015c0.08,0,0.185-0.008,0.311-0.025c0.127-0.016,0.229-0.044,0.312-0.089
			c0.116-0.06,0.201-0.131,0.257-0.218c0.054-0.087,0.083-0.193,0.083-0.315c0-0.11-0.025-0.201-0.074-0.27
			c-0.048-0.07-0.114-0.137-0.199-0.203c-0.092-0.071-0.219-0.15-0.379-0.231c-0.158-0.085-0.292-0.164-0.399-0.24
			c-0.155-0.112-0.272-0.245-0.356-0.396c-0.081-0.153-0.119-0.329-0.119-0.529s0.045-0.38,0.137-0.542
			c0.095-0.161,0.219-0.29,0.377-0.386c0.134-0.087,0.286-0.143,0.446-0.172c0.166-0.029,0.328-0.044,0.48-0.044
			c0.141,0,0.255,0.002,0.344,0.008c0.091,0.003,0.141,0.009,0.154,0.009l0.041,0.539c-0.018,0-0.09-0.004-0.217-0.016
			c-0.123-0.012-0.261-0.016-0.409-0.016c-0.106,0-0.206,0.012-0.302,0.031c-0.096,0.023-0.177,0.054-0.243,0.097
			c-0.099,0.06-0.17,0.129-0.212,0.214c-0.043,0.085-0.062,0.167-0.062,0.246c0,0.108,0.028,0.203,0.089,0.28
			c0.061,0.079,0.13,0.145,0.211,0.199c0.093,0.067,0.222,0.143,0.385,0.231c0.164,0.093,0.281,0.164,0.354,0.218
			c0.161,0.12,0.283,0.253,0.365,0.4C44.091,48.371,44.136,48.544,44.136,48.746z"/>
		<path fill-rule="evenodd" clip-rule="evenodd" fill="#FFFFFF" d="M47.006,49.433l-0.062,0.517
			c-0.016,0.004-0.058,0.006-0.122,0.008c-0.06,0.002-0.115,0.004-0.161,0.004c-0.47,0-0.825-0.116-1.067-0.346
			c-0.242-0.233-0.362-0.589-0.362-1.072c0-0.299,0.002-0.624,0.004-0.969c0.004-0.346,0.006-0.771,0.006-1.282h-0.577v-0.479h0.608
			V44.85h0.502v0.964h1.232v0.479h-1.232c0,0.056-0.005,0.226-0.01,0.508c-0.002,0.282-0.004,0.491-0.004,0.627
			c0,0.114,0,0.255,0,0.421c0,0.166,0,0.361,0,0.589c0,0.355,0.083,0.608,0.242,0.767c0.161,0.154,0.41,0.231,0.745,0.231
			c0.042,0,0.089,0,0.147,0C46.952,49.435,46.989,49.433,47.006,49.433z"/>
		<path fill-rule="evenodd" clip-rule="evenodd" fill="#FFFFFF" d="M50.272,47.618c0,0.672-0.002,1.22-0.004,1.646
			c-0.002,0.423-0.004,0.652-0.004,0.684c-0.021,0.003-0.129,0.011-0.319,0.029c-0.19,0.017-0.437,0.029-0.736,0.029
			c-0.191,0-0.379-0.021-0.57-0.063c-0.192-0.039-0.355-0.099-0.492-0.174c-0.184-0.101-0.333-0.238-0.449-0.412
			c-0.111-0.174-0.167-0.382-0.167-0.627c0-0.259,0.065-0.479,0.198-0.668c0.136-0.189,0.323-0.344,0.562-0.46
			c0.149-0.073,0.348-0.139,0.595-0.197c0.252-0.06,0.536-0.103,0.856-0.133c-0.014-0.212-0.06-0.386-0.136-0.521
			c-0.075-0.135-0.188-0.239-0.334-0.309c-0.101-0.05-0.213-0.083-0.337-0.104c-0.125-0.02-0.27-0.031-0.435-0.031
			c-0.104,0-0.19,0.002-0.266,0.007c-0.069,0.006-0.17,0.012-0.294,0.02l0.057-0.541c0.034-0.004,0.102-0.008,0.202-0.012
			c0.104-0.008,0.244-0.014,0.42-0.014c0.273,0,0.514,0.035,0.726,0.103c0.212,0.065,0.39,0.172,0.529,0.322
			c0.133,0.141,0.231,0.315,0.298,0.525C50.24,46.922,50.272,47.222,50.272,47.618z M49.744,48.599c0-0.093,0-0.208,0-0.35
			c0-0.143,0-0.305-0.002-0.49c-0.103,0.005-0.278,0.031-0.531,0.073c-0.254,0.042-0.466,0.101-0.638,0.178
			c-0.129,0.058-0.242,0.143-0.346,0.257c-0.098,0.114-0.146,0.257-0.146,0.425c0,0.184,0.042,0.336,0.127,0.45
			c0.085,0.108,0.201,0.197,0.348,0.257c0.112,0.044,0.236,0.078,0.371,0.101c0.139,0.02,0.284,0.029,0.435,0.029
			c0.046,0,0.104-0.002,0.17-0.004c0.066-0.003,0.137-0.005,0.211-0.007c0-0.021,0-0.11,0-0.271
			C49.744,49.085,49.744,48.869,49.744,48.599z"/>
		<path fill-rule="evenodd" clip-rule="evenodd" fill="#FFFFFF" d="M54.342,49.937h-0.525v-0.471l-0.004-0.004
			c-0.162,0.124-0.363,0.255-0.604,0.386c-0.238,0.131-0.475,0.197-0.707,0.197c-0.316,0-0.563-0.112-0.742-0.336
			c-0.181-0.22-0.27-0.533-0.27-0.935c0-0.218,0-0.477,0.002-0.774c0.007-0.301,0.007-0.521,0.009-0.657
			c0-0.247-0.004-0.552-0.011-0.911c-0.004-0.365-0.008-0.57-0.008-0.618h0.545c0,0.037-0.002,0.232-0.007,0.589
			c-0.004,0.355-0.006,0.639-0.006,0.85c0,0.189,0,0.423,0.002,0.701c0.004,0.28,0.004,0.479,0.004,0.595
			c0.005,0.321,0.052,0.556,0.141,0.707c0.092,0.148,0.236,0.222,0.435,0.222c0.206,0,0.429-0.066,0.673-0.193
			c0.246-0.131,0.425-0.247,0.541-0.344c0-0.033,0-0.184,0.004-0.448c0.002-0.269,0.004-0.604,0.004-1.002
			c0-0.286-0.004-0.625-0.013-1.021c-0.004-0.402-0.006-0.618-0.006-0.655h0.544c0,0.048-0.002,0.201-0.006,0.461
			c-0.004,0.259-0.006,0.699-0.006,1.325c0,0.35,0,0.659,0.002,0.923S54.338,49.259,54.342,49.937z"/>
		<path fill-rule="evenodd" clip-rule="evenodd" fill="#FFFFFF" d="M57.62,46.297c-0.127,0.035-0.322,0.11-0.583,0.224
			c-0.259,0.114-0.559,0.266-0.897,0.458c0,0.029-0.003,0.164-0.005,0.409c-0.002,0.242-0.004,0.467-0.004,0.676
			c0,0.32,0.004,0.703,0.009,1.141c0.006,0.44,0.008,0.686,0.008,0.732h-0.543c0-0.044,0.002-0.195,0.006-0.454
			c0.005-0.259,0.007-0.701,0.007-1.325c0-0.253,0-0.604-0.004-1.06c-0.003-0.454-0.005-0.88-0.009-1.284h0.535v0.622l0.002,0.003
			c0.261-0.174,0.516-0.324,0.768-0.454c0.254-0.125,0.454-0.212,0.608-0.261L57.62,46.297z"/>
		<path fill-rule="evenodd" clip-rule="evenodd" fill="#FFFFFF" d="M60.713,47.618c0,0.672,0,1.22-0.002,1.646
			c-0.002,0.423-0.005,0.652-0.005,0.684c-0.021,0.003-0.129,0.011-0.32,0.029c-0.19,0.017-0.435,0.029-0.735,0.029
			c-0.189,0-0.378-0.021-0.568-0.063c-0.192-0.039-0.355-0.099-0.492-0.174c-0.188-0.101-0.336-0.238-0.45-0.412
			c-0.113-0.174-0.17-0.382-0.17-0.627c0-0.259,0.07-0.479,0.201-0.668c0.135-0.189,0.323-0.344,0.562-0.46
			c0.151-0.073,0.35-0.139,0.596-0.197c0.251-0.06,0.536-0.103,0.855-0.133c-0.012-0.212-0.059-0.386-0.135-0.521
			c-0.074-0.135-0.187-0.239-0.333-0.309c-0.102-0.05-0.216-0.083-0.34-0.104c-0.122-0.02-0.267-0.031-0.433-0.031
			c-0.104,0-0.192,0.002-0.267,0.007c-0.07,0.006-0.168,0.012-0.291,0.02l0.056-0.541c0.032-0.004,0.101-0.008,0.202-0.012
			c0.103-0.008,0.244-0.014,0.42-0.014c0.271,0,0.514,0.035,0.725,0.103c0.214,0.065,0.392,0.172,0.53,0.322
			c0.13,0.141,0.229,0.315,0.296,0.525C60.681,46.922,60.713,47.222,60.713,47.618z M60.187,48.599c0-0.093,0-0.208,0-0.35
			c0-0.143-0.001-0.305-0.003-0.49c-0.099,0.005-0.277,0.031-0.529,0.073c-0.253,0.042-0.467,0.101-0.638,0.178
			c-0.129,0.058-0.245,0.143-0.346,0.257c-0.099,0.114-0.147,0.257-0.147,0.425c0,0.184,0.041,0.336,0.126,0.45
			c0.085,0.108,0.201,0.197,0.35,0.257c0.112,0.044,0.236,0.078,0.371,0.101c0.139,0.02,0.284,0.029,0.435,0.029
			c0.045,0,0.102-0.002,0.17-0.004c0.065-0.003,0.137-0.005,0.209-0.007c0-0.021,0-0.11,0-0.271
			C60.186,49.085,60.187,48.869,60.187,48.599z"/>
		<path fill-rule="evenodd" clip-rule="evenodd" fill="#FFFFFF" d="M64.807,49.937h-0.545c0.002-0.073,0.004-0.327,0.006-0.753
			c0.004-0.427,0.006-0.689,0.006-0.79c0-0.141,0-0.348-0.002-0.624c0-0.278-0.002-0.479-0.004-0.606
			c-0.006-0.313-0.056-0.537-0.15-0.672c-0.096-0.135-0.257-0.203-0.489-0.203c-0.141,0-0.314,0.046-0.521,0.147
			c-0.207,0.096-0.417,0.22-0.627,0.375c0,0.029-0.002,0.189-0.004,0.484c-0.002,0.294-0.002,0.56-0.002,0.802
			c0,0.314,0.002,0.697,0.006,1.141c0.006,0.446,0.01,0.68,0.01,0.699h-0.545c0-0.018,0.003-0.184,0.007-0.497
			c0.005-0.314,0.009-0.782,0.009-1.402c0-0.284-0.002-0.618-0.004-1c0-0.384-0.005-0.792-0.012-1.224h0.539l-0.004,0.469
			l0.004,0.01c0.32-0.218,0.588-0.369,0.801-0.454c0.218-0.087,0.398-0.131,0.538-0.131c0.295,0,0.53,0.11,0.708,0.333
			c0.178,0.218,0.27,0.516,0.27,0.896c0,0.342-0.005,0.637-0.009,0.888c-0.002,0.247-0.004,0.446-0.004,0.603
			c0,0.247,0.004,0.556,0.008,0.929C64.802,49.725,64.807,49.919,64.807,49.937z"/>
		<path fill-rule="evenodd" clip-rule="evenodd" fill="#FFFFFF" d="M67.942,49.433L67.88,49.95
			c-0.017,0.004-0.057,0.006-0.121,0.008c-0.062,0.002-0.116,0.004-0.162,0.004c-0.471,0-0.826-0.116-1.068-0.346
			c-0.241-0.233-0.362-0.589-0.362-1.072c0-0.299,0.002-0.624,0.004-0.969c0.004-0.346,0.009-0.771,0.009-1.282h-0.581v-0.479h0.609
			V44.85h0.501v0.964h1.234v0.479h-1.234c0,0.056-0.002,0.226-0.009,0.508c0,0.282-0.001,0.491-0.001,0.627c0,0.114,0,0.255,0,0.421
			c0,0.166,0,0.361,0,0.589c0,0.355,0.08,0.608,0.242,0.767c0.159,0.154,0.407,0.231,0.743,0.231c0.041,0,0.091,0,0.146,0
			C67.889,49.435,67.925,49.433,67.942,49.433z"/>
	</g>
	<g>
		<path fill-rule="evenodd" clip-rule="evenodd" fill="#FFFFFF" d="M12.38,52.922v0.485h1.47v0.419h0.514v-0.419h2.424v0.419h0.516
			v-0.419h1.195v-0.485h-1.195v-0.479h-0.516v0.479h-2.424v-0.479H13.85v0.479H12.38z M16.125,53.919h-0.189
			c-0.109,0.008-0.214,0.016-0.327,0.016c0-0.099,0.008-0.199,0.008-0.303h-0.459c0,0.104-0.008,0.212-0.014,0.328
			c-0.884,0.065-1.706,0.197-2.466,0.378v0.419c0.836-0.172,1.643-0.288,2.417-0.346c-0.029,0.222-0.069,0.452-0.12,0.699h-2.483
			v0.444h5.895V55.11h-0.439c0.077-0.247,0.12-0.435,0.12-0.583c-0.029-0.182-0.147-0.338-0.355-0.454
			c-0.251-0.096-0.731-0.154-1.435-0.154H16.125z M15.45,55.11c0.055-0.237,0.091-0.477,0.118-0.724
			c0.188-0.006,0.376-0.018,0.557-0.018c0.444,0,0.842,0.012,1.189,0.027c0.189,0.023,0.286,0.081,0.286,0.164
			c-0.012,0.116-0.062,0.303-0.145,0.55H15.45z M13.034,55.943v1.703h0.516v-0.255h1.853v0.518h-2.584v0.446h0.348v0.518H12.38v0.51
			h3.022v0.585h0.513v-0.585h2.666v-0.51h-2.666v-0.518h2.369v-0.446h-2.369v-0.518h2.228v-0.452h-0.215
			c0.07-0.199,0.111-0.355,0.111-0.479c-0.013-0.396-0.223-0.601-0.624-0.608h-0.233c-1.167,0-2.38,0.108-3.632,0.303v-0.212H13.034
			z M13.549,56.939v-0.363c1.343-0.205,2.631-0.313,3.865-0.313c0.103,0,0.158,0.058,0.158,0.164c0,0.099-0.049,0.272-0.132,0.512
			H13.549z M15.402,58.872h-1.715v-0.518h1.715V58.872z"/>
		<path fill-rule="evenodd" clip-rule="evenodd" fill="#FFFFFF" d="M19.368,52.824v0.551h2.828v0.477h-2.583v0.518h5.604v-0.518
			h-2.508v-0.477h2.778v-0.551h-2.778v-0.38h-0.513v0.38H19.368z M19.828,54.724v1.834h0.521v-0.263H20.9
			c0.056,0.18,0.14,0.379,0.235,0.583h-1.879v0.542h1.121c-0.062,0.242-0.132,0.479-0.203,0.709
			c-0.271,0.075-0.578,0.156-0.918,0.257l0.029,0.452c0.25-0.075,0.495-0.139,0.716-0.207c-0.154,0.413-0.328,0.823-0.521,1.234
			L19.967,60c0.222-0.504,0.425-1.004,0.604-1.516c0.502-0.122,0.857-0.187,1.053-0.187c0.139,0,0.214,0.008,0.243,0.015
			c0.042,0.018,0.063,0.076,0.063,0.172c0,0.379-0.015,0.667-0.029,0.865c-0.027,0.081-0.132,0.131-0.306,0.131
			c-0.375,0-0.729-0.025-1.058-0.067l0.029,0.454c0.321,0.042,0.668,0.068,1.059,0.068c0.444,0,0.689-0.116,0.73-0.331
			c0.042-0.166,0.062-0.512,0.062-1.052c0-0.297-0.027-0.471-0.068-0.527c-0.056-0.116-0.238-0.182-0.558-0.182l-0.228,0.018
			c-0.153,0-0.427,0.041-0.828,0.131c0.054-0.182,0.103-0.371,0.159-0.57h4.676v-0.542h-1.406c0.153-0.195,0.292-0.394,0.432-0.583
			h0.593v-0.512h-0.203c0.076-0.295,0.118-0.508,0.118-0.641c0-0.295-0.154-0.45-0.46-0.45h-0.251c-1.252,0-2.595,0.079-4.044,0.228
			v-0.197H19.828z M23.536,56.879h-1.815c-0.097-0.188-0.18-0.386-0.25-0.583h2.484C23.822,56.493,23.684,56.684,23.536,56.879z
			 M20.349,55.784v-0.475c1.615-0.148,2.986-0.231,4.101-0.231c0.091,0,0.139,0.05,0.139,0.131c0,0.1-0.042,0.297-0.118,0.575
			H20.349z M22.793,57.777v2.157h0.516v-0.23h2.178V59.16h-0.195c0.112-0.248,0.168-0.51,0.168-0.79c0-0.272-0.02-0.444-0.056-0.52
			c-0.062-0.091-0.23-0.139-0.5-0.139h-0.097c-0.342,0.016-0.843,0.114-1.497,0.305v-0.239H22.793z M23.309,59.16v-0.667
			c0.625-0.214,1.079-0.33,1.365-0.33c0.109,0,0.194,0.008,0.241,0.017c0.029,0.033,0.044,0.041,0.044,0.041l0.014,0.149
			c0,0.28-0.064,0.542-0.176,0.79H23.309z"/>
		<path fill-rule="evenodd" clip-rule="evenodd" fill="#FFFFFF" d="M26.844,52.536l-0.431,0.131
			c0.116,0.419,0.298,0.888,0.542,1.414l0.348-0.154c-0.146,0.518-0.306,0.995-0.488,1.44l0.495,0.097
			c0.321-0.854,0.592-1.85,0.816-2.995l-0.489-0.025c-0.088,0.462-0.189,0.908-0.298,1.334C27.13,53.351,26.969,52.94,26.844,52.536
			z M28.78,52.569c-0.168,0.394-0.371,0.782-0.598,1.161l0.403,0.222c0.22-0.346,0.431-0.734,0.625-1.153L28.78,52.569z
			 M28.256,53.919l-0.402,0.23c0.228,0.444,0.481,0.873,0.758,1.282l0.439-0.222C28.753,54.782,28.488,54.346,28.256,53.919z
			 M29.92,52.569L29.482,52.7c0.099,0.369,0.244,0.79,0.438,1.251l0.406-0.191C30.15,53.351,30.02,52.948,29.92,52.569z
			 M30.68,52.443c-0.201,1.021-0.466,1.895-0.787,2.634l0.486,0.099c0.307-0.774,0.572-1.678,0.786-2.708L30.68,52.443z
			 M31.906,52.635c-0.168,0.354-0.371,0.708-0.599,1.062l0.401,0.222c0.224-0.313,0.433-0.668,0.628-1.062L31.906,52.635z
			 M31.307,53.826l-0.382,0.222c0.257,0.446,0.536,0.873,0.842,1.286l0.437-0.224C31.862,54.684,31.564,54.255,31.307,53.826z
			 M26.385,55.464v1.895h0.488v-1.037c1.454-0.396,2.588-0.603,3.395-0.603c0.544,0,0.999,0.033,1.373,0.101
			c0.236,0.048,0.354,0.181,0.368,0.386c0,0.148-0.103,0.486-0.312,1.004c-0.072-0.083-0.154-0.146-0.246-0.18
			c-0.229-0.1-0.57-0.15-1.016-0.15h-0.342c-0.277,0.01-0.583,0.035-0.904,0.083c0.125-0.222,0.265-0.461,0.404-0.724l-0.466-0.23
			c-0.209,0.386-0.413,0.74-0.606,1.07c-0.619,0.131-1.301,0.323-2.054,0.568l0.021,0.518c0.592-0.197,1.143-0.354,1.644-0.475
			c-0.042,0.065-0.091,0.129-0.139,0.195c-0.391,0.568-0.851,1.153-1.363,1.763l0.487,0.321c0.618-0.774,1.106-1.45,1.469-2.016
			c0.082-0.133,0.174-0.272,0.271-0.421c0.472-0.091,0.898-0.139,1.259-0.139c0.585,0,0.948,0.023,1.086,0.063
			c0.138,0.068,0.209,0.331,0.209,0.792c0,0.601-0.015,0.929-0.036,0.987c-0.036,0.101-0.174,0.148-0.424,0.148
			c-0.599,0-1.337-0.033-2.199-0.09l0.047,0.51c0.885,0.065,1.601,0.098,2.151,0.098h0.203c0.18,0,0.348-0.041,0.493-0.124
			c0.141-0.081,0.224-0.27,0.253-0.575c0.021-0.246,0.033-0.568,0.033-0.954c0-0.363-0.05-0.651-0.133-0.855l0.378,0.063
			c0.235-0.508,0.356-0.961,0.356-1.348c-0.017-0.361-0.231-0.61-0.642-0.722c-0.321-0.076-0.827-0.118-1.517-0.118h-0.475
			c-0.333,0.01-0.757,0.068-1.287,0.165c-0.493,0.09-1.073,0.224-1.739,0.388v-0.355H26.385z"/>
		<path fill-rule="evenodd" clip-rule="evenodd" fill="#FFFFFF" d="M36.088,52.501v0.52h-2.638v0.51h0.974
			c0.015,0.166,0.042,0.32,0.082,0.479c0.021,0.097,0.05,0.197,0.085,0.295h-1.331v0.518h6.178v-0.518h-1.296
			c0.082-0.249,0.153-0.502,0.214-0.774h0.807v-0.51h-2.554v-0.52H36.088z M35.114,54.305c-0.056-0.156-0.092-0.305-0.112-0.437
			c-0.027-0.116-0.042-0.222-0.056-0.338h2.882c-0.063,0.255-0.139,0.51-0.228,0.774H35.114z M33.889,55.11V58h0.516v-0.222H39
			v-0.51h-0.177c0.099-0.558,0.148-1.07,0.148-1.516c0-0.212-0.049-0.376-0.148-0.492c-0.096-0.116-0.262-0.182-0.498-0.182h-0.237
			c-0.767,0-1.992,0.091-3.683,0.265V55.11H33.889z M34.405,57.268v-0.55h3.982c-0.021,0.172-0.049,0.351-0.079,0.55H34.405z
			 M34.405,56.206v-0.412c1.622-0.172,2.916-0.263,3.891-0.263c0.103,0,0.159,0.066,0.159,0.188c0,0.148-0.007,0.313-0.02,0.487
			H34.405z M33.674,58.196c-0.098,0.544-0.23,1.087-0.413,1.638l0.489,0.133c0.174-0.562,0.313-1.12,0.409-1.703L33.674,58.196z
			 M34.843,58.164c-0.112,0.446-0.168,0.716-0.168,0.832c0.007,0.288,0.085,0.518,0.23,0.684c0.146,0.163,0.39,0.255,0.724,0.255
			c0.684,0,1.539-0.083,2.584-0.23l0.054-0.479c-1.042,0.164-1.892,0.255-2.555,0.255c-0.348,0-0.521-0.172-0.521-0.51
			c0-0.099,0.056-0.346,0.168-0.742L34.843,58.164z M36.582,58.034c-0.104,0-0.187,0.039-0.257,0.112
			c-0.047,0.083-0.071,0.176-0.071,0.272c0,0.091,0.029,0.174,0.085,0.257c0.062,0.089,0.147,0.129,0.243,0.129
			c0.07,0,0.14-0.033,0.211-0.097c0.073-0.075,0.118-0.174,0.118-0.29c0-0.114-0.036-0.212-0.106-0.295
			C36.737,58.067,36.66,58.034,36.582,58.034z M38.511,57.966l-0.431,0.263c0.286,0.593,0.598,1.17,0.945,1.738l0.439-0.23
			C39.103,59.15,38.788,58.56,38.511,57.966z"/>
		<path fill-rule="evenodd" clip-rule="evenodd" fill="#FFFFFF" d="M40.391,54.305v0.608h2.143c-0.653,1.68-1.386,3.258-2.199,4.733
			l0.487,0.288c0.641-1.17,1.204-2.281,1.693-3.341c0.209-0.479,0.424-1.039,0.66-1.68h0.138c0.76,1.778,1.595,3.449,2.514,5.021
			l0.516-0.323c-1.002-1.711-1.81-3.273-2.429-4.698h2.29v-0.608h-2.812c0.166-0.495,0.348-1.029,0.527-1.605l-0.515-0.199
			c-0.203,0.61-0.41,1.209-0.633,1.804H40.391z"/>
		<path fill-rule="evenodd" clip-rule="evenodd" fill="#FFFFFF" d="M50.555,52.635c-0.577,0.18-1.108,0.295-1.582,0.354
			c-0.401,0.073-0.967,0.114-1.677,0.131v0.577c0.653-0.018,1.211-0.05,1.685-0.116v1.112h-1.823v0.573h0.627
			c-0.155,1.754-0.341,3.275-0.57,4.567l0.485,0.101c0.238-1.342,0.439-2.897,0.607-4.668h0.674v0.931
			c-0.069-0.076-0.146-0.157-0.215-0.255l-0.301,0.55c0.153,0.199,0.327,0.403,0.516,0.608v2.833h0.514v-2.256
			c0.32,0.346,0.67,0.714,1.061,1.093l0.326-0.543c-0.467-0.444-0.927-0.921-1.387-1.44v-1.522h1.311v-0.573h-1.311V53.49
			c0.35-0.068,0.739-0.172,1.172-0.313L50.555,52.635z M51.208,53.152v5.465h0.515v-5.465H51.208z M52.648,52.536v6.689
			c0,0.099-0.111,0.156-0.327,0.156c-0.342,0-0.801-0.041-1.385-0.124l0.057,0.51c0.612,0.083,1.071,0.131,1.385,0.131h0.168
			c0.214,0,0.374-0.065,0.486-0.187c0.085-0.116,0.132-0.282,0.132-0.487v-6.689H52.648z"/>
		<path fill-rule="evenodd" clip-rule="evenodd" fill="#FFFFFF" d="M55.53,53.276h1.768v-0.477H55.53v-0.388h-0.46v1.17
			l-0.187-0.108c-0.265,0.527-0.571,1.045-0.927,1.572l0.46,0.29c0.141-0.216,0.279-0.437,0.418-0.676
			c0.174,0.172,0.362,0.346,0.562,0.51c-0.418,0.28-0.863,0.562-1.335,0.84l0.25,0.386c0.334-0.172,0.641-0.344,0.926-0.518
			c-0.377,0.608-0.793,1.242-1.252,1.9l0.459,0.32c0.18-0.247,0.36-0.51,0.543-0.79c-0.056,0.88-0.083,1.464-0.083,1.753
			c0.006,0.28,0.089,0.502,0.257,0.659c0.167,0.164,0.431,0.247,0.808,0.247c0.683,0,1.537-0.058,2.583-0.166l0.026-0.248
			c0.445,0.159,0.913,0.305,1.414,0.446l0.132-0.487c-0.674-0.179-1.287-0.371-1.838-0.567c-0.249-0.091-0.508-0.189-0.759-0.303
			h1.782c0,0.015,0,0.025,0,0.033c0,0.081,0.02,0.164,0.076,0.23c0.056,0.083,0.132,0.124,0.223,0.124
			c0.062,0,0.128-0.025,0.195-0.091c0.068-0.066,0.106-0.159,0.106-0.263c0-0.108-0.038-0.199-0.092-0.263
			c-0.07-0.058-0.141-0.091-0.21-0.091c-0.034,0-0.069,0.008-0.105,0.016v-0.141h-0.227c0.095-0.518,0.145-0.979,0.145-1.383v-0.033
			c0.174,0.265,0.361,0.552,0.571,0.865l0.514-0.354c-0.724-0.997-1.229-1.63-1.516-1.895c-0.218-0.189-0.468-0.288-0.745-0.288
			h-0.208c-0.057,0-0.128,0.008-0.195,0.018c0.271-0.164,0.527-0.323,0.772-0.485c0.056,0.05,0.111,0.089,0.167,0.129
			c0.438,0.371,0.884,0.701,1.343,0.979l0.382-0.485c-0.522-0.311-0.953-0.599-1.287-0.855c-0.043-0.025-0.09-0.056-0.14-0.098
			c0.225-0.157,0.433-0.313,0.612-0.477c0.419-0.313,0.628-0.576,0.628-0.78c-0.015-0.257-0.174-0.388-0.48-0.388h-0.062
			c-0.544,0-1.322,0.156-2.338,0.452l0.074,0.378c1.045-0.295,1.706-0.442,1.99-0.442c0.127,0,0.188,0.021,0.188,0.064
			c0,0.033-0.117,0.148-0.348,0.328c-0.215,0.174-0.453,0.346-0.709,0.529c-0.165-0.133-0.349-0.28-0.543-0.446l-0.469,0.263
			c0.195,0.184,0.387,0.346,0.566,0.494c-0.327,0.23-0.677,0.46-1.052,0.691l0.159,0.272c-0.083,0.033-0.174,0.058-0.271,0.091
			c-0.327,0.106-0.695,0.263-1.107,0.459c0.085-0.147,0.174-0.305,0.265-0.467l-0.032-0.025c0.271-0.181,0.514-0.363,0.729-0.537
			c0.46-0.328,0.691-0.608,0.691-0.821c-0.015-0.255-0.161-0.388-0.453-0.388h-0.062c-0.391,0-0.898,0.108-1.525,0.305V53.276z
			 M58.12,59.382c-0.822,0.082-1.51,0.131-2.067,0.131c-0.439,0-0.655-0.164-0.655-0.484c0-0.083,0-0.214,0.008-0.386h1.1
			C57.07,58.938,57.604,59.185,58.12,59.382z M55.497,57.021c1.376-0.29,2.476-0.437,3.298-0.437c0.111,0,0.168,0.058,0.168,0.164
			c0,0.166-0.014,0.338-0.027,0.52h-3.453C55.482,57.192,55.488,57.109,55.497,57.021z M55.454,57.711h3.432
			c-0.021,0.157-0.048,0.323-0.076,0.485h-3.383C55.433,58.055,55.439,57.893,55.454,57.711z M55.53,56.468
			c0-0.007,0.009-0.025,0.021-0.041c0.48-0.28,0.948-0.502,1.399-0.666c-0.021,0.048-0.026,0.116-0.026,0.182
			c0,0.083,0.021,0.164,0.067,0.229c0.056,0.083,0.133,0.124,0.231,0.124c0.062,0,0.126-0.025,0.188-0.09
			c0.069-0.066,0.104-0.155,0.104-0.263c0-0.108-0.034-0.197-0.09-0.263c-0.014-0.018-0.035-0.025-0.047-0.042
			c0.256-0.066,0.486-0.106,0.687-0.106c0.259,0,0.453,0.074,0.58,0.205c0.116,0.149,0.242,0.315,0.381,0.495
			c-0.054-0.018-0.118-0.025-0.201-0.025h-0.202c-0.655,0-1.684,0.141-3.098,0.421C55.523,56.576,55.523,56.526,55.53,56.468z
			 M55.286,54.33c0.739-0.274,1.233-0.411,1.47-0.411c0.139,0,0.215,0.023,0.215,0.065c0,0.041-0.132,0.165-0.396,0.361
			c-0.223,0.164-0.452,0.338-0.695,0.502C55.671,54.684,55.469,54.51,55.286,54.33z"/>
		<path fill-rule="evenodd" clip-rule="evenodd" fill="#FFFFFF" d="M64.315,52.469v0.355h-2.431c0-0.058,0.009-0.124,0.009-0.189
			h-0.489c-0.104,2.929-0.221,5.357-0.354,7.3L61.546,60c0.11-1.523,0.215-3.745,0.318-6.657h5.5v-0.52H64.83v-0.355H64.315z
			 M61.949,53.851v0.518h0.271v2.709c-0.112,0.031-0.216,0.066-0.327,0.089l0.083,0.479c0.586-0.166,1.093-0.328,1.522-0.502v2.823
			h0.459v-5.599h0.246v-0.518H61.949z M62.686,56.939v-0.61h0.813v0.305C63.236,56.748,62.966,56.856,62.686,56.939z M62.686,55.852
			v-0.485h0.813v0.485H62.686z M62.686,54.88v-0.512h0.813v0.512H62.686z M62.005,57.843v0.421h0.486v0.353h-0.486v0.378h0.486
			v0.386h-0.542v0.419h1.44v-0.419h-0.485v-0.386h0.485v-0.378h-0.485v-0.353h0.485v-0.421H62.005z M64.289,54.048v0.479h1.222
			v0.461c-0.221,0.033-0.471,0.065-0.735,0.114v-0.189h-0.431v2.188h0.431v-0.222h2.533v-0.485h-0.104
			c0.068-0.344,0.104-0.649,0.104-0.931c0-0.18-0.042-0.321-0.125-0.425c-0.084-0.101-0.224-0.159-0.417-0.159H66.64
			c-0.168,0-0.383,0.018-0.64,0.041v-0.394h1.309v-0.479H66v-0.417h-0.489v0.417H64.289z M64.775,56.395v-0.898
			c0.138-0.023,0.271-0.048,0.409-0.073v0.971H64.775z M65.569,56.395v-1.027c0.124-0.017,0.249-0.033,0.374-0.05v1.078H65.569z
			 M66.327,56.395v-1.11c0.139-0.008,0.277-0.018,0.41-0.018c0.085,0,0.133,0.06,0.133,0.165c0,0.264-0.034,0.587-0.098,0.963
			H66.327z M64.26,57.358v0.484h3.022v-0.484H64.26z M64.372,58.264c-0.077,0.477-0.189,0.937-0.329,1.406l0.411,0.131
			c0.132-0.493,0.238-0.987,0.321-1.504L64.372,58.264z M65.052,58.196c-0.054,0.479-0.082,0.774-0.082,0.896
			c0,0.267,0.062,0.461,0.188,0.612c0.117,0.146,0.32,0.23,0.599,0.23c0.235,0,0.534-0.05,0.897-0.133l0.056-0.419
			c-0.354,0.106-0.648,0.165-0.871,0.165c-0.292,0-0.437-0.165-0.437-0.485c0-0.116,0.025-0.386,0.082-0.833L65.052,58.196z
			 M66.028,58.229c-0.078,0-0.141,0.035-0.189,0.083c-0.042,0.058-0.054,0.122-0.054,0.205c0,0.075,0.021,0.141,0.062,0.208
			c0.05,0.079,0.112,0.114,0.182,0.114c0.055,0,0.116-0.025,0.181-0.083c0.057-0.065,0.089-0.139,0.089-0.239
			c0-0.089-0.026-0.163-0.082-0.22C66.16,58.254,66.098,58.229,66.028,58.229z M66.98,58.131l-0.382,0.133
			c0.091,0.444,0.229,0.944,0.411,1.504l0.375-0.156C67.211,59.092,67.079,58.6,66.98,58.131z"/>
	</g>
</g>
</svg>
