<?xml version="1.0" encoding="utf-8"?>
<!-- Generator: Adobe Illustrator 16.0.3, SVG Export Plug-In . SVG Version: 6.00 Build 0)  -->
<!DOCTYPE svg PUBLIC "-//W3C//DTD SVG 1.1//EN" "http://www.w3.org/Graphics/SVG/1.1/DTD/svg11.dtd">
<svg version="1.1" id="图层_1" xmlns="http://www.w3.org/2000/svg" xmlns:xlink="http://www.w3.org/1999/xlink" x="0px" y="0px"
	 width="80px" height="60px" viewBox="0 0 80 60" enable-background="new 0 0 80 60" xml:space="preserve">
<g>
	<path fill="#FFFFFF" d="M30.451,0v44.019h19.134V0H30.451z M48.395,8.182h-6.199V1.19h6.199V8.182z M44.917,27.338h-9.074
		l2.721-8.755h6.353V27.338z M35.013,27.338h-3.372v-8.755h6.093L35.013,27.338z M31.641,17.79v-3.008h7.276L37.98,17.79H31.641z
		 M31.641,28.13h8.307v5.075h-8.307V28.13z M43.071,34.394l2.565,8.434H34.449l3.137-8.434H43.071z M40.741,33.206V28.13h7.654
		v5.075H40.741z M45.71,27.338l0-9.549h-6.898l0.935-3.008h8.649v12.557H45.71z M31.641,13.592v-2.415l6.641-9.987h3.123v7.786
		h6.991v4.616H31.641z M37.329,1.19l-5.688,8.554V1.19H37.329z M31.641,34.394h5.099l-3.137,8.434h-1.962V34.394z M46.464,42.828
		l-2.565-8.434h4.496v8.434H46.464z"/>
	<g>
		<g>
			<path fill="#FFFFFF" d="M15.865,59.408v-0.203h0.161c0.135,0,0.207-0.067,0.207-0.211v-0.117h-1.026v-0.173l1.174-1.661h0.236
				v1.63h0.351v0.204h-0.351v0.113c0,0.144,0.067,0.215,0.211,0.215h0.161v0.203H15.865z M16.232,57.614l-0.744,1.059h0.744V57.614z
				"/>
			<path fill="#FFFFFF" d="M18.662,59.209c-0.161,0.166-0.375,0.246-0.646,0.246c-0.193,0-0.354-0.047-0.482-0.148
				c-0.139-0.102-0.206-0.241-0.206-0.411c0-0.071,0.021-0.135,0.064-0.186c0.042-0.049,0.105-0.075,0.185-0.075
				c0.051,0,0.093,0.017,0.127,0.051c0.034,0.036,0.055,0.084,0.055,0.135c0,0.049-0.017,0.093-0.051,0.135
				c-0.033,0.045-0.05,0.084-0.05,0.113c0,0.058,0.038,0.109,0.122,0.144c0.063,0.029,0.136,0.042,0.216,0.042
				c0.333,0,0.502-0.232,0.502-0.701c0-0.132-0.029-0.25-0.088-0.36c-0.076-0.126-0.178-0.193-0.309-0.193
				c-0.22,0-0.376,0.109-0.461,0.321h-0.241l0.085-1.281h1.348l-0.039,0.253h-1.102l-0.06,0.707
				c0.144-0.135,0.317-0.203,0.511-0.203c0.22,0,0.401,0.081,0.549,0.232c0.135,0.148,0.207,0.321,0.207,0.524
				C18.899,58.835,18.819,59.05,18.662,59.209z"/>
			<path fill="#FFFFFF" d="M20.708,59.228c-0.143,0.151-0.333,0.223-0.579,0.223c-0.253,0-0.452-0.104-0.586-0.325
				c-0.135-0.203-0.199-0.482-0.199-0.827c0-0.334,0.06-0.617,0.178-0.845c0.156-0.296,0.397-0.447,0.722-0.447
				c0.178,0,0.321,0.049,0.436,0.151c0.101,0.093,0.156,0.207,0.156,0.338c0,0.093-0.021,0.17-0.059,0.219
				c-0.042,0.051-0.097,0.077-0.156,0.077c-0.063,0-0.114-0.021-0.148-0.067c-0.034-0.035-0.046-0.08-0.046-0.131
				c0-0.042,0.017-0.084,0.051-0.126c0.034-0.042,0.051-0.077,0.051-0.106c0-0.102-0.098-0.157-0.288-0.157
				c-0.303,0-0.473,0.305-0.499,0.913c0.17-0.106,0.334-0.161,0.491-0.161c0.203,0,0.367,0.064,0.494,0.19
				c0.127,0.131,0.19,0.295,0.19,0.498C20.915,58.89,20.843,59.083,20.708,59.228z M20.159,58.164c-0.14,0-0.279,0.051-0.419,0.148
				c0,0.219,0.026,0.405,0.068,0.56c0.067,0.254,0.178,0.381,0.334,0.381c0.253,0,0.38-0.208,0.38-0.626
				C20.522,58.319,20.399,58.164,20.159,58.164z"/>
			<path fill="#FFFFFF" d="M24.389,59.414v-0.189h0.051c0.148,0,0.224-0.073,0.224-0.225v-1.5l-0.722,1.915H23.81l-0.776-1.792V59
				c0,0.151,0.071,0.225,0.22,0.225h0.055v0.189h-0.731v-0.189h0.051c0.144,0,0.219-0.073,0.219-0.225v-1.546
				c0-0.148-0.076-0.225-0.219-0.225h-0.051v-0.19h0.62l0.765,1.771l0.663-1.771h0.679v0.19h-0.05c-0.147,0-0.22,0.077-0.22,0.225
				V59c0,0.151,0.073,0.225,0.22,0.225h0.05v0.189H24.389z"/>
			<path fill="#FFFFFF" d="M26.929,59.186c-0.144,0.181-0.342,0.27-0.591,0.27c-0.253,0-0.452-0.089-0.595-0.27
				c-0.136-0.164-0.203-0.381-0.203-0.648c0-0.261,0.066-0.48,0.203-0.649c0.143-0.177,0.341-0.271,0.595-0.271
				c0.249,0,0.447,0.093,0.591,0.271c0.135,0.169,0.203,0.389,0.203,0.649C27.132,58.804,27.064,59.021,26.929,59.186z
				 M26.338,57.881c-0.274,0-0.41,0.219-0.41,0.657c0,0.44,0.135,0.655,0.41,0.655c0.27,0,0.405-0.215,0.405-0.655
				C26.743,58.1,26.608,57.881,26.338,57.881z"/>
			<path fill="#FFFFFF" d="M28.59,59.414v-0.148c-0.123,0.126-0.254,0.19-0.393,0.19c-0.279,0-0.495-0.093-0.651-0.283
				c-0.152-0.173-0.223-0.401-0.223-0.681c0-0.245,0.067-0.453,0.206-0.621c0.148-0.177,0.343-0.27,0.583-0.27
				c0.182,0,0.342,0.067,0.478,0.203v-0.331c0-0.08-0.029-0.129-0.084-0.155c-0.035-0.009-0.093-0.016-0.187-0.016V57.09
				c0.241,0,0.457-0.055,0.642-0.157v2.04c0,0.145,0.072,0.216,0.22,0.219v0.221H28.59z M28.59,58.112
				c-0.102-0.177-0.241-0.27-0.418-0.27c-0.157,0-0.275,0.075-0.36,0.228c-0.067,0.123-0.101,0.261-0.101,0.422
				c0,0.195,0.038,0.354,0.115,0.481c0.092,0.161,0.228,0.241,0.414,0.241c0.101,0,0.186-0.039,0.253-0.115
				c0.063-0.075,0.097-0.168,0.097-0.277V58.112z"/>
			<path fill="#FFFFFF" d="M29.77,58.501c-0.004,0.029-0.004,0.055-0.004,0.081c0,0.389,0.135,0.579,0.405,0.579
				c0.191,0,0.356-0.106,0.495-0.318l0.161,0.097c-0.089,0.161-0.173,0.276-0.257,0.353c-0.123,0.109-0.266,0.164-0.435,0.164
				c-0.257,0-0.452-0.089-0.583-0.266c-0.119-0.157-0.177-0.367-0.177-0.637c0-0.237,0.059-0.449,0.182-0.626
				c0.135-0.203,0.325-0.309,0.57-0.309c0.228,0,0.409,0.089,0.537,0.267c0.109,0.161,0.164,0.363,0.168,0.617H29.77z
				 M30.125,57.859c-0.165,0-0.274,0.144-0.33,0.421h0.634C30.391,58.003,30.289,57.859,30.125,57.859z"/>
			<path fill="#FFFFFF" d="M32.419,58.032c-0.038,0.042-0.084,0.058-0.135,0.058c-0.055,0-0.119-0.038-0.194-0.117
				c-0.034-0.035-0.068-0.051-0.102-0.051c-0.119,0-0.228,0.173-0.337,0.518v0.529c0,0.139,0.071,0.21,0.224,0.215v0.223H31.06
				v-0.223c0.151-0.005,0.228-0.077,0.228-0.215v-0.807c0-0.067-0.018-0.115-0.051-0.135c-0.038-0.022-0.109-0.035-0.215-0.035
				v-0.219c0.236,0,0.447-0.051,0.63-0.153v0.369c0.155-0.245,0.316-0.373,0.476-0.373c0.103,0,0.183,0.026,0.25,0.071
				c0.068,0.051,0.101,0.115,0.101,0.183S32.458,57.994,32.419,58.032z"/>
			<path fill="#FFFFFF" d="M33.806,59.408v-0.215c0.151-0.003,0.227-0.075,0.227-0.219v-0.723c0-0.113-0.025-0.206-0.076-0.283
				c-0.055-0.071-0.122-0.109-0.207-0.109c-0.212,0-0.376,0.157-0.485,0.46v0.655c0,0.145,0.072,0.216,0.224,0.219v0.215h-0.823
				v-0.215c0.148-0.003,0.223-0.075,0.223-0.219v-0.772c0-0.082-0.024-0.131-0.075-0.157c-0.035-0.013-0.093-0.022-0.187-0.022
				v-0.206c0.241,0,0.452-0.055,0.638-0.157v0.254c0.143-0.193,0.316-0.296,0.515-0.296c0.186,0,0.334,0.051,0.448,0.148
				c0.114,0.102,0.174,0.241,0.174,0.427v0.781c0,0.145,0.076,0.216,0.228,0.219v0.215H33.806z"/>
			<path fill="#FFFFFF" d="M37.601,59.299c-0.151,0.106-0.334,0.157-0.545,0.157c-0.05,0-0.127-0.018-0.228-0.06
				c-0.106-0.033-0.182-0.055-0.228-0.055c-0.034,0-0.089,0.035-0.173,0.093l-0.284-0.723l0.182-0.062
				c0.208,0.383,0.443,0.575,0.707,0.575c0.122,0,0.224-0.035,0.299-0.106c0.077-0.073,0.114-0.166,0.114-0.276
				c0-0.142-0.109-0.266-0.32-0.37l-0.419-0.208c-0.278-0.135-0.413-0.328-0.413-0.575c0-0.203,0.058-0.371,0.185-0.498
				c0.123-0.123,0.288-0.185,0.49-0.185c0.097,0,0.199,0.024,0.308,0.067c0.106,0.046,0.161,0.068,0.165,0.068
				c0.017,0,0.064-0.026,0.14-0.081l0.249,0.675l-0.177,0.055c-0.098-0.173-0.181-0.299-0.253-0.376
				c-0.119-0.119-0.249-0.177-0.401-0.177c-0.211,0-0.317,0.119-0.317,0.351c0,0.135,0.088,0.25,0.275,0.341l0.46,0.229
				c0.295,0.147,0.449,0.356,0.449,0.626C37.863,59.007,37.774,59.18,37.601,59.299z"/>
			<path fill="#FFFFFF" d="M39.254,59.408v-0.219c0.151-0.009,0.228-0.081,0.228-0.219v-0.685c0-0.275-0.11-0.414-0.32-0.414
				c-0.153,0-0.301,0.075-0.453,0.225v0.874c0,0.139,0.072,0.21,0.224,0.219v0.219h-0.819v-0.219
				c0.148-0.009,0.224-0.081,0.224-0.219v-1.5c0-0.081-0.03-0.132-0.08-0.155c-0.031-0.009-0.089-0.019-0.182-0.022v-0.206
				c0.241,0,0.453-0.057,0.633-0.157v0.887c0.178-0.131,0.359-0.199,0.541-0.199c0.177,0,0.321,0.051,0.434,0.145
				c0.111,0.097,0.169,0.231,0.169,0.405v0.803c0,0.139,0.072,0.21,0.225,0.219v0.219H39.254z"/>
			<path fill="#FFFFFF" d="M41.586,59.456c-0.152,0-0.25-0.077-0.283-0.237c-0.194,0.161-0.381,0.237-0.562,0.237
				c-0.135,0-0.249-0.035-0.337-0.109c-0.093-0.077-0.135-0.183-0.135-0.317c0-0.203,0.101-0.373,0.312-0.502
				c0.182-0.111,0.422-0.183,0.718-0.215v-0.11c0-0.241-0.093-0.363-0.274-0.363c-0.093,0-0.156,0.02-0.186,0.055
				c-0.033,0.042-0.055,0.109-0.063,0.206c-0.008,0.059-0.034,0.106-0.081,0.139c-0.05,0.042-0.101,0.06-0.161,0.06
				c-0.067,0-0.118-0.021-0.152-0.067c-0.038-0.044-0.055-0.089-0.055-0.141c0-0.161,0.085-0.283,0.258-0.37
				c0.135-0.068,0.287-0.103,0.464-0.103c0.228,0,0.389,0.051,0.485,0.145c0.093,0.097,0.145,0.253,0.145,0.463v0.812
				c0,0.088,0.02,0.13,0.071,0.13c0.022,0,0.051-0.011,0.09-0.042l0.058,0.186C41.789,59.408,41.687,59.456,41.586,59.456z
				 M41.294,58.521c-0.422,0.086-0.629,0.247-0.629,0.482c0,0.135,0.071,0.199,0.22,0.199c0.122,0,0.257-0.077,0.409-0.232V58.521z"
				/>
			<path fill="#FFFFFF" d="M43.268,59.408v-0.215c0.152-0.003,0.228-0.075,0.228-0.219v-0.723c0-0.113-0.024-0.206-0.075-0.283
				c-0.056-0.071-0.122-0.109-0.207-0.109c-0.211,0-0.376,0.157-0.485,0.46v0.655c0,0.145,0.072,0.216,0.224,0.219v0.215h-0.823
				v-0.215c0.148-0.003,0.224-0.075,0.224-0.219v-0.772c0-0.082-0.025-0.131-0.076-0.157c-0.034-0.013-0.093-0.022-0.186-0.022
				v-0.206c0.241,0,0.452-0.055,0.638-0.157v0.254c0.143-0.193,0.316-0.296,0.515-0.296c0.186,0,0.334,0.051,0.448,0.148
				c0.114,0.102,0.173,0.241,0.173,0.427v0.781c0,0.145,0.076,0.216,0.228,0.219v0.215H43.268z"/>
			<path fill="#FFFFFF" d="M46.062,58.01c-0.046,0-0.084-0.025-0.119-0.075c-0.033-0.051-0.071-0.081-0.109-0.081
				c-0.026,0-0.059,0.017-0.093,0.046c0.067,0.105,0.102,0.219,0.102,0.347c0,0.203-0.067,0.359-0.203,0.463
				c-0.134,0.111-0.312,0.161-0.528,0.161c-0.059,0-0.118-0.003-0.173-0.017c-0.042,0.026-0.059,0.048-0.059,0.061
				c0,0.042,0.038,0.071,0.123,0.087c0.193,0.042,0.38,0.089,0.557,0.131c0.321,0.081,0.486,0.215,0.486,0.409
				c0,0.305-0.309,0.456-0.925,0.456c-0.557,0-0.836-0.126-0.836-0.376c0-0.142,0.123-0.277,0.376-0.399
				c-0.093-0.064-0.14-0.141-0.14-0.23c0-0.066,0.063-0.143,0.19-0.219c-0.178-0.106-0.262-0.27-0.262-0.489
				c0-0.199,0.064-0.359,0.199-0.485c0.131-0.119,0.299-0.183,0.502-0.183c0.194,0,0.356,0.055,0.486,0.165
				c0.109-0.11,0.22-0.165,0.338-0.165c0.064,0,0.119,0.017,0.168,0.051c0.059,0.042,0.089,0.097,0.089,0.164
				C46.23,57.952,46.171,58.01,46.062,58.01z M45.374,59.426c-0.068-0.013-0.199-0.042-0.401-0.093
				c-0.203,0.075-0.3,0.164-0.3,0.267c0,0.104,0.14,0.159,0.418,0.159c0.375,0,0.566-0.059,0.566-0.177
				C45.656,59.52,45.559,59.468,45.374,59.426z M45.149,57.855c-0.211,0-0.312,0.139-0.312,0.409c0,0.25,0.101,0.373,0.305,0.373
				c0.202,0,0.308-0.128,0.308-0.389C45.449,57.985,45.348,57.855,45.149,57.855z"/>
			<path fill="#FFFFFF" d="M47.6,59.408v-0.219c0.152-0.009,0.228-0.081,0.228-0.219v-0.685c0-0.275-0.109-0.414-0.321-0.414
				c-0.151,0-0.299,0.075-0.451,0.225v0.874c0,0.139,0.071,0.21,0.224,0.219v0.219H46.46v-0.219
				c0.147-0.009,0.224-0.081,0.224-0.219v-1.5c0-0.081-0.029-0.132-0.081-0.155c-0.029-0.009-0.088-0.019-0.181-0.022v-0.206
				c0.239,0,0.451-0.057,0.633-0.157v0.887c0.177-0.131,0.358-0.199,0.54-0.199c0.177,0,0.321,0.051,0.435,0.145
				c0.109,0.097,0.169,0.231,0.169,0.405v0.803c0,0.139,0.072,0.21,0.224,0.219v0.219H47.6z"/>
			<path fill="#FFFFFF" d="M49.934,59.456c-0.153,0-0.25-0.077-0.283-0.237c-0.194,0.161-0.38,0.237-0.561,0.237
				c-0.136,0-0.25-0.035-0.338-0.109c-0.093-0.077-0.136-0.183-0.136-0.317c0-0.203,0.101-0.373,0.313-0.502
				c0.182-0.111,0.421-0.183,0.718-0.215v-0.11c0-0.241-0.093-0.363-0.275-0.363c-0.093,0-0.157,0.02-0.186,0.055
				c-0.034,0.042-0.055,0.109-0.064,0.206c-0.007,0.059-0.033,0.106-0.08,0.139c-0.051,0.042-0.101,0.06-0.16,0.06
				c-0.069,0-0.119-0.021-0.152-0.067c-0.039-0.044-0.055-0.089-0.055-0.141c0-0.161,0.085-0.283,0.257-0.37
				c0.136-0.068,0.288-0.103,0.466-0.103c0.227,0,0.389,0.051,0.485,0.145c0.093,0.097,0.143,0.253,0.143,0.463v0.812
				c0,0.088,0.021,0.13,0.072,0.13c0.02,0,0.051-0.011,0.088-0.042l0.06,0.186C50.136,59.408,50.035,59.456,49.934,59.456z
				 M49.642,58.521c-0.422,0.086-0.629,0.247-0.629,0.482c0,0.135,0.072,0.199,0.219,0.199c0.124,0,0.259-0.077,0.411-0.232V58.521z
				"/>
			<path fill="#FFFFFF" d="M50.547,59.408v-0.219c0.152-0.004,0.232-0.077,0.232-0.219v-0.812c0-0.068-0.02-0.113-0.055-0.139
				c-0.039-0.017-0.109-0.029-0.215-0.035v-0.21c0.245,0,0.46-0.051,0.646-0.153v1.349c0,0.143,0.072,0.215,0.225,0.219v0.219
				H50.547z M51.13,57.242c-0.05,0.051-0.113,0.073-0.187,0.073c-0.076,0-0.135-0.022-0.184-0.073
				c-0.051-0.051-0.077-0.109-0.077-0.181c0-0.073,0.025-0.135,0.08-0.186c0.05-0.051,0.11-0.077,0.181-0.077
				c0.069,0,0.132,0.025,0.183,0.077s0.081,0.113,0.081,0.186C51.207,57.132,51.181,57.191,51.13,57.242z"/>
			<path fill="#FFFFFF" d="M54.456,59.228c-0.152,0.151-0.338,0.223-0.558,0.223c-0.3,0-0.537-0.126-0.707-0.387
				c-0.151-0.229-0.227-0.499-0.227-0.816c0-0.338,0.067-0.617,0.207-0.845c0.165-0.266,0.405-0.401,0.723-0.401
				c0.067,0,0.152,0.017,0.256,0.047c0.102,0.029,0.161,0.042,0.174,0.042c0.042,0,0.114-0.029,0.215-0.089l0.178,0.629
				l-0.161,0.068c-0.085-0.17-0.169-0.283-0.246-0.351c-0.101-0.08-0.228-0.122-0.388-0.122c-0.203,0-0.347,0.119-0.44,0.35
				c-0.067,0.17-0.101,0.376-0.101,0.621c0,0.263,0.042,0.477,0.13,0.646c0.106,0.212,0.267,0.314,0.478,0.314
				c0.228,0,0.438-0.169,0.642-0.517l0.156,0.055C54.675,58.939,54.565,59.118,54.456,59.228z"/>
			<path fill="#FFFFFF" d="M56.413,59.405v-0.219c-0.153,0.181-0.33,0.27-0.536,0.27c-0.178,0-0.318-0.047-0.424-0.144
				c-0.118-0.102-0.177-0.254-0.177-0.447v-0.681c0-0.071-0.022-0.119-0.055-0.139c-0.039-0.022-0.11-0.035-0.22-0.035v-0.228
				c0.253,0,0.474-0.055,0.668-0.165v1.254c0,0.203,0.097,0.305,0.299,0.305c0.198,0,0.347-0.119,0.444-0.359v-0.633
				c0-0.071-0.021-0.119-0.055-0.139c-0.038-0.022-0.11-0.035-0.22-0.035v-0.228c0.245,0,0.469-0.055,0.668-0.165v1.389
				c0,0.073,0.017,0.119,0.054,0.137c0.034,0.024,0.107,0.037,0.22,0.037v0.225H56.413z"/>
			<path fill="#FFFFFF" d="M57.38,59.408v-0.219c0.153-0.004,0.233-0.077,0.233-0.219v-0.812c0-0.068-0.021-0.113-0.055-0.139
				c-0.039-0.017-0.11-0.029-0.215-0.035v-0.21c0.245,0,0.46-0.051,0.646-0.153v1.349c0,0.143,0.072,0.215,0.224,0.219v0.219H57.38z
				 M57.963,57.242c-0.049,0.051-0.113,0.073-0.186,0.073c-0.076,0-0.135-0.022-0.185-0.073c-0.051-0.051-0.077-0.109-0.077-0.181
				c0-0.073,0.025-0.135,0.08-0.186c0.051-0.051,0.111-0.077,0.182-0.077c0.069,0,0.132,0.025,0.182,0.077
				c0.051,0.051,0.082,0.113,0.082,0.186C58.041,57.132,58.015,57.191,57.963,57.242z"/>
			<path fill="#FFFFFF" d="M59.692,58.328c-0.088-0.153-0.165-0.257-0.224-0.321c-0.097-0.093-0.211-0.139-0.337-0.139
				c-0.144,0-0.215,0.068-0.215,0.203c0,0.084,0.055,0.155,0.164,0.207l0.394,0.195c0.224,0.113,0.337,0.277,0.337,0.498
				c0,0.151-0.055,0.274-0.165,0.363c-0.102,0.084-0.224,0.122-0.367,0.122c-0.076,0-0.161-0.018-0.258-0.06
				c-0.102-0.042-0.151-0.062-0.156-0.062c-0.017,0-0.042,0.013-0.071,0.029c-0.035,0.025-0.068,0.055-0.105,0.087l-0.212-0.573
				l0.178-0.093c0.152,0.283,0.341,0.421,0.574,0.421c0.139,0,0.212-0.067,0.212-0.211c0-0.091-0.064-0.168-0.19-0.227l-0.334-0.153
				c-0.246-0.109-0.368-0.274-0.368-0.495c0-0.139,0.055-0.257,0.173-0.357c0.105-0.093,0.227-0.141,0.371-0.141
				c0.059,0,0.126,0.018,0.211,0.044c0.081,0.029,0.13,0.042,0.152,0.042c0.034,0,0.088-0.025,0.173-0.085l0.246,0.622
				L59.692,58.328z"/>
			<path fill="#FFFFFF" d="M60.175,59.408v-0.219c0.151-0.004,0.232-0.077,0.232-0.219v-0.812c0-0.068-0.021-0.113-0.055-0.139
				c-0.037-0.017-0.109-0.029-0.215-0.035v-0.21c0.245,0,0.46-0.051,0.646-0.153v1.349c0,0.143,0.072,0.215,0.224,0.219v0.219
				H60.175z M60.757,57.242c-0.05,0.051-0.113,0.073-0.186,0.073c-0.076,0-0.134-0.022-0.185-0.073
				c-0.051-0.051-0.077-0.109-0.077-0.181c0-0.073,0.026-0.135,0.081-0.186c0.05-0.051,0.109-0.077,0.181-0.077
				c0.068,0,0.131,0.025,0.183,0.077c0.05,0.051,0.08,0.113,0.08,0.186C60.833,57.132,60.808,57.191,60.757,57.242z"/>
			<path fill="#FFFFFF" d="M62.448,59.408v-0.215c0.152-0.003,0.228-0.075,0.228-0.219v-0.723c0-0.113-0.026-0.206-0.075-0.283
				c-0.056-0.071-0.122-0.109-0.208-0.109c-0.21,0-0.376,0.157-0.485,0.46v0.655c0,0.145,0.071,0.216,0.225,0.219v0.215h-0.824
				v-0.215c0.148-0.003,0.224-0.075,0.224-0.219v-0.772c0-0.082-0.025-0.131-0.076-0.157c-0.034-0.013-0.093-0.022-0.186-0.022
				v-0.206c0.242,0,0.453-0.055,0.638-0.157v0.254c0.144-0.193,0.317-0.296,0.516-0.296c0.185,0,0.334,0.051,0.448,0.148
				c0.113,0.102,0.172,0.241,0.172,0.427v0.781c0,0.145,0.077,0.216,0.228,0.219v0.215H62.448z"/>
			<path fill="#FFFFFF" d="M63.859,58.501c-0.004,0.029-0.004,0.055-0.004,0.081c0,0.389,0.136,0.579,0.406,0.579
				c0.189,0,0.355-0.106,0.495-0.318l0.16,0.097c-0.089,0.161-0.173,0.276-0.258,0.353c-0.123,0.109-0.265,0.164-0.435,0.164
				c-0.257,0-0.452-0.089-0.583-0.266c-0.118-0.157-0.177-0.367-0.177-0.637c0-0.237,0.06-0.449,0.182-0.626
				c0.135-0.203,0.325-0.309,0.57-0.309c0.228,0,0.41,0.089,0.536,0.267c0.111,0.161,0.166,0.363,0.17,0.617H63.859z M64.214,57.859
				c-0.165,0-0.274,0.144-0.329,0.421h0.633C64.48,58.003,64.379,57.859,64.214,57.859z"/>
		</g>
		<g>
			<path fill="#FFFFFF" d="M18.712,47.671c0,0.089-0.017,0.162-0.033,0.221c0.041,0,0.082-0.009,0.123-0.009
				c0.434,0,0.655,0.115,0.672,0.345c0,0.188-0.124,0.277-0.369,0.277c-0.066,0.016-0.124,0.033-0.172,0.042
				c0.261,0.099,0.401,0.228,0.401,0.392c-0.017,0.23-0.115,0.409-0.312,0.557h0.041c0.425,0,0.638,0.115,0.654,0.336
				c0,0.188-0.122,0.279-0.359,0.279c-0.303,0.031-0.581,0.057-0.827,0.073c0.089,0.089,0.139,0.197,0.139,0.31v0.107
				c0.107-0.009,0.205-0.016,0.287-0.016c0.434,0,0.655,0.115,0.663,0.343c0,0.188-0.123,0.279-0.369,0.279
				c-0.212,0.017-0.4,0.031-0.581,0.041v0.335c0.033,0,0.074-0.007,0.107-0.007c0.492,0.073,0.761,0.254,0.81,0.548
				c0,0.131-0.033,0.245-0.09,0.343c-0.099,0.132-0.188,0.205-0.27,0.214c-0.049,0-0.099-0.04-0.13-0.131
				c-0.041-0.155-0.09-0.287-0.148-0.402c-0.098-0.146-0.188-0.27-0.278-0.359v1.219c0,0.443-0.115,0.671-0.336,0.671
				c-0.212-0.057-0.327-0.228-0.327-0.515c0-0.361,0.007-0.73,0.007-1.089c-0.106,0.115-0.221,0.221-0.336,0.329
				c-0.458,0.383-0.858,0.58-1.186,0.58c0.303-0.294,0.597-0.629,0.884-0.991c0.253-0.327,0.4-0.564,0.45-0.703
				c-0.065,0-0.13,0-0.188,0c-0.14,0-0.377-0.042-0.721-0.125c-0.164-0.04-0.254-0.098-0.278-0.162c0.131,0,0.303-0.026,0.508-0.075
				c0.277-0.049,0.557-0.115,0.835-0.197c0.015,0,0.032-0.007,0.048-0.007v-0.123c0-0.164-0.024-0.286-0.058-0.385
				c-0.13,0.007-0.253,0.007-0.351,0.007c-0.14,0-0.377-0.033-0.713-0.113c-0.164-0.049-0.254-0.099-0.278-0.164
				c0.14-0.009,0.319-0.033,0.533-0.083c0.18-0.033,0.352-0.073,0.515-0.115c-0.016-0.115-0.04-0.212-0.073-0.303
				c-0.099-0.213-0.221-0.409-0.369-0.597c0.287,0,0.499,0.049,0.647,0.139c0.13,0.082,0.205,0.155,0.212,0.237
				c0,0.181-0.033,0.319-0.082,0.435c0.009,0,0.017-0.009,0.025-0.009c0.18-0.04,0.352-0.073,0.499-0.106
				c0.107-0.303,0.164-0.533,0.164-0.679c0-0.099-0.016-0.188-0.041-0.272c-0.36,0.067-0.67,0.099-0.934,0.099
				c-0.139,0-0.376-0.04-0.72-0.123c-0.164-0.04-0.262-0.098-0.287-0.164c0.123-0.007,0.278-0.04,0.458-0.097
				c0.255-0.066,0.499-0.148,0.746-0.247c0.073-0.016,0.147-0.04,0.212-0.065c-0.033-0.089-0.074-0.165-0.114-0.229
				c-0.165-0.229-0.345-0.394-0.533-0.476c0.074-0.031,0.188-0.057,0.336-0.057C18.361,47.293,18.654,47.441,18.712,47.671z
				 M22.552,47.852c-0.09,0.171-0.393,0.327-0.9,0.474c-0.312,0.097-0.664,0.155-1.057,0.179c0.024,0.107,0.041,0.23,0.041,0.369
				c0,0.204-0.008,0.392-0.008,0.573c0.222-0.049,0.434-0.115,0.647-0.195c0.36-0.108,0.647-0.165,0.859-0.165
				c0.434,0,0.655,0.115,0.671,0.343c0,0.197-0.122,0.287-0.368,0.287c-0.237,0.025-0.45,0.042-0.647,0.049
				c0.148,0.098,0.23,0.221,0.23,0.376c-0.042,0.991-0.066,1.982-0.082,2.964c-0.017,0.589-0.139,0.892-0.369,0.892
				c-0.213-0.049-0.32-0.335-0.32-0.85c0.017-0.811,0.025-1.811,0.025-2.99c0-0.146-0.041-0.261-0.114-0.359h-0.205
				c-0.082,0-0.189-0.017-0.336-0.049c-0.081,2.309-0.425,3.537-1.023,3.685c0.09-0.474,0.171-1.08,0.247-1.834
				c0.064-0.811,0.105-1.71,0.105-2.694c-0.016-0.352-0.131-0.646-0.352-0.883c0.359,0,0.623,0.049,0.777,0.131
				c0.066,0.04,0.115,0.097,0.155,0.163c0.279-0.131,0.508-0.245,0.688-0.353c0.377-0.188,0.566-0.343,0.566-0.458
				c0-0.106-0.025-0.204-0.066-0.303C22.273,47.417,22.552,47.638,22.552,47.852z"/>
			<path fill="#FFFFFF" d="M30.789,53.524c-0.287,0-0.5-0.336-0.647-1.015c0.065,0.041,0.147,0.057,0.238,0.057
				c0.303,0,0.786-0.564,1.441-1.703C31.55,52.641,31.207,53.524,30.789,53.524z M31.468,49.931c0,0.163-0.041,0.294-0.106,0.409
				c-0.115,0.165-0.222,0.247-0.319,0.254c-0.058,0-0.107-0.049-0.148-0.155c-0.041-0.181-0.098-0.327-0.164-0.451
				c-0.164-0.294-0.343-0.491-0.531-0.597c0.082-0.033,0.212-0.059,0.384-0.059C31.124,49.414,31.419,49.611,31.468,49.931z
				 M31.837,48.202c0,0.165-0.041,0.296-0.107,0.411c-0.115,0.163-0.221,0.245-0.319,0.254c-0.064,0-0.114-0.049-0.156-0.165
				c-0.048-0.181-0.114-0.327-0.18-0.458c-0.18-0.295-0.376-0.5-0.582-0.606c0.082-0.042,0.213-0.065,0.385-0.065
				C31.46,47.655,31.779,47.867,31.837,48.202z M35.283,47.711c0,0.155-0.163,0.295-0.475,0.409
				c-0.475,0.173-0.949,0.279-1.44,0.312c-0.131,0-0.247,0-0.344-0.009c0.016,0.075,0.032,0.147,0.032,0.23
				c-0.017,3.095-0.45,4.716-1.318,4.864c0.377-0.761,0.582-2.351,0.623-4.766c0-0.361-0.099-0.655-0.287-0.899
				c0.417,0,0.695,0.113,0.843,0.334c0.441-0.13,0.884-0.327,1.317-0.581c0.467-0.253,0.705-0.491,0.705-0.721
				C35.168,47.016,35.283,47.293,35.283,47.711z M35.914,50.356c-0.017,0.221-0.156,0.401-0.401,0.533
				c-0.164,0.081-0.319,0.146-0.467,0.179c0.009,0.016,0.017,0.033,0.033,0.042c0.205,0.303,0.443,0.563,0.721,0.793
				c0.262,0.229,0.54,0.435,0.827,0.599c-0.287,0.334-0.582,0.524-0.893,0.564c-0.31,0-0.655-0.451-1.023-1.359
				c-0.212-0.475-0.4-0.851-0.565-1.121c-0.024,0.719-0.041,1.433-0.049,2.135c0,0.082,0.033,0.124,0.107,0.124
				c0.18-0.033,0.409-0.141,0.671-0.329c-0.099,0.287-0.278,0.566-0.524,0.843c-0.278,0.303-0.484,0.46-0.63,0.46
				c-0.246,0-0.384-0.157-0.401-0.451c0.098-0.639,0.147-1.834,0.147-3.577c0-0.279-0.098-0.509-0.295-0.681
				c0.369,0.033,0.631,0.122,0.794,0.27c0.287-0.115,0.573-0.27,0.852-0.475c0.295-0.213,0.451-0.409,0.451-0.589
				c0.196,0.115,0.295,0.352,0.295,0.712c0,0.124-0.09,0.229-0.262,0.319c-0.262,0.14-0.532,0.221-0.794,0.246
				c-0.155,0-0.287,0-0.393-0.016c0.033,0.089,0.049,0.181,0.049,0.27c0,0.065,0,0.115,0,0.164c0.188,0.146,0.417,0.409,0.695,0.785
				c0.066-0.065,0.122-0.131,0.181-0.195c0.164-0.206,0.262-0.401,0.287-0.589c0-0.099-0.017-0.188-0.033-0.263
				C35.701,49.914,35.914,50.111,35.914,50.356z"/>
			<path fill="#FFFFFF" d="M44.274,53.385c-0.262,0-0.45-0.303-0.573-0.918c0.058,0.035,0.123,0.049,0.205,0.049
				c0.287,0,0.736-0.507,1.342-1.531C44.986,52.592,44.667,53.385,44.274,53.385z M45.068,50.093c0,0.147-0.033,0.272-0.098,0.37
				c-0.107,0.146-0.206,0.221-0.287,0.229c-0.059,0-0.107-0.049-0.141-0.148c-0.048-0.163-0.097-0.311-0.163-0.425
				c-0.164-0.279-0.343-0.467-0.524-0.564c0.074-0.035,0.189-0.059,0.344-0.059C44.724,49.579,45.019,49.775,45.068,50.093z
				 M45.478,48.538c0,0.148-0.033,0.27-0.099,0.369c-0.106,0.148-0.205,0.23-0.287,0.23c-0.065,0-0.115-0.049-0.155-0.155
				c-0.042-0.181-0.099-0.328-0.165-0.46c-0.171-0.293-0.352-0.491-0.548-0.597c0.074-0.033,0.188-0.058,0.344-0.058
				C45.125,47.958,45.428,48.179,45.478,48.538z M46.427,48.113c0.147-0.033,0.344-0.089,0.582-0.164
				c0.139-0.033,0.277-0.057,0.409-0.089c-0.041-0.099-0.09-0.188-0.14-0.271c-0.163-0.213-0.344-0.369-0.532-0.451
				c0.074-0.033,0.188-0.057,0.344-0.057c0.541,0.049,0.835,0.172,0.884,0.369c0,0.13-0.033,0.245-0.082,0.336
				c0.213-0.017,0.418-0.033,0.614-0.033c0.557,0.033,0.835,0.211,0.835,0.54c-0.008,0.155-0.074,0.458-0.196,0.909
				c-0.082,0.139-0.189,0.204-0.319,0.204c-0.13-0.033-0.221-0.091-0.287-0.173c-0.639,0.075-1.179,0.108-1.629,0.108
				c-0.09,0-0.23-0.017-0.41-0.059c-0.016,0.197-0.041,0.394-0.066,0.608c-0.064,0.538-0.147,1.022-0.253,1.463
				c-0.27,1.099-0.631,1.785-1.089,2.072c0.458-1.677,0.712-3.389,0.754-5.132c-0.018-0.164-0.075-0.295-0.181-0.411
				C46.034,47.899,46.288,47.981,46.427,48.113z M49.169,51.225c0.139,0.089,0.213,0.205,0.213,0.334
				c-0.033,0.272-0.074,0.533-0.13,0.787c-0.099,0.131-0.23,0.188-0.377,0.188c-0.107-0.007-0.18-0.04-0.229-0.106
				c-0.467,0.033-0.86,0.04-1.188,0.04c-0.082,0-0.196-0.014-0.352-0.047v0.13c0.008,0.345,0.311,0.523,0.9,0.54
				c0.613,0,1.023-0.073,1.219-0.228c0.148-0.115,0.255-0.369,0.303-0.761c0.197,0.155,0.312,0.547,0.328,1.187
				c0,0.279-0.565,0.418-1.678,0.434c-1.146,0-1.711-0.361-1.711-1.073c0-0.293,0-0.589,0.008-0.883
				c0-0.213-0.074-0.394-0.204-0.525c0.278,0.018,0.482,0.051,0.63,0.107c0.213-0.033,0.466-0.098,0.745-0.197
				c0.311-0.073,0.614-0.115,0.909-0.115C48.785,51.051,48.989,51.11,49.169,51.225z M46.591,49.029
				c0.278-0.048,0.557-0.106,0.827-0.179c0.401-0.091,0.72-0.141,0.965-0.141c0.066,0,0.124,0.009,0.181,0.009
				c0.017-0.082,0.041-0.188,0.057-0.303c0-0.099-0.057-0.148-0.155-0.165c-0.278,0-0.843,0.075-1.678,0.205
				c-0.09,0-0.172,0-0.237-0.017c0,0.181-0.008,0.378-0.025,0.606C46.55,49.045,46.574,49.038,46.591,49.029z M48.989,50.093
				c-0.008,0.107-0.04,0.312-0.099,0.624c-0.073,0.122-0.171,0.179-0.286,0.179c-0.09-0.023-0.164-0.065-0.213-0.122
				c-0.294,0.023-0.54,0.033-0.736,0.033c-0.082,0-0.196-0.017-0.36-0.049c-0.048,0.181-0.13,0.277-0.262,0.294
				c-0.163-0.007-0.262-0.139-0.294-0.385c0-0.376-0.025-0.629-0.065-0.752c-0.017-0.049-0.065-0.115-0.14-0.197
				c0.205,0.009,0.369,0.033,0.483,0.075c0.049,0.023,0.082,0.047,0.106,0.065c0.066-0.018,0.14-0.042,0.213-0.075
				c0.328-0.099,0.63-0.155,0.917-0.155C48.744,49.651,48.989,49.809,48.989,50.093z M47.106,52.197
				c0.196-0.033,0.377-0.073,0.557-0.129c-0.008-0.059-0.008-0.115-0.008-0.173c-0.008-0.081-0.008-0.146-0.008-0.195
				c0-0.033-0.008-0.059-0.008-0.091c-0.098,0.017-0.196,0.033-0.286,0.049c-0.099,0-0.181,0-0.246-0.017V52.197z M47.319,50.478
				c0,0.026,0,0.049,0,0.066c0.124-0.033,0.246-0.066,0.36-0.106c0.213-0.057,0.394-0.089,0.524-0.089
				c0.049,0,0.099,0.007,0.13,0.007c0.009-0.049,0.018-0.099,0.026-0.165c0-0.08-0.049-0.122-0.14-0.139
				c-0.147,0-0.426,0.049-0.835,0.148c-0.041,0-0.073,0-0.107-0.009C47.303,50.274,47.319,50.372,47.319,50.478z M48.49,51.944
				c0.058,0,0.107,0.009,0.156,0.009c0.007-0.098,0.016-0.204,0.033-0.335c0-0.09-0.082-0.139-0.247-0.139
				c-0.099,0.016-0.188,0.033-0.287,0.049c0.033,0.066,0.058,0.123,0.058,0.188c0,0.099-0.008,0.179-0.008,0.254
				C48.31,51.953,48.409,51.944,48.49,51.944z"/>
			<path fill="#FFFFFF" d="M60.739,51.11c0.466-0.049,0.942-0.075,1.416-0.075c0.557,0.091,0.843,0.27,0.843,0.533
				c-0.016,0.171-0.131,0.253-0.344,0.253c-0.114,0-0.361-0.016-0.737-0.049c-0.295,0-0.548-0.007-0.745-0.007h-0.057
				c0.139,0.099,0.302,0.212,0.482,0.353c0.712,0.507,1.327,0.81,1.834,0.899c-0.435,0.393-0.794,0.59-1.073,0.59
				c-0.287,0-0.582-0.23-0.893-0.688c-0.294-0.393-0.54-0.688-0.736-0.893c0,0.434-0.008,0.869-0.008,1.303
				c0,0.367-0.115,0.555-0.344,0.555c-0.254,0-0.377-0.171-0.377-0.499c0-0.164,0-0.474,0.016-0.932
				c-0.114,0.097-0.253,0.195-0.417,0.31c-0.606,0.441-1.286,0.671-2.039,0.705c0.614-0.361,1.13-0.721,1.54-1.081
				c0.221-0.197,0.385-0.361,0.499-0.5c-0.286,0.033-0.492,0.042-0.606,0.042c-0.655-0.019-1.056-0.141-1.195-0.361
				c0.099,0.016,0.221,0.016,0.353,0.016c0.13,0,0.376-0.042,0.752-0.131c0.385-0.089,0.771-0.171,1.146-0.237v-0.04
				c-0.017-0.213-0.114-0.401-0.287-0.582C60.411,50.602,60.739,50.774,60.739,51.11z M59.707,47.375
				c0.033,0.066,0.058,0.165,0.074,0.287c0.057-0.017,0.115-0.024,0.172-0.04c0.392-0.057,0.769-0.106,1.138-0.139
				c0-0.033,0.007-0.075,0.007-0.125c0-0.164-0.065-0.335-0.188-0.498c0.606,0.033,0.918,0.205,0.942,0.498c0,0.033,0,0.066,0,0.091
				c0.09,0,0.18-0.009,0.27-0.009c0.721,0.042,1.081,0.204,1.081,0.483c0,0.214-0.13,0.319-0.384,0.319
				c-0.213-0.016-0.492-0.033-0.852-0.065c-0.115,0-0.23-0.009-0.345-0.009c-0.032,0.066-0.057,0.115-0.081,0.164
				c-0.196,0.261-0.417,0.393-0.664,0.393c0.058-0.171,0.107-0.359,0.14-0.564c-0.033,0-0.066,0-0.09,0
				c-0.369,0.033-0.729,0.073-1.089,0.115c0,0.065,0.008,0.122,0.008,0.171c0,0.253-0.082,0.409-0.229,0.467
				c-0.246,0-0.369-0.115-0.377-0.361c-0.016-0.073-0.024-0.148-0.033-0.212c-0.099,0.017-0.197,0.024-0.295,0.033
				c-0.614,0-1.039-0.14-1.269-0.401c0.098,0.017,0.222,0.024,0.352,0.024c0.139,0,0.5-0.057,1.089-0.188
				c-0.082-0.245-0.188-0.409-0.319-0.491c0.106-0.049,0.278-0.089,0.507-0.106C59.454,47.213,59.601,47.27,59.707,47.375z
				 M58.904,49.872c0.295,0.115,0.451,0.239,0.467,0.385c0,0.181-0.049,0.336-0.147,0.467c-0.083,0.115-0.172,0.164-0.271,0.164
				c-0.098,0-0.188-0.141-0.27-0.418c-0.09-0.221-0.294-0.467-0.606-0.737C58.422,49.75,58.692,49.792,58.904,49.872z
				 M62.081,49.005c-0.025,0.253-0.318,0.401-0.876,0.441c-0.532,0.091-1.122,0.148-1.76,0.165
				c-0.729-0.025-1.138-0.131-1.219-0.311c0.834-0.067,1.661-0.197,2.472-0.385c0.671-0.124,1.032-0.336,1.072-0.631
				C61.974,48.432,62.081,48.669,62.081,49.005z M60.903,50.003c0,0.197-0.034,0.336-0.091,0.435
				c-0.04,0.099-0.114,0.148-0.211,0.148c-0.066,0-0.156-0.091-0.271-0.279c-0.114-0.131-0.237-0.237-0.384-0.327
				c-0.123-0.082-0.247-0.148-0.361-0.197c0.206-0.033,0.418-0.057,0.631-0.073C60.624,49.743,60.854,49.839,60.903,50.003z
				 M62.654,49.987c-0.025,0.204-0.172,0.369-0.443,0.5c-0.368,0.164-0.736,0.245-1.113,0.245c0.206-0.163,0.401-0.343,0.599-0.541
				c0.18-0.204,0.286-0.399,0.311-0.58c0-0.115-0.017-0.213-0.033-0.296C62.425,49.496,62.654,49.717,62.654,49.987z"/>
		</g>
	</g>
	<g>
		<polygon fill="#9A6517" points="14.572,55.84 14.572,55.442 65.428,55.442 65.428,55.84 14.572,55.84 		"/>
		<polygon fill="#9A6517" points="26.086,54.057 26.086,47.312 26.484,47.312 26.484,54.057 26.086,54.057 		"/>
		<polygon fill="#9A6517" points="39.834,54.057 39.834,47.312 40.231,47.312 40.231,54.057 39.834,54.057 		"/>
		<polygon fill="#9A6517" points="53.581,54.057 53.581,47.312 53.978,47.312 53.978,54.057 53.581,54.057 		"/>
	</g>
</g>
</svg>
