<?xml version="1.0" encoding="utf-8"?>
<!-- Generator: Adobe Illustrator 16.0.3, SVG Export Plug-In . SVG Version: 6.00 Build 0)  -->
<!DOCTYPE svg PUBLIC "-//W3C//DTD SVG 1.1//EN" "http://www.w3.org/Graphics/SVG/1.1/DTD/svg11.dtd">
<svg version="1.1" id="图层_1" xmlns="http://www.w3.org/2000/svg" xmlns:xlink="http://www.w3.org/1999/xlink" x="0px" y="0px"
	 width="80px" height="60px" viewBox="0 0 80 60" enable-background="new 0 0 80 60" xml:space="preserve">
<g>
	<g>
		<path fill-rule="evenodd" clip-rule="evenodd" fill="#FFFFFF" d="M38.448,43.767c-0.544-0.104-1.008-0.315-1.593-0.368
			c-0.335-0.026-0.589-0.209-0.884-0.184c-0.25-0.104-0.545-0.13-0.838-0.183c-0.126-0.264-0.8,0-0.838-0.342
			c0-0.158,0.209-0.238,0.293-0.369c0.588-0.316,1.34-0.262,2.098-0.29c0.169-0.13,0.337,0.054,0.545,0.028
			c0.336-0.159,0.712-0.317,0.881-0.554c-0.041-0.263,0.377-0.472,0.168-0.736c0.041-0.263-0.376-0.422-0.673-0.551
			c-0.921-0.079-1.886,0.052-2.767-0.028c-0.379-0.314-0.211-0.685-0.126-1.05c0.167-0.16,0.504-0.107,0.756-0.185
			c0.166,0.025,0.294,0.077,0.458,0.025c0.758-0.237,1.553,0.052,2.309-0.156c0.126-0.081,0-0.16,0-0.264
			c-0.711-0.237-1.636,0.027-2.35-0.027c-0.209,0.027-0.461,0.054-0.628,0c-0.041-0.159,0.296-0.104,0.377-0.21
			c-0.166-0.025-0.292,0.052-0.46,0.052c-0.043-0.105,0-0.261,0.042-0.365c-0.168-0.107-0.168-0.264-0.211-0.395
			c-0.378-0.106-0.797-0.342-1.217-0.158c-0.294,0.5-0.085,1.051-0.042,1.604c0,0.419,0.125,0.735,0.042,1.158
			c0.168,0.209,0.42,0.393,0.63,0.551c0.294,0,0.544-0.026,0.756-0.077c0.672,0.104,1.385-0.213,1.971,0.104
			c0.168,0.13-0.041,0.288,0,0.445c-0.083,0.291-0.586,0.133-0.881,0.263c-0.964,0-1.678,0.369-2.561,0.525
			c-0.587,0.37-0.543,0.894-0.838,1.342c-0.085,0.13,0.043,0.29-0.085,0.394c0.128,0.316,0.043,0.711,0.085,1.027
			c-0.085,0.184-0.042,0.368-0.085,0.525c0.043,0.5-0.376,0.894-0.208,1.42c0.293,0.157-0.084,0.421,0.042,0.605
			c0.166,0.235,0.462,0.446,0.796,0.553c0.252,0.13,0.587,0.052,0.798,0.184c0.713,0,1.174,0.315,1.761,0.526
			c0.085,0.131,0.044,0.316,0.336,0.368c-0.041,0.263,0.294,0.369,0.379,0.578c0.292,0.156,0.083,0.42,0.337,0.578
			c0.083,0.236,0.041,0.473,0.292,0.658c0,0.289,0.292,0.5,0.544,0.71c0.045-0.08,0.045-0.157,0.127-0.237
			c0-0.395,0.167-0.789,0.042-1.157c-0.169-0.212-0.295-0.448-0.421-0.685c-0.248-0.316-0.336-0.632-0.796-0.92
			c-0.042-0.289-0.588-0.263-0.796-0.5c-0.21-0.026-0.337-0.079-0.46-0.158c-0.591-0.053-1.094-0.342-1.597-0.474
			c-0.21-0.078-0.21-0.237-0.253-0.368c0.085-0.315-0.167-0.709,0.253-0.946c0.462,0,0.796,0.264,1.344,0.237
			c0.253,0.184,0.713,0.104,0.964,0.315c0.295,0.026,0.42,0.209,0.757,0.209c0.248,0.158,0.584,0.29,0.92,0.21
			c0.128-0.052,0.337-0.157,0.21-0.288c-0.503-0.316-1.214-0.419-1.887-0.578c-0.379-0.212-0.922-0.185-1.302-0.395
			c-0.46-0.025-0.796-0.184-1.174-0.262c-0.252-0.131-0.252-0.316-0.208-0.501c0.04-0.156,0.123-0.393,0.46-0.419
			c0.546,0.184,1.26,0.184,1.845,0.419c0.42,0.08,0.714,0.317,1.136,0.475c0.292,0.027,0.544,0.184,0.836,0.211
			c0.212,0,0.212-0.159,0.294-0.237c0.295-0.42-0.672-0.42-0.965-0.634c-1.088-0.208-2.055-0.551-3.188-0.708
			c-0.168-0.079-0.126-0.211-0.209-0.342c0.129-0.104,0.083-0.264,0.168-0.394c0.041-0.158,0.375-0.104,0.546-0.104
			c0.755,0.211,1.511,0.447,2.307,0.604c0.167,0.132,0.42,0.158,0.67,0.184c0.213,0.16,0.547,0.16,0.84,0.238
			c0.168,0.052,0.211-0.133,0.337-0.185C38.616,44.005,38.658,43.849,38.448,43.767z"/>
		<path fill-rule="evenodd" clip-rule="evenodd" fill="#FFFFFF" d="M27.498,38.063c0.964,0.025,1.763-0.027,2.726,0
			c0.127-0.052,0.547,0.025,0.465-0.133h0.082c0.044,0.028,0,0.053,0,0.081c0.127,0.104,0.254-0.028,0.379,0.025
			c0.209-0.053,0.461-0.106,0.378-0.262c-0.253-0.184-0.671-0.132-1.01-0.107c-0.628-0.025-1.216,0-1.802,0.053
			c-0.42,0-0.715-0.211-1.091-0.159c-0.212,0.159-0.587,0.212-0.924,0.212C26.576,38.088,27.288,37.878,27.498,38.063z"/>
		<path fill-rule="evenodd" clip-rule="evenodd" fill="#FFFFFF" d="M32.322,38.666c-0.544,0.079-1.09,0-1.593,0.079
			c-0.57,0.073-1.172-0.072-1.687-0.022c-0.054,0.006-0.107,0.011-0.159,0.022c-0.211-0.156-0.632-0.079-0.883-0.105
			c-0.294-0.051-0.545,0.08-0.795,0.105c-0.548,0.054-1.175-0.236-1.594,0.054c-0.168,0.104-0.672,0-0.59,0.235
			c0.211,0.027,0.211,0.185,0.379,0.238c0.378,0.079,0.879-0.105,1.219,0.052c0.205,0.29,0.71,0.526,0.71,0.867
			c0.126,0.211,0.545,0.316,0.922,0.369c0.379,0.025,0.21,0.314,0.338,0.474c-0.042,0.079-0.042,0.105,0.041,0.156
			c-0.169,0.132,0,0.237-0.083,0.368c-0.044,0.131-0.21,0.264-0.419,0.29c-0.335-0.078-0.673,0.105-1.008,0
			c-0.463-0.052-0.296-0.343-0.545-0.473c0-0.236-0.127-0.475-0.421-0.632c0-0.051-0.04-0.105-0.081-0.159
			c-0.214,0-0.381,0.026-0.546,0.08c0.041,0.158-0.21,0.29,0,0.395c0.332,0.13,0.461,0.395,0.503,0.629
			c0.165,0.211,0.418,0.448,0.794,0.475c0.381,0.237,1.01-0.026,1.427,0.185c0.086,0.131,0.086,0.314,0.086,0.445
			c0.083,0.554-0.925,0.605-1.427,0.869c-0.21,0.13-0.253,0.29-0.502,0.367c-0.044,0.343-0.63,0.5-0.549,0.869
			c-0.291,0.42-0.501,0.893-0.627,1.34c-0.335,0.315-0.084,0.657-0.169,1c0.046,0.078,0.169,0.104,0.337,0.13
			c0.248-0.052,0.127-0.263,0.248-0.42c0.256-0.132,0.088-0.42,0.34-0.604c-0.21-0.396,0.25-0.71,0.544-1.026
			c0.292-0.052,0.419,0.158,0.631,0.237c0.166,0.236,0.502,0.369,0.587,0.63c0.169,0.264,0.461,0.473,0.587,0.735
			c0.586-0.025,0.166-0.367,0.42-0.551c-0.296-0.395-0.838-0.71-1.218-1.052c-0.042-0.211-0.588-0.237-0.544-0.473
			c-0.171-0.264,0.25-0.473,0.544-0.658c0.085-0.028,0.211-0.028,0.295,0c0.251,0.211,0.586,0.395,0.881,0.605
			c0.077,0.147,0.197,0.287,0.327,0.426c0.223,0.233,0.479,0.466,0.637,0.729c0.085,0.185,0.127,0.448,0.462,0.501
			c0.376-0.079,0.209-0.316,0.082-0.474c-0.04-0.104-0.165-0.236-0.207-0.369c-0.084-0.13-0.252-0.235-0.294-0.394
			c-0.293-0.183-0.409-0.459-0.68-0.684c-0.078-0.067-0.171-0.128-0.285-0.184c-0.085-0.13-0.462-0.186-0.506-0.341
			c-0.08-0.079-0.04-0.156,0.086-0.211c0.226-0.025,0.471-0.063,0.705-0.064c0.248-0.004,0.485,0.035,0.68,0.169
			c0.336,0.08,0.588,0.237,0.713,0.448c0.253,0.104,0.379,0.264,0.462,0.42c0.042,0.265,0.252,0.5,0.252,0.763
			c0.039,0.29,0.039,0.605,0.039,0.842c0,0.263-0.418,0.394-0.711,0.525c-0.211,0.264-0.798,0.185-1.133,0.343
			c-0.094,0.055-0.195,0.108-0.302,0.158c-0.688,0.332-1.547,0.582-1.837,1.129c-0.042,0.16-0.295,0.263-0.168,0.421
			c-0.127,0.237-0.295,0.5-0.418,0.737c-0.171,0.104,0.081,0.237,0,0.314c-0.044,0.42-0.126,0.79,0,1.21c0,0,0.038-0.052,0.081,0
			c-0.168,0.08,0.042,0.185,0.042,0.29c0.378,0.051,0.253-0.186,0.463-0.29c-0.042-0.105,0.25-0.342-0.085-0.342
			c0.419-0.104,0.167-0.525,0.251-0.814c0.084-0.16,0.168-0.344,0.168-0.527c0.254-0.316,0.38-0.683,0.798-0.972l-0.042-0.053
			c0.166-0.026,0.294-0.185,0.42-0.316c0.103-0.079,0.212-0.15,0.327-0.217c0.306-0.178,0.65-0.321,1.016-0.494
			c0.545-0.027,1.047-0.235,1.469-0.447c-0.042-0.21,0.334-0.183,0.377-0.394c-0.043-0.288,0.124-0.552,0-0.842
			c-0.126-0.288-0.084-0.604-0.294-0.868c-0.125-0.367-0.461-0.735-0.965-0.971c0-0.104-0.128-0.186-0.21-0.29
			c-0.377-0.264-1.091-0.237-1.257-0.63c0.082-0.239-0.17-0.475,0.041-0.684c0.21-0.106,0.503-0.027,0.755-0.053
			c0.376-0.131,0.882-0.131,1.214-0.315c0.339-0.054,0.632-0.237,0.673-0.446c0.081-0.343,0.419-0.659,0.211-1.026
			c-0.085-0.079-0.168-0.21-0.338-0.184c-0.207,0.053-0.169,0.184-0.207,0.288c-0.546,0.263-0.211,0.87-0.924,1.052
			c-0.38,0.054-0.755,0.079-1.092,0.106c-0.378-0.028-0.167-0.316-0.251-0.448c0.126-0.183-0.041-0.395,0.084-0.604
			c0.209-0.262,0.714-0.262,1.091-0.371c0.082-0.024,0.21-0.128,0.335-0.128c0.546-0.29,0.044-0.869,0.671-1.158
			c0.293,0,0.631-0.027,0.922-0.027c0.169-0.025,0.212-0.131,0.212-0.262C32.532,38.72,32.407,38.72,32.322,38.666z M30.017,40.087
			c-0.337,0.079-0.63,0.158-0.924,0.132l-0.05,0.003c-0.28,0.025-0.595,0.044-0.831-0.031c-0.252-0.288-0.292-0.631-0.211-0.945
			c0.307-0.149,0.667-0.147,1.042-0.112c0.293,0.025,0.596,0.073,0.89,0.084c0.209,0.105,0.126,0.288,0.167,0.421
			C30.142,39.797,30.142,39.982,30.017,40.087z"/>
		<path fill-rule="evenodd" clip-rule="evenodd" fill="#FFFFFF" d="M45.674,40.222c-0.045,0.092,0.178,0.153,0,0.214v0.887
			c0.225,0.553,0.133,1.285,0.225,1.867c0.179,0.52,0.443,1.162,1.337,1.345c0.536,0.123,1.162,0.123,1.697,0.216
			c0.535-0.032,1.072,0.061,1.607,0.029c0.064,0.013,0.129,0.022,0.194,0.03c0.426,0.046,0.848,0.001,1.235,0.001
			c0.803,0.183,1.562-0.124,2.277-0.337c0.402-0.275,1.025-0.488,1.249-0.886c0.092-0.61,0.403-1.192,0.314-1.804
			c0.179-0.276-0.044-0.582,0.044-0.889c0-0.396-0.044-0.855,0.045-1.224c-0.225-0.426,0.133-1.07-0.581-1.375
			c-0.133-0.061-0.267-0.029-0.357,0.093c-0.133,0.459-0.133,1.009-0.042,1.498c-0.046,0.062-0.181,0.121-0.316,0.091
			c-0.22-0.152-0.58-0.152-0.848-0.275c-0.401-0.09-0.759-0.305-1.206-0.367c-0.4-0.15-0.847-0.273-1.204-0.52
			c-0.045-0.244,0.045-0.457,0.09-0.703c-0.175-0.262-0.322-0.639-0.7-0.819c-0.105-0.049-0.228-0.084-0.372-0.097
			c-0.178,0-0.27,0.12-0.357,0.182c-0.045,0.459-0.178,0.918-0.133,1.408c-0.179,0.336-0.718,0.367-1.118,0.52
			c-0.671,0.184-1.34,0.489-2.097,0.613c-0.403-0.217-0.135-0.584-0.135-0.857c-0.045-0.307,0.355-0.673-0.181-0.857
			c-0.223,0-0.401,0.123-0.579,0.185c-0.178,0.153-0.224,0.366-0.178,0.55C45.272,39.396,45.629,39.794,45.674,40.222z
			 M53.667,44.168c-0.948,0.175-1.939,0.271-2.933,0.286c-0.739,0.009-1.479-0.024-2.203-0.102
			c-0.401-0.123-0.982-0.062-1.296-0.336c-0.179-0.215-0.445-0.521-0.312-0.797c0.404-0.151,0.983-0.121,1.43-0.213
			c0.794-0.02,1.569-0.057,2.382-0.076c0.373-0.009,0.754-0.017,1.146-0.017c0.848-0.03,1.741-0.153,2.544,0.063l0.136,0.121
			C54.692,43.555,54.157,43.924,53.667,44.168z M54.738,42.516c-0.313,0.122-0.716-0.059-1.027,0.091
			c-0.715-0.091-1.475-0.029-2.143,0.061c-0.263-0.029-0.569,0.088-0.834-0.023c-0.005-0.003-0.009-0.004-0.015-0.007
			c-0.627-0.03-1.295,0.093-1.92,0c-0.358,0.062-0.762,0.031-1.115,0.093c-0.357-0.031-0.85,0.092-1.072-0.184
			c-0.18-0.152-0.135-0.428-0.044-0.611c0.31-0.307,0.89-0.184,1.338-0.246c0.759,0.094,1.294-0.092,2.054-0.03
			c0.238-0.036,0.509-0.04,0.774-0.045c0.18-0.001,0.358-0.003,0.521-0.017c0.268-0.121,0.58,0.031,0.848-0.061
			c0.356,0.061,0.714-0.03,1.027,0.031c0.447,0.061,0.982,0.061,1.384,0c0.135,0.029,0.358,0.061,0.358,0.184
			C54.781,42.026,55.007,42.303,54.738,42.516z M47.458,40.313c0.359-0.092,0.717-0.214,1.073-0.337
			c0.357-0.152,0.761-0.213,1.115-0.365c0.389-0.02,0.727-0.192,1.088-0.269c0.219-0.046,0.447-0.058,0.7,0.024
			c0.49,0.214,0.938,0.458,1.472,0.61c0.493,0.337,1.163,0.398,1.786,0.611c0.089,0.123,0.269,0.275,0.136,0.43
			c-0.268,0.213-0.759,0.091-1.117,0.123c-0.67,0.153-1.386,0.153-2.098,0.09c-0.265,0.11-0.577,0.09-0.879,0.055
			c-0.209-0.024-0.415-0.055-0.597-0.055c-0.626,0.031-1.205,0.031-1.785,0.063l-0.043-0.032c-0.448-0.061-1.074,0.215-1.475-0.061
			c-0.178,0.029-0.357-0.031-0.357-0.153C46.433,40.65,47.057,40.467,47.458,40.313z"/>
		<path fill-rule="evenodd" clip-rule="evenodd" fill="#FFFFFF" d="M55.806,50.805c-0.669-0.102-1.261,0.05-1.928,0
			c-0.517,0.101-0.962-0.026-1.441,0.025c-0.446-0.051-1.002,0.075-1.333-0.152c-0.15-0.202,0.184-0.354,0.258-0.557
			c-0.148-0.407-0.111-0.862-0.185-1.294c0.073-0.204-0.038-0.507,0.331-0.634c0.371,0.026,0.669,0.026,1.038,0.026
			c0.592,0.077,1.185-0.075,1.777,0c0.406-0.051,0.889,0.152,1.222-0.075c0.075-0.052,0-0.127-0.073-0.178
			c-0.41-0.05-0.927-0.102-1.334-0.05c-0.593-0.102-1.259-0.128-1.851-0.102c-0.335-0.152-0.741,0.076-0.963-0.229
			c-0.221-0.508,0.148-1.015-0.037-1.547l0.11-0.051c0.813-0.052,1.481,0.152,2.26,0.051c0.63,0.075,1.222-0.026,1.888,0.051
			c0.109-0.051,0.222-0.103,0.187-0.203c-0.077-0.102-0.335-0.153-0.484-0.229c-0.555-0.025-1.034,0.076-1.555,0
			c-0.517,0.102-1.184,0-1.665,0.076c-0.112-0.025-0.259,0-0.408,0c-0.592-0.152-1.184,0.126-1.74-0.025
			c-0.591,0.1-1.111,0-1.664-0.026l-0.408-0.025c-0.706-0.279-1.481,0.076-2.148,0.102c-0.11,0.076-0.332,0-0.332,0.153
			c0.074,0.177,0.442,0.126,0.63,0.201c0.22-0.024,0.369-0.049,0.591-0.024c0.296-0.103,0.665,0,0.964-0.077
			c0.072,0.026,0.221,0.052,0.296,0c0.665-0.025,1.628,0,2.296,0.026c0.147,0.051,0.184,0.178,0.221,0.202l0.038-0.024
			c0.036,0.024,0.036,0.049,0.036,0.049c-0.036,0-0.036,0.025-0.036,0c-0.075,0.457,0.11,0.887,0,1.319
			c-0.187,0.305-0.741,0.253-1.148,0.305c-0.147,0-0.334-0.127-0.481-0.026c-0.222,0.077-0.517-0.025-0.74,0.026
			c-0.63-0.076-1.332-0.076-1.888,0.026c-0.259,0.125-0.556-0.026-0.777,0.125c-0.111,0.026-0.111,0.152,0,0.152
			c0.406,0.103,0.703,0.127,1.108,0.127c0.818-0.101,1.557-0.077,2.37-0.077c0.336-0.024,0.744,0.104,1.074,0
			c0.15,0.025,0.296,0.025,0.444,0.128c0,0.252,0.112,0.583-0.334,0.762c0.148,0.151,0.223,0.328,0.186,0.506
			c0,0.355,0.261,0.735-0.037,1.04c-0.518,0.127-0.997-0.026-1.519,0.025l-0.035,0.026c-0.555-0.077-1.148-0.026-1.703,0
			c-0.482-0.253-0.925,0.076-1.443,0.05c-0.444,0.126-1.148-0.05-1.262,0.354c0.373,0.33,1,0.075,1.482,0.103
			c0.63,0.127,1.261-0.027,1.89,0c0.184,0.051,0.405-0.027,0.591,0.026c0.038,0,0.076-0.026,0.113-0.053
			c0.108,0.079,0.258,0.027,0.367,0.079c0.26-0.079,0.669,0.024,0.93-0.079c0.554,0.128,1.181-0.024,1.775,0.053
			c0.591-0.128,1.222,0.025,1.889-0.053c0.369,0.154,0.887-0.048,1.258,0.103c0.259,0.103,0.444-0.075,0.705-0.049
			c0.556-0.128,1.108,0.126,1.629-0.077c0.073-0.051,0.111-0.151,0.111-0.252C56.543,50.881,56.211,50.729,55.806,50.805z"/>
	</g>
	<g>
		<path fill="#946825" d="M21.277,21.798c-0.17-0.104-0.356-0.211-0.56-0.318c0,0,0.255,0.164,0.56,0.443
			c0.724,0.667,1.724,2.002,0.247,3.41C21.524,25.333,24.705,23.9,21.277,21.798z"/>
		<path fill="#946825" d="M62.86,17.653c0,0,0.116,0.317,0.478,0.428c0.141,0.042,0.32,0.053,0.546,0.002
			c0,0,0.175-0.063,0.31-0.178c0.152-0.125,0.251-0.312,0-0.541c-0.041-0.037-0.094-0.077-0.156-0.117c0,0-0.848-0.457-0.082-0.985
			c0,0-0.312-0.012-0.617,0.096C62.939,16.498,62.55,16.835,62.86,17.653z"/>
		<path fill="#946825" d="M63.338,18.467c0.131,0.012,0.213,0.012,0.213,0.012c-0.074-0.025-0.146-0.054-0.213-0.083
			c-2.19-0.932-0.58-3.428-0.58-3.428C60.457,17.966,62.617,18.404,63.338,18.467z"/>
		<path fill="#946825" d="M19.736,21.833c0.127,0.264,0.214,0.586,0.248,0.973c0,0,0.373,0.101,0.661-0.216l0.009-0.008
			c0,0-0.003-0.019-0.009-0.051c-0.033-0.219-0.212-1.084-0.909-1.66c-0.481-0.398-1.214-0.657-2.319-0.465
			c-0.346,0.06-0.729,0.163-1.151,0.32c0,0,0.509-0.132,1.151-0.128C18.232,20.601,19.26,20.828,19.736,21.833z"/>
		<path fill="#946825" d="M35.598,4.557c-0.156-0.005-0.246-0.031-0.246-0.031c0.083,0.049,0.166,0.091,0.246,0.127
			c1.105,0.5,1.976-0.046,1.976-0.046c0.939-0.446,1.256,0.123,1.256,0.123c0.141,0.646-0.476,0.854-0.476,0.854
			C38.518,5.754,39,5.532,39,5.532c0.028-0.013,0.055-0.028,0.079-0.042c0.541-0.307,0.814-1.055,0.814-1.055
			c0.184-0.326,0.39-0.579,0.602-0.777c0.228-0.215,0.463-0.363,0.688-0.466c0.51-0.233,0.968-0.229,1.172-0.212
			c0.072,0.007,0.112,0.014,0.112,0.014c-0.038-0.028-0.074-0.055-0.112-0.082c-0.421-0.308-0.812-0.517-1.172-0.651
			c-0.244-0.091-0.474-0.146-0.688-0.176c-0.57-0.076-1.042,0.037-1.416,0.215c-0.667,0.32-1.013,0.847-1.013,0.847
			C37.045,4.439,36.046,4.574,35.598,4.557z M38.517,3.237c0.189-0.198,0.378-0.345,0.562-0.458c0.539-0.323,1.046-0.33,1.416-0.255
			c0.363,0.071,0.595,0.222,0.595,0.222c-0.209-0.025-0.409-0.017-0.595,0.011C39.72,2.875,39.17,3.349,39.17,3.349
			c-0.031,0.022-0.061,0.044-0.091,0.065C37.896,4.27,37.07,4.373,37.07,4.373C37.954,4.044,38.517,3.237,38.517,3.237z"/>
		<path fill="#946825" d="M63.338,15.897c0.312,0.079,0.531-0.108,0.531-0.108c-0.344-0.967-0.105-1.653,0.324-2.131
			c0.404-0.45,0.979-0.716,1.405-0.865c0.333-0.114,0.575-0.156,0.575-0.156c-0.206,0.015-0.396,0.039-0.575,0.067
			c-0.598,0.096-1.056,0.265-1.405,0.476c-0.433,0.261-0.698,0.584-0.855,0.917c-0.409,0.856-0.108,1.764-0.108,1.764
			C63.268,15.877,63.302,15.889,63.338,15.897z"/>
		<path fill="#946825" d="M41.726,4.397c0,0,0.048,0.621-0.542,1.292c-0.171,0.194-0.396,0.392-0.688,0.582
			c-0.176,0.112-0.372,0.218-0.597,0.32c0,0,0.233,0.04,0.597-0.004c0.197-0.023,0.432-0.072,0.688-0.166
			c0.367-0.132,0.774-0.359,1.172-0.736c0.222-0.21,0.44-0.467,0.646-0.783c0,0,1.044-1.711,2.033-1.575
			c0,0-1.098-0.535-2.177,0.368c0,0-0.221,0.218-0.502,0.413C42.157,4.245,41.928,4.37,41.726,4.397z"/>
		<path fill="#946825" d="M20.646,27.009c-0.16,0.032-0.255,0.067-0.255,0.067c0.087,0,0.173,0.003,0.255,0.007
			c0.23,0.015,0.441,0.047,0.632,0.088c0.914,0.202,1.379,0.648,1.379,0.648c0.49,0.309,0.852,0.051,0.852,0.051
			c0.918-0.741,0.018-1.118,0.018-1.118c-0.59-0.086-0.631,0.653-0.631,0.653c-0.567-0.373-1.154-0.468-1.617-0.464
			C21.021,26.944,20.802,26.976,20.646,27.009z"/>
		<path fill="#946825" d="M49.638,7.296c-1.056-0.84-0.405-1.783,0.017-2.223c0.152-0.16,0.273-0.254,0.273-0.254
			c-0.099,0.064-0.188,0.126-0.273,0.188C47.511,6.559,49.638,7.296,49.638,7.296z"/>
		<path fill="#946825" d="M49.382,6.596c0,0,0.01,0.286,0.272,0.434c0.075,0.042,0.171,0.073,0.292,0.083
			c0,0,0.653,0.042,0.294-0.508c0,0-0.448-0.496,0.174-0.662c0,0-0.453-0.18-0.76-0.005C49.492,6.033,49.372,6.225,49.382,6.596z"/>
		<path fill="#946825" d="M54.131,4.395c0,0-0.123,0.343-0.727,0.531C53.168,5,52.86,5.05,52.458,5.045c0,0-0.198-0.029-0.426-0.011
			c-0.392,0.032-0.871,0.209-0.572,0.938c0,0,0.043-0.563,0.572-0.686c0.153-0.036,0.346-0.034,0.592,0.027
			c0,0,0.369,0.076,0.78-0.016c0.35-0.078,0.73-0.274,0.941-0.74c0,0,0.468-0.817,1.096-1.142
			C55.441,3.417,54.87,3.479,54.131,4.395z"/>
		<path fill="#946825" d="M52.032,4.303c-0.378,0.024-0.682,0.138-0.682,0.138c-0.014,0.007-0.026,0.013-0.04,0.019
			c-0.826,0.382-0.582,1.21-0.582,1.21c0.202,0.542-0.144,1.093-0.144,1.093c0.782-0.028,0.554-0.938,0.554-0.938
			c-0.068-0.398,0.02-0.65,0.172-0.809c0.206-0.215,0.527-0.256,0.722-0.259c0.102-0.001,0.167,0.008,0.167,0.008
			c0.552,0.005,0.938-0.083,1.205-0.195c0.429-0.18,0.549-0.418,0.549-0.418c0.718-0.799,1.325-0.938,1.325-0.938
			c1.938-0.528,2.182-1.416,2.182-1.416c-0.61,0.848-1.51,0.854-1.51,0.854c-1.575,0.148-2.276,1.34-2.276,1.34
			c-0.084,0.139-0.176,0.237-0.27,0.305c-0.348,0.25-0.711,0.084-0.711,0.084C52.476,4.305,52.243,4.291,52.032,4.303z"/>
		<path fill="#946825" d="M50.468,5.613c-0.001-0.794,0.389-1.189,0.843-1.381c0.238-0.101,0.494-0.146,0.722-0.163
			c0.374-0.027,0.667,0.023,0.667,0.023c-0.244-0.067-0.465-0.109-0.667-0.13c-0.277-0.029-0.516-0.021-0.722,0.018
			c-1.253,0.233-1.277,1.531-1.277,1.531C50.233,5.7,50.468,5.613,50.468,5.613z"/>
		<path fill="#946825" d="M21.277,28.304c-0.035-0.039-0.07-0.081-0.105-0.124c0,0-0.213,0.017-0.526,0.003
			c-0.257-0.012-0.582-0.044-0.909-0.124c-0.537-0.131-1.082-0.39-1.354-0.894c0,0-0.086-1.099-0.906-1.503
			c0,0,0.653,0.743,0.546,1.629c0,0-0.066,0.853,1.715,1.141c0.262,0.042,0.562,0.073,0.909,0.086
			c0.07,0.003,0.14,0.003,0.213,0.005c0,0,0.171,0.141,0.419,0.283c0.393,0.224,0.98,0.448,1.391,0.114
			C22.668,28.921,21.859,28.925,21.277,28.304z"/>
		<path fill="#946825" d="M57.468,25.254c0.061,0.088,0.09,0.155,0.09,0.155c-0.01-0.146-0.044-0.273-0.09-0.38
			c-0.155-0.352-0.438-0.494-0.438-0.494c-0.733-0.373-0.534-0.703-0.539-0.698c0.121-0.382,0.726-0.213,0.978-0.126
			c0.065,0.023,0.106,0.042,0.106,0.042c-0.037-0.047-0.072-0.089-0.106-0.128c-0.706-0.788-1.199-0.429-1.199-0.429
			c-0.307,0.206-0.627,0.08-0.627,0.08c-0.323-0.181,0.058-0.267,0.058-0.267c0.628-0.027,1.002-0.345,1.002-0.345
			c-0.374,0.174-0.988-0.13-0.988-0.13c-0.994-0.325-1.726,0.641-1.726,0.641c-0.227,0.191-0.42,0.286-0.583,0.318
			c-0.568,0.117-0.776-0.521-0.776-0.521c0.101,0.591,0.426,0.795,0.776,0.828c0.495,0.049,1.038-0.242,1.038-0.242
			c0.928-0.463,1.143,0.812,1.143,0.812c0.277-0.031,0.417,0.351,0.417,0.351c0.277,0.657-0.778,1.02-0.778,1.02
			c0.962,0.292,1.104-0.47,1.104-0.47c0.076-0.358,0.401-0.425,0.401-0.425C57.1,24.819,57.344,25.078,57.468,25.254z"/>
		<path fill="#946825" d="M63.338,26.723c-1.348,0.781-2.807,0.979-2.807,0.979c-0.056,0.008-0.108,0.02-0.157,0.03
			c-0.504,0.123-0.648,0.43-0.648,0.43c-0.562,1.081-1.458,0.942-1.458,0.942c-0.354-0.062-0.612-0.196-0.8-0.372
			c-0.697-0.648-0.422-1.843-0.422-1.843c-0.463,1.328,0.074,2.002,0.422,2.278c0.139,0.112,0.248,0.16,0.248,0.16
			c1.358,0.699,2.062-0.697,2.062-0.697c0.163-0.256,0.396-0.408,0.597-0.494c0.227-0.099,0.413-0.119,0.413-0.119
			c1.185-0.225,1.996-0.588,2.551-0.95c0.419-0.277,0.688-0.552,0.855-0.769c0.193-0.248,0.254-0.417,0.254-0.417
			c-0.083,0.082-0.167,0.162-0.254,0.235C63.924,26.351,63.634,26.552,63.338,26.723z"/>
		<path fill="#946825" d="M65.599,21.828c-0.412,0.559-0.884,1.31-1.405,2.32l-0.004,0.005c0,0-0.245,0.526-0.852,1.084
			c-0.587,0.539-1.509,1.107-2.866,1.259l-0.098,0.007l-0.71,0.052c0,0-0.818-0.888-1.98-0.443c0,0,1.333-0.159,1.768,1.056
			c0,0,0.379-0.07,0.923-0.208c0.858-0.218,2.126-0.608,2.964-1.179c0.261-0.178,0.481-0.374,0.633-0.588
			c0,0,0.081-0.113,0.223-0.335c0.223-0.349,0.593-0.966,1.025-1.837c0,0,0.144-0.315,0.38-0.735
			c0.392-0.692,1.034-1.674,1.705-2.016c0.051-0.026,0.099-0.047,0.148-0.066c0,0-0.051,0.003-0.148,0.04
			C67.041,20.345,66.446,20.681,65.599,21.828z"/>
		<path fill="#946825" d="M65.599,22.895c-0.288,0.465-0.618,1.062-0.974,1.818c0,0-0.106,0.281-0.432,0.656
			c-0.196,0.227-0.474,0.488-0.855,0.741c-0.451,0.298-1.048,0.586-1.83,0.794c0,0-0.559,0.097-1.134,0.295
			c-0.475,0.164-0.96,0.396-1.157,0.701c0,0-0.452,0.754-1.024,0.511c0,0-0.509-0.287-0.15-0.631c0,0,0.671,0.411,0.89-0.23
			c0,0,0.271-0.756-1.01-0.769c0,0-0.251-0.005-0.454,0.188c-0.076,0.07-0.145,0.168-0.19,0.303c-0.094,0.262,0,0.551,0.129,0.873
			c0,0,0.02,0.042,0.062,0.107c0.145,0.226,0.558,0.716,1.287,0.468c0,0,0.462-0.181,0.795-0.798c0,0,0.141-0.258,0.824-0.457
			c0.114-0.032,0.243-0.063,0.39-0.093c0,0,1.36-0.209,2.574-0.885c0.302-0.168,0.595-0.365,0.855-0.597
			c0.319-0.283,0.591-0.613,0.771-1.001c0,0,0.269-0.737,0.635-1.548c0.363-0.799,0.822-1.669,1.217-1.974
			C66.815,21.366,66.338,21.706,65.599,22.895z"/>
		<path fill="#946825" d="M71.549,7.204c-0.424,1.449-1.644,1.895-1.644,1.895c-2.072,0.966-2.454,2.928-2.454,2.928
			c-0.03,0.162-0.083,0.298-0.147,0.412c-0.329,0.572-0.995,0.59-0.995,0.59c-0.247,0.002-0.487,0.053-0.71,0.128
			c-0.619,0.21-1.09,0.606-1.09,0.606c-0.135,0.125-0.237,0.25-0.315,0.375c-0.397,0.642-0.132,1.263,0,1.5
			c0.036,0.064,0.062,0.099,0.062,0.099c0.536,0.643,0.329,1.558,0.329,1.558c1.051-0.417,0.303-1.545,0.303-1.545
			c-0.683-1.215,0.26-1.722,0.712-1.888c0.131-0.048,0.221-0.068,0.221-0.068c0.704-0.199,1.172-0.48,1.484-0.755
			c0.534-0.473,0.605-0.932,0.605-0.932c0.59-1.433,1.352-1.917,1.352-1.917C71.647,8.53,71.549,7.204,71.549,7.204z"/>
		<path fill="#946825" d="M68.269,12.353c0,0-0.126,0.728-0.965,1.254c-0.259,0.161-0.581,0.302-0.988,0.399
			c0,0-0.371,0.079-0.717,0.27c-0.477,0.265-0.902,0.743-0.209,1.519c0,0-0.153-0.57,0.209-1.001
			c0.188-0.222,0.51-0.406,1.059-0.459c0,0,0.289-0.042,0.646-0.191c0.545-0.228,1.252-0.707,1.336-1.673
			c0,0,0.243-1.337,0.941-2.083C69.581,10.388,68.832,10.746,68.269,12.353z"/>
		<path fill="#946825" d="M20.115,23.316c0.318,0.055,0.471,0.178,0.53,0.321c0.051,0.118,0.036,0.25,0,0.365
			c-0.057,0.184-0.167,0.332-0.167,0.332c-0.295,0.589-0.075,0.751,0.167,0.781c0.181,0.024,0.371-0.024,0.371-0.024
			c0.099-0.033,0.185-0.07,0.261-0.108c0.615-0.314,0.56-0.788,0.56-0.788c-0.041-0.608-0.275-0.893-0.56-1.009
			c-0.203-0.081-0.432-0.077-0.632-0.042C20.35,23.198,20.115,23.316,20.115,23.316z"/>
		<path fill="#946825" d="M18.476,23.508c0.372-1.202-0.433-1.404-1.059-1.393c-0.35,0.005-0.643,0.077-0.643,0.077
			c-0.655,0.079-1.167,0.028-1.563-0.077c-0.854-0.226-1.159-0.708-1.159-0.708c-1.293-1.338-2.2-1.352-2.2-1.352
			c1.034,0.42,1.884,1.637,1.884,1.637c0.421,0.627,0.973,0.901,1.476,1.001c0.721,0.147,1.342-0.054,1.342-0.054
			c0.346-0.121,0.631-0.157,0.864-0.135C18.321,22.589,18.476,23.508,18.476,23.508z"/>
		<path fill="#946825" d="M14.298,21.001c0,0,0.222,0.354,0.913,0.576c0.436,0.138,1.059,0.226,1.931,0.14
			c0,0,0.11-0.025,0.275-0.037c0.537-0.038,1.663,0.059,1.54,1.553c0,0-0.203,1.28,0.779,1.391c0.068,0.007,0.143,0.009,0.222,0.004
			c0,0-0.111-0.146-0.222-0.383c-0.148-0.321-0.297-0.806-0.156-1.315c0,0,0.275-1.382-1.15-1.843c0,0-0.45-0.125-1.013-0.123
			c-0.353,0.002-0.75,0.053-1.108,0.215c0,0-0.528,0.302-1.098-0.014c-0.165-0.094-0.336-0.237-0.497-0.459
			c0,0-1.271-1.775-3.767-1.784c0,0-1.418,0.119-2.496-1.13c0,0,0.508,1.361,3.63,1.917C12.081,19.71,13.059,19.843,14.298,21.001z"
			/>
		<path fill="#946825" d="M22.641,28.262c0,0-0.481-0.09-1.023-0.727c0,0-0.13,0.004-0.34-0.001
			c-0.169-0.003-0.388-0.012-0.632-0.033c-0.283-0.024-0.602-0.064-0.909-0.131c-0.437-0.095-0.849-0.243-1.111-0.471
			c0,0,0.363,0.45,1.111,0.712c0.258,0.092,0.561,0.16,0.909,0.182c0.197,0.011,0.408,0.007,0.632-0.015
			c0.032-0.004,0.064-0.007,0.096-0.011c0,0,0.518,0.969,1.688,0.955c0,0,1.027,0.028,1.192-1.195
			C24.254,27.526,24.005,28.532,22.641,28.262z"/>
		<path fill="#946825" d="M54.072,32.4c0,0,0.359-0.012,0.428-0.257c0,0-0.826,0.334-1.096-0.327
			c-0.023-0.055-0.041-0.116-0.056-0.185c0,0-0.029-0.24,0.056-0.443c0.018-0.046,0.044-0.09,0.076-0.129
			c0.354-0.658,0.984-0.141,0.984-0.141c-0.069-0.372-0.568-0.365-0.568-0.365s-0.118-0.251-0.492-0.088
			c-0.107,0.048-0.236,0.128-0.388,0.259c0,0,0.028-0.865,0.388-1.67c0.067-0.152,0.146-0.302,0.239-0.442
			c0,0,0.243-0.12,0.221-0.439c0,0,1.02-0.567,0.704-1.331c0,0-0.158,0.354-0.526,0.433c0,0,0.819-0.983,0.283-1.892
			c0,0,0.045,0.358-0.263,0.558c0,0,0.331-1.05-0.621-1.557c0,0-0.012-0.009-0.037-0.024c-0.076-0.042-0.267-0.129-0.553-0.15
			c0,0-0.298-0.006-0.492-0.186c-0.307-1.621,0.371-2.352,1.045-2.684c0.557-0.275,1.111-0.275,1.111-0.275
			c1.172-0.184,2.246,0.64,2.952,1.375c0.524,0.55,0.844,1.051,0.844,1.051c0.738,1.076,1.452,1.546,2.062,1.708
			c1.067,0.285,1.817-0.371,1.817-0.371c-0.671,0.057-1.287-0.125-1.817-0.402c-1.152-0.597-1.894-1.638-1.894-1.638
			c0.637,0.58,1.376,0.903,1.894,1.074c0.388,0.126,0.65,0.169,0.65,0.169c1.078,0.192,1.811,0.037,2.313-0.258
			c0.444-0.263,0.705-0.636,0.855-0.971c0.193-0.426,0.21-0.791,0.21-0.791c-0.071,0.065-0.141,0.125-0.21,0.181
			c-0.31,0.248-0.597,0.402-0.855,0.484c-1.232,0.386-1.889-0.818-1.889-0.818c-0.294-0.609-0.726-1.002-1.075-1.239
			c-0.329-0.224-0.585-0.311-0.585-0.311c-0.731-0.284-1.661-0.288-2.321-0.241c-0.494,0.036-0.838,0.1-0.838,0.1l0.838-0.264
			l0.268-0.084c1.127-0.147,2.002,0.161,2.639,0.57c0.886,0.569,1.31,1.334,1.31,1.334s0.983-0.025,1.654-0.758
			c0.321-0.354,0.573-0.872,0.606-1.633c-0.21,0.113-0.413,0.196-0.606,0.255c-1.666,0.506-2.814-0.712-2.814-0.712
			c-0.05-0.04-0.099-0.077-0.149-0.113c-1.122-0.815-2.165-0.771-2.906-0.542c-0.682,0.209-1.107,0.575-1.107,0.575
			c0.38-0.582,0.761-0.919,1.107-1.106c0.812-0.438,1.438-0.047,1.438-0.047c0.602,0.384,1.085,0.584,1.468,0.674
			c0.906,0.216,1.246-0.182,1.246-0.182c-0.29,0.231-0.824,0.016-1.246-0.228c-0.347-0.197-0.621-0.414-0.621-0.414
			c-0.924-0.84-1.698-0.876-2.285-0.639c-0.791,0.319-1.239,1.13-1.239,1.13c-0.777,1.594-2.483,2.022-2.483,2.022
			s-0.129,0.019-0.341,0.082c-0.321,0.098-0.834,0.297-1.372,0.69c-0.24,0.176-0.485,0.389-0.722,0.65
			c-0.814,0.897-1.52,2.345-1.523,4.67c0,0,0.03,0.68-0.133,1.393c-0.231,1.016-0.854,2.103-2.512,1.405
			c0,0-0.047-0.026-0.119-0.081c-0.274-0.206-0.914-0.822-0.725-1.976c0.271-0.101,0.529-0.293,0.725-0.465
			c0.208-0.181,0.342-0.339,0.342-0.339c0.568-0.578,1.422,0.531,1.422,0.531c0.767-1.806-0.164-2.75-0.63-3.086
			c0.452-0.697,1.02-1.599,1.497-2.431c0.333-0.583,0.622-1.131,0.798-1.554c0.373-0.748,0.654-1.441,0.858-2.086
			c0.214-0.678,0.342-1.302,0.399-1.873c0.029-0.156,0.112-0.486,0.322-0.699c0.223-0.222,0.587-0.314,1.181,0.07
			c0,0-0.271,0.241-0.122,0.593c0,0,0.126-0.145,0.313-0.289c0.307-0.236,0.779-0.465,1.146-0.043c0,0,0.835-0.134,1.092,0.158
			c0,0-0.655,0.071-0.646,0.55c0,0-1.446,0.822-0.426,1.812c0,0-0.715-1.27,0.879-1.332c0,0,0.946,0,1.03-0.639
			c0,0,0.047-0.494,0.572-0.334c0,0,0.212,0.089,0.416-0.11c0.087-0.088,0.174-0.229,0.24-0.457
			c1.021-2.361,2.351-0.767,2.351-0.767c0.019-1.184-1.121-0.919-1.121-0.919s-0.586-0.051-0.667,0.422c0,0-0.717,0.011-0.784,0.541
			c0,0-0.007,0.016-0.019,0.04c-0.048,0.082-0.184,0.251-0.467,0.106c0,0-0.277-0.303-0.016-0.673c0,0,0.646-0.889,0.191-2.144
			c0,0-0.574-1.305-0.91-1.621c0,0-0.456-0.479,0.49-0.07c0,0,0.326,0.173,0.711,0.557c0.085,0.088,0.175,0.185,0.264,0.292
			c0,0-0.019-0.452-0.264-0.924c-0.155-0.292-0.396-0.593-0.777-0.796c0,0-0.575-0.249-0.525-0.564c0,0-0.05-0.409,1.004,0.179
			c0,0-0.703-1.238-1.76-1.045c0,0-0.684,0.151-0.881-0.156c0,0-0.294-0.311,0.647-0.218c0,0,0.839,0.061,1.06-0.075
			c0,0-0.65-0.636-1.406-0.268c0,0-0.395,0.151-0.759-0.037c0,0-0.298-0.096-0.666-0.037c-0.279,0.045-0.597,0.178-0.855,0.506
			c0,0-0.208,0.19-0.517,0.405c-0.204,0.143-0.455,0.295-0.722,0.411c-0.245,0.106-0.504,0.181-0.75,0.184
			c0,0-0.378,0.059-0.776-0.181c0,0-0.046-0.042-0.13-0.093c-0.238-0.146-0.776-0.377-1.415-0.013
			c-0.141-0.14-0.278-0.206-0.44-0.17c-0.206-0.098-0.48-0.191-0.775-0.192c-0.393,0-0.818,0.166-1.159,0.709
			c0,0-0.008-0.001-0.022-0.001c-0.136,0.001-0.868,0.036-1.001,0.711c0,0-0.068,0.269,0.095,0.515
			c-0.18,0.208-0.336,0.382-0.461,0.517c-0.505,0.244-0.981,0.556-1.429,0.911c-0.857-0.699-0.255-1.926-0.255-1.926
			c-0.158,0.082-0.303,0.169-0.436,0.262c-0.588,0.408-0.952,0.919-1.172,1.438c-0.433,1.011-0.319,2.05-0.26,2.412
			c-0.151,0.194-0.295,0.386-0.429,0.573c-0.453,0.629-0.805,1.202-1.04,1.611c-0.172-0.033-0.292-0.092-0.376-0.167
			c-0.321-0.29-0.05-0.801-0.05-0.801c-1.38,1.28-1.056,3.009-0.888,3.592c-0.832,1.626-1.669,3.127-1.669,3.127
			c-0.025,0.044-0.051,0.084-0.075,0.125c-0.192-0.163-0.451-0.3-0.8-0.357c-0.033-0.005-0.07-0.01-0.104-0.015
			c0,0-0.223-0.897-0.898-1.322c-0.347-0.221-0.813-0.316-1.432-0.101c0,0-0.021-0.015-0.053-0.041
			c0.601-0.558,1.195-1.009,1.484-1.221c0.114-0.082,0.181-0.128,0.181-0.128c0.295-0.197,0.567-0.391,0.822-0.584
			c0.077-0.058,0.151-0.116,0.224-0.173c0.283,0.049,0.834,0.279,0.393,1.32c0,0,1.827-1.229,1.415-3.14
			c1.248-1.712,1.032-3.136,0.608-4.055c0.303,0.081,0.586,0.104,0.842,0.09c0.74-0.042,1.268-0.386,1.416-0.492
			c0.026-0.02,0.04-0.029,0.04-0.029c-0.014,0.003-0.026,0.005-0.04,0.009c-0.662,0.148-1.037-0.568-1.037-0.568
			c-0.109-0.207-0.241-0.376-0.379-0.515c-0.53-0.536-1.173-0.606-1.173-0.606c0.513-0.138,1.113-0.635,1.113-0.635
			c0.021-0.017,0.04-0.032,0.06-0.048c0.418-0.312,0.927-0.47,1.416-0.543c0.237-0.035,0.471-0.049,0.688-0.053
			c0.64-0.007,1.126,0.092,1.126,0.092c-0.358-0.301-0.74-0.513-1.126-0.655c-0.229-0.083-0.46-0.143-0.688-0.184
			c-0.488-0.086-0.972-0.082-1.416-0.03c-1.192,0.136-2.107,0.614-2.107,0.614c-0.612,0.354-1.064,0.336-1.374,0.217
			c-0.349-0.136-0.514-0.402-0.514-0.402c0.176,0.135,0.35,0.218,0.514,0.266c0.643,0.186,1.161-0.173,1.161-0.173
			c0.438-0.315,0.911-0.298,0.911-0.298c-0.692-0.735-1.561-0.99-2.072-1.078C35.329,6.22,35.158,6.22,35.158,6.22
			c0.148-0.01,0.296-0.011,0.439-0.005c0.914,0.036,1.68,0.336,1.68,0.336c0.702,0.203,1.302,0.225,1.802,0.15
			c0.613-0.096,1.081-0.338,1.416-0.585c0.442-0.327,0.649-0.66,0.649-0.66c0.014-0.016,0.025-0.033,0.039-0.048
			c0.728-0.963,0.216-1.31,0.216-1.31c-0.077-0.031-0.149-0.049-0.216-0.055c-0.414-0.035-0.633,0.365-0.688,0.488
			c-0.012,0.022-0.017,0.035-0.017,0.035c-0.438,0.705-0.944,1.024-1.399,1.156c-0.691,0.198-1.258-0.047-1.258-0.047
			c1.164-0.436,0.764-0.935,0.764-0.935c-0.442-0.339-1.069,0.139-1.069,0.139c-0.753,0.298-1.463,0.157-1.918-0.009
			c-0.315-0.117-0.508-0.243-0.508-0.243c-0.176-0.104-0.342-0.169-0.495-0.204c-0.71-0.167-1.159,0.278-1.159,0.278
			c0.203-0.436,0.669-0.568,0.669-0.568c-1.263-0.213-1.814,0.487-1.814,0.487c-0.003-0.585,0.81-0.87,0.81-0.87
			c-0.481,0.038-0.835,0.159-1.092,0.321c-0.827,0.521-0.666,1.466-0.666,1.466c-0.495-0.411-0.916-0.411-1.158-0.359
			c0.163,0.406,0.082,0.699,0.082,0.699c0.006-0.155-0.29-0.619-0.29-0.619c-0.068-0.101-0.143-0.174-0.218-0.228
			c-0.167-0.121-0.336-0.135-0.455-0.121c0.012,0.301-0.133,0.478-0.133,0.478c0.035-0.206-0.013-0.506-0.013-0.506
			c-0.054-0.39-0.446-0.568-0.599-0.629c-0.042,0.253-0.156,0.496-0.156,0.496c0.051-0.22,0.073-0.452,0.078-0.571
			c-0.104-0.571-0.281-0.793-0.464-0.842c-0.092-0.462-0.42-2.509,0.893-2.784c0,0,0.327-0.132,0.849,0.422
			c0.073,0.077,0.149,0.167,0.229,0.273c0,0,0.767,1.012,2.021,1.58c0.684,0.31,1.515,0.488,2.445,0.297
			c0,0,0.054-0.008,0.142-0.028c0.229-0.057,0.688-0.209,1.003-0.582c0.219-0.255,0.369-0.617,0.328-1.124
			c0,0-0.052-0.362-0.328-0.635c-0.197-0.195-0.511-0.343-1.003-0.275c-0.097,0.013-0.2,0.035-0.312,0.068
			c0,0,0.13-0.011,0.312,0.005c0.341,0.031,0.856,0.153,1.003,0.608c0.05,0.152,0.057,0.344,0,0.583
			c-0.014,0.063-0.033,0.129-0.059,0.199c0,0-0.246,0.56-0.944,0.848c-0.49,0.202-1.204,0.27-2.211-0.086
			c0,0-0.143-0.033-0.376-0.14c-0.414-0.19-1.111-0.615-1.804-1.513c0,0-0.176-0.284-0.446-0.558
			c-0.426-0.43-1.085-0.832-1.661-0.047c0,0-0.953,1.04-0.339,2.914c-0.066,0.028-0.132,0.07-0.188,0.115
			c0.044,0.501-0.216,0.847-0.216,0.847c0.072-0.408,0.021-0.659,0.021-0.659c-0.159-0.539-0.641-0.655-0.641-0.655
			C26.556,2.991,26.418,3,26.311,3.03c-0.041-0.203-0.126-0.541-0.272-0.837c-0.195-0.39-0.501-0.709-0.964-0.559
			c0,0-0.833,0.185-0.761,2.067c0,0,0.244,1.94-0.631,1.981c0,0-0.827,0.009-1.137-1.58c0,0,0.021,1.683,1.123,1.875
			c0,0,1.019,0.168,0.884-1.67c0,0-0.411-2.658,0.969-2.186c0,0,0.327,0.095,0.517,0.597c0.04,0.112,0.077,0.242,0.099,0.396
			c-0.045,0.035-0.077,0.077-0.099,0.125c-0.066,0.136-0.051,0.314,0,0.492c0.101,0.364,0.351,0.729,0.351,0.729
			c-0.149,0.083-0.265,0.191-0.351,0.314c-0.365,0.512-0.264,1.259-0.264,1.259c0.094-0.202,0.181-0.36,0.264-0.485
			c0.277-0.424,0.478-0.447,0.478-0.447c-0.407,0.445-0.092,0.948-0.092,0.948c0.073-0.406,0.336-0.487,0.336-0.487
			c0.616,0.309,0.82,0.819,0.82,0.819c-0.189,0.816,0.291,1.042,0.291,1.042c-0.065-0.468,0.243-0.571,0.243-0.571
			c0.123,0.196,0.714,0.439,0.714,0.439c0.127,0.084,0.368,0.123,0.648,0.135c-0.183,0.103-0.384,0.268-0.553,0.535
			c0,0-0.642,0.613-1.466,0.244c0,0-0.563-0.108-0.526,0.25c0,0-0.015,0.159,0.392,0.251c0,0,0.271,0.034,0.706,0.261
			c0,0,0.394,0.297,0.975-0.222c0,0,0.267-0.275,0.754-0.354c0.265-0.043,0.596-0.028,0.981,0.121
			c-0.398,0.402-0.894,0.701-0.981,0.752l-0.013,0.009c-0.977,0.672-0.905,1.818-0.905,1.818c-0.319-0.168-0.426-0.567-0.426-0.567
			c-0.307,0.665,0.188,1.249,0.188,1.249c-0.165,0.323-0.534,0.565-0.534,0.565c-0.384-0.074-0.528-0.786-0.528-0.786
			c-0.392,0.264-0.298,0.823-0.298,0.823c-0.298-0.167-0.361-1.086-0.361-1.086c-0.652,0.456-0.363,1.388-0.363,1.388
			c-0.688,0.638-0.314,1.542-0.314,1.542c0.117-0.433,0.487-0.63,0.487-0.63c-0.109,0.545,0.445,0.968,0.445,0.968
			c0.039-1.167,0.355-1.116,0.355-1.116c0.09,0.559,0.596,0.852,0.596,0.852c-0.071-0.627,0.135-1.041,0.135-1.041
			c0.698,0.643,1.185,0.486,1.185,0.486c-0.28-0.235-0.33-0.84-0.33-0.84c0.226,0.073,0.467-0.043,0.682-0.219
			c0.371-0.303,0.663-0.785,0.663-0.785c0.793-0.974,1.311-1.141,1.587-1.128c0.167,0.007,0.245,0.08,0.245,0.08
			c0.744,0.396,1.438,0.458,1.978,0.403c0.152,0.182,0.304,0.432,0.364,0.758c0.035,0.187,0.041,0.399,0,0.639
			c-0.136,0.8-0.791,1.893-2.587,3.32c-0.491,0.39-1.068,0.805-1.745,1.247c0,0-0.199,0.137-0.505,0.387
			c-0.703,0.573-1.969,1.746-2.627,3.22c-0.311-0.059-0.742-0.204-0.924-0.583c0,0-0.055-0.159-0.169-0.375
			c-0.193-0.36-0.557-0.879-1.131-1.108c0,0-0.965-0.31-0.638-1.484c0,0,0.205-0.646,0.049-1.644c0,0,0.433-0.833-0.021-1.121
			c0,0,0.385-1.133-0.334-1.175c0,0-0.359-1.147-1.453-0.918c0,0-1.165,0.182-1.121,1.505c0,0,0.68-1.481,1.77-0.763
			c0,0,0.388,0.339,0.277,0.814c0,0-0.231-0.516-0.598-0.52c0,0,1.376,1.801,0.373,2.914c0,0-0.201-0.99-0.906-0.933
			c0,0-0.198-0.94-0.721-0.705c0,0-0.116-0.112-0.308-0.214c-0.164-0.087-0.385-0.167-0.632-0.154
			c-0.283,0.014-0.6,0.147-0.909,0.529c-0.009,0.01-0.017,0.021-0.024,0.032c0,0-0.461,0.755,0.024,1.447
			c0.02,0.024,0.037,0.05,0.057,0.074c0,0-0.027-0.062-0.057-0.167c-0.047-0.174-0.093-0.46,0-0.745
			c0.043-0.132,0.116-0.263,0.232-0.382c0,0,0.309-0.292,0.677-0.314c0.18-0.009,0.373,0.045,0.551,0.227
			c0,0-0.348-0.133-0.551,0.017c-0.029,0.021-0.055,0.049-0.076,0.082c0,0,0.029,0.002,0.076,0.007
			c0.121,0.013,0.367,0.05,0.632,0.15c0.418,0.157,0.882,0.473,0.969,1.098c0,0,0.126,0.355,0.157,0.641
			c0,0-0.741-0.439-1.126-0.091c-0.051,0.047-0.097,0.107-0.132,0.188c0,0-0.26-0.073-0.5-0.033
			c-0.244,0.042-0.467,0.204-0.367,0.679c0,0-1.178,0.912,0.076,2.09c0,0-0.508-1.033,0.291-1.699
			c0.156-0.129,0.364-0.247,0.632-0.337c0.009-0.004,0.017-0.007,0.024-0.009c0,0-0.008,0.004-0.024,0.015
			c-0.098,0.066-0.448,0.322-0.373,0.653c0,0,0.146-0.172,0.373-0.334c0.385-0.272,1.011-0.508,1.584,0.187
			c0,0,0.325,0.461,0.238,0.883c-0.009,1.165-1.251,0.921-1.251,0.921c0.371,0.457,1.049,0.083,1.049,0.083s0.578,0.42,1.087-0.886
			c0,0,0.624,1.078,0.477,2.737c0,0-0.253,0.347,0.017,0.764c0,0-0.984,1.534,0.007,2.35c0,0-0.044-0.606,0.408-0.983
			c0,0-0.409,1.955,0.995,2.81c0,0-0.325-0.463-0.049-0.964c0,0,0.046,0.249,0.199,0.555c0.243,0.491,0.759,1.13,1.793,1.125
			c0,0,0.515,0.023,0.938-0.197c0,0,0.429-0.053,0.989-0.075c0.339-0.014,0.723-0.016,1.091,0.014
			c0.357,0.117,0.746,0.211,1.159,0.264c0.784,0.101,1.66,0.052,2.587-0.269c0.328-0.114,0.664-0.262,1.003-0.451
			c0.331-0.184,0.669-0.406,1.009-0.672c0.668,0.084,2.138,0.44,2.473,1.937c0.007,0.024,0.011,0.046,0.016,0.069
			c0,0,0.244,1.097,0.029,1.879c0,0-0.007,0.049-0.045,0.133c-0.035,0.082-0.1,0.197-0.214,0.332c0,0-0.299,0.221-0.275,0.548
			c0,0,0.001,0.543-0.549,0.189c0,0-0.468-0.413-0.207-1.138c0,0,0.405-1.352-0.471-1.682c0,0-0.844-1.337-1.766-0.865
			c-0.271,0.139-0.549,0.435-0.813,0.967c0,0,0.384-0.433,0.813-0.591c0.386-0.139,0.807-0.062,1.027,0.744
			c0,0-0.193,0.592,0.239,0.793c0,0-0.321,0.903,0.016,1.965c0,0-0.251-0.445-0.763-0.428c0,0-0.014-0.625-0.52-0.668
			c-0.008,0-0.015,0-0.022,0c0,0-0.422-0.726-0.98-1.012c-0.466-0.238-1.027-0.17-1.521,0.88c0,0,0.874-0.887,1.521-0.241
			c0.147,0.146,0.283,0.373,0.395,0.703c0,0-0.226,0.013-0.395,0.185c-0.063,0.065-0.119,0.153-0.151,0.272
			c0,0,0.058-0.011,0.151-0.02c0.229-0.024,0.671-0.041,1.003,0.122c0.233,0.115,0.412,0.317,0.425,0.671
			c0,0,0.865,0.492,0.888,0.95c0,0-0.653-0.419-1,0.025c0,0-0.126-0.019-0.312-0.023c-0.281-0.003-0.694,0.035-1.003,0.248
			c-0.28,0.194-0.474,0.534-0.399,1.121c0,0,0.082-0.501,0.399-0.776c0.213-0.183,0.532-0.267,1.003-0.031
			c0.117,0.059,0.245,0.139,0.384,0.239c0,0,0.863,0.698,1.409,0.176c0,0,0.406-0.418,0.768,0.115c0,0,0.244,0.45,0.921,0.029
			c0.033-0.021,0.063-0.042,0.097-0.064c0.54-0.222,0.971-0.321,1.319-0.338c0.281-0.013,0.508,0.03,0.688,0.108
			c0.755,0.327,0.71,1.263,0.71,1.263c0.885-1.07-0.355-1.67-0.355-1.67s-0.15-0.144-0.354-0.213
			c-0.168-0.056-0.375-0.061-0.564,0.106c0,0-0.048-0.036-0.124-0.083c-0.215-0.125-0.662-0.319-0.992-0.001
			c0,0-0.229,0.141-0.424-0.034c-0.047-0.042-0.091-0.103-0.129-0.19c0,0-0.014-0.216,0.129-0.403
			c0.072-0.091,0.181-0.176,0.35-0.225c0,0,0.536-0.163,1.066-0.732c0.246-0.265,0.492-0.62,0.681-1.09l0.008-0.028
			c0.056-0.218,0.416-1.633,0.342-2.131c0,0-0.065-0.777,0.505,0.296c0,0,0.322,0.602,0.205,1.647c0,0,0.06-0.111,0.12-0.221
			c0.024-0.044,0.05-0.09,0.07-0.126c0.324,0.825,0.967,1.601,2.098,2.22c0,0,0.522,0.211,1.318,0.359
			c0.348,0.064,0.749,0.118,1.182,0.134c0.812,0.03,1.734-0.064,2.631-0.439c0.574-0.239,1.139-0.595,1.656-1.105
			c0.254-0.251,0.495-0.541,0.722-0.872c0.06-0.086,0.119-0.176,0.175-0.267c0.046,0.097,0.114,0.346,0.21,0.634
			c0,0,0.345,0.532-0.193,1.099c0,0-0.082,0.08-0.191,0.242c-0.103,0.152-0.23,0.376-0.334,0.673c0,0-0.494,0.34-0.323,0.641
			c0,0-0.026,0.025-0.064,0.066c-0.136,0.15-0.411,0.512-0.104,0.7c0,0-0.064,0.344,0.104,0.631
			c0.081,0.139,0.217,0.264,0.441,0.331c0,0,0.117,0.042,0.28,0.041c0.242-0.003,0.586-0.097,0.809-0.551
			c0,0-0.421,0.319-0.809,0.237c-0.156-0.033-0.308-0.131-0.423-0.344c0,0-0.116-0.308,0.087-0.546c0,0-0.021,0.363,0.185,0.478
			c0,0-0.123-0.755,0.151-1.292c0.104-0.206,0.267-0.379,0.517-0.469c0,0-0.184,0.623,0.231,0.805c0,0-0.17,0.59,0.194,0.617
			c0,0,0.115,0.354,0.43,0.498c0.169,0.077,0.394,0.094,0.689-0.037c0,0,0.521-0.308,0.41-0.887c0,0-0.039,0.54-0.488,0.68
			c0,0-0.396,0.107-0.611-0.124c-0.048-0.05-0.085-0.114-0.109-0.199c0,0,0.043,0.05,0.109,0.096
			c0.076,0.052,0.179,0.094,0.273,0.04c0,0-0.133-0.08-0.273-0.22c-0.217-0.213-0.456-0.568-0.296-1.001
			c0,0,0.038-0.239,0.104-0.412c0,0,0.074,0.125,0.191,0.236c0.141,0.134,0.345,0.251,0.549,0.096c0,0,0.515,0.49,0.687-0.103
			c0,0,0.94-0.158,0.587-1.205C55.227,31.533,55.192,32.598,54.072,32.4z M57.468,20.845c0.409,0.038,1.901,0.244,2.906,1.318
			c0.025,0.027,0.052,0.055,0.077,0.085c0,0,1.259,1.653,2.612,0.956c0,0-1.022,0.802-2.689,0.128
			c-0.826-0.333-1.811-1.03-2.906-2.365c-0.038-0.043-0.072-0.085-0.109-0.132C57.358,20.835,57.397,20.837,57.468,20.845z
			 M57.468,18.652c0.659-0.199,1.675-0.234,2.906,0.623c0.035,0.023,0.068,0.049,0.104,0.075c0,0,1.146,0.9,2.404,0.641
			c0,0-0.922,0.642-2.509-0.342c-0.063-0.039-0.125-0.079-0.19-0.123c-0.881-0.627-1.978-0.663-2.716-0.592
			c-0.497,0.047-0.83,0.143-0.83,0.143S56.938,18.812,57.468,18.652z M31.542,5.332c0.068-0.171,0.26-0.264,0.466-0.24
			c0.05,0.004,0.103,0.018,0.153,0.038c0.257,0.104,0.395,0.36,0.312,0.575c-0.071,0.171-0.262,0.263-0.465,0.24
			c-0.052-0.005-0.104-0.019-0.156-0.038C31.596,5.801,31.46,5.545,31.542,5.332z M32.008,6.142c0.199,0.03,0.426-0.001,0.632-0.19
			c0,0,0.451-0.472-0.2-0.981c0,0,0.955,0.316,0.383,1.04c0,0-0.308,0.38-0.814,0.228c-0.159-0.048-0.336-0.147-0.531-0.325
			C31.477,5.914,31.709,6.097,32.008,6.142z M29.758,6.526c-0.378,0.006-0.86-0.087-1.298-0.479c0,0-0.061-0.078-0.164-0.18
			c-0.271,0.266-0.171,0.69-0.171,0.69c-0.463-0.326-0.27-0.902-0.232-1.006c-0.104-0.06-0.217-0.11-0.335-0.138
			c0,0-0.449-0.048-0.717-0.531c0,0-0.099-0.24-0.33-0.387c0,0,0.244-0.057,0.554,0.378c0,0,0.193,0.351,0.843,0.323
			c0,0,0.283-0.148,0.787,0.593c0,0,0.215,0.427,1.063,0.572c0.188,0.032,0.409,0.05,0.665,0.047
			C30.423,6.409,30.146,6.521,29.758,6.526z M32.893,8.614c0,0,0.445,0.431,0.25,1.091c0,0-0.405-0.543-0.8-0.392
			c0,0-0.121,0.132-0.335,0.293c-0.159,0.117-0.368,0.25-0.622,0.358c0,0-0.883,0.263-1.323,1.43c0,0-0.104,0.288-0.305,0.61
			c-0.161,0.26-0.384,0.541-0.665,0.713c0,0,0.41-0.451,0.665-1.043c0.048-0.11,0.09-0.224,0.123-0.339c0,0,0.134-1.018,1.314-1.633
			c0,0,0.434-0.111,0.812-0.513c0.147-0.158,0.29-0.36,0.392-0.62c0,0,0.509-0.954-0.392-1.654
			c-0.007-0.005-0.013-0.009-0.019-0.014c0,0-0.506-0.336-0.932-0.295c0,0,0.152,0.398,0.046,0.539c0,0-0.112-0.535-0.433-0.68
			c0,0,0.465-0.309,1.337,0.188c0.127,0.073,0.263,0.164,0.408,0.273c0,0,0.658-0.253,1.325,0.121c0,0-0.688,0.12-0.843,0.646
			c0,0,0.932-0.155,1.147,0.735C34.046,8.429,33.21,8.194,32.893,8.614z M27.038,22.15c-0.438,0.108-0.762,0.076-1-0.038
			c-0.734-0.344-0.671-1.431-0.671-1.431c0.044-0.615-0.646-1.163-0.646-1.163c0.796,0.016,1.108,1.137,1.108,1.137
			c0.047,0.108,0.119,0.193,0.209,0.262c0.449,0.351,1.315,0.249,1.315,0.249C27.006,21.641,27.038,22.15,27.038,22.15z
			 M35.598,8.787c0.459,0.024,1.076-0.04,1.708-0.398c0,0,0.669-0.483,1.773-0.764c0.207-0.052,0.428-0.097,0.663-0.131
			c0,0-0.332,0.135-0.663,0.309c-0.149,0.078-0.298,0.164-0.414,0.25c0,0-1.487,1.205-3.067,0.878
			c-0.251-0.051-0.505-0.141-0.756-0.281C34.842,8.649,35.143,8.761,35.598,8.787z M34.609,6.842c0,0,0.338-0.264,0.988-0.143
			c0.273,0.051,0.604,0.171,0.987,0.409c0,0-0.251-0.005-0.578,0.211c0,0-0.147,0.116-0.409,0.1
			C35.356,7.406,35.018,7.279,34.609,6.842z M30.478,20.782c-0.229-0.409-0.494-0.241-0.72,0.178
			c-0.477,0.891-0.766,2.916-0.083,2.996c0.029,0.002,0.056,0.006,0.083,0.01c1.823,0.242,0.562,1.093,2.18,2.097
			c-0.502-0.279-1.535,0.008-1.539-1.308c-0.001-0.269-0.281-0.398-0.641-0.522c-0.706-0.243-1.724-0.469-1.573-1.712
			c0.694,1.124,0.99-0.34,0.919-0.979c-0.067-0.633-0.514-0.794-0.479-1.338c0.039-0.538,0.154-0.87,1.133-1.366
			c0.014-0.006,0.024-0.013,0.036-0.019c1.017-0.505,0.502-1.676,1.52-1.647c-0.749,0.165-0.387,0.92-0.228,1.183
			c0.387,0.652-0.982,0.896-1.328,1.275c-0.041,0.045-0.067,0.091-0.074,0.141c-0.009,0.051,0.021,0.093,0.074,0.126
			c0.291,0.178,1.335,0.104,1.698-0.141c0.166-0.114,0.359-0.274,0.552-0.463c0.309-0.303,0.612-0.677,0.775-1.033
			c0.239-0.517,0.431-1.277,0.188-1.408c-0.136-0.074-0.66-0.08-0.964,0.717c-0.015,0.035-0.027,0.072-0.04,0.109
			c-0.021-0.177-0.006-0.362,0.04-0.543c0.185-0.752,0.892-1.431,1.706-1.125c0.289,0.108,0.586,0.119,0.881,0.062
			c0.342-0.068,0.683-0.225,1.003-0.423c0.406-0.254,0.782-0.575,1.095-0.869c0.7-0.659-0.278-1.825-0.938-0.293
			c-0.016-1.976,1.44-0.413,1.527-1.833c0.366,0.478,1.099,2.504-1.587,3.117c-0.021,0.098-0.054,0.176-0.098,0.244
			c-0.189,0.287-0.574,0.327-1.003,0.478c-0.473,0.167-0.996,0.469-1.371,1.394c-0.159,0.397-0.589,1.248-1.216,1.93
			C31.58,20.283,31.061,20.669,30.478,20.782z M37.119,24.741c-0.587-0.9-1.125-1.306-1.521-1.487
			c-0.41-0.187-0.667-0.132-0.667-0.132c0.821,0.76,0.229,0.993,0.229,0.993c-0.225,0.087-0.428,0.07-0.564,0.038
			c-0.104-0.026-0.17-0.061-0.17-0.061c0.047,0.093,0.105,0.186,0.17,0.277c0.376,0.521,0.995,0.97,0.995,0.97
			c-0.405-0.032-0.736-0.185-0.995-0.369c-0.465-0.331-0.695-0.761-0.695-0.761c-0.209-0.315-0.782-0.489-0.782-0.489
			c-1.064-0.358-1.07-1.062-1.07-1.062c-0.073-0.92,0.448-0.261,0.448-0.261c0.242,0.346,0.722,0.336,0.722,0.336
			c0.566,0.043,1.025,0.548,1.025,0.548c-0.167-0.552-1.301-1.146-1.301-1.146c-1.039-0.7-0.815-1.142-0.815-1.142
			c0.376-0.962,1.107,0.188,1.107,0.188c0.444,0.789,1.013,1.095,1.361,1.213c0.196,0.066,0.321,0.072,0.321,0.072
			c0.242,0.018,0.474,0.11,0.682,0.231c0.455,0.263,0.783,0.656,0.783,0.656c-0.172-0.444-0.488-0.736-0.783-0.923
			c-0.354-0.224-0.675-0.294-0.675-0.294c-0.11-0.03-0.223-0.082-0.328-0.142c-0.349-0.196-0.645-0.495-0.645-0.495
			c-0.938-0.939-0.428-1.271-0.428-1.271c0.565-0.419,0.934,0.365,0.934,0.365c0.045,0.126,0.092,0.238,0.139,0.335
			c0.39,0.797,0.836,0.587,0.836,0.587c0.059-0.012,0.113-0.016,0.167-0.01c0.503,0.05,0.771,0.792,0.771,0.792
			c0.33,0.512,0.781,0.776,0.781,0.776c-0.408,0.073-0.86-0.414-0.86-0.414C37.132,23.585,37.119,24.741,37.119,24.741z
			 M53.404,10.582c0.393,0.007,0.81,0.13,1.202,0.463c0,0,0.742,0.597,1.016,1.231c0,0,0.086,0.143,0.076,0.447
			c0,0-0.084,0.307,0.107,0.512c0,0,0.288,0.358-0.265,0.417c0,0-0.528-0.022-0.742-0.643c0,0-0.444-1.115-1.204-0.867
			c0,0-0.073-0.026-0.19-0.052c-0.342-0.079-1.054-0.173-1.372,0.304c-0.157,0.235-0.22,0.611-0.094,1.196
			c0,0,0.014-0.25,0.094-0.517c0.135-0.438,0.454-0.914,1.209-0.367c0,0,0.054,0.143,0.163,0.26
			c0.095,0.102,0.233,0.187,0.418,0.141c0,0,0.265,0.77,1.051,1.298c0,0-0.404-0.163-0.733,0.121c0,0-0.352-0.417-0.716-0.153
			c0,0-0.005-0.004-0.02-0.008c-0.135-0.047-0.887-0.299-1.372-0.071c-0.116,0.056-0.217,0.14-0.289,0.26
			c-0.028-0.761-0.191-1.415-0.433-1.977c-0.152-0.35-0.335-0.663-0.536-0.943c0.183-0.055,0.362-0.125,0.536-0.216
			c0.117-0.061,0.23-0.13,0.341-0.21c0,0,0.144-0.115,0.381-0.246C52.358,10.78,52.858,10.571,53.404,10.582z M45.842,9.273
			c0.304-0.083,0.761,0.072,0.761,0.072c0.146,0.059,0.288,0.103,0.421,0.137c1.057,0.262,1.693-0.192,1.693-0.192
			c0.271-0.191,0.624-0.26,0.938-0.276c0.41-0.021,0.753,0.047,0.753,0.047c-0.253-0.145-0.511-0.213-0.753-0.235
			c-0.628-0.053-1.145,0.203-1.145,0.203c-0.441,0.194-1.151,0.113-1.151,0.113c-0.124-0.013-0.236-0.031-0.335-0.052
			c-0.943-0.196-0.786-0.67-0.786-0.67c0.127-0.479,0.55-0.432,0.786-0.362c0.099,0.029,0.167,0.062,0.167,0.062
			c1.062,0.663,1.331,0.108,1.331,0.108c0.317-0.388,0.912-0.141,1.133-0.028c0.054,0.027,0.086,0.047,0.086,0.047
			c0.408,0.245,1.094,0.111,1.094,0.111c-0.275,0.316-0.931,0.221-0.931,0.221c0.602,0.095,1.077,0.357,1.407,0.603
			c0.349,0.258,0.536,0.5,0.536,0.5c-0.192-0.063-0.369-0.114-0.536-0.152c-0.783-0.185-1.315-0.133-1.656-0.029
			c-0.376,0.114-0.522,0.293-0.522,0.293c0.229,0.015,0.398,0.052,0.522,0.099c0.477,0.183,0.276,0.529,0.276,0.529
			c-0.08,0.14-0.181,0.235-0.276,0.301c-0.162,0.115-0.31,0.143-0.31,0.143c0.094,0.044,0.2,0.082,0.31,0.112
			c0.616,0.168,1.373,0.126,1.373,0.126c-0.476,0.325-0.985,0.369-1.373,0.332l-0.026-0.002c0.01,0.006,0.018,0.012,0.026,0.018
			c0.172,0.119,0.32,0.308,0.426,0.605c-0.188-0.116-0.326-0.162-0.426-0.16c-0.357,0.014-0.205,0.683,0,1.104
			c0.03,0.062,0.062,0.119,0.094,0.167c0.296,0.464,0.7,0.415,0.884,0.849c0.178,0.434,0.219,0.739-0.373,1.521
			c-0.587,0.784,0.26,1.489-0.539,1.859c0.386-0.311,0.164-0.638-0.065-0.842c-0.077-0.068-0.154-0.123-0.21-0.158
			c-0.364-0.233-0.068-0.625,0.21-0.988c0.194-0.252,0.379-0.49,0.329-0.65c-0.028-0.087-0.158-0.086-0.329-0.031
			c-0.355,0.116-0.887,0.464-1.036,0.732c-0.221,0.394-0.465,1.122-0.45,1.669c0.014,0.49,0.159,1.151,0.393,1.159
			c0.141,0.006,0.58-0.211,0.462-1.026c0.435,0.665,0.218,1.866-0.709,1.962c-0.555,0.059-0.974,0.47-1.29,0.971
			c-0.229,0.362-0.403,0.773-0.536,1.132c-0.181,0.494,0.228,0.88,0.536,0.745c0.184-0.082,0.331-0.346,0.303-0.879
			c0.466,0.919,0.019,1.046-0.303,1.256c-0.209,0.136-0.364,0.305-0.175,0.752c-0.466-0.228-1.812-1.509,0.027-3.022
			c-0.062-0.24,0.015-0.407,0.147-0.564c0.337-0.393,1.049-0.729,0.947-2.028c-0.049-0.621,0.004-2.525,1.007-3.298
			c1.039,0.711,0.223-3.061-0.599-2.762c-0.67,0.244-0.934,0.174-1.142,0c-0.079-0.007-0.149-0.022-0.214-0.041
			c-0.29-0.083-0.425-0.244-0.425-0.244c-0.157-0.169-0.224-0.283-0.235-0.36c-0.144-0.047-0.312-0.084-0.521-0.104l-0.02-0.002
			c0.008,0,0.014,0,0.02,0c0.345,0.003,0.78-0.285,1.182-0.116c0.054,0.023,0.105,0.053,0.158,0.094
			c0.221-0.061,0.375-0.19,0.375-0.19c0.469-0.32,1.14-0.216,1.14-0.216c-0.414-0.283-1.425-0.13-1.673-0.086
			c-0.036,0.005-0.056,0.009-0.056,0.009c-0.606,0.053-0.942-0.035-1.126-0.141c-0.19-0.109-0.218-0.236-0.218-0.236
			C45.5,9.496,45.636,9.33,45.842,9.273z M40.495,15.271c0.178-0.207,0.46-0.384,0.688-0.507c0.204-0.11,0.365-0.176,0.365-0.176
			c0.294-0.139,0.564-0.286,0.807-0.438c1.208-0.756,1.767-1.588,1.767-1.588c-0.571-0.409-1.306,0.015-1.767,0.384
			c-0.267,0.21-0.44,0.403-0.44,0.403c0.153-0.205,0.3-0.386,0.44-0.545c1.631-1.847,2.363-0.767,2.363-0.767
			c0.354,0.415,0.791,0.511,1.123,0.509c0.3-0.003,0.517-0.083,0.517-0.083c0.224-0.092,0.449-0.118,0.665-0.104
			c0.784,0.053,1.446,0.645,1.446,0.645c-0.608,0.071-1.081,0.198-1.446,0.36c-1.91,0.846-0.87,2.663-0.87,2.663
			c-0.115-0.054-0.218-0.107-0.312-0.16c-1.528-0.858-0.584-1.542-0.584-1.542c0.416-0.58,0.609-0.769,0.567-0.972
			c-0.079-0.263-0.486,0.032-0.486,0.032c-1.018,0.921-2.134,1.033-2.134,1.033c-0.34,0.088-0.62,0.187-0.85,0.293
			c-1.557,0.727-0.812,1.796-0.812,1.796c-0.133-0.037-0.252-0.076-0.359-0.116c-0.335-0.121-0.555-0.248-0.688-0.376
			C40.226,15.757,40.297,15.497,40.495,15.271z M39.079,19.462c0.622-0.174,1.234-0.854,0.68-3.083c0,0,0.57,0.613,0.736,1.518
			c0.052,0.293,0.062,0.617,0,0.96c-0.124,0.652-0.52,1.373-1.416,2.093c-0.18,0.145-0.383,0.29-0.606,0.436
			c0,0,0.953-1.268-0.314-1.942C38.158,19.445,38.621,19.591,39.079,19.462z M41.184,27.612c-0.088,0.118-0.19,0.178-0.19,0.178
			c-0.263,0.169-0.171,0.353-0.171,0.353c0.066,0.977-0.194,1.711-0.327,2.018c-0.045,0.101-0.076,0.154-0.076,0.154
			c0.042-0.292,0.064-0.555,0.076-0.788c0.01-0.251,0.008-0.466,0-0.637c-0.017-0.317-0.052-0.49-0.052-0.49
			c-0.005-0.349-0.308-0.516-0.308-0.516c-0.597-0.293-0.638-1.023-0.638-1.023c-0.101-0.288-0.278-0.505-0.419-0.641
			c-0.111-0.111-0.198-0.169-0.198-0.169c0.069-0.003,0.137,0.011,0.198,0.04c0.247,0.105,0.427,0.396,0.427,0.396
			c0.238,0.278,0.493,0.487,0.493,0.487c0.354,0.344,0.485,0.007,0.485,0.007c0.003-0.007,0.006-0.015,0.011-0.024
			c0.028-0.081,0.022-0.145,0-0.195c-0.057-0.121-0.204-0.165-0.204-0.165c-0.336-0.132-0.502-0.506-0.502-0.506
			c-0.171-0.386-0.456-0.606-0.71-0.729c-0.271-0.132-0.504-0.154-0.504-0.154c0.177-0.059,0.348-0.053,0.504-0.011
			c0.479,0.127,0.829,0.586,0.829,0.586c0.261,0.447,0.532,0.077,0.532,0.077c0.026-0.042,0.042-0.082,0.055-0.119
			c0.022-0.08,0.018-0.148,0-0.205c-0.066-0.186-0.303-0.259-0.303-0.259c-0.437-0.116-0.609-0.617-0.609-0.617
			c-0.132-0.266-0.317-0.417-0.504-0.502c-0.35-0.161-0.702-0.079-0.702-0.079c0.285-0.082,0.517-0.082,0.702-0.04
			c0.48,0.109,0.654,0.496,0.654,0.496c0.196,0.45,0.575,0.477,0.575,0.477c0.066,0,0.128,0.014,0.187,0.037
			c0.309,0.125,0.448,0.527,0.448,0.527c0.223,0.352-0.171,0.745-0.171,0.745c-0.266,0.498,0.147,0.49,0.147,0.49
			c0.122-0.009,0.206,0.041,0.264,0.097c0.069,0.072,0.095,0.158,0.095,0.158C41.35,27.305,41.274,27.49,41.184,27.612z
			 M42.77,25.859c-0.085-0.079-0.179-0.149-0.29-0.208c0,0-0.051-0.026-0.124-0.07c-0.226-0.134-0.675-0.445-0.571-0.722
			c0,0-0.031-0.421,0.571,0.105c0.055,0.049,0.116,0.106,0.184,0.171c0,0,0.182,0.17,0.402,0.344
			C42.884,25.6,42.825,25.726,42.77,25.859z M43.188,25.003c-0.164-0.194-0.392-0.363-0.717-0.438c0,0-0.046-0.016-0.116-0.05
			c-0.152-0.074-0.419-0.241-0.553-0.542c0,0-0.216-0.329-0.619-0.547c-0.189-0.103-0.42-0.182-0.688-0.191
			c-0.136-0.006-0.278,0.007-0.431,0.041c0,0-0.326,0.018-0.757-0.012c0.104-0.164,0.21-0.331,0.314-0.505
			c0,0,0.349-0.563,0.873-1.581c0.204-0.4,0.438-0.87,0.688-1.403c0.306-0.653,0.638-1.403,0.975-2.237c0,0,0.07-0.106,0.197-0.265
			c0.522-0.65,1.989-2.163,3.315-0.593c0,0,0.079,0.108,0.171,0.325c0.208,0.493,0.475,1.548,0,3.181
			c-0.319,1.106-0.979,2.474-2.226,4.113C43.616,24.3,43.427,24.563,43.188,25.003z M51.311,29.758
			c-0.062,0.112-0.152,0.222-0.276,0.334c0.176-1.039-0.77-0.32-1.062,0.099c-0.252,0.36-0.147,0.657-0.317,0.929
			c-0.026,0.041-0.058,0.083-0.099,0.123c-0.31,0.307-0.555,0.443-1.426,0.208c-0.502-0.135-0.816,0.131-1.106,0.274
			c-0.212,0.105-0.411,0.143-0.66-0.093c0.356,0.202,0.556-0.024,0.66-0.266c0.051-0.118,0.08-0.24,0.095-0.318
			c0.124-0.668,1.292,0.137,1.58-0.104c0.201-0.167-0.654-0.876-1.069-0.929c-0.165-0.022-0.379-0.027-0.605-0.014
			c-0.335,0.021-0.698,0.084-0.972,0.206c-0.067,0.03-0.14,0.065-0.21,0.103c-0.355,0.192-0.701,0.467-0.641,0.637
			c0.034,0.096,0.245,0.296,0.641,0.204c0.116-0.027,0.246-0.078,0.393-0.165c-0.103,0.149-0.237,0.27-0.393,0.358
			c-0.466,0.263-1.106,0.216-1.522-0.285c0,0-1.687-1.662,0.797-3.269c0,0-1.05,1.9,0.338,1.198c0,0-1.212,1.126,0.111,0.92
			c0.075-0.012,0.169-0.03,0.276-0.052c0.307-0.064,0.729-0.158,1.182-0.201c0.593-0.056,1.234-0.027,1.73,0.266
			c-0.106,0.484,0.366,0.398,0.9,0.092c0.719-0.412,1.551-1.22,1.242-1.566c-1.041-1.163,0.198-0.979-0.248-2.455
			c0.152,0.433,0.922,0.808,0.234,1.596c-0.24,0.273,0.206,0.723,0.428,1.245C51.435,29.124,51.488,29.439,51.311,29.758z"/>
		<path fill="#946825" d="M32.141,12.415c1.015,0.683,2.06-0.53,2.06-0.53c-0.957,0.482-1.49-0.312-1.49-0.312
			c-0.319-0.359-0.575-0.455-0.702-0.479c-0.06-0.01-0.091-0.007-0.091-0.007c-0.625,0.049-1.351,1.044-1.351,1.044
			c0.585-0.252,1.183,0.038,1.441,0.194C32.092,12.377,32.141,12.415,32.141,12.415z"/>
		<path fill="#946825" d="M30.458,13.241c0,0-0.5-0.077-0.7-0.344c-0.012-0.016-0.022-0.033-0.033-0.051c0,0-0.215,0.19-0.484,0.202
			c0,0,0.095,0.37,0.518,0.391C29.932,13.448,30.158,13.398,30.458,13.241z"/>
	</g>
	<path fill-rule="evenodd" clip-rule="evenodd" fill="#946825" d="M16.242,34.981v0.388h48.604v-0.388H16.242z"/>
	<path fill-rule="evenodd" clip-rule="evenodd" fill="#946825" d="M51.583,58.977c0,0.323,0,0.589,0.017,0.73
		c0.01,0.097,0.027,0.172,0.124,0.186c0.043,0.005,0.111,0.012,0.142,0.012c0.021,0,0.026,0.011,0.026,0.021
		c0,0.017-0.017,0.026-0.052,0.026c-0.175,0-0.375-0.009-0.389-0.009c-0.017,0-0.217,0.009-0.314,0.009
		c-0.033,0-0.05-0.006-0.05-0.026c0-0.01,0.007-0.021,0.025-0.021c0.03,0,0.066-0.007,0.096-0.012
		c0.065-0.014,0.079-0.089,0.092-0.186c0.015-0.141,0.015-0.407,0.015-0.73v-1.421l-0.47,0.006
		c-0.196,0.003-0.271,0.026-0.326,0.107c-0.032,0.059-0.043,0.081-0.051,0.104c-0.011,0.027-0.02,0.034-0.03,0.034
		c-0.014,0-0.019-0.01-0.019-0.028c0-0.035,0.064-0.325,0.071-0.353c0.004-0.02,0.018-0.064,0.028-0.064
		c0.025,0,0.057,0.035,0.143,0.041c0.093,0.011,0.212,0.018,0.249,0.018h1.194c0.102,0,0.177-0.011,0.226-0.018
		c0.047-0.009,0.076-0.017,0.09-0.017c0.016,0,0.016,0.021,0.016,0.041c0,0.101-0.01,0.333-0.01,0.371
		c0,0.028-0.01,0.042-0.022,0.042c-0.015,0-0.021-0.009-0.026-0.057l-0.003-0.037c-0.013-0.1-0.084-0.178-0.391-0.185l-0.4-0.006
		V58.977L51.583,58.977z M46.09,58.961V58.84h0.304c0.015,0,0.015-0.01,0.01-0.024l-0.3-0.908c-0.004-0.015-0.009-0.024-0.014-0.031
		V57.42c0.02-0.046,0.028-0.057,0.044-0.057c0.018,0,0.03,0.019,0.068,0.123c0.046,0.125,0.547,1.516,0.742,2.025
		c0.112,0.301,0.206,0.354,0.272,0.375c0.048,0.017,0.096,0.02,0.125,0.02c0.021,0,0.033,0.003,0.033,0.021
		c0,0.02-0.026,0.026-0.062,0.026c-0.048,0-0.28,0-0.498-0.006c-0.061-0.003-0.099-0.003-0.099-0.023
		c0-0.015,0.011-0.021,0.023-0.025c0.02-0.005,0.038-0.036,0.02-0.09l-0.295-0.828c-0.009-0.015-0.015-0.02-0.031-0.02H46.09
		L46.09,58.961z M46.09,56.095V53.57c0.017,0.002,0.028,0.003,0.033,0.003c0.025,0,0.21-0.012,0.305-0.012
		c0.034,0,0.051,0.007,0.051,0.028c0,0.014-0.013,0.021-0.025,0.021c-0.021,0-0.04,0.002-0.08,0.009
		c-0.085,0.019-0.111,0.074-0.117,0.192c-0.005,0.108-0.005,0.202-0.005,0.727v0.2h0.011c0.056-0.062,0.632-0.681,0.745-0.813
		c0.09-0.098,0.174-0.184,0.174-0.243c0-0.039-0.017-0.061-0.045-0.07c-0.014-0.007-0.027-0.014-0.027-0.027
		c0-0.017,0.016-0.024,0.04-0.024c0.062,0,0.161,0.012,0.239,0.012c0.015,0,0.224-0.012,0.302-0.012
		c0.038,0,0.049,0.007,0.049,0.024c0,0.018-0.006,0.025-0.032,0.025c-0.046,0-0.112,0.016-0.177,0.047
		c-0.132,0.059-0.199,0.145-0.343,0.288c-0.082,0.082-0.633,0.653-0.701,0.736c0.083,0.097,0.742,0.82,0.873,0.948
		c0.27,0.263,0.323,0.315,0.478,0.383c0.08,0.039,0.174,0.046,0.194,0.046c0.023,0,0.042,0.005,0.042,0.018
		c0,0.019-0.015,0.028-0.069,0.028h-0.162c-0.09,0-0.151,0-0.221-0.008c-0.168-0.017-0.247-0.09-0.385-0.203
		c-0.143-0.125-0.816-0.895-0.968-1.094h-0.017v0.331c0,0.323,0,0.589,0.017,0.729c0.01,0.096,0.027,0.172,0.123,0.186
		c0.046,0.007,0.095,0.014,0.123,0.014c0.021,0,0.025,0.009,0.025,0.018c0,0.019-0.015,0.028-0.049,0.028
		c-0.157,0-0.342-0.009-0.365-0.009C46.118,56.094,46.106,56.095,46.09,56.095L46.09,56.095z M47.947,59.496
		c0.008,0.274,0.039,0.362,0.124,0.389c0.061,0.017,0.132,0.02,0.16,0.02c0.017,0,0.024,0.006,0.024,0.021
		c0,0.02-0.019,0.026-0.056,0.026c-0.182,0-0.311-0.009-0.337-0.009c-0.029,0-0.163,0.009-0.307,0.009
		c-0.031,0-0.05-0.002-0.05-0.026c0-0.015,0.009-0.021,0.025-0.021c0.024,0,0.081-0.003,0.13-0.02
		c0.08-0.023,0.095-0.121,0.095-0.428l0.006-1.926c0-0.131,0.007-0.169,0.03-0.169c0.028,0,0.082,0.075,0.113,0.11
		c0.049,0.055,0.523,0.597,1.013,1.151c0.315,0.356,0.66,0.768,0.763,0.877l-0.035-1.708c-0.004-0.218-0.025-0.291-0.125-0.318
		c-0.058-0.015-0.129-0.019-0.155-0.019c-0.021,0-0.024-0.009-0.024-0.022c0-0.021,0.024-0.024,0.062-0.024
		c0.146,0,0.297,0.011,0.332,0.011s0.141-0.011,0.271-0.011c0.035,0,0.057,0.003,0.057,0.024c0,0.013-0.011,0.022-0.035,0.022
		c-0.015,0-0.038,0-0.076,0.012c-0.105,0.023-0.117,0.097-0.117,0.299l-0.007,1.97c0,0.221-0.005,0.239-0.026,0.239
		c-0.028,0-0.065-0.037-0.233-0.216c-0.035-0.033-0.492-0.527-0.832-0.91c-0.368-0.42-0.728-0.844-0.829-0.965L47.947,59.496
		L47.947,59.496z M54.406,55.245c0-0.271-0.017-0.309-0.145-0.346c-0.024-0.005-0.078-0.01-0.11-0.01
		c-0.012,0-0.026-0.006-0.026-0.019c0-0.02,0.017-0.027,0.055-0.027c0.143,0,0.343,0.011,0.359,0.011
		c0.013,0,0.215-0.011,0.312-0.011c0.036,0,0.052,0.007,0.052,0.027c0,0.013-0.014,0.019-0.028,0.019
		c-0.021,0-0.04,0.005-0.079,0.01c-0.087,0.019-0.111,0.075-0.119,0.193c-0.005,0.108-0.005,0.208-0.005,0.35v0.375
		c0,0.152-0.004,0.16-0.042,0.183c-0.201,0.116-0.489,0.152-0.674,0.152c-0.242,0-0.692-0.035-1.046-0.36
		c-0.192-0.178-0.377-0.537-0.377-0.958c0-0.538,0.248-0.918,0.53-1.107c0.284-0.188,0.603-0.212,0.846-0.212
		c0.199,0,0.426,0.047,0.485,0.059c0.068,0.016,0.179,0.029,0.259,0.032c0.031,0.005,0.038,0.017,0.038,0.033
		c0,0.044-0.023,0.14-0.023,0.475c0,0.054-0.007,0.071-0.027,0.071c-0.015,0-0.018-0.021-0.021-0.051
		c-0.004-0.047-0.021-0.14-0.069-0.221c-0.079-0.126-0.337-0.273-0.745-0.273c-0.201,0-0.44,0.021-0.681,0.222
		c-0.186,0.156-0.316,0.461-0.316,0.854c0,0.475,0.226,0.816,0.338,0.931c0.252,0.26,0.542,0.36,0.833,0.36
		c0.115,0,0.278-0.02,0.361-0.071c0.041-0.024,0.066-0.061,0.066-0.119V55.245L54.406,55.245z M49.937,55.646
		c0.007,0.276,0.038,0.364,0.124,0.391c0.059,0.017,0.131,0.021,0.16,0.021c0.015,0,0.023,0.005,0.023,0.018
		c0,0.02-0.019,0.028-0.059,0.028c-0.179,0-0.307-0.009-0.337-0.009c-0.026,0-0.16,0.009-0.304,0.009
		c-0.031,0-0.052-0.004-0.052-0.028c0-0.013,0.012-0.018,0.026-0.018c0.025,0,0.083-0.005,0.129-0.021
		c0.081-0.024,0.097-0.122,0.097-0.428l0.004-1.926c0-0.13,0.009-0.168,0.035-0.168c0.025,0,0.078,0.075,0.109,0.107
		c0.05,0.059,0.522,0.6,1.013,1.154c0.316,0.357,0.662,0.767,0.763,0.879l-0.035-1.709c-0.002-0.218-0.024-0.293-0.122-0.319
		c-0.06-0.013-0.133-0.016-0.157-0.016c-0.022,0-0.026-0.011-0.026-0.025c0-0.02,0.026-0.024,0.065-0.024
		c0.142,0,0.296,0.012,0.329,0.012c0.035,0,0.142-0.012,0.271-0.012c0.036,0,0.057,0.004,0.057,0.024
		c0,0.014-0.009,0.025-0.034,0.025c-0.017,0-0.038,0-0.075,0.009c-0.106,0.024-0.118,0.096-0.118,0.3l-0.007,1.968
		c0,0.224-0.006,0.241-0.028,0.241c-0.024,0-0.064-0.037-0.231-0.217c-0.035-0.033-0.493-0.527-0.83-0.909
		c-0.369-0.421-0.729-0.847-0.832-0.966L49.937,55.646L49.937,55.646z M48.687,55.128c0,0.323,0,0.589,0.015,0.729
		c0.012,0.096,0.026,0.172,0.125,0.186c0.045,0.007,0.116,0.014,0.145,0.014c0.019,0,0.025,0.009,0.025,0.018
		c0,0.019-0.016,0.028-0.05,0.028c-0.178,0-0.378-0.009-0.392-0.009c-0.018,0-0.216,0.009-0.313,0.009
		c-0.035,0-0.051-0.008-0.051-0.028c0-0.009,0.008-0.018,0.027-0.018c0.025,0,0.065-0.007,0.093-0.014
		c0.063-0.014,0.079-0.09,0.094-0.186c0.015-0.14,0.015-0.406,0.015-0.729v-0.591c0-0.525,0-0.619-0.007-0.727
		c-0.004-0.115-0.038-0.173-0.106-0.189c-0.035-0.009-0.076-0.012-0.1-0.012c-0.013,0-0.024-0.007-0.024-0.021
		c0-0.021,0.017-0.028,0.05-0.028c0.107,0,0.306,0.012,0.323,0.012c0.014,0,0.214-0.012,0.311-0.012
		c0.034,0,0.049,0.007,0.049,0.028c0,0.014-0.012,0.021-0.024,0.021c-0.021,0-0.041,0.002-0.078,0.009
		c-0.086,0.019-0.112,0.074-0.119,0.192c-0.006,0.108-0.006,0.202-0.006,0.727V55.128z M46.09,53.57v2.525
		c-0.064,0.002-0.196,0.008-0.271,0.008c-0.036,0-0.051-0.008-0.051-0.028c0-0.009,0.006-0.018,0.021-0.018
		c0.031,0,0.071-0.007,0.099-0.014c0.062-0.014,0.08-0.09,0.092-0.186c0.014-0.14,0.014-0.406,0.014-0.729v-0.591
		c0-0.525,0-0.619-0.007-0.727c0-0.115-0.029-0.168-0.135-0.192c-0.024-0.007-0.078-0.009-0.108-0.009
		c-0.013,0-0.024-0.007-0.024-0.021c0-0.021,0.016-0.028,0.051-0.028C45.884,53.561,46.026,53.568,46.09,53.57L46.09,53.57z
		 M46.09,57.42v0.457c-0.011-0.016-0.022-0.004-0.033,0.031l-0.28,0.908c-0.008,0.018,0,0.024,0.009,0.024h0.305v0.121h-0.34
		c-0.017,0-0.022,0.009-0.03,0.026l-0.191,0.595c-0.029,0.085-0.045,0.166-0.045,0.227c0,0.066,0.066,0.097,0.122,0.097h0.03
		c0.023,0,0.032,0.006,0.032,0.021c0,0.02-0.02,0.026-0.048,0.026c-0.076,0-0.213-0.009-0.249-0.009
		c-0.025,0-0.131,0.005-0.243,0.008v0.001h0.097c0.059,0,0.077-0.006,0.077-0.026c0-0.01-0.013-0.021-0.029-0.021
		s-0.062,0-0.124-0.01c-0.006,0-0.014-0.002-0.021-0.004v-0.005c0.108-0.042,0.163-0.158,0.213-0.304l0.722-2.086
		C46.074,57.462,46.082,57.438,46.09,57.42z M45.128,59.885v0.005c-0.082-0.016-0.21-0.064-0.365-0.238
		c-0.186-0.208-0.404-0.507-0.663-0.861c0.287-0.277,0.386-0.527,0.386-0.775c0-0.232-0.14-0.397-0.219-0.457
		c-0.131-0.099-0.287-0.133-0.442-0.145v0.124c0.247,0.067,0.393,0.299,0.393,0.653c0,0.255-0.084,0.437-0.193,0.518
		c-0.062,0.044-0.133,0.059-0.199,0.063v0.104h0.019c0.019,0,0.028,0.006,0.041,0.021c0.063,0.087,0.212,0.312,0.348,0.497
		c0.182,0.252,0.291,0.418,0.426,0.495c0.085,0.046,0.165,0.062,0.344,0.062h0.127v-0.001c-0.039,0-0.077,0.001-0.115,0.001
		c-0.043,0-0.062-0.006-0.062-0.026c0-0.015,0.015-0.021,0.029-0.021c0.024,0,0.068-0.003,0.092-0.007
		C45.094,59.896,45.111,59.891,45.128,59.885z M43.824,57.414v0.124c-0.05-0.014-0.101-0.019-0.157-0.019
		c-0.096,0-0.179,0.008-0.212,0.019c-0.017,0.007-0.026,0.021-0.026,0.041v1.1c0,0.016,0.006,0.03,0.022,0.04
		c0.046,0.03,0.194,0.055,0.333,0.055c0.013,0,0.025,0,0.04-0.001v0.104l-0.373-0.006c-0.017,0-0.022,0.011-0.022,0.027v0.079
		c0,0.323,0,0.589,0.018,0.73c0.009,0.097,0.027,0.172,0.124,0.186c0.042,0.005,0.112,0.012,0.142,0.012
		c0.019,0,0.026,0.011,0.026,0.021c0,0.017-0.017,0.026-0.051,0.026c-0.177,0-0.378-0.009-0.392-0.009c0,0-0.202,0.009-0.299,0.009
		c-0.034,0-0.052-0.006-0.052-0.026c0-0.01,0.005-0.021,0.027-0.021c0.026,0,0.065-0.007,0.092-0.012
		c0.065-0.014,0.081-0.089,0.094-0.186c0.018-0.141,0.018-0.407,0.018-0.73v-0.591c0-0.525,0-0.618-0.006-0.725
		c-0.009-0.115-0.034-0.169-0.139-0.192c-0.024-0.007-0.081-0.012-0.107-0.012c-0.012,0-0.025-0.005-0.025-0.019
		c0-0.02,0.016-0.027,0.051-0.027c0.145,0,0.345,0.011,0.359,0.011c0.034,0,0.275-0.011,0.374-0.011
		C43.729,57.411,43.776,57.412,43.824,57.414L43.824,57.414z M38.732,58.961V58.84h0.302c0.017,0,0.017-0.01,0.012-0.024
		l-0.301-0.908c-0.005-0.013-0.008-0.022-0.013-0.029v-0.465c0.018-0.042,0.028-0.051,0.041-0.051c0.018,0,0.032,0.019,0.069,0.123
		c0.048,0.125,0.548,1.516,0.742,2.025c0.114,0.301,0.206,0.354,0.27,0.375c0.05,0.017,0.098,0.02,0.13,0.02
		c0.02,0,0.033,0.003,0.033,0.021c0,0.02-0.028,0.026-0.065,0.026c-0.048,0-0.279,0-0.498-0.006
		c-0.062-0.003-0.095-0.003-0.095-0.023c0-0.015,0.008-0.021,0.021-0.025c0.017-0.005,0.038-0.036,0.017-0.09l-0.292-0.828
		c-0.008-0.015-0.016-0.02-0.029-0.02H38.732L38.732,58.961z M38.732,56.144V56.02c0.3-0.024,0.816-0.238,0.816-1.15
		c0-0.725-0.376-1.149-0.816-1.228v-0.123c0.648,0.054,1.122,0.521,1.122,1.256C39.854,55.481,39.416,56.07,38.732,56.144
		L38.732,56.144z M40.319,58.385c0-0.525,0-0.618-0.007-0.725c-0.007-0.115-0.031-0.169-0.136-0.192
		c-0.026-0.007-0.081-0.012-0.108-0.012c-0.014,0-0.026-0.005-0.026-0.019c0-0.02,0.017-0.027,0.052-0.027
		c0.143,0,0.335,0.011,0.367,0.011c0.027,0,0.22-0.011,0.313-0.011c0.033,0,0.05,0.007,0.05,0.027c0,0.014-0.013,0.019-0.024,0.019
		c-0.022,0-0.042,0.004-0.08,0.012c-0.085,0.012-0.11,0.074-0.117,0.192c-0.007,0.107-0.007,0.2-0.007,0.725v0.471
		c0,0.483,0.103,0.692,0.238,0.831c0.155,0.154,0.299,0.185,0.479,0.185c0.194,0,0.385-0.096,0.502-0.243
		c0.144-0.189,0.184-0.476,0.184-0.823v-0.42c0-0.525,0-0.618-0.006-0.725c-0.009-0.115-0.034-0.169-0.141-0.192
		c-0.023-0.007-0.075-0.012-0.105-0.012c-0.014,0-0.026-0.005-0.026-0.019c0-0.02,0.017-0.027,0.052-0.027
		c0.143,0,0.318,0.011,0.337,0.011c0.023,0,0.172-0.011,0.269-0.011c0.033,0,0.049,0.007,0.049,0.027
		c0,0.014-0.011,0.019-0.024,0.019c-0.023,0-0.043,0-0.08,0.012c-0.086,0.018-0.112,0.074-0.117,0.192
		c-0.006,0.107-0.006,0.2-0.006,0.725v0.36c0,0.364-0.04,0.766-0.294,1.006C41.676,59.966,41.438,60,41.25,60
		c-0.107,0-0.431-0.014-0.654-0.24c-0.157-0.158-0.276-0.393-0.276-0.884V58.385L40.319,58.385z M40.74,55.646
		c0.009,0.276,0.038,0.364,0.124,0.391c0.061,0.017,0.131,0.021,0.159,0.021c0.017,0,0.026,0.005,0.026,0.018
		c0,0.02-0.02,0.028-0.057,0.028c-0.183,0-0.31-0.009-0.338-0.009c-0.027,0-0.162,0.009-0.305,0.009
		c-0.031,0-0.052-0.004-0.052-0.028c0-0.013,0.009-0.018,0.025-0.018c0.026,0,0.084-0.005,0.131-0.021
		c0.079-0.024,0.094-0.122,0.094-0.428l0.006-1.926c0-0.13,0.009-0.168,0.034-0.168s0.079,0.075,0.109,0.107
		c0.051,0.059,0.522,0.6,1.013,1.154c0.315,0.357,0.66,0.767,0.764,0.879l-0.035-1.709c-0.002-0.218-0.028-0.293-0.123-0.319
		c-0.06-0.013-0.132-0.016-0.155-0.016c-0.022,0-0.026-0.011-0.026-0.025c0-0.02,0.026-0.024,0.062-0.024
		c0.145,0,0.298,0.012,0.333,0.012c0.033,0,0.14-0.012,0.271-0.012c0.035,0,0.056,0.004,0.056,0.024
		c0,0.014-0.014,0.025-0.035,0.025c-0.016,0-0.037,0-0.075,0.009c-0.105,0.024-0.116,0.096-0.116,0.3l-0.006,1.968
		c0,0.224-0.007,0.241-0.03,0.241c-0.026,0-0.063-0.037-0.232-0.217c-0.034-0.033-0.492-0.527-0.831-0.909
		c-0.368-0.421-0.729-0.847-0.831-0.966L40.74,55.646z M38.732,53.519v0.123c-0.051-0.008-0.101-0.014-0.151-0.014
		c-0.531,0-0.928,0.372-0.928,1.107c0,0.783,0.444,1.29,1.019,1.29c0.019,0,0.039-0.002,0.061-0.004v0.124
		c-0.049,0.005-0.097,0.007-0.146,0.007c-0.872,0-1.237-0.718-1.237-1.322c0-0.545,0.378-1.315,1.258-1.315
		C38.648,53.514,38.691,53.516,38.732,53.519L38.732,53.519z M38.732,57.414v0.465c-0.011-0.019-0.023-0.008-0.035,0.029
		l-0.278,0.908c-0.006,0.018,0,0.024,0.008,0.024h0.306v0.121H38.39c-0.015,0-0.023,0.009-0.028,0.026l-0.193,0.595
		c-0.027,0.085-0.043,0.166-0.043,0.227c0,0.066,0.065,0.097,0.121,0.097h0.032c0.021,0,0.031,0.006,0.031,0.021
		c0,0.02-0.019,0.026-0.048,0.026c-0.075,0-0.213-0.009-0.25-0.009c-0.033,0-0.208,0.009-0.356,0.009
		c-0.043,0-0.062-0.006-0.062-0.026c0-0.015,0.014-0.021,0.028-0.021c0.023,0,0.068-0.003,0.092-0.007
		c0.148-0.019,0.212-0.146,0.268-0.316l0.723-2.086C38.715,57.46,38.726,57.435,38.732,57.414L38.732,57.414z M33.168,59.962v-0.187
		c0.064-0.039,0.097-0.105,0.117-0.227c0.006-0.038,0.012-0.05,0.026-0.05c0.021,0,0.021,0.027,0.021,0.05
		c0,0.028-0.025,0.255-0.042,0.326C33.271,59.95,33.251,59.96,33.168,59.962L33.168,59.962z M33.168,58.834v-0.384
		c0.008-0.006,0.015-0.01,0.02-0.01c0.012,0,0.018,0.005,0.018,0.026c0,0.02-0.018,0.078-0.027,0.188
		C33.175,58.705,33.171,58.788,33.168,58.834L33.168,58.834z M33.168,57.803v-0.396c0.013-0.002,0.022-0.004,0.031-0.006
		c0.015-0.003,0.027-0.018,0.044-0.018c0.009,0,0.014,0.015,0.014,0.031c0,0.024-0.017,0.064-0.027,0.157
		c-0.003,0.034-0.01,0.183-0.016,0.222c-0.004,0.017-0.009,0.038-0.022,0.038S33.172,57.822,33.168,57.803L33.168,57.803z
		 M33.168,55.112v-0.121h0.305c0.016,0,0.016-0.01,0.012-0.024l-0.302-0.907c-0.005-0.015-0.01-0.025-0.015-0.032V53.57
		c0.019-0.045,0.03-0.056,0.045-0.056c0.017,0,0.03,0.018,0.067,0.124c0.049,0.126,0.549,1.514,0.742,2.025
		c0.114,0.299,0.205,0.353,0.271,0.374c0.049,0.017,0.098,0.021,0.129,0.021c0.02,0,0.03,0.001,0.03,0.018
		c0,0.02-0.028,0.028-0.062,0.028c-0.049,0-0.28,0-0.501-0.008c-0.061-0.001-0.095-0.001-0.095-0.023c0-0.013,0.01-0.02,0.024-0.022
		c0.017-0.007,0.035-0.039,0.017-0.092l-0.297-0.826c-0.004-0.015-0.014-0.021-0.026-0.021H33.168L33.168,55.112z M36.694,58.977
		c0,0.323,0,0.589,0.015,0.73c0.009,0.097,0.028,0.172,0.123,0.186c0.046,0.005,0.117,0.012,0.146,0.012
		c0.019,0,0.024,0.011,0.024,0.021c0,0.017-0.017,0.026-0.051,0.026c-0.174,0-0.376-0.009-0.393-0.009
		c-0.013,0-0.215,0.009-0.311,0.009c-0.034,0-0.051-0.006-0.051-0.026c0-0.01,0.006-0.021,0.025-0.021
		c0.029,0,0.068-0.007,0.096-0.012c0.064-0.014,0.079-0.089,0.092-0.186c0.016-0.141,0.016-0.407,0.016-0.73v-1.421l-0.471,0.006
		c-0.194,0.003-0.271,0.026-0.324,0.107c-0.034,0.059-0.046,0.081-0.053,0.104c-0.009,0.027-0.02,0.034-0.033,0.034
		c-0.01,0-0.014-0.01-0.014-0.028c0-0.035,0.062-0.325,0.069-0.353c0.006-0.02,0.02-0.064,0.03-0.064
		c0.023,0,0.053,0.035,0.141,0.041c0.093,0.011,0.215,0.018,0.251,0.018h1.192c0.102,0,0.176-0.011,0.226-0.018
		c0.047-0.009,0.075-0.017,0.09-0.017c0.016,0,0.016,0.021,0.016,0.041c0,0.101-0.01,0.333-0.01,0.371
		c0,0.028-0.011,0.042-0.021,0.042c-0.017,0-0.021-0.009-0.027-0.057l-0.001-0.037c-0.015-0.1-0.088-0.178-0.392-0.185l-0.4-0.006
		V58.977L36.694,58.977z M33.967,59.908c-0.044-0.023-0.047-0.037-0.047-0.128c0-0.165,0.014-0.302,0.016-0.355
		c0.005-0.038,0.01-0.053,0.026-0.053c0.02,0,0.021,0.009,0.021,0.035c0,0.033,0,0.079,0.011,0.125
		c0.048,0.248,0.258,0.343,0.471,0.343c0.305,0,0.455-0.231,0.455-0.447c0-0.232-0.094-0.365-0.367-0.604l-0.143-0.126
		c-0.336-0.292-0.413-0.499-0.413-0.729c0-0.36,0.255-0.606,0.657-0.606c0.126,0,0.215,0.015,0.295,0.035
		c0.062,0.013,0.088,0.017,0.114,0.017c0.023,0,0.031,0.007,0.031,0.024s-0.014,0.127-0.014,0.355c0,0.054-0.007,0.078-0.022,0.078
		c-0.018,0-0.021-0.017-0.022-0.045c-0.005-0.039-0.024-0.129-0.045-0.166c-0.017-0.038-0.104-0.18-0.396-0.18
		c-0.221,0-0.393,0.145-0.393,0.391c0,0.191,0.091,0.306,0.389,0.565l0.091,0.072c0.372,0.314,0.462,0.522,0.462,0.791
		c0,0.14-0.05,0.394-0.271,0.558C34.738,59.958,34.565,60,34.395,60C34.245,60,34.097,59.976,33.967,59.908L33.967,59.908z
		 M36.449,55.245c0-0.271-0.014-0.309-0.141-0.346c-0.023-0.005-0.079-0.01-0.109-0.01c-0.011,0-0.025-0.006-0.025-0.019
		c0-0.02,0.017-0.027,0.052-0.027c0.143,0,0.343,0.011,0.358,0.011c0.017,0,0.216-0.011,0.313-0.011
		c0.034,0,0.051,0.007,0.051,0.027c0,0.013-0.015,0.019-0.027,0.019c-0.022,0-0.042,0.005-0.079,0.01
		c-0.086,0.019-0.109,0.075-0.116,0.193c-0.007,0.108-0.007,0.208-0.007,0.35v0.375c0,0.152-0.005,0.16-0.041,0.183
		c-0.203,0.116-0.489,0.152-0.674,0.152c-0.243,0-0.693-0.035-1.048-0.36c-0.194-0.178-0.378-0.537-0.378-0.958
		c0-0.538,0.25-0.918,0.531-1.107c0.286-0.188,0.601-0.212,0.848-0.212c0.2,0,0.424,0.047,0.485,0.059
		c0.064,0.016,0.177,0.029,0.257,0.032c0.033,0.005,0.038,0.017,0.038,0.033c0,0.044-0.023,0.14-0.023,0.475
		c0,0.054-0.005,0.071-0.027,0.071c-0.015,0-0.019-0.021-0.021-0.051c-0.004-0.047-0.021-0.14-0.068-0.221
		c-0.076-0.126-0.336-0.273-0.748-0.273c-0.2,0-0.438,0.021-0.678,0.222c-0.187,0.156-0.316,0.461-0.316,0.854
		c0,0.475,0.226,0.816,0.336,0.931c0.252,0.26,0.543,0.36,0.833,0.36c0.115,0,0.282-0.02,0.364-0.071
		c0.043-0.024,0.062-0.061,0.062-0.119V55.245z M33.168,53.57v0.458c-0.011-0.016-0.021-0.004-0.032,0.032l-0.284,0.907
		c-0.002,0.016,0,0.024,0.013,0.024h0.304v0.121h-0.339c-0.016,0-0.025,0.009-0.032,0.026l-0.19,0.597
		c-0.028,0.082-0.046,0.164-0.046,0.224c0,0.069,0.068,0.099,0.123,0.099h0.03c0.022,0,0.033,0.005,0.033,0.018
		c0,0.02-0.02,0.028-0.047,0.028c-0.078,0-0.216-0.009-0.25-0.009c-0.025,0-0.13,0.004-0.243,0.007v0.002h0.099
		c0.055,0,0.076-0.008,0.076-0.028c0-0.009-0.014-0.018-0.03-0.018c-0.019,0-0.064,0-0.123-0.011
		c-0.007-0.001-0.015-0.003-0.021-0.003v-0.007c0.107-0.041,0.161-0.157,0.211-0.302l0.724-2.089
		C33.154,53.614,33.161,53.588,33.168,53.57L33.168,53.57z M33.168,57.407v0.396c0-0.005,0-0.01,0-0.016
		c0-0.022-0.004-0.08-0.021-0.121c-0.021-0.056-0.053-0.095-0.227-0.115c-0.052-0.006-0.398-0.009-0.434-0.009
		c-0.014,0-0.021,0.009-0.021,0.033v0.927c0,0.024,0.002,0.035,0.021,0.035c0.041,0,0.432,0,0.506-0.007
		c0.075-0.006,0.121-0.013,0.147-0.047c0.012-0.013,0.021-0.024,0.027-0.032v0.384c0,0.016,0,0.028,0,0.036
		c0,0.027,0,0.063-0.025,0.063c-0.014,0-0.02-0.015-0.02-0.03c0-0.033,0-0.066-0.013-0.112c-0.012-0.046-0.042-0.104-0.167-0.118
		c-0.085-0.009-0.399-0.016-0.454-0.016c-0.016,0-0.022,0.011-0.022,0.024v0.295c0,0.116-0.001,0.506,0,0.577
		c0.01,0.231,0.059,0.273,0.368,0.273c0.084,0,0.222,0,0.306-0.035c0.01-0.004,0.019-0.009,0.027-0.016v0.187
		c-0.013,0-0.029,0-0.049,0c-0.479,0-0.694-0.02-0.786-0.02c-0.004,0-0.059,0.003-0.126,0.003l0,0v-2.529
		c0.067,0.003,0.119,0.004,0.126,0.004c0.024,0,0.655,0,0.73-0.003C33.104,57.414,33.141,57.411,33.168,57.407z M32.207,56.036
		v0.007c-0.082-0.019-0.211-0.064-0.365-0.239c-0.187-0.208-0.4-0.509-0.662-0.859c0.285-0.28,0.384-0.53,0.384-0.778
		c0-0.232-0.139-0.396-0.22-0.457c-0.13-0.098-0.286-0.133-0.443-0.144v0.124c0.247,0.066,0.394,0.301,0.394,0.652
		c0,0.256-0.081,0.437-0.19,0.519c-0.061,0.045-0.136,0.058-0.203,0.062v0.104h0.02c0.02,0,0.032,0.009,0.042,0.021
		c0.065,0.088,0.215,0.313,0.347,0.499c0.18,0.252,0.291,0.417,0.431,0.496c0.082,0.047,0.161,0.062,0.341,0.062h0.127v-0.002
		c-0.039,0-0.077,0.002-0.116,0.002c-0.041,0-0.06-0.008-0.06-0.028c0-0.013,0.011-0.018,0.027-0.018
		c0.024,0,0.066-0.005,0.094-0.007C32.172,56.047,32.19,56.043,32.207,56.036L32.207,56.036z M32.207,57.417v2.529
		c-0.065,0.004-0.137,0.006-0.185,0.006c-0.034,0-0.052-0.006-0.052-0.026c0-0.01,0.007-0.021,0.024-0.021
		c0.029,0,0.07-0.007,0.097-0.012c0.062-0.014,0.079-0.089,0.091-0.186c0.019-0.141,0.019-0.407,0.019-0.73v-0.591
		c0-0.525,0-0.618-0.008-0.725c-0.006-0.115-0.032-0.169-0.138-0.192c-0.024-0.007-0.078-0.012-0.108-0.012
		c-0.01,0-0.024-0.005-0.024-0.019c0-0.02,0.02-0.027,0.052-0.027C32.048,57.411,32.135,57.414,32.207,57.417L32.207,57.417z
		 M30.9,59.498v-0.427c0.174,0.231,0.323,0.43,0.455,0.581c0.175,0.192,0.31,0.229,0.393,0.242c0.057,0.01,0.103,0.01,0.122,0.01
		c0.015,0,0.03,0.011,0.03,0.021c0,0.02-0.021,0.026-0.077,0.026h-0.228c-0.179,0-0.257-0.017-0.339-0.062
		C31.138,59.822,31.041,59.691,30.9,59.498L30.9,59.498z M30.9,58.553v-0.961c0.08,0.077,0.179,0.226,0.179,0.423
		C31.079,58.192,31.03,58.367,30.9,58.553z M30.9,53.565v0.124c-0.047-0.013-0.099-0.02-0.154-0.02c-0.097,0-0.182,0.011-0.213,0.02
		c-0.016,0.007-0.025,0.021-0.025,0.041v1.1c0,0.017,0.007,0.03,0.021,0.041c0.049,0.029,0.196,0.052,0.334,0.052
		c0.014,0,0.025,0,0.037,0v0.104l-0.371-0.005c-0.015,0-0.021,0.01-0.021,0.026v0.082c0,0.323,0,0.589,0.017,0.729
		c0.009,0.096,0.027,0.172,0.123,0.186c0.044,0.007,0.115,0.014,0.143,0.014c0.021,0,0.025,0.009,0.025,0.018
		c0,0.019-0.016,0.028-0.051,0.028c-0.131,0-0.275-0.006-0.346-0.008v-2.523c0.078-0.002,0.259-0.011,0.344-0.011
		C30.808,53.561,30.854,53.562,30.9,53.565L30.9,53.565z M30.9,57.592v0.961c-0.054,0.078-0.121,0.157-0.205,0.238
		c0.073,0.098,0.141,0.191,0.205,0.28v0.427c-0.023-0.033-0.047-0.068-0.074-0.104c-0.133-0.185-0.284-0.409-0.346-0.497
		c-0.015-0.015-0.023-0.021-0.042-0.021h-0.02v-0.104c0.067-0.005,0.139-0.02,0.2-0.063c0.11-0.081,0.193-0.263,0.193-0.518
		c0-0.354-0.146-0.587-0.394-0.653v-0.124c0.156,0.011,0.313,0.046,0.443,0.145C30.874,57.566,30.887,57.58,30.9,57.592z
		 M30.419,53.572v2.523c-0.024,0-0.041-0.001-0.045-0.001c0,0-0.203,0.009-0.299,0.009c-0.035,0-0.053-0.008-0.053-0.028
		c0-0.009,0.008-0.018,0.028-0.018c0.028,0,0.065-0.007,0.095-0.014c0.062-0.014,0.077-0.09,0.09-0.186
		c0.017-0.14,0.017-0.406,0.017-0.729v-0.591c0-0.525,0-0.619-0.004-0.727c-0.007-0.115-0.032-0.168-0.138-0.192
		c-0.026-0.007-0.08-0.009-0.108-0.009c-0.013,0-0.025-0.007-0.025-0.021c0-0.021,0.016-0.028,0.05-0.028
		c0.145,0,0.346,0.012,0.36,0.012C30.391,53.573,30.403,53.572,30.419,53.572L30.419,53.572z M30.419,57.414v0.124
		c-0.047-0.014-0.101-0.019-0.154-0.019c-0.096,0-0.184,0.008-0.214,0.019c-0.016,0.007-0.025,0.021-0.025,0.041v1.1
		c0,0.016,0.005,0.03,0.022,0.04c0.047,0.03,0.194,0.055,0.332,0.055c0.013,0,0.024,0,0.039-0.001v0.104l-0.371-0.006
		c-0.018,0-0.022,0.011-0.022,0.027v0.079c0,0.323,0,0.589,0.015,0.73c0.011,0.097,0.03,0.172,0.125,0.186
		c0.044,0.005,0.115,0.012,0.144,0.012c0.018,0,0.024,0.011,0.024,0.021c0,0.017-0.015,0.026-0.05,0.026
		c-0.176,0-0.376-0.009-0.392-0.009c-0.005,0-0.204,0.009-0.3,0.009c-0.033,0-0.05-0.006-0.05-0.026c0-0.01,0.007-0.021,0.022-0.021
		c0.031,0,0.068-0.007,0.098-0.012c0.064-0.014,0.08-0.089,0.09-0.186c0.019-0.141,0.019-0.407,0.019-0.73v-0.591
		c0-0.525,0-0.618-0.008-0.725c-0.006-0.115-0.031-0.169-0.136-0.192c-0.023-0.007-0.078-0.012-0.107-0.012
		c-0.014,0-0.025-0.005-0.025-0.019c0-0.02,0.014-0.027,0.049-0.027c0.145,0,0.344,0.011,0.361,0.011
		c0.035,0,0.276-0.011,0.376-0.011C30.326,57.411,30.372,57.412,30.419,57.414L30.419,57.414z M28.369,56.118v-0.12
		c0.212-0.042,0.399-0.143,0.54-0.292c0.169-0.173,0.258-0.495,0.258-0.804c0-0.426-0.176-0.703-0.307-0.847
		c-0.149-0.167-0.315-0.261-0.491-0.315v-0.162c0.267,0.035,0.554,0.126,0.774,0.365c0.159,0.175,0.309,0.454,0.309,0.854
		c0,0.424-0.165,0.749-0.344,0.948C28.991,55.875,28.767,56.065,28.369,56.118z M28.369,53.579v0.162
		c-0.174-0.053-0.359-0.065-0.55-0.065c-0.062,0-0.181,0.01-0.204,0.023c-0.031,0.014-0.042,0.031-0.042,0.07
		c-0.001,0.113-0.001,0.456-0.001,0.714v0.417c0,0.358,0.001,0.667,0.005,0.73c0.005,0.084,0.012,0.217,0.038,0.256
		c0.04,0.062,0.164,0.135,0.539,0.135c0.074,0,0.146-0.008,0.215-0.021v0.12c-0.069,0.011-0.145,0.015-0.226,0.015
		c-0.273,0-0.673-0.039-0.705-0.039c-0.016,0-0.216,0.009-0.312,0.009c-0.035,0-0.05-0.008-0.05-0.028
		c0-0.009,0.006-0.018,0.025-0.018c0.028,0,0.065-0.007,0.095-0.014c0.063-0.014,0.079-0.09,0.094-0.186
		c0.013-0.14,0.013-0.406,0.013-0.729v-0.591c0-0.525,0-0.619-0.006-0.727c-0.006-0.115-0.031-0.168-0.137-0.192
		c-0.025-0.007-0.078-0.009-0.107-0.009c-0.012,0-0.025-0.007-0.025-0.021c0-0.021,0.017-0.028,0.052-0.028
		c0.143,0,0.343,0.012,0.358,0.012c0.039,0,0.238-0.012,0.43-0.012C28,53.561,28.179,53.555,28.369,53.579z"/>
</g>
</svg>
