<?xml version="1.0" encoding="utf-8"?>
<!-- Generator: Adobe Illustrator 16.0.3, SVG Export Plug-In . SVG Version: 6.00 Build 0)  -->
<!DOCTYPE svg PUBLIC "-//W3C//DTD SVG 1.1//EN" "http://www.w3.org/Graphics/SVG/1.1/DTD/svg11.dtd">
<svg version="1.1" id="图层_1" xmlns="http://www.w3.org/2000/svg" xmlns:xlink="http://www.w3.org/1999/xlink" x="0px" y="0px"
	 width="80px" height="60px" viewBox="0 0 80 60" enable-background="new 0 0 80 60" xml:space="preserve">
<g>
	<g>
		<path fill-rule="evenodd" clip-rule="evenodd" fill="#FFFFFF" d="M36.457,39.899c-0.023,0.13-0.07,0.217-0.145,0.274
			c-0.083,0.059-0.188,0.094-0.31,0.105c-0.089,0-0.217-0.006-0.386-0.022c-0.175-0.013-0.304-0.024-0.385-0.024
			c-0.335,0-0.649,0.018-0.953,0.041c-0.561,0.053-0.918,0.07-1.076,0.07c-0.328-0.007-0.601-0.104-0.824-0.291
			c-0.192-0.157-0.288-0.417-0.288-0.772c0-0.258,0.025-0.662,0.073-1.217c0.044-0.524,0.062-0.933,0.062-1.221
			c-0.011-0.384-0.058-0.642-0.152-0.775c-0.035-0.047-0.052-0.094-0.052-0.13c0-0.087,0.028-0.163,0.093-0.228
			c0.048-0.06,0.146-0.093,0.287-0.093c0.133,0,0.262,0.04,0.384,0.109c0.119,0.077,0.211,0.178,0.271,0.294
			c0.01,0.004,0.034,0.004,0.07,0.004c0.099-0.004,0.369-0.07,0.811-0.19c0.526-0.141,1.011-0.217,1.449-0.217
			c0.274,0,0.48,0.046,0.62,0.141c0.175,0.122,0.267,0.243,0.292,0.374c-0.011,0.233-0.217,0.354-0.608,0.354
			c-0.55,0.013-1.051,0.054-1.507,0.13c-0.339,0.058-0.607,0.087-0.817,0.087c-0.048,0-0.099,0-0.159-0.011
			c0,0.044,0,0.074,0.006,0.088c-0.011,0.187-0.022,0.472-0.046,0.862c0.011,0.014,0.035,0.014,0.059,0.014
			c0.065,0,0.157-0.014,0.286-0.041c0.882-0.188,1.473-0.287,1.766-0.287c0.209,0,0.409,0.054,0.589,0.157
			c0.204,0.13,0.31,0.291,0.315,0.499c0.005,0.267-0.164,0.4-0.515,0.4c-0.683,0.015-1.191,0.037-1.519,0.07
			c-0.164,0.023-0.38,0.029-0.637,0.029c-0.164,0-0.298-0.009-0.415-0.033c-0.03,0.258-0.041,0.466-0.041,0.618
			c0,0.292,0.122,0.438,0.368,0.444c0.134,0.007,0.403-0.035,0.81-0.123c0.48-0.1,0.843-0.151,1.084-0.151
			c0.243,0,0.478,0.052,0.707,0.145C36.312,39.514,36.457,39.689,36.457,39.899z"/>
		<path fill-rule="evenodd" clip-rule="evenodd" fill="#FFFFFF" d="M41.446,37.803c0,0.426-0.087,0.823-0.258,1.187
			c-0.186,0.401-0.443,0.7-0.758,0.896c-0.491,0.308-1.123,0.458-1.894,0.458c-0.361,0-0.642-0.023-0.841-0.07
			c-0.328-0.08-0.55-0.228-0.667-0.45c-0.115-0.215-0.175-0.52-0.175-0.91c0-0.328,0.011-0.656,0.047-0.982
			c0.042-0.445,0.064-0.736,0.064-0.883c0-0.421-0.041-0.735-0.117-0.945c-0.029-0.07-0.041-0.129-0.041-0.182
			c0-0.083,0.024-0.153,0.082-0.211c0.07-0.06,0.169-0.093,0.297-0.093c0.169,0,0.328,0.093,0.48,0.274l0.034,0.052
			c0.013-0.006,0.06-0.017,0.141-0.035c0.737-0.165,1.257-0.245,1.561-0.245c0.66,0,1.173,0.229,1.547,0.683
			C41.277,36.757,41.446,37.241,41.446,37.803z M40.477,37.9c0-0.361-0.093-0.682-0.286-0.964c-0.198-0.274-0.484-0.415-0.865-0.415
			c-0.333,0-0.706,0.056-1.128,0.158c-0.069,0.018-0.156,0.04-0.273,0.064c0,0.046,0,0.11,0.011,0.192
			c-0.011,0.165-0.029,0.439-0.052,0.819c-0.047,0.571-0.064,0.97-0.064,1.203c0,0.375,0.25,0.565,0.764,0.565
			c0.533,0.013,0.948-0.098,1.252-0.331C40.254,38.877,40.466,38.445,40.477,37.9z"/>
		<path fill-rule="evenodd" clip-rule="evenodd" fill="#FFFFFF" d="M46.501,38.251c0,0.504-0.193,0.96-0.568,1.366
			c-0.444,0.486-1.016,0.727-1.706,0.727c-0.672,0-1.239-0.205-1.707-0.625c-0.484-0.428-0.723-0.989-0.723-1.688
			c0-0.685,0.234-1.27,0.702-1.759c0.42-0.434,0.986-0.654,1.707-0.654c0.408,0,0.84,0.1,1.302,0.297
			c0.042,0.034,0.082,0.048,0.116,0.048c0.071,0,0.123,0.018,0.169,0.046c0.298,0.221,0.451,0.455,0.462,0.701
			c0,0.141-0.041,0.235-0.123,0.281C46.378,37.422,46.501,37.842,46.501,38.251z M45.466,38.037
			c-0.005-0.335-0.123-0.702-0.345-1.113c-0.058-0.091-0.082-0.18-0.082-0.254v-0.013c-0.321-0.128-0.583-0.194-0.789-0.194
			c-0.374,0-0.678,0.122-0.917,0.358c-0.286,0.28-0.427,0.695-0.427,1.233c0,0.443,0.129,0.805,0.397,1.079
			c0.252,0.265,0.563,0.391,0.924,0.387c0.358,0,0.648-0.141,0.877-0.417C45.349,38.814,45.466,38.455,45.466,38.037z"/>
	</g>
	<g>
		<path fill-rule="evenodd" clip-rule="evenodd" fill="#FFFFFF" d="M63.145,38.499V37.88c0.013-0.003,0.027-0.003,0.04-0.003
			c0.014-0.002,0.027-0.004,0.041-0.004c0.032,0,0.062,0.004,0.097,0.008c0.034,0.004,0.067,0.019,0.096,0.041
			c0.03,0.021,0.054,0.053,0.071,0.092c0.021,0.041,0.032,0.096,0.032,0.167c0,0.099-0.021,0.178-0.064,0.236
			c-0.04,0.059-0.113,0.088-0.219,0.088h-0.046c-0.008,0-0.016,0-0.025,0C63.161,38.502,63.153,38.5,63.145,38.499z M63.757,38.692
			L63.7,38.599c0.124-0.026,0.221-0.076,0.293-0.145c0.074-0.072,0.111-0.172,0.111-0.3c0-0.105-0.022-0.19-0.065-0.254
			s-0.099-0.112-0.169-0.145c-0.068-0.037-0.144-0.061-0.23-0.073c-0.086-0.011-0.17-0.019-0.254-0.019
			c-0.082,0-0.164,0.006-0.245,0.015c-0.079,0.004-0.161,0.01-0.24,0.01c-0.057,0-0.112-0.002-0.171-0.006
			c-0.059-0.003-0.116-0.01-0.175-0.019c0.005,0.112,0.01,0.229,0.012,0.343c0.003,0.11,0.007,0.218,0.008,0.32
			c0.002,0.101,0.002,0.194,0.002,0.28c0.003,0.081,0.003,0.15,0.003,0.207c0,0.122-0.003,0.241-0.011,0.363
			c-0.005,0.118-0.011,0.221-0.02,0.308c0.057-0.009,0.111-0.011,0.163-0.017c0.051-0.005,0.102-0.008,0.15-0.008
			c0.052,0,0.103,0.003,0.151,0.008c0.049,0.006,0.099,0.008,0.148,0.017c-0.008-0.134-0.012-0.269-0.016-0.406
			c-0.002-0.143-0.003-0.268-0.003-0.381h0.008c0.081,0.135,0.156,0.265,0.223,0.396c0.07,0.127,0.138,0.258,0.206,0.392
			c0.056-0.009,0.11-0.011,0.16-0.017c0.052-0.005,0.106-0.008,0.163-0.008c0.061,0,0.119,0.003,0.178,0.008
			c0.059,0.006,0.119,0.008,0.178,0.017c-0.042-0.057-0.084-0.121-0.127-0.188c-0.044-0.067-0.089-0.139-0.133-0.205
			c-0.044-0.069-0.087-0.139-0.13-0.207C63.831,38.814,63.793,38.751,63.757,38.692z"/>
		<path fill-rule="evenodd" clip-rule="evenodd" fill="#FFFFFF" d="M65.035,39.229v-0.583c0.065,0,0.125,0,0.18,0.002
			c0.054,0,0.105,0.001,0.153,0.006c0.049,0.001,0.096,0.004,0.143,0.008c0.046,0.002,0.095,0.003,0.146,0.005
			c-0.007-0.044-0.012-0.091-0.012-0.136c0-0.023,0.001-0.045,0.003-0.064c0.004-0.022,0.006-0.045,0.009-0.067
			c-0.07,0.002-0.139,0.007-0.207,0.009c-0.064,0.005-0.125,0.008-0.181,0.009c-0.054,0-0.102,0.005-0.143,0.006
			c-0.04,0-0.07,0-0.091,0v-0.496h0.266c0.062,0,0.126,0.001,0.188,0.005c0.062,0.005,0.127,0.007,0.191,0.012
			c-0.004-0.026-0.006-0.047-0.01-0.074c-0.003-0.021-0.003-0.046-0.003-0.07c0-0.023,0-0.043,0.003-0.065
			c0.003-0.021,0.006-0.044,0.01-0.069c-0.047,0.008-0.1,0.01-0.161,0.015c-0.062,0.003-0.124,0.004-0.191,0.007
			c-0.063,0-0.128,0.001-0.192,0.003c-0.063,0-0.118,0-0.167,0c-0.089,0-0.177-0.002-0.264-0.006
			c-0.089-0.004-0.178-0.011-0.265-0.019c0.004,0.07,0.008,0.133,0.013,0.188c0.003,0.056,0.004,0.117,0.007,0.185
			c0.001,0.064,0.003,0.143,0.003,0.229c0.001,0.087,0.001,0.197,0.001,0.332v0.276c0,0.099,0,0.174-0.001,0.24
			c0,0.059-0.002,0.111-0.003,0.156c0,0.042-0.002,0.08-0.005,0.111c-0.001,0.032-0.006,0.064-0.011,0.103
			c0.104-0.01,0.207-0.016,0.311-0.019c0.104-0.004,0.206-0.006,0.311-0.006c0.101,0,0.203,0.002,0.304,0.006
			c0.103,0.003,0.207,0.009,0.311,0.019c-0.004-0.021-0.006-0.042-0.01-0.064c-0.003-0.021-0.003-0.044-0.003-0.066
			c0-0.024,0-0.048,0.003-0.068c0.003-0.028,0.006-0.053,0.01-0.075c-0.028,0-0.063,0.003-0.107,0.007
			c-0.042,0.002-0.086,0.002-0.132,0.006c-0.046,0.002-0.09,0.003-0.132,0.006c-0.04,0-0.072,0-0.097,0H65.035z"/>
		<path fill-rule="evenodd" clip-rule="evenodd" fill="#FFFFFF" d="M66.105,38.984H66c-0.003,0.047-0.008,0.089-0.012,0.124
			c-0.004,0.037-0.007,0.07-0.013,0.103c-0.006,0.029-0.011,0.061-0.019,0.092c-0.005,0.027-0.012,0.059-0.017,0.096
			c0.049,0.021,0.098,0.033,0.141,0.048c0.044,0.014,0.088,0.023,0.129,0.03c0.044,0.008,0.09,0.014,0.135,0.016
			c0.045,0.006,0.096,0.007,0.153,0.007c0.1,0,0.192-0.009,0.279-0.032c0.085-0.023,0.16-0.062,0.222-0.112
			c0.062-0.049,0.113-0.115,0.148-0.191c0.036-0.079,0.052-0.17,0.052-0.278c0-0.121-0.023-0.224-0.071-0.307
			c-0.05-0.085-0.132-0.149-0.244-0.197l-0.197-0.086c-0.044-0.021-0.089-0.039-0.129-0.056c-0.041-0.021-0.075-0.037-0.104-0.058
			c-0.029-0.017-0.052-0.036-0.069-0.059c-0.017-0.023-0.024-0.052-0.024-0.084s0.007-0.062,0.024-0.085
			c0.017-0.022,0.038-0.041,0.064-0.056c0.027-0.015,0.057-0.025,0.086-0.032c0.033-0.006,0.062-0.009,0.089-0.009
			c0.092,0,0.166,0.025,0.221,0.079c0.057,0.05,0.092,0.115,0.106,0.19h0.103c0.005-0.059,0.016-0.12,0.033-0.19
			c0.018-0.067,0.041-0.13,0.065-0.188c-0.086-0.031-0.174-0.06-0.264-0.077c-0.089-0.021-0.181-0.031-0.272-0.031
			c-0.092,0-0.181,0.011-0.264,0.038c-0.082,0.023-0.154,0.061-0.213,0.109c-0.062,0.048-0.11,0.11-0.146,0.187
			c-0.035,0.072-0.054,0.16-0.054,0.265c0,0.127,0.036,0.236,0.108,0.325c0.07,0.09,0.162,0.155,0.276,0.202
			c0.084,0.038,0.155,0.068,0.21,0.094c0.057,0.028,0.101,0.053,0.135,0.076c0.033,0.022,0.058,0.048,0.071,0.07
			c0.013,0.024,0.021,0.051,0.021,0.08c0,0.032-0.008,0.061-0.023,0.086c-0.015,0.022-0.036,0.044-0.06,0.057
			c-0.023,0.014-0.051,0.025-0.082,0.03c-0.031,0.008-0.061,0.012-0.09,0.012c-0.05,0-0.097-0.007-0.143-0.021
			c-0.044-0.014-0.083-0.03-0.118-0.055c-0.036-0.025-0.067-0.056-0.093-0.092C66.129,39.069,66.113,39.026,66.105,38.984z"/>
		<path fill-rule="evenodd" clip-rule="evenodd" fill="#FFFFFF" d="M67.799,37.929c0.004,0.085,0.005,0.171,0.008,0.253
			c0.001,0.085,0.001,0.16,0.001,0.225v0.108v0.226c0,0.064,0,0.127-0.001,0.196c0,0.068-0.003,0.134-0.006,0.199
			c0,0.066-0.003,0.13-0.008,0.188c-0.003,0.061-0.007,0.114-0.012,0.162c0.028-0.006,0.066-0.009,0.114-0.015
			c0.049-0.004,0.109-0.01,0.181-0.01c0.022,0,0.06,0.002,0.108,0.006c0.052,0.003,0.121,0.009,0.209,0.019
			c-0.004-0.085-0.01-0.165-0.012-0.242c-0.005-0.079-0.006-0.157-0.008-0.238c0-0.082,0-0.167-0.001-0.253c0-0.086,0-0.179,0-0.276
			v-0.138c0-0.072,0-0.145,0-0.215c0.001-0.074,0.003-0.139,0.007-0.194c0.081,0,0.161,0.003,0.239,0.008
			c0.077,0.006,0.155,0.01,0.233,0.018c-0.003-0.017-0.006-0.038-0.009-0.062c-0.005-0.023-0.007-0.048-0.007-0.072
			c0-0.032,0.001-0.062,0.007-0.087c0.002-0.023,0.005-0.048,0.009-0.069c-0.134,0.014-0.265,0.019-0.391,0.021
			c-0.127,0.001-0.252,0.003-0.374,0.003c-0.126,0-0.253-0.002-0.38-0.003c-0.128-0.003-0.253-0.008-0.379-0.021
			c0.002,0.03,0.005,0.055,0.01,0.08c0.003,0.021,0.006,0.044,0.006,0.066c0,0.05-0.006,0.098-0.016,0.144
			c0.077-0.008,0.156-0.012,0.234-0.018C67.64,37.932,67.718,37.929,67.799,37.929z"/>
		<path fill-rule="evenodd" clip-rule="evenodd" fill="#FFFFFF" d="M69.385,38.892c0.018,0.004,0.037,0.004,0.056,0.004
			c0.019,0,0.036,0,0.055,0h0.112h0.111c0.019,0,0.038,0,0.056,0c0.018,0,0.037,0,0.056-0.004l-0.219-0.59L69.385,38.892z
			 M69.196,39.485c-0.027-0.009-0.056-0.011-0.086-0.017c-0.027-0.005-0.056-0.008-0.086-0.008c-0.028,0-0.058,0.003-0.087,0.008
			c-0.027,0.006-0.051,0.008-0.075,0.017l0.15-0.339c0.023-0.051,0.05-0.108,0.078-0.173c0.028-0.069,0.059-0.141,0.089-0.217
			c0.032-0.078,0.065-0.158,0.099-0.24c0.033-0.084,0.068-0.165,0.101-0.25c0.019-0.048,0.04-0.102,0.064-0.162
			c0.024-0.063,0.045-0.122,0.067-0.183c0.022-0.062,0.043-0.115,0.06-0.163c0.021-0.049,0.033-0.081,0.042-0.103
			c0.028,0.006,0.059,0.011,0.088,0.017c0.032,0.005,0.061,0.006,0.09,0.006c0.029,0,0.06-0.001,0.091-0.006
			c0.03-0.006,0.06-0.011,0.089-0.017c0.019,0.061,0.041,0.132,0.071,0.213c0.028,0.084,0.058,0.17,0.09,0.262
			c0.035,0.088,0.068,0.181,0.103,0.271c0.035,0.092,0.068,0.175,0.098,0.253c0.037,0.089,0.068,0.168,0.094,0.237
			c0.029,0.07,0.056,0.135,0.083,0.2c0.025,0.06,0.051,0.12,0.078,0.184c0.028,0.062,0.061,0.136,0.097,0.21
			c-0.05-0.01-0.104-0.017-0.166-0.019c-0.061-0.004-0.115-0.006-0.167-0.006c-0.055,0-0.108,0.003-0.165,0.008
			c-0.055,0.006-0.109,0.008-0.164,0.017c-0.017-0.065-0.033-0.127-0.052-0.188c-0.016-0.059-0.038-0.118-0.059-0.178
			c-0.057,0-0.111,0-0.167,0c-0.056-0.002-0.113-0.002-0.167-0.002c-0.044,0-0.089,0-0.134,0.002c-0.045,0-0.089,0-0.132,0
			c-0.024,0.06-0.045,0.12-0.062,0.183C69.234,39.361,69.215,39.423,69.196,39.485z"/>
		<path fill-rule="evenodd" clip-rule="evenodd" fill="#FFFFFF" d="M70.896,38.717c0,0.276,0.069,0.477,0.205,0.598
			c0.135,0.123,0.34,0.185,0.615,0.185c0.132,0,0.254-0.02,0.366-0.055c0.111-0.039,0.205-0.101,0.281-0.187
			c0.037-0.047,0.067-0.091,0.09-0.133c0.021-0.046,0.037-0.094,0.05-0.146c0.012-0.05,0.02-0.109,0.024-0.172
			c0.001-0.059,0.004-0.128,0.004-0.204c0-0.045,0.001-0.103,0.002-0.175c0.003-0.075,0.003-0.154,0.007-0.241
			s0.008-0.176,0.011-0.27c0.005-0.089,0.009-0.174,0.016-0.253c-0.031,0.008-0.058,0.015-0.087,0.019
			c-0.027,0.004-0.059,0.006-0.09,0.006c-0.035,0-0.068-0.003-0.101-0.007c-0.032-0.004-0.065-0.01-0.097-0.018
			c0.01,0.133,0.018,0.258,0.022,0.375c0.004,0.116,0.006,0.228,0.006,0.336v0.182c0,0.031,0,0.062,0,0.092
			s-0.001,0.062-0.002,0.092c-0.001,0.057-0.004,0.109-0.011,0.155c-0.004,0.044-0.019,0.09-0.042,0.137
			c-0.029,0.055-0.072,0.099-0.133,0.126c-0.056,0.029-0.117,0.043-0.176,0.043c-0.098,0-0.172-0.02-0.227-0.052
			c-0.051-0.032-0.091-0.08-0.116-0.14c-0.022-0.059-0.037-0.129-0.043-0.208c-0.002-0.081-0.005-0.168-0.005-0.261V38.37
			c0-0.053,0.001-0.113,0.004-0.177c0-0.066,0.003-0.131,0.005-0.195c0.002-0.065,0.006-0.125,0.01-0.185
			c0.005-0.056,0.012-0.108,0.017-0.149c-0.052,0.009-0.104,0.016-0.157,0.019c-0.05,0.004-0.103,0.006-0.158,0.006
			c-0.056,0-0.108-0.002-0.159-0.006c-0.05-0.003-0.102-0.01-0.159-0.019c0.015,0.154,0.022,0.312,0.024,0.481
			C70.895,38.313,70.896,38.505,70.896,38.717z"/>
		<path fill-rule="evenodd" clip-rule="evenodd" fill="#FFFFFF" d="M73.496,38.499V37.88c0.013-0.003,0.027-0.003,0.04-0.003
			c0.015-0.002,0.027-0.004,0.041-0.004c0.031,0,0.062,0.004,0.098,0.008c0.034,0.004,0.067,0.019,0.095,0.041
			c0.03,0.021,0.053,0.053,0.071,0.092c0.021,0.041,0.031,0.096,0.031,0.167c0,0.099-0.021,0.178-0.064,0.236
			c-0.041,0.059-0.113,0.088-0.218,0.088h-0.046c-0.008,0-0.017,0-0.024,0C73.512,38.502,73.504,38.5,73.496,38.499z M74.108,38.692
			l-0.057-0.094c0.123-0.026,0.219-0.076,0.292-0.145c0.074-0.072,0.113-0.172,0.113-0.3c0-0.105-0.023-0.19-0.067-0.254
			c-0.042-0.063-0.099-0.112-0.168-0.145c-0.066-0.037-0.144-0.061-0.231-0.073c-0.085-0.011-0.169-0.019-0.253-0.019
			c-0.082,0-0.163,0.006-0.245,0.015c-0.079,0.004-0.16,0.01-0.24,0.01c-0.055,0-0.111-0.002-0.171-0.006
			c-0.058-0.003-0.116-0.01-0.175-0.019c0.004,0.112,0.008,0.229,0.012,0.343c0.004,0.11,0.007,0.218,0.01,0.32
			c0.001,0.101,0.001,0.194,0.001,0.28c0.001,0.081,0.003,0.15,0.003,0.207c0,0.122-0.003,0.241-0.011,0.363
			c-0.004,0.118-0.012,0.221-0.02,0.308c0.057-0.009,0.111-0.011,0.162-0.017c0.053-0.005,0.102-0.008,0.15-0.008
			c0.052,0,0.103,0.003,0.153,0.008c0.047,0.006,0.096,0.008,0.146,0.017c-0.006-0.134-0.01-0.269-0.013-0.406
			c-0.003-0.143-0.004-0.268-0.004-0.381h0.008c0.08,0.135,0.156,0.265,0.224,0.396c0.069,0.127,0.137,0.258,0.206,0.392
			c0.056-0.009,0.109-0.011,0.161-0.017c0.051-0.005,0.105-0.008,0.163-0.008c0.059,0,0.118,0.003,0.177,0.008
			c0.059,0.006,0.118,0.008,0.177,0.017c-0.04-0.057-0.083-0.121-0.126-0.188s-0.089-0.139-0.132-0.205
			c-0.044-0.069-0.087-0.139-0.13-0.207C74.182,38.814,74.144,38.751,74.108,38.692z"/>
		<path fill-rule="evenodd" clip-rule="evenodd" fill="#FFFFFF" d="M75.125,38.892c0.019,0.004,0.038,0.004,0.056,0.004
			s0.037,0,0.056,0h0.111h0.112c0.017,0,0.036,0,0.055,0s0.038,0,0.055-0.004l-0.218-0.59L75.125,38.892z M74.936,39.485
			c-0.03-0.009-0.057-0.011-0.086-0.017c-0.027-0.005-0.057-0.008-0.087-0.008c-0.028,0-0.057,0.003-0.086,0.008
			c-0.027,0.006-0.052,0.008-0.075,0.017l0.148-0.339c0.024-0.051,0.051-0.108,0.081-0.173c0.028-0.069,0.057-0.141,0.088-0.217
			c0.033-0.078,0.065-0.158,0.1-0.24c0.032-0.084,0.067-0.165,0.101-0.25c0.018-0.048,0.04-0.102,0.063-0.162
			c0.023-0.063,0.046-0.122,0.068-0.183c0.022-0.062,0.042-0.115,0.061-0.163c0.019-0.049,0.032-0.081,0.041-0.103
			c0.029,0.006,0.059,0.011,0.089,0.017c0.031,0.005,0.061,0.006,0.088,0.006c0.031,0,0.061-0.001,0.091-0.006
			c0.031-0.006,0.062-0.011,0.09-0.017c0.019,0.061,0.042,0.132,0.07,0.213c0.03,0.084,0.059,0.17,0.092,0.262
			c0.033,0.088,0.067,0.181,0.102,0.271c0.036,0.092,0.068,0.175,0.099,0.253c0.036,0.089,0.067,0.168,0.094,0.237
			c0.029,0.07,0.057,0.135,0.082,0.2c0.025,0.06,0.051,0.12,0.079,0.184c0.027,0.062,0.061,0.136,0.096,0.21
			c-0.049-0.01-0.105-0.017-0.166-0.019c-0.061-0.004-0.115-0.006-0.166-0.006c-0.054,0-0.11,0.003-0.167,0.008
			c-0.052,0.006-0.106,0.008-0.161,0.017c-0.018-0.065-0.035-0.127-0.054-0.188c-0.017-0.059-0.037-0.118-0.06-0.178
			c-0.055,0-0.11,0-0.167,0c-0.056-0.002-0.111-0.002-0.166-0.002c-0.046,0-0.089,0-0.136,0.002c-0.043,0-0.089,0-0.132,0
			c-0.023,0.06-0.043,0.12-0.062,0.183C74.972,39.361,74.954,39.423,74.936,39.485z"/>
		<path fill-rule="evenodd" clip-rule="evenodd" fill="#FFFFFF" d="M77.109,38.62l0.138,0.16c0.05,0.057,0.099,0.111,0.147,0.166
			c0.046,0.054,0.095,0.109,0.144,0.169c0.051,0.055,0.102,0.114,0.153,0.173c0.052,0.062,0.106,0.127,0.165,0.197
			c0.027-0.007,0.057-0.01,0.089-0.017c0.032-0.005,0.067-0.008,0.106-0.008c0.038,0,0.075,0.003,0.113,0.008
			c0.037,0.006,0.067,0.008,0.095,0.017c-0.002-0.065-0.005-0.137-0.006-0.204c-0.002-0.069-0.003-0.136-0.003-0.202
			c0-0.175,0-0.347,0.004-0.515c0.004-0.165,0.011-0.339,0.016-0.513c0.003-0.065,0.008-0.129,0.013-0.193
			c0.006-0.063,0.009-0.13,0.013-0.194c-0.026,0.009-0.05,0.016-0.074,0.019c-0.025,0.004-0.049,0.006-0.078,0.006
			c-0.031,0-0.06-0.002-0.084-0.006c-0.024-0.003-0.054-0.01-0.089-0.019c0.003,0.055,0.006,0.108,0.007,0.158
			c0.003,0.051,0.007,0.104,0.008,0.154c0.003,0.054,0.006,0.108,0.008,0.165c0.001,0.052,0.003,0.11,0.005,0.176
			c0.001,0.074,0.002,0.149,0.005,0.223c0.003,0.07,0.004,0.142,0.004,0.219c-0.034-0.034-0.065-0.066-0.094-0.101
			c-0.027-0.032-0.058-0.063-0.085-0.094c-0.028-0.032-0.056-0.064-0.087-0.097c-0.03-0.03-0.061-0.067-0.096-0.103
			c-0.037-0.042-0.082-0.09-0.13-0.142c-0.049-0.057-0.101-0.114-0.155-0.175c-0.054-0.062-0.109-0.122-0.165-0.19
			c-0.054-0.066-0.105-0.131-0.153-0.194c-0.031,0.008-0.065,0.015-0.097,0.019c-0.032,0.004-0.065,0.006-0.098,0.006
			c-0.035,0-0.073-0.002-0.11-0.006c-0.035-0.004-0.07-0.011-0.105-0.019c0.008,0.149,0.012,0.295,0.014,0.435
			c0.005,0.137,0.006,0.282,0.006,0.433c0,0.07,0,0.147-0.006,0.228c-0.002,0.084-0.005,0.165-0.009,0.248
			c-0.004,0.081-0.009,0.166-0.016,0.248c-0.004,0.08-0.01,0.157-0.016,0.23c0.031-0.009,0.06-0.011,0.087-0.017
			c0.027-0.005,0.056-0.008,0.084-0.008c0.033,0,0.059,0.003,0.08,0.008c0.024,0.006,0.049,0.008,0.073,0.017
			c-0.004-0.063-0.008-0.134-0.012-0.21c-0.004-0.074-0.01-0.15-0.011-0.228c-0.004-0.074-0.007-0.149-0.01-0.22
			c-0.002-0.069-0.002-0.126-0.002-0.174V38.39c0.036,0.039,0.071,0.077,0.108,0.116C77.039,38.542,77.074,38.58,77.109,38.62z"/>
		<path fill-rule="evenodd" clip-rule="evenodd" fill="#FFFFFF" d="M78.948,37.929c0.004,0.085,0.005,0.171,0.006,0.253
			c0.003,0.085,0.003,0.16,0.003,0.225v0.108v0.226c0,0.064,0,0.127-0.003,0.196c0,0.068,0,0.134-0.004,0.199
			c-0.001,0.066-0.004,0.13-0.008,0.188c-0.002,0.061-0.008,0.114-0.013,0.162c0.03-0.006,0.067-0.009,0.116-0.015
			c0.049-0.004,0.107-0.01,0.178-0.01c0.025,0,0.062,0.002,0.111,0.006c0.05,0.003,0.121,0.009,0.208,0.019
			c-0.006-0.085-0.01-0.165-0.013-0.242c-0.005-0.079-0.007-0.157-0.008-0.238c0-0.082,0-0.167-0.003-0.253c0-0.086,0-0.179,0-0.276
			v-0.138c0-0.072,0-0.145,0-0.215c0.002-0.074,0.003-0.139,0.007-0.194c0.082,0,0.161,0.003,0.238,0.008
			c0.079,0.006,0.156,0.01,0.234,0.018c-0.003-0.017-0.005-0.038-0.011-0.062c-0.002-0.023-0.005-0.048-0.005-0.072
			c0-0.032,0.002-0.062,0.005-0.087c0.005-0.023,0.008-0.048,0.011-0.069c-0.134,0.014-0.263,0.019-0.391,0.021
			c-0.128,0.001-0.251,0.003-0.375,0.003c-0.126,0-0.253-0.002-0.38-0.003c-0.126-0.003-0.252-0.008-0.378-0.021
			c0.003,0.03,0.005,0.055,0.009,0.08c0.004,0.021,0.006,0.044,0.006,0.066c0,0.05-0.006,0.098-0.015,0.144
			c0.078-0.008,0.156-0.012,0.233-0.018C78.788,37.932,78.867,37.929,78.948,37.929z"/>
	</g>
	<g>
		<path fill-rule="evenodd" clip-rule="evenodd" fill="#FFFFFF" d="M48.95,39.108l-0.002-0.255c0-0.192,0.001-0.386,0.005-0.572
			c0.005-0.192,0.012-0.383,0.021-0.579c-0.054,0.01-0.104,0.016-0.153,0.019c-0.048,0.006-0.099,0.006-0.151,0.006
			c-0.056,0-0.109,0-0.161-0.006c-0.051-0.004-0.105-0.011-0.161-0.019c0.016,0.206,0.024,0.409,0.029,0.612
			c0.005,0.202,0.008,0.405,0.008,0.612c0,0.026,0,0.063-0.003,0.106c0,0.046-0.001,0.092-0.002,0.145c0,0.049,0,0.098-0.002,0.146
			c-0.001,0.05-0.003,0.089-0.005,0.121c-0.003,0.063-0.016,0.116-0.035,0.15c-0.02,0.04-0.042,0.066-0.073,0.084
			c-0.025,0.017-0.055,0.029-0.088,0.032c-0.031,0.002-0.065,0.006-0.096,0.006c0.007,0.026,0.01,0.056,0.01,0.088
			c0,0.017-0.002,0.032-0.003,0.049c-0.001,0.02-0.004,0.036-0.007,0.053c0.057,0,0.108,0,0.155-0.001
			c0.048-0.005,0.092-0.008,0.134-0.015c0.044-0.006,0.086-0.015,0.125-0.025c0.04-0.012,0.079-0.023,0.121-0.042
			c0.083-0.04,0.148-0.083,0.192-0.136c0.046-0.052,0.081-0.104,0.102-0.164c0.022-0.057,0.035-0.123,0.039-0.189
			C48.948,39.26,48.95,39.186,48.95,39.108z"/>
		<path fill-rule="evenodd" clip-rule="evenodd" fill="#FFFFFF" d="M49.636,38.93c0.018,0.002,0.037,0.002,0.056,0.002
			c0.019,0,0.037,0,0.055,0h0.113h0.109c0.019,0,0.038,0,0.057,0c0.018,0,0.038,0,0.056-0.002l-0.218-0.592L49.636,38.93z
			 M49.446,39.523c-0.027-0.007-0.056-0.013-0.086-0.017c-0.025-0.005-0.055-0.008-0.084-0.008s-0.058,0.003-0.088,0.008
			c-0.026,0.004-0.051,0.01-0.075,0.017l0.15-0.338c0.024-0.052,0.05-0.109,0.079-0.176c0.029-0.067,0.058-0.141,0.089-0.215
			c0.032-0.078,0.066-0.156,0.099-0.24c0.034-0.081,0.069-0.165,0.101-0.249c0.019-0.049,0.04-0.103,0.065-0.163
			c0.023-0.063,0.045-0.122,0.067-0.183c0.022-0.062,0.043-0.115,0.062-0.163c0.019-0.049,0.032-0.085,0.04-0.103
			c0.029,0.007,0.059,0.011,0.089,0.017c0.031,0.003,0.06,0.006,0.089,0.006c0.03,0,0.06-0.003,0.091-0.006
			c0.031-0.006,0.061-0.01,0.089-0.017c0.019,0.061,0.043,0.132,0.071,0.214c0.029,0.083,0.059,0.17,0.092,0.262
			c0.033,0.087,0.067,0.18,0.102,0.27c0.036,0.092,0.07,0.177,0.099,0.253c0.035,0.089,0.066,0.168,0.093,0.237
			c0.029,0.07,0.056,0.135,0.083,0.2c0.025,0.06,0.051,0.122,0.079,0.184c0.027,0.063,0.061,0.133,0.097,0.21
			c-0.05-0.01-0.105-0.017-0.167-0.019c-0.06-0.004-0.115-0.006-0.167-0.006c-0.054,0-0.108,0.003-0.166,0.008
			c-0.053,0.004-0.107,0.01-0.162,0.017c-0.016-0.064-0.035-0.125-0.054-0.188c-0.016-0.061-0.038-0.116-0.059-0.178
			c-0.057,0-0.112,0-0.167,0c-0.056-0.001-0.113-0.001-0.168-0.001c-0.044,0-0.089,0-0.134,0.001c-0.043,0-0.089,0-0.133,0
			c-0.024,0.062-0.045,0.118-0.062,0.181C49.484,39.399,49.465,39.461,49.446,39.523z"/>
		<path fill-rule="evenodd" clip-rule="evenodd" fill="#FFFFFF" d="M52.089,38.219c0,0.047-0.006,0.089-0.014,0.131
			c-0.008,0.04-0.023,0.073-0.042,0.104c-0.021,0.029-0.048,0.051-0.083,0.067c-0.035,0.017-0.078,0.025-0.132,0.025h-0.049
			c-0.009,0-0.016,0-0.023,0c-0.006-0.001-0.015-0.005-0.022-0.006v-0.149v-0.143c0-0.052,0-0.102,0-0.154
			c0-0.055,0.002-0.112,0.002-0.179c0.014-0.001,0.028-0.003,0.041-0.003c0.016,0,0.029-0.001,0.045-0.001
			c0.037,0,0.072,0.004,0.104,0.015c0.035,0.004,0.064,0.02,0.089,0.04c0.027,0.024,0.047,0.056,0.062,0.095
			C52.081,38.101,52.089,38.154,52.089,38.219z M52.675,38.203c0-0.099-0.02-0.181-0.062-0.248
			c-0.041-0.062-0.093-0.113-0.157-0.151c-0.065-0.037-0.138-0.062-0.221-0.077c-0.082-0.016-0.162-0.024-0.243-0.024
			c-0.083,0-0.17,0.006-0.258,0.015c-0.089,0.007-0.178,0.01-0.265,0.01c-0.054,0-0.108,0-0.169-0.006
			c-0.06-0.003-0.117-0.009-0.172-0.019c0.005,0.078,0.01,0.158,0.012,0.244c0.003,0.087,0.006,0.173,0.008,0.262
			c0.003,0.087,0.005,0.168,0.005,0.25c0.001,0.08,0.003,0.15,0.003,0.214c0,0.083-0.002,0.161-0.003,0.227
			c0,0.069-0.001,0.135-0.005,0.203c-0.002,0.062-0.005,0.128-0.011,0.196c-0.005,0.068-0.01,0.145-0.017,0.226
			c0.057-0.007,0.113-0.013,0.169-0.017c0.058-0.005,0.115-0.008,0.173-0.008c0.047,0,0.094,0.003,0.141,0.008
			c0.048,0.007,0.094,0.011,0.142,0.017c-0.005-0.025-0.008-0.07-0.013-0.135c-0.003-0.066-0.004-0.14-0.007-0.219
			c-0.001-0.082-0.004-0.159-0.005-0.238c0-0.079,0-0.145,0-0.195c0.027,0.005,0.06,0.007,0.102,0.012
			c0.04,0.001,0.09,0.001,0.149,0.001c0.092,0,0.179-0.007,0.262-0.024c0.085-0.02,0.159-0.048,0.224-0.091
			c0.065-0.042,0.119-0.098,0.156-0.167C52.655,38.396,52.675,38.306,52.675,38.203z"/>
		<path fill-rule="evenodd" clip-rule="evenodd" fill="#FFFFFF" d="M53.259,38.93c0.019,0.002,0.038,0.002,0.055,0.002
			c0.019,0,0.038,0,0.057,0h0.113h0.11c0.019,0,0.038,0,0.057,0c0.018,0,0.037,0,0.056-0.002l-0.218-0.592L53.259,38.93z
			 M53.07,39.523c-0.029-0.007-0.057-0.013-0.086-0.017c-0.027-0.005-0.056-0.008-0.086-0.008s-0.058,0.003-0.087,0.008
			c-0.027,0.004-0.051,0.01-0.076,0.017l0.15-0.338c0.024-0.052,0.05-0.109,0.08-0.176c0.028-0.067,0.058-0.141,0.087-0.215
			c0.033-0.078,0.066-0.156,0.1-0.24c0.035-0.081,0.067-0.165,0.102-0.249c0.019-0.049,0.039-0.103,0.063-0.163
			c0.024-0.063,0.047-0.122,0.069-0.183c0.022-0.062,0.043-0.115,0.06-0.163c0.019-0.049,0.034-0.085,0.042-0.103
			c0.028,0.007,0.058,0.011,0.087,0.017c0.031,0.003,0.061,0.006,0.091,0.006c0.029,0,0.06-0.003,0.09-0.006
			c0.031-0.006,0.06-0.01,0.089-0.017c0.018,0.061,0.042,0.132,0.071,0.214c0.028,0.083,0.059,0.17,0.091,0.262
			c0.033,0.087,0.067,0.18,0.101,0.27c0.035,0.092,0.069,0.177,0.099,0.253c0.036,0.089,0.068,0.168,0.095,0.237
			c0.029,0.07,0.056,0.135,0.08,0.2c0.027,0.06,0.051,0.122,0.081,0.184c0.028,0.063,0.06,0.133,0.095,0.21
			c-0.049-0.01-0.103-0.017-0.165-0.019c-0.062-0.004-0.118-0.006-0.168-0.006c-0.053,0-0.11,0.003-0.165,0.008
			c-0.055,0.004-0.108,0.01-0.163,0.017c-0.017-0.064-0.036-0.125-0.053-0.188c-0.018-0.061-0.037-0.116-0.058-0.178
			c-0.057,0-0.113,0-0.167,0c-0.057-0.001-0.113-0.001-0.17-0.001c-0.042,0-0.087,0-0.134,0.001c-0.043,0-0.087,0-0.132,0
			c-0.024,0.062-0.044,0.118-0.06,0.181C53.108,39.399,53.089,39.461,53.07,39.523z"/>
		<path fill-rule="evenodd" clip-rule="evenodd" fill="#FFFFFF" d="M55.243,38.658l0.141,0.16c0.048,0.057,0.097,0.111,0.144,0.166
			c0.048,0.054,0.097,0.109,0.145,0.167c0.051,0.057,0.101,0.114,0.153,0.175c0.052,0.062,0.107,0.127,0.166,0.197
			c0.027-0.006,0.055-0.01,0.087-0.017c0.031-0.005,0.069-0.008,0.109-0.008c0.036,0,0.074,0.003,0.11,0.008
			c0.036,0.004,0.069,0.01,0.097,0.017c-0.004-0.069-0.007-0.135-0.009-0.204c-0.001-0.067-0.003-0.137-0.003-0.202
			c0-0.175,0.003-0.347,0.007-0.515c0.003-0.167,0.007-0.339,0.013-0.515c0.004-0.063,0.008-0.127,0.014-0.191
			c0.005-0.062,0.01-0.13,0.013-0.194c-0.027,0.01-0.051,0.016-0.075,0.019c-0.022,0.006-0.048,0.006-0.078,0.006
			c-0.03,0-0.059,0-0.083-0.006c-0.026-0.003-0.057-0.009-0.089-0.019c0.002,0.056,0.005,0.108,0.008,0.158
			c0.004,0.052,0.005,0.103,0.008,0.156c0.003,0.052,0.005,0.106,0.007,0.163c0.001,0.054,0.003,0.11,0.005,0.174
			c0.003,0.076,0.004,0.151,0.004,0.225c0.003,0.07,0.006,0.143,0.006,0.219c-0.034-0.033-0.065-0.068-0.095-0.101
			c-0.027-0.032-0.056-0.062-0.086-0.094c-0.027-0.032-0.056-0.064-0.086-0.097c-0.028-0.03-0.061-0.067-0.097-0.104
			c-0.036-0.04-0.08-0.088-0.129-0.142c-0.049-0.052-0.1-0.111-0.154-0.173c-0.055-0.062-0.11-0.124-0.165-0.19
			c-0.054-0.066-0.107-0.131-0.154-0.194c-0.032,0.008-0.064,0.015-0.096,0.019c-0.031,0.006-0.065,0.006-0.099,0.006
			c-0.034,0-0.072,0-0.11-0.006c-0.036-0.004-0.07-0.011-0.106-0.019c0.008,0.149,0.014,0.293,0.015,0.433
			c0.004,0.141,0.004,0.282,0.004,0.434c0,0.071,0,0.148-0.004,0.229c-0.001,0.084-0.005,0.165-0.011,0.248
			c-0.004,0.081-0.009,0.166-0.015,0.246c-0.005,0.082-0.01,0.157-0.018,0.232c0.032-0.007,0.062-0.013,0.088-0.017
			c0.028-0.005,0.057-0.008,0.084-0.008c0.032,0,0.06,0.003,0.081,0.008c0.024,0.004,0.048,0.01,0.072,0.017
			c-0.004-0.063-0.008-0.133-0.013-0.21c-0.003-0.074-0.008-0.15-0.011-0.228c-0.003-0.076-0.005-0.149-0.008-0.219
			c-0.002-0.07-0.004-0.127-0.004-0.175v-0.265c0.036,0.039,0.072,0.077,0.11,0.114C55.175,38.58,55.21,38.618,55.243,38.658z"/>
		<path fill-rule="evenodd" clip-rule="evenodd" fill="#FFFFFF" d="M57.378,39.266v-0.584c0.064,0,0.125,0.001,0.18,0.006
			c0.054,0,0.105,0.001,0.152,0.005c0.048,0.001,0.097,0.004,0.142,0.006c0.049,0.004,0.097,0.005,0.148,0.007
			c-0.009-0.044-0.013-0.089-0.013-0.136c0-0.022,0-0.047,0.002-0.064c0.004-0.021,0.007-0.045,0.011-0.069
			c-0.071,0.004-0.14,0.009-0.206,0.011c-0.067,0.006-0.127,0.008-0.184,0.009c-0.052,0-0.102,0.005-0.142,0.006
			c-0.04,0-0.071,0-0.09,0v-0.498h0.266c0.063,0,0.126,0.001,0.188,0.007c0.062,0.005,0.127,0.007,0.191,0.01
			c-0.004-0.024-0.007-0.047-0.01-0.071c-0.002-0.023-0.002-0.047-0.002-0.071c0-0.023,0-0.045,0.002-0.064
			c0.003-0.022,0.006-0.045,0.01-0.07c-0.046,0.008-0.099,0.01-0.161,0.015c-0.061,0.002-0.124,0.004-0.19,0.008
			c-0.064,0-0.129,0.002-0.193,0.002c-0.062,0-0.117,0-0.167,0c-0.088,0-0.175,0-0.265-0.006c-0.088-0.004-0.175-0.011-0.265-0.019
			c0.006,0.072,0.01,0.133,0.012,0.188c0.005,0.056,0.007,0.117,0.009,0.183c0.001,0.068,0.002,0.145,0.002,0.232
			c0.003,0.086,0.003,0.196,0.003,0.328v0.279c0,0.097,0,0.174-0.003,0.238c0,0.061,0,0.114-0.002,0.156
			c0,0.044-0.002,0.082-0.006,0.113c-0.001,0.032-0.005,0.064-0.01,0.103c0.104-0.01,0.207-0.016,0.31-0.019
			c0.104-0.004,0.207-0.006,0.309-0.006c0.102,0,0.203,0.002,0.306,0.006c0.103,0.003,0.206,0.009,0.31,0.019
			c-0.004-0.021-0.007-0.044-0.01-0.064c-0.002-0.021-0.002-0.044-0.002-0.066c0-0.024,0-0.048,0.002-0.07
			c0.003-0.025,0.006-0.05,0.01-0.073c-0.027,0-0.063,0.003-0.106,0.007c-0.043,0.002-0.086,0.003-0.133,0.004
			c-0.045,0.004-0.089,0.005-0.131,0.006c-0.042,0-0.073,0-0.097,0H57.378z"/>
		<path fill-rule="evenodd" clip-rule="evenodd" fill="#FFFFFF" d="M58.448,39.022h-0.105c-0.003,0.047-0.007,0.089-0.014,0.124
			c-0.001,0.035-0.006,0.07-0.012,0.103c-0.005,0.027-0.01,0.059-0.017,0.09c-0.006,0.029-0.012,0.061-0.018,0.098
			c0.051,0.018,0.098,0.033,0.143,0.049c0.044,0.013,0.087,0.022,0.13,0.028c0.043,0.01,0.089,0.013,0.134,0.017
			c0.046,0.003,0.097,0.007,0.152,0.007c0.101,0,0.194-0.011,0.28-0.032c0.086-0.025,0.161-0.061,0.224-0.112
			c0.062-0.049,0.112-0.117,0.147-0.191c0.036-0.081,0.052-0.17,0.052-0.278c0-0.121-0.024-0.225-0.073-0.307
			c-0.049-0.085-0.131-0.149-0.244-0.199l-0.196-0.084c-0.044-0.021-0.089-0.043-0.129-0.058c-0.041-0.019-0.075-0.035-0.104-0.052
			c-0.028-0.021-0.053-0.042-0.068-0.061c-0.018-0.027-0.026-0.054-0.026-0.085c0-0.037,0.008-0.063,0.026-0.086
			c0.016-0.022,0.039-0.041,0.063-0.056c0.026-0.015,0.056-0.024,0.085-0.031c0.033-0.007,0.063-0.013,0.09-0.013
			c0.09,0,0.165,0.028,0.222,0.082c0.057,0.05,0.092,0.113,0.104,0.19h0.103c0.005-0.061,0.016-0.124,0.032-0.19
			c0.019-0.066,0.042-0.13,0.067-0.188c-0.087-0.031-0.173-0.06-0.265-0.077c-0.089-0.021-0.18-0.031-0.271-0.031
			c-0.094,0-0.182,0.011-0.264,0.038c-0.082,0.023-0.153,0.059-0.213,0.106c-0.062,0.051-0.109,0.113-0.145,0.188
			c-0.037,0.076-0.054,0.162-0.054,0.265c0,0.126,0.035,0.238,0.106,0.327c0.072,0.09,0.164,0.155,0.277,0.202
			c0.085,0.038,0.156,0.068,0.21,0.094c0.056,0.028,0.102,0.053,0.136,0.076c0.033,0.021,0.056,0.048,0.071,0.07
			c0.013,0.024,0.02,0.051,0.02,0.08c0,0.032-0.007,0.061-0.022,0.086c-0.016,0.022-0.035,0.044-0.062,0.057
			c-0.024,0.015-0.051,0.024-0.08,0.03c-0.03,0.008-0.062,0.01-0.091,0.01c-0.05,0-0.096-0.004-0.142-0.02
			c-0.045-0.013-0.084-0.03-0.121-0.055c-0.035-0.025-0.066-0.056-0.091-0.092C58.472,39.107,58.457,39.064,58.448,39.022z"/>
		<path fill-rule="evenodd" clip-rule="evenodd" fill="#FFFFFF" d="M60.437,39.266v-0.584c0.065,0,0.125,0.001,0.18,0.006
			c0.055,0,0.105,0.001,0.153,0.005c0.05,0.001,0.096,0.004,0.143,0.006c0.047,0.004,0.095,0.005,0.146,0.007
			c-0.008-0.044-0.013-0.089-0.013-0.136c0-0.022,0.001-0.047,0.003-0.064c0.002-0.021,0.008-0.045,0.01-0.069
			c-0.071,0.004-0.14,0.009-0.207,0.011c-0.065,0.006-0.125,0.008-0.183,0.009c-0.055,0-0.102,0.005-0.142,0.006
			c-0.04,0-0.07,0-0.09,0v-0.498h0.266c0.063,0,0.127,0.001,0.188,0.007c0.062,0.005,0.125,0.007,0.191,0.01
			c-0.004-0.024-0.007-0.047-0.012-0.071c0-0.023,0-0.047,0-0.071c0-0.023,0-0.045,0-0.064c0.004-0.022,0.008-0.045,0.012-0.07
			c-0.047,0.008-0.099,0.01-0.161,0.015c-0.06,0.002-0.125,0.004-0.191,0.008c-0.063,0-0.129,0.002-0.191,0.002
			c-0.063,0-0.12,0-0.169,0c-0.088,0-0.175,0-0.265-0.006c-0.086-0.004-0.176-0.011-0.265-0.019
			c0.006,0.072,0.011,0.133,0.015,0.188c0.003,0.056,0.007,0.117,0.007,0.183c0.002,0.068,0.002,0.145,0.002,0.232
			c0.002,0.086,0.002,0.196,0.002,0.328v0.279c0,0.097,0,0.174-0.002,0.238c0,0.061,0,0.114-0.002,0.156
			c0,0.044,0,0.082-0.004,0.113c-0.003,0.032-0.007,0.064-0.012,0.103c0.103-0.01,0.208-0.016,0.311-0.019
			c0.104-0.004,0.206-0.006,0.309-0.006c0.102,0,0.204,0.002,0.305,0.006c0.104,0.003,0.208,0.009,0.312,0.019
			c-0.004-0.021-0.007-0.044-0.012-0.064c0-0.021,0-0.044,0-0.066c0-0.024,0-0.048,0-0.07c0.004-0.025,0.008-0.05,0.012-0.073
			c-0.028,0-0.063,0.003-0.106,0.007c-0.043,0.002-0.088,0.003-0.135,0.004c-0.044,0.004-0.088,0.005-0.131,0.006
			c-0.041,0-0.072,0-0.096,0H60.437z"/>
	</g>
	<g>
		<g>
			<circle fill="#231815" cx="7.459" cy="27.116" r="7.459"/>
			<path fill="#231815" d="M7.458,27.116"/>
		</g>
		<g>
			<circle fill="none" stroke="#F1BB00" stroke-width="0.2318" stroke-miterlimit="3.8637" cx="7.459" cy="27.116" r="7.459"/>
			<path fill="none" stroke="#F1BB00" stroke-width="0.2318" stroke-miterlimit="3.8637" d="M7.458,27.116"/>
		</g>
	</g>
	<g>
		<g>
			<g>
				<path fill-rule="evenodd" clip-rule="evenodd" fill="#F1BB00" d="M6.476,25.804c0,0,0.363-0.061,0.08-0.523
					c-0.282-0.465-1.45-1.593-1.571-1.895c-0.121-0.302-0.464-1.29,0.06-1.45c0.328-0.102,0.323-0.584,0.484-0.623
					c0.162-0.04,0.402,0.018,0.483-0.141c0.081-0.162,0.161-0.385,0.323-0.365c0.16,0.021,0.342,0.285,0.442,0.141
					c0.101-0.141,0.101-0.221,0.343-0.383c0.242-0.158,0.343-0.221,0.583-0.058c0.242,0.159,0.183,0.401,0.444,0.401
					s0.222-0.182,0.523-0.08c0.302,0.102,0.021,0.162,0.302,0.344c0.282,0.18,0.181-0.123,0.504,0.158
					c0.321,0.285,0.081,0.546,0.343,0.567c0.262,0.019,0.342,0.019,0.361,0.241c0.02,0.222,0.042,0.361-0.059,0.744
					c-0.102,0.384-0.806,1.188-1.229,1.672c-0.424,0.484-0.706,0.866-0.584,1.047c0.12,0.182,0.241,0.264,0.241,0.264l-0.141,0.16
					H6.516L6.476,25.804z"/>
				
					<path fill-rule="evenodd" clip-rule="evenodd" fill="none" stroke="#F1BB00" stroke-width="0.0644" stroke-miterlimit="3.8637" d="
					M6.476,25.804c0,0,0.363-0.061,0.08-0.523c-0.282-0.465-1.45-1.593-1.571-1.895c-0.121-0.302-0.464-1.29,0.06-1.45
					c0.328-0.102,0.323-0.584,0.484-0.623c0.162-0.04,0.402,0.018,0.483-0.141c0.081-0.162,0.161-0.385,0.323-0.365
					c0.16,0.021,0.342,0.285,0.442,0.141c0.101-0.141,0.101-0.221,0.343-0.383c0.242-0.158,0.343-0.221,0.583-0.058
					c0.242,0.159,0.183,0.401,0.444,0.401s0.222-0.182,0.523-0.08c0.302,0.102,0.021,0.162,0.302,0.344
					c0.282,0.18,0.181-0.123,0.504,0.158c0.321,0.285,0.081,0.546,0.343,0.567c0.262,0.019,0.342,0.019,0.361,0.241
					c0.02,0.222,0.042,0.361-0.059,0.744c-0.102,0.384-0.806,1.188-1.229,1.672c-0.424,0.484-0.706,0.866-0.584,1.047
					c0.12,0.182,0.241,0.264,0.241,0.264l-0.141,0.16H6.516L6.476,25.804z"/>
			</g>
			<g>
				<path fill-rule="evenodd" clip-rule="evenodd" fill="#231815" d="M7.059,25.32c-0.069-0.041-0.22-1.068-0.301-1.31
					c-0.081-0.243-0.121-0.463,0-0.341c0.12,0.119,0.462,0.863,0.462,0.863s0.062-2.798,0.162-3
					c0.102-0.203,0.161,0.082,0.161,0.082s0.101,2.376,0.121,2.918c0.008,0.218,0.182-0.26,0.281-0.501
					c0.102-0.243,0.081-0.546,0.122-0.304c0.04,0.242,0.1,0.039,0,0.584c-0.101,0.545-0.082,0.806-0.161,0.947
					C7.825,25.4,7.401,25.522,7.059,25.32z"/>
				
					<path fill-rule="evenodd" clip-rule="evenodd" fill="none" stroke="#231815" stroke-width="0.0644" stroke-miterlimit="3.8637" d="
					M7.059,25.32c-0.069-0.041-0.22-1.068-0.301-1.31c-0.081-0.243-0.121-0.463,0-0.341c0.12,0.119,0.462,0.863,0.462,0.863
					s0.062-2.798,0.162-3c0.102-0.203,0.161,0.082,0.161,0.082s0.101,2.376,0.121,2.918c0.008,0.218,0.182-0.26,0.281-0.501
					c0.102-0.243,0.081-0.546,0.122-0.304c0.04,0.242,0.1,0.039,0,0.584c-0.101,0.545-0.082,0.806-0.161,0.947
					C7.825,25.4,7.401,25.522,7.059,25.32z"/>
			</g>
		</g>
		<g>
			<g>
				<path fill-rule="evenodd" clip-rule="evenodd" fill="#F1BB00" d="M8.411,25.771c0,0,0.168,0.324,0.523-0.086
					c0.354-0.412,1.066-1.871,1.315-2.078c0.25-0.21,1.083-0.84,1.399-0.391c0.196,0.276,0.656,0.125,0.743,0.266
					c0.088,0.141,0.105,0.388,0.284,0.416c0.178,0.025,0.414,0.034,0.444,0.194c0.03,0.159-0.162,0.413,0.002,0.464
					c0.166,0.053,0.243,0.029,0.47,0.209c0.229,0.18,0.317,0.258,0.239,0.534c-0.079,0.28-0.327,0.301-0.246,0.546
					c0.081,0.251,0.241,0.156,0.239,0.475c-0.003,0.319-0.148,0.069-0.233,0.393c-0.086,0.325,0.171,0.136,0.003,0.53
					c-0.17,0.393-0.494,0.246-0.432,0.5c0.062,0.255,0.087,0.33-0.118,0.42c-0.204,0.087-0.333,0.148-0.727,0.172
					c-0.396,0.023-1.381-0.398-1.972-0.652c-0.59-0.252-1.041-0.401-1.176-0.23c-0.135,0.168-0.174,0.312-0.174,0.312l-0.197-0.086
					l-0.584-1.803L8.411,25.771z"/>
				
					<path fill-rule="evenodd" clip-rule="evenodd" fill="none" stroke="#F1BB00" stroke-width="0.0644" stroke-miterlimit="3.8637" d="
					M8.411,25.771c0,0,0.168,0.324,0.523-0.086c0.354-0.412,1.066-1.871,1.315-2.078c0.25-0.21,1.083-0.84,1.399-0.391
					c0.196,0.276,0.656,0.125,0.743,0.266c0.088,0.141,0.105,0.388,0.284,0.416c0.178,0.025,0.414,0.034,0.444,0.194
					c0.03,0.159-0.162,0.413,0.002,0.464c0.166,0.053,0.243,0.029,0.47,0.209c0.229,0.18,0.317,0.258,0.239,0.534
					c-0.079,0.28-0.327,0.301-0.246,0.546c0.081,0.251,0.241,0.156,0.239,0.475c-0.003,0.319-0.148,0.069-0.233,0.393
					c-0.086,0.325,0.171,0.136,0.003,0.53c-0.17,0.393-0.494,0.246-0.432,0.5c0.062,0.255,0.087,0.33-0.118,0.42
					c-0.204,0.087-0.333,0.148-0.727,0.172c-0.396,0.023-1.381-0.398-1.972-0.652c-0.59-0.252-1.041-0.401-1.176-0.23
					c-0.135,0.168-0.174,0.312-0.174,0.312l-0.197-0.086l-0.584-1.803L8.411,25.771z"/>
			</g>
			<g>
				<path fill-rule="evenodd" clip-rule="evenodd" fill="#231815" d="M9.051,26.178c0.019-0.081,0.946-0.543,1.152-0.693
					c0.206-0.15,0.403-0.259,0.326-0.106c-0.078,0.153-0.68,0.709-0.68,0.709s2.682-0.808,2.905-0.774
					c0.221,0.032-0.028,0.178-0.028,0.178s-2.229,0.83-2.741,1.018c-0.203,0.076,0.305,0.093,0.566,0.112
					c0.261,0.021,0.542-0.091,0.325,0.021c-0.217,0.115-0.008,0.109-0.555,0.18c-0.55,0.075-0.792,0.177-0.951,0.141
					C9.21,26.93,8.965,26.563,9.051,26.178z"/>
				
					<path fill-rule="evenodd" clip-rule="evenodd" fill="none" stroke="#231815" stroke-width="0.0644" stroke-miterlimit="3.8637" d="
					M9.051,26.178c0.019-0.081,0.946-0.543,1.152-0.693c0.206-0.15,0.403-0.259,0.326-0.106c-0.078,0.153-0.68,0.709-0.68,0.709
					s2.682-0.808,2.905-0.774c0.221,0.032-0.028,0.178-0.028,0.178s-2.229,0.83-2.741,1.018c-0.203,0.076,0.305,0.093,0.566,0.112
					c0.261,0.021,0.542-0.091,0.325,0.021c-0.217,0.115-0.008,0.109-0.555,0.18c-0.55,0.075-0.792,0.177-0.951,0.141
					C9.21,26.93,8.965,26.563,9.051,26.178z"/>
			</g>
		</g>
		<g>
			<g>
				<path fill-rule="evenodd" clip-rule="evenodd" fill="#F1BB00" d="M9.099,27.573c0,0-0.259,0.262,0.242,0.472
					s2.11,0.435,2.384,0.605c0.276,0.177,1.133,0.773,0.805,1.211c-0.205,0.272,0.082,0.661-0.025,0.789
					c-0.106,0.129-0.336,0.22-0.308,0.398c0.03,0.178,0.095,0.404-0.047,0.482c-0.142,0.079-0.443-0.026-0.442,0.148
					c0.003,0.173,0.048,0.237-0.051,0.509c-0.101,0.273-0.148,0.382-0.437,0.395c-0.29,0.01-0.384-0.222-0.596-0.067
					c-0.211,0.154-0.072,0.276-0.376,0.374c-0.303,0.096-0.11-0.118-0.445-0.1c-0.335,0.018-0.075,0.203-0.501,0.165
					c-0.427-0.039-0.386-0.394-0.609-0.254c-0.225,0.137-0.289,0.183-0.436,0.017c-0.146-0.166-0.246-0.271-0.388-0.639
					c-0.145-0.367-0.047-1.434,0.011-2.074c0.057-0.639,0.06-1.116-0.143-1.192c-0.206-0.076-0.351-0.068-0.351-0.068l0.019-0.214
					l1.532-1.113L9.099,27.573z"/>
				
					<path fill-rule="evenodd" clip-rule="evenodd" fill="none" stroke="#F1BB00" stroke-width="0.0644" stroke-miterlimit="3.8637" d="
					M9.099,27.573c0,0-0.259,0.262,0.242,0.472s2.11,0.435,2.384,0.605c0.276,0.177,1.133,0.773,0.805,1.211
					c-0.205,0.272,0.082,0.661-0.025,0.789c-0.106,0.129-0.336,0.22-0.308,0.398c0.03,0.178,0.095,0.404-0.047,0.482
					c-0.142,0.079-0.443-0.026-0.442,0.148c0.003,0.173,0.048,0.237-0.051,0.509c-0.101,0.273-0.148,0.382-0.437,0.395
					c-0.29,0.01-0.384-0.222-0.596-0.067c-0.211,0.154-0.072,0.276-0.376,0.374c-0.303,0.096-0.11-0.118-0.445-0.1
					c-0.335,0.018-0.075,0.203-0.501,0.165c-0.427-0.039-0.386-0.394-0.609-0.254c-0.225,0.137-0.289,0.183-0.436,0.017
					c-0.146-0.166-0.246-0.271-0.388-0.639c-0.145-0.367-0.047-1.434,0.011-2.074c0.057-0.639,0.06-1.116-0.143-1.192
					c-0.206-0.076-0.351-0.068-0.351-0.068l0.019-0.214l1.532-1.113L9.099,27.573z"/>
			</g>
			<g>
				<path fill-rule="evenodd" clip-rule="evenodd" fill="#231815" d="M8.91,28.308c0.081-0.006,0.806,0.733,1.014,0.882
					c0.208,0.148,0.369,0.303,0.201,0.278c-0.168-0.029-0.883-0.43-0.883-0.43s1.597,2.299,1.633,2.523
					c0.037,0.222-0.178,0.027-0.178,0.027s-1.478-1.861-1.813-2.291c-0.134-0.173,0.007,0.318,0.067,0.575
					c0.061,0.253,0.255,0.486,0.081,0.313c-0.175-0.171-0.106,0.026-0.344-0.474c-0.238-0.496-0.409-0.697-0.426-0.859
					C8.245,28.693,8.515,28.346,8.91,28.308z"/>
				
					<path fill-rule="evenodd" clip-rule="evenodd" fill="none" stroke="#231815" stroke-width="0.0644" stroke-miterlimit="3.8637" d="
					M8.91,28.308c0.081-0.006,0.806,0.733,1.014,0.882c0.208,0.148,0.369,0.303,0.201,0.278c-0.168-0.029-0.883-0.43-0.883-0.43
					s1.597,2.299,1.633,2.523c0.037,0.222-0.178,0.027-0.178,0.027s-1.478-1.861-1.813-2.291c-0.134-0.173,0.007,0.318,0.067,0.575
					c0.061,0.253,0.255,0.486,0.081,0.313c-0.175-0.171-0.106,0.026-0.344-0.474c-0.238-0.496-0.409-0.697-0.426-0.859
					C8.245,28.693,8.515,28.346,8.91,28.308z"/>
			</g>
		</g>
		<g>
			<g>
				<path fill-rule="evenodd" clip-rule="evenodd" fill="#F1BB00" d="M5.968,27.666c0,0,0.048-0.364-0.477-0.23
					c-0.526,0.134-1.945,0.923-2.271,0.949c-0.324,0.027-1.368,0.066-1.369-0.48c0-0.344-0.464-0.481-0.456-0.646
					c0.009-0.166,0.137-0.378,0.007-0.506c-0.131-0.121-0.32-0.265-0.253-0.413c0.066-0.148,0.37-0.245,0.265-0.383
					c-0.105-0.137-0.182-0.16-0.265-0.439c-0.083-0.275-0.112-0.391,0.112-0.577c0.226-0.181,0.438-0.055,0.516-0.304
					c0.075-0.252-0.109-0.266,0.075-0.526c0.185-0.259,0.16,0.03,0.416-0.188c0.255-0.217-0.062-0.208,0.299-0.434
					c0.365-0.227,0.545,0.082,0.64-0.161c0.097-0.247,0.121-0.324,0.338-0.276c0.217,0.045,0.358,0.066,0.696,0.273
					c0.336,0.209,0.899,1.12,1.239,1.664c0.339,0.546,0.622,0.928,0.831,0.866c0.209-0.063,0.321-0.156,0.321-0.156l0.113,0.185
					l-0.554,1.811L5.968,27.666z"/>
				
					<path fill-rule="evenodd" clip-rule="evenodd" fill="none" stroke="#F1BB00" stroke-width="0.0644" stroke-miterlimit="3.8637" d="
					M5.968,27.666c0,0,0.048-0.364-0.477-0.23c-0.526,0.134-1.945,0.923-2.271,0.949c-0.324,0.027-1.368,0.066-1.369-0.48
					c0-0.344-0.464-0.481-0.456-0.646c0.009-0.166,0.137-0.378,0.007-0.506c-0.131-0.121-0.32-0.265-0.253-0.413
					c0.066-0.148,0.37-0.245,0.265-0.383c-0.105-0.137-0.182-0.16-0.265-0.439c-0.083-0.275-0.112-0.391,0.112-0.577
					c0.226-0.181,0.438-0.055,0.516-0.304c0.075-0.252-0.109-0.266,0.075-0.526c0.185-0.259,0.16,0.03,0.416-0.188
					c0.255-0.217-0.062-0.208,0.299-0.434c0.365-0.227,0.545,0.082,0.64-0.161c0.097-0.247,0.121-0.324,0.338-0.276
					c0.217,0.045,0.358,0.066,0.696,0.273c0.336,0.209,0.899,1.12,1.239,1.664c0.339,0.546,0.622,0.928,0.831,0.866
					c0.209-0.063,0.321-0.156,0.321-0.156l0.113,0.185l-0.554,1.811L5.968,27.666z"/>
			</g>
			<g>
				<path fill-rule="evenodd" clip-rule="evenodd" fill="#231815" d="M5.677,26.964c-0.061,0.057-1.086-0.098-1.341-0.094
					c-0.254,0.01-0.479-0.019-0.328-0.098c0.151-0.08,0.963-0.189,0.963-0.189s-2.66-0.879-2.823-1.034
					c-0.164-0.152,0.124-0.128,0.124-0.128s2.303,0.596,2.828,0.736c0.211,0.057-0.198-0.25-0.397-0.415
					c-0.203-0.171-0.498-0.236-0.254-0.205c0.243,0.032,0.066-0.085,0.559,0.172c0.491,0.254,0.747,0.312,0.858,0.431
					C5.977,26.257,5.969,26.696,5.677,26.964z"/>
				
					<path fill-rule="evenodd" clip-rule="evenodd" fill="none" stroke="#231815" stroke-width="0.0644" stroke-miterlimit="3.8637" d="
					M5.677,26.964c-0.061,0.057-1.086-0.098-1.341-0.094c-0.254,0.01-0.479-0.019-0.328-0.098c0.151-0.08,0.963-0.189,0.963-0.189
					s-2.66-0.879-2.823-1.034c-0.164-0.152,0.124-0.128,0.124-0.128s2.303,0.596,2.828,0.736c0.211,0.057-0.198-0.25-0.397-0.415
					c-0.203-0.171-0.498-0.236-0.254-0.205c0.243,0.032,0.066-0.085,0.559,0.172c0.491,0.254,0.747,0.312,0.858,0.431
					C5.977,26.257,5.969,26.696,5.677,26.964z"/>
			</g>
		</g>
		<g>
			<g>
				<path fill-rule="evenodd" clip-rule="evenodd" fill="#F1BB00" d="M7.419,28.803c0,0-0.326-0.17-0.378,0.369
					c-0.054,0.54,0.2,2.143,0.114,2.458c-0.084,0.314-0.405,1.309-0.92,1.122c-0.322-0.117-0.609,0.272-0.763,0.207
					c-0.153-0.063-0.309-0.257-0.47-0.178c-0.162,0.08-0.361,0.209-0.476,0.096c-0.117-0.112-0.105-0.431-0.27-0.379
					c-0.166,0.051-0.214,0.117-0.503,0.101c-0.29-0.019-0.406-0.029-0.503-0.304c-0.097-0.274,0.097-0.431-0.113-0.591
					c-0.208-0.157-0.283,0.014-0.465-0.249C2.492,31.192,2.753,31.313,2.637,31c-0.116-0.317-0.218-0.015-0.306-0.431
					c-0.086-0.421,0.263-0.484,0.067-0.657c-0.198-0.173-0.261-0.223-0.144-0.411c0.117-0.189,0.185-0.313,0.496-0.559
					c0.312-0.246,1.36-0.466,1.988-0.597c0.629-0.133,1.085-0.269,1.098-0.487c0.012-0.217-0.037-0.353-0.037-0.353l0.209-0.044
					l1.512,1.14L7.419,28.803z"/>
				
					<path fill-rule="evenodd" clip-rule="evenodd" fill="none" stroke="#F1BB00" stroke-width="0.0644" stroke-miterlimit="3.8637" d="
					M7.419,28.803c0,0-0.326-0.17-0.378,0.369c-0.054,0.54,0.2,2.143,0.114,2.458c-0.084,0.314-0.405,1.309-0.92,1.122
					c-0.322-0.117-0.609,0.272-0.763,0.207c-0.153-0.063-0.309-0.257-0.47-0.178c-0.162,0.08-0.361,0.209-0.476,0.096
					c-0.117-0.112-0.105-0.431-0.27-0.379c-0.166,0.051-0.214,0.117-0.503,0.101c-0.29-0.019-0.406-0.029-0.503-0.304
					c-0.097-0.274,0.097-0.431-0.113-0.591c-0.208-0.157-0.283,0.014-0.465-0.249C2.492,31.192,2.753,31.313,2.637,31
					c-0.116-0.317-0.218-0.015-0.306-0.431c-0.086-0.421,0.263-0.484,0.067-0.657c-0.198-0.173-0.261-0.223-0.144-0.411
					c0.117-0.189,0.185-0.313,0.496-0.559c0.312-0.246,1.36-0.466,1.988-0.597c0.629-0.133,1.085-0.269,1.098-0.487
					c0.012-0.217-0.037-0.353-0.037-0.353l0.209-0.044l1.512,1.14L7.419,28.803z"/>
			</g>
			<g>
				<path fill-rule="evenodd" clip-rule="evenodd" fill="#231815" d="M6.662,28.837c0.033,0.076-0.464,0.984-0.545,1.227
					c-0.081,0.242-0.183,0.443-0.207,0.274c-0.024-0.168,0.15-0.971,0.15-0.971s-1.731,2.201-1.934,2.299
					c-0.201,0.102-0.08-0.159-0.08-0.159s1.35-1.96,1.661-2.405c0.125-0.179-0.302,0.097-0.528,0.232
					c-0.227,0.13-0.393,0.385-0.278,0.167c0.114-0.215-0.057-0.093,0.352-0.464c0.408-0.376,0.549-0.598,0.698-0.661
					C6.101,28.312,6.511,28.47,6.662,28.837z"/>
				
					<path fill-rule="evenodd" clip-rule="evenodd" fill="none" stroke="#231815" stroke-width="0.0644" stroke-miterlimit="3.8637" d="
					M6.662,28.837c0.033,0.076-0.464,0.984-0.545,1.227c-0.081,0.242-0.183,0.443-0.207,0.274c-0.024-0.168,0.15-0.971,0.15-0.971
					s-1.731,2.201-1.934,2.299c-0.201,0.102-0.08-0.159-0.08-0.159s1.35-1.96,1.661-2.405c0.125-0.179-0.302,0.097-0.528,0.232
					c-0.227,0.13-0.393,0.385-0.278,0.167c0.114-0.215-0.057-0.093,0.352-0.464c0.408-0.376,0.549-0.598,0.698-0.661
					C6.101,28.312,6.511,28.47,6.662,28.837z"/>
			</g>
		</g>
	</g>
	<g>
		<g>
			<circle fill="#F1BB00" cx="7.458" cy="27.116" r="1.312"/>
			<path fill="#F1BB00" d="M7.458,27.116"/>
		</g>
		<g>
			<circle fill="none" stroke="#231815" stroke-width="0.3477" stroke-miterlimit="3.8637" cx="7.458" cy="27.116" r="1.312"/>
			<path fill="none" stroke="#231815" stroke-width="0.3477" stroke-miterlimit="3.8637" d="M7.458,27.116"/>
		</g>
	</g>
	<g>
		<path fill-rule="evenodd" clip-rule="evenodd" fill="#FFFFFF" d="M20.117,21.13c1.605,0,2.417,2.205,2.95,2.205
			c0.329,0,3.438-1.421,4.782-1.421h1.084c0.403,0,2.278,0.896,2.278,1.83v0.336c0,0.732-0.911,1.054-0.971,1.122h-0.747
			c-0.215,0-0.527-0.337-0.971-0.337c-0.202,0-0.411,0.104-0.411,0.299l0.334,1.42c0.007,0.549,0,3.321,0,3.361
			c-0.033,0.635,2.619,0.43,2.765,2.092c0.067,0.785,0,0.431,0,0.598c0,0.677-0.388,1.344-1.046,1.344h-0.598
			c-0.396,0-1.039-0.633-1.829-0.633h-0.375c-0.288,0-1.051,0.425-1.308,0.445c-1.296,0.113-0.415-0.083-1.121,0
			c-0.009,0-0.033,0.152-0.223,0.152c0,0-0.539,0.003-0.56,0l-1.421-0.786c-0.144,0-0.814,0.71-1.233,0.71h-0.822
			c0,0-1.023-0.313-1.531-0.971c0,0-0.934-0.93-0.934-1.68V30.58c0-1.262,1.194-1.691,1.194-2.166c0-0.157-1.495-0.72-1.495-1.494
			v-0.672c0-0.723,1.719-1.888,1.719-2.055c0-0.139-1.083-1.021-1.083-1.531v-0.673C18.547,21.952,18.925,21.13,20.117,21.13z
			 M22.692,24.977c0.092,0,1.421,0.635,1.421,0.635h0.113l0.037-0.073c0.317,0.03,0.706,0.089,0.859,0.073v1.309
			c-0.046,0.165-0.094,0.571-0.15,1.757v0.635c-0.198,0.095-1.928,0.611-1.98,0.634c0,0-0.392,0.375-0.597,0.375
			c-0.329,0-0.218-0.756-0.375-0.86v-0.45c0,0,0.467-1.043,0.523-1.081v-0.747c-0.156-0.105-0.254-0.695-0.447-0.823v-0.82
			C22.185,25.478,22.058,24.977,22.692,24.977z M20.977,25.312h0.26c0.008,0.127,0,0.155,0,0.261c0,0.132-0.011,0.114-0.187,0.114
			c-0.146,0-0.232-0.041-0.375-0.114v-0.111C20.785,25.455,20.915,25.407,20.977,25.312z M20.901,29.571h0.111
			c0.016,0.25,0,0.226,0,0.336c0,0.227,0.016,0.67,0.075,0.748h-0.262c-0.021-0.032-0.096-0.106-0.26-0.187v-0.562
			C20.687,29.849,20.848,29.677,20.901,29.571z M24.039,30.542h0.449c0.074,0.113,0.116,0.043,0.335,0.151v0.188
			c-0.098,0.02-1.061,0.632-1.308,0.632c-0.227,0-0.335-0.155-0.335-0.335C23.18,30.865,23.965,30.655,24.039,30.542z"/>
		
			<path fill-rule="evenodd" clip-rule="evenodd" fill="#FFFFFF" stroke="#231815" stroke-width="0.0644" stroke-miterlimit="3.8637" d="
			M20.117,21.13c1.605,0,2.417,2.205,2.95,2.205c0.329,0,3.438-1.421,4.782-1.421h1.084c0.403,0,2.278,0.896,2.278,1.83v0.336
			c0,0.732-0.911,1.054-0.971,1.122h-0.747c-0.215,0-0.527-0.337-0.971-0.337c-0.202,0-0.411,0.104-0.411,0.299l0.334,1.42
			c0.007,0.549,0,3.321,0,3.361c-0.033,0.635,2.619,0.43,2.765,2.092c0.067,0.785,0,0.431,0,0.598c0,0.677-0.388,1.344-1.046,1.344
			h-0.598c-0.396,0-1.039-0.633-1.829-0.633h-0.375c-0.288,0-1.051,0.425-1.308,0.445c-1.296,0.113-0.415-0.083-1.121,0
			c-0.009,0-0.033,0.152-0.223,0.152c0,0-0.539,0.003-0.56,0l-1.421-0.786c-0.144,0-0.814,0.71-1.233,0.71h-0.822
			c0,0-1.023-0.313-1.531-0.971c0,0-0.934-0.93-0.934-1.68V30.58c0-1.262,1.194-1.691,1.194-2.166c0-0.157-1.495-0.72-1.495-1.494
			v-0.672c0-0.723,1.719-1.888,1.719-2.055c0-0.139-1.083-1.021-1.083-1.531v-0.673C18.547,21.952,18.925,21.13,20.117,21.13z
			 M22.692,24.977c0.092,0,1.421,0.635,1.421,0.635h0.113l0.037-0.073c0.317,0.03,0.706,0.089,0.859,0.073v1.309
			c-0.046,0.165-0.094,0.571-0.15,1.757v0.635c-0.198,0.095-1.928,0.611-1.98,0.634c0,0-0.392,0.375-0.597,0.375
			c-0.329,0-0.218-0.756-0.375-0.86v-0.45c0,0,0.467-1.043,0.523-1.081v-0.747c-0.156-0.105-0.254-0.695-0.447-0.823v-0.82
			C22.185,25.478,22.058,24.977,22.692,24.977z M20.977,25.312h0.26c0.008,0.127,0,0.155,0,0.261c0,0.132-0.011,0.114-0.187,0.114
			c-0.146,0-0.232-0.041-0.375-0.114v-0.111C20.785,25.455,20.915,25.407,20.977,25.312z M20.901,29.571h0.111
			c0.016,0.25,0,0.226,0,0.336c0,0.227,0.016,0.67,0.075,0.748h-0.262c-0.021-0.032-0.096-0.106-0.26-0.187v-0.562
			C20.687,29.849,20.848,29.677,20.901,29.571z M24.039,30.542h0.449c0.074,0.113,0.116,0.043,0.335,0.151v0.188
			c-0.098,0.02-1.061,0.632-1.308,0.632c-0.227,0-0.335-0.155-0.335-0.335C23.18,30.865,23.965,30.655,24.039,30.542z"/>
	</g>
	<g>
		<path fill-rule="evenodd" clip-rule="evenodd" fill="#FFFFFF" d="M38.757,21.353c0.146,0,0.544,0.056,0.672,0
			c0.148,0.137,0.899,0.154,1.418,0.6l0.598,0.37c0,0,0.25,0.712,0.523,0.712c0.452,0,0.781,0.012,1.158,0
			c1.628-0.052,3.122,1.617,3.212,1.793c0.083,0.165,0.485,1.292,0.485,1.644c0,0.239,0.034,0.425,0,0.637
			c-0.086,0.511-0.934,1.542-0.934,1.719c0,0.2,0.299,0.694,0.299,0.933c0,0.548-0.754,1.195-1.084,1.195h-0.672L43.5,30.728h-3.511
			c0,0-0.094,0.227-0.673,0.227h-0.41c-0.034,0-0.199,0.056-0.673,0.225l-0.448,0.038c-0.313,0.129-0.43,1.554-0.972,2.353
			c-0.302,0.444-0.701,0.494-0.896,0.711h-0.897c-0.415,0-1.345-0.642-1.345-1.384c0-0.234,0.075-0.224,0.075-0.224
			c0-0.167-0.004-0.393,0-0.412c0.078-0.22,0.479-0.798,0.485-0.822c0.064-0.184,0.711-3.275,0.711-3.437
			c0-0.308-0.859-0.772-0.859-1.306V26.1c0-0.278,0.564-0.842,0.934-0.859c0.374-0.021,0.691,0,0.859,0
			c0.18,0,2.465-0.569,2.465-1.047c0-0.185-1.344-0.554-1.344-1.531C37,21.701,38.742,21.366,38.757,21.353z M43.127,25.722
			c0.268,0,0.56,0.02,0.56,0.302c0,0.64-1.495,1.288-2.241,1.607c-0.732,0.312-2.724,0.608-2.915,0.895c-0.246,0-0.38-0.055-0.672,0
			v-0.783c1.383-0.693,1.395-0.531,2.355-1.008c0.403-0.203,2.255-0.921,2.314-1.013C42.66,25.722,43,25.722,43.127,25.722z"/>
		
			<path fill-rule="evenodd" clip-rule="evenodd" fill="#FFFFFF" stroke="#231815" stroke-width="0.0644" stroke-miterlimit="3.8637" d="
			M38.757,21.353c0.146,0,0.544,0.056,0.672,0c0.148,0.137,0.899,0.154,1.418,0.6l0.598,0.37c0,0,0.25,0.712,0.523,0.712
			c0.452,0,0.781,0.012,1.158,0c1.628-0.052,3.122,1.617,3.212,1.793c0.083,0.165,0.485,1.292,0.485,1.644
			c0,0.239,0.034,0.425,0,0.637c-0.086,0.511-0.934,1.542-0.934,1.719c0,0.2,0.299,0.694,0.299,0.933
			c0,0.548-0.754,1.195-1.084,1.195h-0.672L43.5,30.728h-3.511c0,0-0.094,0.227-0.673,0.227h-0.41c-0.034,0-0.199,0.056-0.673,0.225
			l-0.448,0.038c-0.313,0.129-0.43,1.554-0.972,2.353c-0.302,0.444-0.701,0.494-0.896,0.711h-0.897
			c-0.415,0-1.345-0.642-1.345-1.384c0-0.234,0.075-0.224,0.075-0.224c0-0.167-0.004-0.393,0-0.412
			c0.078-0.22,0.479-0.798,0.485-0.822c0.064-0.184,0.711-3.275,0.711-3.437c0-0.308-0.859-0.772-0.859-1.306V26.1
			c0-0.278,0.564-0.842,0.934-0.859c0.374-0.021,0.691,0,0.859,0c0.18,0,2.465-0.569,2.465-1.047c0-0.185-1.344-0.554-1.344-1.531
			C37,21.701,38.742,21.366,38.757,21.353z M43.127,25.722c0.268,0,0.56,0.02,0.56,0.302c0,0.64-1.495,1.288-2.241,1.607
			c-0.732,0.312-2.724,0.608-2.915,0.895c-0.246,0-0.38-0.055-0.672,0v-0.783c1.383-0.693,1.395-0.531,2.355-1.008
			c0.403-0.203,2.255-0.921,2.314-1.013C42.66,25.722,43,25.722,43.127,25.722z"/>
	</g>
	<g>
		<g>
			<path fill-rule="evenodd" clip-rule="evenodd" fill="#FFFFFF" d="M73.103,28.361h1.555l0.459-0.447l0.557,0.547v-0.765
				l0.818,0.312h1.911l0.46-0.409l0.696,0.626l-0.3,0.295v2.615l-0.278,0.275h-0.438l-0.179-0.177v-0.099h-0.418v1.058h0.298
				l0.519-0.512l0.557,0.548v0.198h-1.374v1.093h0.378l0.638-0.624l0.715,0.704l-0.138,0.135h-3.985l-0.14,0.138l-0.338-0.333h1.953
				v-1.055h-0.996l0,0l-0.338-0.331h1.334v-1.019h-0.418l-0.099,0.099l-0.279,0.273h-0.4l-0.118-0.117v-0.917h-0.917v1.621
				l0.956-0.312c0,0-0.896,1.231-1.972,1.271l-0.239,0.349l-0.439-0.682v-0.353l0.777-0.156v-1.778h-0.398l-0.158,0.156l-0.2-0.332
				h0.736v-1.662l-0.318-0.019l-0.12,0.101L73.103,28.361z M76.57,28.244h0.458v1.21H76.57V28.244z M77.926,28.244h0.457v1.21
				h-0.457V28.244z M77.926,29.689h0.457v1.212h-0.457V29.689z M76.57,29.651h0.458v1.21H76.57V29.651z M74.797,28.576h0.897v1.66
				l-0.398-0.388l-0.499,0.487V28.576z"/>
			
				<path fill-rule="evenodd" clip-rule="evenodd" fill="#FFFFFF" stroke="#231815" stroke-width="0.0644" stroke-miterlimit="3.8637" d="
				M73.103,28.361h1.555l0.459-0.447l0.557,0.547v-0.765l0.818,0.312h1.911l0.46-0.409l0.696,0.626l-0.3,0.295v2.615l-0.278,0.275
				h-0.438l-0.179-0.177v-0.099h-0.418v1.058h0.298l0.519-0.512l0.557,0.548v0.198h-1.374v1.093h0.378l0.638-0.624l0.715,0.704
				l-0.138,0.135h-3.985l-0.14,0.138l-0.338-0.333h1.953v-1.055h-0.996l0,0l-0.338-0.331h1.334v-1.019h-0.418l-0.099,0.099
				l-0.279,0.273h-0.4l-0.118-0.117v-0.917h-0.917v1.621l0.956-0.312c0,0-0.896,1.231-1.972,1.271l-0.239,0.349l-0.439-0.682v-0.353
				l0.777-0.156v-1.778h-0.398l-0.158,0.156l-0.2-0.332h0.736v-1.662l-0.318-0.019l-0.12,0.101L73.103,28.361z M76.57,28.244h0.458
				v1.21H76.57V28.244z M77.926,28.244h0.457v1.21h-0.457V28.244z M77.926,29.689h0.457v1.212h-0.457V29.689z M76.57,29.651h0.458
				v1.21H76.57V29.651z M74.797,28.576h0.897v1.66l-0.398-0.388l-0.499,0.487V28.576z"/>
		</g>
		<g>
			<g>
				<path fill-rule="evenodd" clip-rule="evenodd" fill="#FFFFFF" d="M57.302,28.729h2.535v-1.462l1.21,0.235l-0.215,0.415v0.812
					h1.188l0.564-0.573l0.646,0.655v0.136h-2.067c0,0,0.351,1.603,2.398,2.374c0,0-0.664,0.455-0.545,1.206
					c0,0-1.541-0.237-2.184-3.541v2.988h0.195l0.467-0.475L62,32.015v0.178h-1.169v1.441l-0.235,0.239h-0.604l-0.137-0.139v-1.523
					h-0.936l-0.117,0.118l-0.272-0.355h1.306v-2.354c0,0-1.189,2.592-2.71,2.988c0,0,1.423-1.483,1.911-3.601h-1.364l-0.078,0.079
					L57.302,28.729z"/>
				
					<path fill-rule="evenodd" clip-rule="evenodd" fill="#FFFFFF" stroke="#231815" stroke-width="0.0644" stroke-miterlimit="3.8637" d="
					M57.302,28.729h2.535v-1.462l1.21,0.235l-0.215,0.415v0.812h1.188l0.564-0.573l0.646,0.655v0.136h-2.067
					c0,0,0.351,1.603,2.398,2.374c0,0-0.664,0.455-0.545,1.206c0,0-1.541-0.237-2.184-3.541v2.988h0.195l0.467-0.475L62,32.015
					v0.178h-1.169v1.441l-0.235,0.239h-0.604l-0.137-0.139v-1.523h-0.936l-0.117,0.118l-0.272-0.355h1.306v-2.354
					c0,0-1.189,2.592-2.71,2.988c0,0,1.423-1.483,1.911-3.601h-1.364l-0.078,0.079L57.302,28.729z"/>
			</g>
		</g>
		<g>
			<path fill-rule="evenodd" clip-rule="evenodd" fill="#FFFFFF" d="M49.138,27.688v6.047l0.154,0.117h0.876l0.31-0.234v-0.525
				h3.298v0.643l0.18,0.138h0.851l0.309-0.234V28.47l0.334-0.252l-0.823-0.625h-0.311l-0.567,0.43h-3.297L49.138,27.688z
				 M50.453,28.256h3.324v2.066h-3.324V28.256z M50.479,30.557h3.322v2.281h-3.322V30.557z"/>
			
				<path fill-rule="evenodd" clip-rule="evenodd" fill="#FFFFFF" stroke="#231815" stroke-width="0.0644" stroke-miterlimit="3.8637" d="
				M49.138,27.688v6.047l0.154,0.117h0.876l0.31-0.234v-0.525h3.298v0.643l0.18,0.138h0.851l0.309-0.234V28.47l0.334-0.252
				l-0.823-0.625h-0.311l-0.567,0.43h-3.297L49.138,27.688z M50.453,28.256h3.324v2.066h-3.324V28.256z M50.479,30.557h3.322v2.281
				h-3.322V30.557z"/>
		</g>
		<g>
			<g>
				<g>
					<path fill-rule="evenodd" clip-rule="evenodd" fill="#FFFFFF" d="M65.253,27.89c-0.278-0.218,1.386,0.928,0.696,1.506
						c-0.378,0.315-0.616-0.357-0.597-0.457C65.374,28.839,65.531,28.107,65.253,27.89z"/>
					
						<path fill-rule="evenodd" clip-rule="evenodd" fill="#FFFFFF" stroke="#231815" stroke-width="0.0644" stroke-miterlimit="3.8637" d="
						M65.253,27.89c-0.278-0.218,1.386,0.928,0.696,1.506c-0.378,0.315-0.616-0.357-0.597-0.457
						C65.374,28.839,65.531,28.107,65.253,27.89z"/>
				</g>
			</g>
			<g>
				<path fill-rule="evenodd" clip-rule="evenodd" fill="#FFFFFF" d="M65.114,29.791h1.093v-2.613l1.014,0.157l0.02,0.236
					l-0.219,0.219v1.981h0.178l0.538-0.535l0.575,0.575l-0.177,0.178h-1.114v0.177c0,0,1.273,0.733,0.994,1.191
					c-0.31,0.507-0.655,0.236-0.696,0.039c-0.04-0.198-0.08-0.912-0.298-0.912v3.11l-0.238,0.238h-0.378l-0.199-0.199v-2.08
					c0,0-0.714,1.116-1.054,1.229c0,0,0.863-1.602,0.915-2.438c0.021-0.314,0.021-0.314,0.021-0.314h-0.637l-0.12,0.118
					L65.114,29.791z"/>
				
					<path fill-rule="evenodd" clip-rule="evenodd" fill="#FFFFFF" stroke="#231815" stroke-width="0.0644" stroke-miterlimit="3.8637" d="
					M65.114,29.791h1.093v-2.613l1.014,0.157l0.02,0.236l-0.219,0.219v1.981h0.178l0.538-0.535l0.575,0.575l-0.177,0.178h-1.114
					v0.177c0,0,1.273,0.733,0.994,1.191c-0.31,0.507-0.655,0.236-0.696,0.039c-0.04-0.198-0.08-0.912-0.298-0.912v3.11l-0.238,0.238
					h-0.378l-0.199-0.199v-2.08c0,0-0.714,1.116-1.054,1.229c0,0,0.863-1.602,0.915-2.438c0.021-0.314,0.021-0.314,0.021-0.314
					h-0.637l-0.12,0.118L65.114,29.791z"/>
			</g>
			<g>
				<g>
					<polygon fill-rule="evenodd" clip-rule="evenodd" fill="#FFFFFF" points="67.48,27.729 68.355,28.047 67.181,29.317 					"/>
					
						<polygon fill-rule="evenodd" clip-rule="evenodd" fill="#FFFFFF" stroke="#231815" stroke-width="0.0644" stroke-miterlimit="3.8637" points="
						67.48,27.729 68.355,28.047 67.181,29.317 					"/>
				</g>
			</g>
			<g>
				<path fill-rule="evenodd" clip-rule="evenodd" fill="#FFFFFF" d="M68.534,27.948c-0.131-0.328,1.799,0.967,0.974,1.327
					c-0.638,0.279-0.617-0.355-0.597-0.454C68.93,28.72,68.573,28.047,68.534,27.948z"/>
				
					<path fill-rule="evenodd" clip-rule="evenodd" fill="#FFFFFF" stroke="#231815" stroke-width="0.0644" stroke-miterlimit="3.8637" d="
					M68.534,27.948c-0.131-0.328,1.799,0.967,0.974,1.327c-0.638,0.279-0.617-0.355-0.597-0.454
					C68.93,28.72,68.573,28.047,68.534,27.948z"/>
			</g>
			<g>
				<path fill-rule="evenodd" clip-rule="evenodd" fill="#FFFFFF" d="M68.395,29.751c-0.132-0.327,1.799,0.969,0.973,1.327
					c-0.635,0.279-0.614-0.357-0.595-0.454C68.792,30.524,68.434,29.852,68.395,29.751z"/>
				
					<path fill-rule="evenodd" clip-rule="evenodd" fill="#FFFFFF" stroke="#231815" stroke-width="0.0644" stroke-miterlimit="3.8637" d="
					M68.395,29.751c-0.132-0.327,1.799,0.969,0.973,1.327c-0.635,0.279-0.614-0.357-0.595-0.454
					C68.792,30.524,68.434,29.852,68.395,29.751z"/>
			</g>
			<g>
				<polygon fill-rule="evenodd" clip-rule="evenodd" fill="#FFFFFF" points="69.905,27.214 69.905,31.455 67.579,31.812 
					67.817,32.127 67.977,32.01 69.905,31.712 69.905,33.673 70.104,33.873 70.5,33.873 70.739,33.634 70.679,31.634 71.713,31.437 
					71.713,31.157 71.276,30.764 70.7,31.276 70.7,27.689 70.917,27.474 				"/>
				
					<polygon fill-rule="evenodd" clip-rule="evenodd" fill="#FFFFFF" stroke="#231815" stroke-width="0.0644" stroke-miterlimit="3.8637" points="
					69.905,27.214 69.905,31.455 67.579,31.812 67.817,32.127 67.977,32.01 69.905,31.712 69.905,33.673 70.104,33.873 70.5,33.873 
					70.739,33.634 70.679,31.634 71.713,31.437 71.713,31.157 71.276,30.764 70.7,31.276 70.7,27.689 70.917,27.474 				"/>
			</g>
		</g>
	</g>
</g>
</svg>
