<?xml version="1.0" encoding="utf-8"?>
<!-- Generator: Adobe Illustrator 16.0.3, SVG Export Plug-In . SVG Version: 6.00 Build 0)  -->
<!DOCTYPE svg PUBLIC "-//W3C//DTD SVG 1.1//EN" "http://www.w3.org/Graphics/SVG/1.1/DTD/svg11.dtd">
<svg version="1.1" id="图层_1" xmlns="http://www.w3.org/2000/svg" xmlns:xlink="http://www.w3.org/1999/xlink" x="0px" y="0px"
	 width="80px" height="60px" viewBox="0 0 80 60" enable-background="new 0 0 80 60" xml:space="preserve">
<g>
	<path fill-rule="evenodd" clip-rule="evenodd" fill="#FFFFFF" d="M62.192,33.042c-0.106,0.765-0.192,1.402-0.323,2.352
		c1.322-0.457,2.582-0.902,3.849-1.324c1.303-0.429,2.613-0.836,3.961-1.266c-0.37-1.885-1.588-3.092-3.158-3.858
		c-0.841-0.412-0.991-0.873-0.876-1.676c1.785,0.553,3.54,1.094,5.294,1.644c0.098,0.027,0.242,0.087,0.262,0.16
		c0.255,0.933,0.491,1.868,0.783,2.995c0.465-0.354,1.051-0.833,1.675-1.25c0.311-0.208,0.739-0.487,1.038-0.416
		c1.133,0.278,2.255,0.635,3.341,1.064c0.514,0.199,1.208,0.384,1.085,1.231c-0.173,1.189-0.759,1.882-1.688,2.02
		c-1.544,0.228-3.08,0.5-4.624,0.724c-0.968,0.141-1.437,0.641-1.379,1.643c0.02,0.348-0.076,0.703-0.152,1.329
		c0.573-0.173,1.127-0.219,1.544-0.485c1.705-1.084,2.965-1.084,4.45-0.029c0.085,0.718,0.258,1.283,0.183,1.812
		c-0.077,0.55-0.369,1.075-0.614,1.59c-0.112,0.235-0.397,0.394-0.503,0.63c-0.421,0.951-0.663,2.01-1.225,2.86
		c-1.008,1.522-2.198,2.927-3.312,4.381c-0.105,0.138-0.264,0.263-0.307,0.417c-0.405,1.512-1.748,1.805-2.949,2.217
		c-0.386,0.133-0.886-0.066-1.116-0.091c-0.751-2.13-1.998-3.934-1.673-6.215c-1.518,1.181-2.878,2.231-4.726,1.9
		c-0.064-0.111-0.128-0.219-0.194-0.332c0.954-0.753,1.938-1.47,2.846-2.273c0.495-0.439,0.908-0.997,1.271-1.557
		c1.086-1.67,2.15-3.355,3.171-5.064c0.192-0.323,0.15-0.786,0.272-1.527c-1.35,0.606-2.411,1.082-3.593,1.608
		c-0.999-0.733-2.632-0.784-3.207-2.348c-0.029-0.084-0.245-0.141-0.373-0.138c-1.644,0.02-2.931,1.294-3.077,2.924
		c-0.152,1.659-0.396,3.311-0.594,4.966c-0.046,0.379-0.067,0.76-0.123,1.417c0.582-0.198,1.087-0.224,1.353-0.491
		c0.592-0.597,1.027-1.347,1.595-1.973c0.386-0.424,0.884-0.746,1.491-0.979c-0.214,1.284,0.19,2.532-0.876,3.626
		c-1.057,1.09-1.729,2.541-2.66,3.766c-0.366,0.483-1.139,1.202-1.429,1.084c-0.554-0.222-1.077-0.909-1.288-1.518
		c-0.753-2.164-0.509-4.404-0.282-6.634c0.069-0.669,0.168-1.34,0.18-2.011c0.034-1.523,0.002-1.599-1.542-1.406
		c-1.12,0.141-2.165,0.343-3.336,0.036c-1.733-0.452-2.567-1.635-2.089-3.416c0.346,0.586,0.676,1.223,1.092,1.798
		c0.107,0.149,0.53,0.23,0.713,0.143c1.842-0.891,3.674-1.81,5.485-2.764c0.238-0.125,0.441-0.478,0.497-0.758
		c0.238-1.188,0.383-2.399,0.622-3.59c0.257-1.281,0.054-1.809-1.114-2.201c0.24-0.252,0.417-0.609,0.628-0.634
		c0.869-0.097,1.761-0.193,2.621-0.097c0.657,0.07,0.979,1.298,0.709,2.186c-0.267,0.877-0.521,1.76-0.757,2.647
		c-0.227,0.844,0.094,1.303,0.959,1.305C60.665,33.196,61.33,33.105,62.192,33.042z M66.157,44.799
		c0.572,0.85,1.222,1.741,1.787,2.684c0.325,0.54,0.619,0.665,1.054,0.181c0.646-0.722,1.395-1.384,1.893-2.197
		c0.78-1.279,1.405-2.658,2.05-4.018c0.083-0.173-0.111-0.691-0.202-0.698c-1.08-0.076-2.162-0.093-3.248-0.097
		c-0.076,0-0.146,0.229-0.234,0.34C68.24,42.244,67.224,43.492,66.157,44.799z"/>
	<path fill-rule="evenodd" clip-rule="evenodd" fill="#FFFFFF" d="M43.156,30.344c-1.11,0.093-2.122,0.178-3.103,0.261
		c0.104,0.62,0.311,1.158,0.239,1.653c-0.066,0.479-0.421,0.919-0.757,1.592c1.395-0.078,2.521-0.213,3.639-0.181
		c1.082,0.028,2.183,0.13,3.229,0.384c1.007,0.249,1.386,1.343,0.751,2.034c-0.247,0.271-0.979,0.472-1.225,0.308
		c-1.43-0.949-2.965-0.764-4.53-0.691c-0.668,0.032-1.349-0.302-2.024-0.304c-0.575-0.002-1.156,0.206-1.723,0.365
		c-1.308,0.364-2.608,0.754-4.018,1.162c0.434,0.804,0.803,1.123,1.577,0.841c1.162-0.425,2.352-0.786,3.549-1.103
		c1.816-0.479,3.842,0.469,4.592,2.162c0.119,0.268-0.046,0.707-0.172,1.034c-0.458,1.189-0.956,2.363-1.439,3.544
		c0.104,0.075,0.209,0.15,0.314,0.225c0.456-0.273,0.906-0.561,1.375-0.814c0.207-0.112,0.445-0.188,0.68-0.227
		c1.314-0.217,2.335,0.569,3.424,1.069c0.638,0.294,0.608,0.912,0.122,1.31c-0.474,0.386-1.077,0.627-1.647,0.878
		c-0.468,0.201-0.974,0.32-1.468,0.476c0.644,0.888,1.209,1.665,1.838,2.527c-1.806,2.531-4.627,2.517-7.244,2.432
		c-2.668-0.087-5.454-0.45-6.969-3.44c-0.535,0.606-0.92,1.057-1.316,1.497c-0.629,0.69-1.248,1.392-1.903,2.059
		c-0.498,0.506-0.909,0.596-1.041-0.31c-0.107-0.748-0.61-1.641-0.35-2.189c0.38-0.793,1.274-1.352,1.975-1.982
		c0.667-0.602,1.417-1.115,2.02-1.766c0.262-0.288,0.363-0.831,0.345-1.249c-0.068-1.525-0.185-3.05-0.356-4.567
		c-0.068-0.607-0.283-1.682-0.507-1.701c-0.722-0.063-1.512,0.178-2.212,0.462c-1.46,0.588-2.871,1.295-4.324,1.904
		c-0.177,0.075-0.522-0.098-0.716-0.249c-0.217-0.169-0.34-0.452-0.523-0.67c-1.037-1.233-0.749-2.186,0.807-2.438
		c0.262-0.043,0.604,0.393,1.044,0.7c3.136-0.447,9.407-2.325,9.999-3.028c-2.281,1.003-2.802,0.724-3.055-1.646
		c-1.244,0.345-2.193-0.06-3.133-1.449c0.611-0.16,1.159-0.33,1.719-0.442c0.803-0.162,1.625-0.23,2.414-0.433
		c0.43-0.111,1-0.317,1.176-0.653c0.292-0.559,0.267-1.227-0.487-1.597c-0.164-0.079-0.25-0.318-0.377-0.492
		c2.062-1.049,3.573-1.212,4.939,1.056c0.13,0.217,0.546,0.365,0.828,0.363c0.74-0.01,1.481-0.179,2.222-0.168
		C42.498,28.869,42.637,29.019,43.156,30.344z M34.985,48.171c-0.047-1.619-0.183-1.782-1.896-1.807
		c0.64,0.598,1.275,1.194,1.914,1.791c2.062,1.526,4.354,1.321,6.653,0.804c0.218-0.048,0.459-0.672,0.431-1.006
		c-0.076-0.899-0.818-1.415-1.567-1.387c-0.514,0.021-1.179,0.576-1.464,1.069c-0.465,0.811-1.045,1.128-1.902,0.992
		C36.426,48.514,35.709,48.328,34.985,48.171z M37.425,39.268c0.369,0.469,0.906,0.851,0.967,1.297
		c0.089,0.649-0.526,0.756-1.111,0.815c-0.443,0.045-0.904,0.233-1.285,0.476c-0.256,0.159-0.384,0.522-0.567,0.792
		c0.072,0.052,0.146,0.1,0.218,0.15c1.139-0.367,2.276-0.731,3.712-1.191c0.099-0.616,0.251-1.558,0.431-2.684
		C38.765,39.073,38.015,39.182,37.425,39.268z M43.953,44.208c-1.174-0.391-2.303,0.33-2.508,1.372
		C42.319,45.103,43.136,44.655,43.953,44.208z"/>
	<path fill-rule="evenodd" clip-rule="evenodd" fill="#AD9081" d="M36.062,25.274c-7.418-0.249-12.476-5.534-12.514-12.636
		c-0.041-7.146,5.397-12.98,13.48-12.623c6.195,0.274,11.988,5.478,11.926,12.717C48.896,19.701,43.137,25.421,36.062,25.274z
		 M41.399,15.546c0.161-0.025,0.32-0.054,0.48-0.083c0.106,0.299,0.278,0.59,0.305,0.894c0.05,0.603,0.023,1.21,0.023,1.816
		c0,1.852-0.229,2.259-2.071,2.259c-1.502,0-1.843,1.274-3.107,1.907c3.804,0.126,9.087-3.96,8.729-8.899
		c-0.199,0.239-0.377,0.384-0.46,0.568c-0.591,1.314-1.153,2.642-1.752,3.948c-0.113,0.248-0.352,0.434-0.532,0.647
		c-0.103-0.236-0.232-0.465-0.302-0.711c-0.036-0.124,0.007-0.289,0.06-0.416c0.635-1.526,0.934-3.223,2.265-4.393
		c0.17-0.148,0.256-0.393,0.382-0.592c-0.105,0.032-0.212,0.068-0.316,0.102c-0.532-0.993-1.225-1.936-1.56-2.99
		c-0.598-1.88-1.192-2.46-2.878-2.175c-0.258,0.042-0.465,0.388-0.697,0.593c0.227,0.206,0.422,0.506,0.688,0.596
		c0.321,0.112,0.712,0.012,1.056,0.081c0.159,0.031,0.281,0.249,0.42,0.38c-0.154,0.115-0.295,0.276-0.467,0.33
		c-0.196,0.062-0.423,0.034-0.635,0.034c-3.208,0.002-6.413,0.005-9.619-0.005c-0.327,0-0.653-0.075-0.98-0.116
		c-0.014-0.145-0.029-0.289-0.044-0.437c0.451-0.08,0.919-0.111,1.346-0.263c0.278-0.1,0.494-0.369,0.737-0.565
		c-0.251-0.226-0.481-0.478-0.761-0.659c-0.127-0.083-0.348-0.039-0.523-0.029c-0.661,0.038-0.879-0.304-0.849-0.918
		c0.027-0.559-0.098-1.062,0.722-1.298c1.214-0.346,2.383-0.875,3.527-1.417c0.27-0.128,0.365-0.624,0.629-1.106
		c-5.165,0.977-9.339,5.637-8.557,9.176c1.279-1.29,1.997-2.768,2.177-4.539c0.028-0.272,0.396-0.507,0.607-0.761
		c0.117,0.211,0.379,0.465,0.332,0.629c-0.569,1.989-0.934,4.091-2.593,5.341c0.94,1.768,1.857,3.486,2.866,5.379
		c0.134-0.396,0.251-0.608,0.274-0.825c0.16-1.544,0.153-1.544,1.663-1.541c0.214,0.003,0.43,0.025,0.642,0
		c0.823-0.093,1.167,0.229,1.131,1.089c-0.015,0.343,0.255,0.99,0.425,1.002c1.443,0.08,2.892,0.046,4.334,0.046
		c0.283-0.931,0.078-1.393-0.906-1.313c-0.46,0.037-0.934,0.046-1.386-0.022c-0.215-0.031-0.396-0.281-0.593-0.429
		c0.186-0.124,0.361-0.332,0.556-0.353c0.495-0.054,0.998-0.027,1.496-0.025c2.124,0.011,2.124,0.013,2.034,2.16
		c-0.003,0.072-0.009,0.145-0.005,0.215c0.042,0.603-0.269,0.816-0.84,0.813c-1.745-0.013-3.492,0.026-5.234-0.041
		c-0.27-0.011-0.587-0.432-0.754-0.733c-0.123-0.22,0.047-0.6-0.068-0.831c-0.143-0.286-0.482-0.713-0.672-0.683
		c-0.309,0.051-0.707,0.373-0.811,0.67c-0.162,0.477-0.114,1.024-0.153,1.516c-1.963,0.248-1.956,0.247-2.454-1.389
		c-0.146-0.474-0.263-0.991-0.544-1.381c-0.478-0.666-0.598-1.662-1.595-1.994c-0.455,4.144,5.453,9.107,8.657,8.326
		c-0.96-0.606-1.701-1.356-2.575-1.575c-2.19-0.546-2.224-0.452-2.436-1.255c1.933,0.219,3.792,0.41,5.089,2.07
		c0.457,0.589,1.037,0.896,1.544,0.16c0.864-1.254,2.118-1.799,3.511-1.997c0.88-0.125,1.04-0.556,1.026-1.281
		C41.387,17.351,41.399,16.448,41.399,15.546z M31.3,6.027c0.042,0.132,0.084,0.266,0.126,0.399c0.543,0.027,1.094,0.13,1.625,0.065
		c0.973-0.114,2.149,0.522,2.861-0.74c0.067-0.115,0.807-0.07,0.861,0.056c0.409,0.973,1.223,0.662,1.922,0.678
		c1.246,0.024,2.494,0.053,3.74,0.018c0.743-0.021,0.997,0.233,1.171,0.991c0.351,1.538,0.971,2.995,2.159,4.269
		c0.182-4.175-4.912-9.554-8.542-8.986c0.264,0.321,0.424,0.679,0.698,0.816c1.092,0.558,2.219,1.046,3.332,1.56
		c0.33,0.155,0.659,0.313,0.987,0.47c-0.056,0.103-0.113,0.205-0.17,0.31c-2.345-0.054-4.344-0.885-5.898-2.895
		C35.032,4.974,33.152,5.478,31.3,6.027z M47.703,11.701c-0.25-3.242-1.727-5.636-3.81-7.728c-1.6-1.602-3.623-2.309-5.774-2.713
		c-0.387-0.072-0.822,0.128-1.233,0.203c0.312,0.239,0.603,0.643,0.942,0.688c3.037,0.422,5.367,2.079,7.009,4.493
		c0.958,1.41,1.278,3.251,1.912,4.891c0.097,0.255,0.336,0.451,0.508,0.675C47.446,11.997,47.633,11.779,47.703,11.701z
		 M35.782,1.824c0.004-0.108,0.008-0.214,0.011-0.322c-0.288-0.123-0.632-0.414-0.856-0.342C33.2,1.722,31.296,2.059,29.81,3.03
		c-2.705,1.766-4.479,4.367-5.014,7.652c-0.08,0.483,0.145,1.017,0.229,1.527c0.237-0.41,0.566-0.791,0.701-1.233
		c0.669-2.217,1.314-4.464,3.236-5.96c1.484-1.157,2.912-2.464,4.945-2.659C34.543,2.295,35.158,2.009,35.782,1.824z M36.594,23.411
		c0,0.108,0,0.217,0,0.327c0.248,0.091,0.521,0.301,0.738,0.255c1.451-0.324,2.996-0.483,4.307-1.115
		c2.269-1.089,3.848-3.041,4.963-5.252c0.596-1.182,0.796-2.564,1.109-3.875c0.048-0.208-0.254-0.498-0.394-0.75
		c-0.188,0.207-0.407,0.397-0.56,0.631c-0.091,0.139-0.071,0.344-0.109,0.517c-0.514,2.271-1.377,4.345-3.13,5.985
		c-1.759,1.65-3.764,2.736-6.177,3.033C37.087,23.198,36.844,23.328,36.594,23.411z M35.579,23.719
		c-0.004-0.116-0.007-0.232-0.011-0.351c-0.451-0.131-0.898-0.277-1.354-0.388c-3.741-0.917-6.497-2.963-7.767-6.729
		c-0.282-0.838-0.536-1.688-0.847-2.517c-0.087-0.227-0.336-0.393-0.509-0.588c-0.135,0.249-0.348,0.488-0.381,0.752
		c-0.039,0.302,0.026,0.648,0.141,0.937c0.484,1.201,0.941,2.417,1.521,3.571c1.7,3.377,4.549,5.096,8.238,5.515
		C34.922,23.956,35.255,23.792,35.579,23.719z M36.161,8.64c0-0.005,0-0.008,0-0.014c0.673,0,1.354,0.058,2.017-0.028
		c0.239-0.03,0.545-0.363,0.611-0.612c0.039-0.145-0.338-0.572-0.535-0.579c-1.379-0.043-2.762-0.041-4.139,0.025
		c-0.217,0.012-0.413,0.433-0.619,0.667c0.216,0.18,0.418,0.49,0.648,0.516C34.81,8.684,35.488,8.64,36.161,8.64z"/>
	<path fill-rule="evenodd" clip-rule="evenodd" fill="#FFFFFF" d="M7.079,39.389c0.707-0.298,1.236-0.394,1.587-0.702
		c0.358-0.312,0.565-0.816,0.786-1.264c0.413-0.834,0.754-1.705,1.189-2.529c0.298-0.564,0.836-0.504,1.292-0.223
		c1.232,0.755,2.493,0.367,3.758,0.169c0.406-0.064,0.85-0.194,1.224-0.093c0.358,0.097,0.95,0.618,0.923,0.671
		c-0.319,0.581,0.368,1.382-0.57,1.874c-1.137,0.598-2.111,1.491-3.201,2.188c-0.526,0.336-1.161,0.497-1.73,0.771
		c-0.686,0.329-0.716,0.595-0.033,1.093c1.935,1.413,3.801,2.924,5.697,4.393c0.108,0.085,0.231,0.175,0.361,0.206
		c1.259,0.298,2.524,0.557,3.775,0.883c0.428,0.111,0.833,0.354,1.214,0.589c0.59,0.365,1.148,0.779,1.767,1.202
		c0-0.026,0.016,0.044-0.003,0.11c-0.351,1.236-1.133,1.396-2.354,1.276c-1.321-0.13-2.701,0.102-4.027,0.327
		c-1.422,0.246-2.275-0.597-3.119-1.433c-1.091-1.078-2.079-2.261-3.146-3.365c-0.285-0.296-0.679-0.522-1.067-0.675
		c-0.151-0.06-0.512,0.118-0.62,0.29c-0.586,0.924-0.937,2.085-1.715,2.776c-1.601,1.424-3.47,2.513-5.526,3.213
		C3.35,51.205,3,51.242,2.928,51.144c-0.446-0.61-1.012-0.445-1.594-0.348c-0.105,0.017-0.235-0.124-0.47-0.256
		c3.256-1.841,6.346-3.729,6.883-7.919c-0.427,0.104-0.829,0.196-1.228,0.3c-0.79,0.209-1.579,0.284-2.146-0.433
		c-0.656-0.827-0.847-1.636-0.283-2.729c0.594-1.151,1.504-1.908,2.354-2.79c0.878-0.911,1.588-1.984,2.369-2.982
		c-0.354-0.611-0.783-1.214-1.074-1.877c-0.524-1.188-0.108-1.761,1.155-1.983c0.582-0.104,1.102-0.521,1.67-0.748
		c1.25-0.496,2.488-1.22,3.778-1.346c0.756-0.073,1.71,0.715,2.38,1.329c0.604,0.556,0.168,1.672-0.615,2.175
		c-1.006,0.647-1.956,1.384-2.981,2c-0.492,0.295-1.14,0.332-1.653,0.607c-1.127,0.598-2.433,1.076-3.247,1.982
		C7.552,36.877,7.475,38.166,7.079,39.389z M12.24,36.821c0.197,0.035,0.395,0.068,0.591,0.104c0.051-0.423,0.113-0.847,0.131-1.273
		c0.001-0.035-0.31-0.084-0.475-0.125C12.405,35.959,12.323,36.391,12.24,36.821z"/>
	<path fill-rule="evenodd" clip-rule="evenodd" fill="#FFFFFF" d="M65.213,60c-0.24-0.924,0.162-1.723-1.002-1.759
		c-1.334-0.04-1.331-0.076-1.416,1.573c-0.863,0-1.732,0-2.595,0c-0.222-1.756-0.434-2.019-1.694-1.908
		c0.055,0.572,0.113,1.143,0.183,1.847c-0.4,0-0.832,0-0.989,0c0.06-1.273,0.141-2.463,0.148-3.654
		c0.001-0.182-0.325-0.367-0.498-0.548c-0.151,0.206-0.404,0.399-0.434,0.622c-0.069,0.527-0.001,1.068-0.043,1.602
		c-0.103,1.299-1.014,2.235-2.141,2.1c-0.961-0.116-2.184-0.835-2.038-2.259c0.081-0.808,0.015-1.627,0.015-2.539
		c0.406,0,0.804,0,0.982,0c0,1.08-0.02,2.112,0.007,3.145c0.021,0.768,0.512,1.016,1.218,1.016c0.707,0,1.337-0.142,1.368-0.979
		c0.037-1.022-0.027-2.049-0.056-3.222c1.123,0,2.507-0.146,3.846,0.043c1.239,0.176,1.304,1.285,0.222,2.501
		c0.048,0.086,0.086,0.188,0.155,0.264c0.436,0.466,0.42,1.648,1.353,1.249c0.473-0.198,0.74-1.102,0.907-1.737
		c0.234-0.891,0.299-1.828,1.49-2.489c0.629,1.528,1.254,3,1.802,4.496C66.04,59.468,65.49,59.782,65.213,60z M58.286,57.324
		c1.087-0.159,1.852-0.244,1.854-1.155c0-0.172-0.756-0.342-1.164-0.512C58.773,56.147,58.569,56.638,58.286,57.324z M64.72,57.646
		c-0.363-0.61-0.62-1.038-0.877-1.466c-0.298,0.428-0.597,0.858-1.021,1.466C63.565,57.646,63.974,57.646,64.72,57.646z"/>
	<path fill-rule="evenodd" clip-rule="evenodd" fill="#FFFFFF" d="M8.18,54.986c0,1.532,0,2.857,0,4.186
		c0.087,0.029,0.172,0.061,0.257,0.092c0.427-0.885,0.837-1.778,1.283-2.651c0.276-0.544,0.612-1.06,0.921-1.588
		c0.27,0.505,0.566,0.995,0.804,1.515c0.474,1.039,0.913,2.093,1.41,3.242c-0.458,0-0.91,0-1.167,0
		c-0.182-0.562-0.209-1.26-0.49-1.383c-0.459-0.2-1.117-0.132-1.612,0.041c-0.167,0.059-0.098,0.788-0.148,1.343
		c-0.71,0-1.565,0-2.362,0c0.062-1.271,0.123-2.518,0.182-3.769c-0.797-0.141-1.503-0.268-2.364-0.423
		c0.171,1.462-0.43,2.815,0.636,4.167c-0.438,0.021-0.825,0.132-1.12,0.017c-0.142-0.057-0.144-0.547-0.149-0.843
		C4.24,57.874,4.25,56.815,4.25,55.578c-0.612,0.183-1.054,0.314-1.491,0.443c-0.083-0.066-0.166-0.133-0.25-0.201
		c0.253-0.276,0.493-0.786,0.759-0.797C4.925,54.95,6.59,54.986,8.18,54.986z M10.711,56.164c-0.108,0.002-0.217,0.005-0.326,0.006
		c-0.131,0.477-0.264,0.955-0.437,1.579c0.557-0.07,0.851-0.104,1.229-0.15C10.998,57.043,10.854,56.604,10.711,56.164z"/>
	<path fill-rule="evenodd" clip-rule="evenodd" fill="#FFFFFF" d="M32.785,57.952c0.134,0.597,0.251,1.118,0.403,1.798
		c-0.297,0.044-0.701,0.105-1.21,0.181c0-1.672,0-3.214,0-4.92c0.819,0,1.706-0.114,2.548,0.032
		c0.816,0.141,0.787,0.887,0.649,1.542c-0.329,1.595-0.222,2.024,0.969,3.151c-0.542,0.066-0.944,0.114-1.353,0.166
		C34.637,58.312,34.109,57.759,32.785,57.952z M32.701,57.215c0.123,0.068,0.246,0.141,0.371,0.209
		c0.547-0.464,1.7-0.166,1.609-1.346c-0.014-0.174-1.101-0.539-1.292-0.369C33.013,56.045,32.914,56.695,32.701,57.215z"/>
	<path fill-rule="evenodd" clip-rule="evenodd" fill="#FFFFFF" d="M16.581,55.073c0.215,0,0.57,0,0.761,0c0,1.602,0,3.133,0,4.663
		c-0.131,0.048-0.264,0.096-0.395,0.144c-0.854-1.169-1.708-2.337-2.577-3.524c0,1.123,0,2.23,0,3.415c-0.323,0-0.702,0-0.992,0
		c0-1.611,0-3.103,0-4.814c1.809,0.2,2.084,2.089,3.38,3.245C16.694,57.065,16.644,56.157,16.581,55.073z"/>
	<path fill-rule="evenodd" clip-rule="evenodd" fill="#FFFFFF" d="M69.862,55.09c0.127,0,0.472,0,0.719,0c0,1.49,0,2.893,0,4.464
		c-1.801-0.497-1.628-2.372-2.912-3.299c0,0.988-0.048,1.904,0.012,2.815c0.062,0.927-0.36,0.917-1.023,0.675
		c0.524-1.553,0.657-3.054-0.161-4.827c1.995,0.334,2.556,1.933,3.315,3.302c0.095-0.048,0.189-0.096,0.284-0.142
		C70.022,57.142,69.949,56.209,69.862,55.09z"/>
	<path fill-rule="evenodd" clip-rule="evenodd" fill="#FFFFFF" d="M36.576,59.89c0-0.967,0-1.739,0-2.51c0-0.739,0-1.478,0-2.23
		c1.506-0.442,2.736-0.255,2.906,0.542c-0.668,0-1.322,0-2.035,0c0,0.493,0,0.898,0,1.437c0.578-0.053,1.085-0.098,1.613-0.146
		c0.322,0.66,0.322,0.66-1.483,0.855c-0.387,1.235-0.223,1.459,1.026,1.39c0.141-0.009,0.291-0.071,0.42-0.041
		c0.24,0.059,0.467,0.166,0.698,0.253c-0.202,0.15-0.396,0.416-0.606,0.428C38.271,59.92,37.422,59.89,36.576,59.89z"/>
	<path fill-rule="evenodd" clip-rule="evenodd" fill="#FFFFFF" d="M49.074,59.787c-0.466,0-0.817,0-1.21,0
		c0.688-1.682,1.33-3.258,2.07-5.073c1.471,1.585,1.943,3.255,2.367,4.999c-0.179,0.068-0.306,0.152-0.434,0.157
		c-0.168,0.006-0.339-0.051-0.493-0.076c-0.069-0.524-0.132-0.998-0.19-1.446C48.974,58.068,48.583,58.313,49.074,59.787z
		 M49.312,57.44c0.145,0.136,0.289,0.27,0.434,0.405c0.273-0.227,0.709-0.413,0.777-0.692c0.066-0.271-0.238-0.635-0.381-0.956
		C49.866,56.612,49.588,57.028,49.312,57.44z"/>
	<path fill-rule="evenodd" clip-rule="evenodd" fill="#FFFFFF" d="M43.04,55.699c-0.756,0.098-1.797,0.055-1.854,0.272
		c-0.245,0.921,0.722,0.868,1.265,1.163c0.393,0.217,0.88,0.397,1.109,0.739c0.188,0.283,0.229,0.895,0.046,1.159
		c-0.753,1.082-2.645,1.056-3.504,0.009c-0.059-0.073,0.012-0.253,0.017-0.308c0.707,0.161,1.359,0.36,2.024,0.433
		c0.219,0.023,0.472-0.297,0.71-0.457c-0.208-0.295-0.38-0.628-0.639-0.866c-0.122-0.113-0.417-0.022-0.622-0.073
		c-0.745-0.183-1.461-1.043-1.333-1.585c0.17-0.722,1.446-1.442,2.135-1.134C42.686,55.181,42.879,55.529,43.04,55.699z"/>
	<path fill-rule="evenodd" clip-rule="evenodd" fill="#FFFFFF" d="M45.345,55.612c-0.461,0.115-0.874,0.219-1.349,0.336
		c-0.174-0.569-0.078-0.967,0.673-0.971c0.817,0,1.635-0.019,2.448,0.007c0.705,0.024,0.705,0.049,0.732,0.942
		c-0.443-0.104-0.885-0.206-1.453-0.34c0,1.446,0,2.763,0,4.189c-0.333,0-0.717,0-1.052,0
		C45.345,58.398,45.345,57.077,45.345,55.612z"/>
	<path fill-rule="evenodd" clip-rule="evenodd" fill="#FFFFFF" d="M25.605,55.016c-0.004,0,0.287,0.032,0.669,0.076
		c-0.676,1.568-2.437,2.637-1.45,4.689c-0.58,0-0.993,0-1.612,0c0.855-0.905,0.808-1.634,0.057-2.429
		c-0.609-0.643-1.062-1.435-1.689-2.31c0.562-0.026,1.026-0.049,1.302-0.062c0.459,0.853,0.848,1.573,1.327,2.463
		C24.722,56.55,25.088,55.917,25.605,55.016z"/>
	<path fill-rule="evenodd" clip-rule="evenodd" fill="#FFFFFF" d="M72.675,59.768c0-1.433,0-2.688,0-4.158
		c-0.503,0.14-0.991,0.273-1.531,0.419c-0.185-0.63-0.013-1.022,0.699-1.042c0.817-0.022,1.637,0.015,2.456-0.014
		c0.67-0.022,0.887,0.291,0.79,0.933c-0.444-0.091-0.88-0.18-1.424-0.289c0,1.437,0,2.733,0,4.151
		C73.334,59.768,72.964,59.768,72.675,59.768z"/>
	<path fill-rule="evenodd" clip-rule="evenodd" fill="#FFFFFF" d="M27.658,59.784c-0.419,0-0.843,0-1.125,0c0-1.578,0-3.051,0-4.694
		c0.305-0.023,0.714-0.051,1.125-0.079C27.658,56.641,27.658,58.144,27.658,59.784z"/>
	<path fill-rule="evenodd" clip-rule="evenodd" fill="#AD9081" d="M40.471,12.693c-0.362,0-0.726-0.002-1.09,0
		c-2.42,0.015-4.841,0.019-7.262,0.062c-0.25,0.005-0.497,0.235-0.744,0.361c0.245,0.143,0.487,0.408,0.735,0.41
		c2.74,0.029,5.482-0.006,8.225,0.029c1.027,0.011,0.876-0.646,0.914-1.29c0.044-0.748-0.178-1.106-1.005-1.095
		c-2.848,0.031-5.696,0.03-8.543-0.004c-0.437-0.005-0.869-0.236-1.305-0.363c0.438-0.168,0.872-0.473,1.31-0.479
		c3.098-0.046,6.197,0.001,9.294-0.047c0.942-0.015,1.226,0.312,1.228,1.233c0.007,3.062,0.037,3.057-2.979,3.057
		c-2.599,0-5.197-0.026-7.796,0.025c-0.917,0.021-1.154-0.362-1.158-1.192c-0.003-0.803,0.241-1.149,1.105-1.136
		c2.741,0.044,5.483,0.018,8.226,0.024c0.275,0,0.551,0.037,0.83,0.058C40.459,12.463,40.465,12.578,40.471,12.693z"/>
</g>
</svg>
