<?xml version="1.0" encoding="utf-8"?>
<!-- Generator: Adobe Illustrator 16.0.3, SVG Export Plug-In . SVG Version: 6.00 Build 0)  -->
<!DOCTYPE svg PUBLIC "-//W3C//DTD SVG 1.1//EN" "http://www.w3.org/Graphics/SVG/1.1/DTD/svg11.dtd">
<svg version="1.1" id="图层_1" xmlns="http://www.w3.org/2000/svg" xmlns:xlink="http://www.w3.org/1999/xlink" x="0px" y="0px"
	 width="258.975px" height="168.749px" viewBox="0 0 258.975 168.749" enable-background="new 0 0 258.975 168.749"
	 xml:space="preserve">
<g>
	<g>
		<g>
			<g>
				<path fill="#FFFFFF" d="M67.9,90.677c1.008-1.081,1.792-1.968,2.354-2.661c0.562-0.693,1.08-1.248,1.555-1.664
					c0.476-0.416,0.796-0.738,0.964-0.965c0.168-0.226,0.201-0.375,0.099-0.447c-0.103-0.073-0.278-0.066-0.525,0.021
					c-0.248,0.087-0.556,0.124-0.92,0.109c-0.366-0.015-0.646-0.146-0.844-0.394c-0.197-0.249-0.328-0.522-0.395-0.822
					c-0.065-0.299-0.065-0.664,0-1.095c0.066-0.431,0.257-0.868,0.57-1.314c0.313-0.445,1.229-1.401,2.749-2.868
					c1.519-1.468,2.807-2.606,3.864-3.417c1.06-0.811,1.902-1.38,2.53-1.708c0.628-0.329,1.244-0.617,1.851-0.865
					c0.605-0.248,1.076-0.401,1.412-0.46c0.146-0.015,0.278-0.021,0.395-0.021c0.161,0,0.308,0.015,0.438,0.044
					c0.175,0.058,0.262,0.204,0.262,0.438v0.109c-0.043,0.307-0.196,0.676-0.459,1.105c-0.263,0.432-0.584,0.837-0.963,1.216
					c-0.381,0.38-0.742,0.734-1.085,1.062c-0.344,0.328-0.928,1.037-1.753,2.124c-0.824,1.088-1.799,2.318-2.923,3.69
					c-1.125,1.372-2.354,2.892-3.69,4.556s-2.614,3.153-3.832,4.468c-1.22,1.314-1.979,2.121-2.278,2.42
					c-0.3,0.299-0.712,0.727-1.237,1.281c0.176,0.934,0.139,1.613-0.11,2.037c-0.247,0.422-0.55,0.7-0.908,0.832
					c-0.357,0.131-0.697,0.182-1.018,0.153c-0.321-0.03-0.607-0.065-0.854-0.11c-1.008,1.008-2.5,2.344-4.479,4.008
					c-1.979,1.665-3.503,2.844-4.577,3.537c-1.072,0.693-1.872,1.136-2.397,1.326c-0.526,0.188-1.088,0.306-1.687,0.35
					c-0.686-0.029-1.18-0.131-1.479-0.307c-0.3-0.176-0.522-0.481-0.668-0.92c0.073-0.541,0.333-1.08,0.777-1.621
					c0.445-0.54,1.029-1.189,1.752-1.949c0.724-0.758,1.482-1.484,2.277-2.178c0.796-0.694,1.613-1.362,2.453-2.005
					c0.84-0.642,1.73-1.252,2.673-1.828c0.941-0.577,1.7-0.981,2.276-1.216c0.578-0.233,1.146-0.424,1.709-0.57
					c0.562-0.146,1.025-0.236,1.391-0.273c0.365-0.036,0.898-0.055,1.599-0.055C65.849,92.809,66.894,91.758,67.9,90.677z
					 M51.936,102.119c-0.862,0.972-1.465,1.699-1.808,2.18c-0.343,0.482-0.357,0.789-0.044,0.92
					c0.314,0.131,0.644,0.183,0.985,0.153c0.344-0.029,0.767-0.201,1.271-0.515c0.504-0.314,1.164-0.76,1.982-1.336
					c0.817-0.576,1.763-1.296,2.836-2.157s2.785-2.365,5.136-4.511c-0.059-0.76,0.431-1.322,1.468-1.688
					c-0.687-0.059-1.289-0.021-1.807,0.11c-0.519,0.131-1.066,0.328-1.643,0.591c-0.578,0.264-1.22,0.603-1.928,1.019
					c-0.708,0.417-1.468,0.913-2.278,1.489s-1.492,1.102-2.047,1.576C53.504,100.426,52.796,101.149,51.936,102.119z M76.683,80.23
					c0-0.365-0.025-0.661-0.076-0.887c-0.052-0.227,0.054-0.504,0.317-0.833c0.263-0.328,0.759-0.412,1.489-0.252
					c0.263-0.496,0.624-1.051,1.084-1.664s0.898-1.143,1.314-1.588s0.591-0.715,0.525-0.811c-0.065-0.095-0.263-0.051-0.592,0.132
					c-0.328,0.183-0.76,0.478-1.292,0.887c-0.533,0.409-1.095,0.829-1.686,1.259c-0.593,0.432-1.202,0.941-1.83,1.533
					c-0.627,0.592-1.28,1.312-1.959,2.157c-0.679,0.848-1.198,1.534-1.556,2.06c-0.357,0.524-0.481,0.887-0.372,1.084
					s0.314,0.277,0.613,0.24c0.299-0.036,0.605-0.135,0.92-0.295c0.314-0.161,0.595-0.365,0.843-0.613S75.428,81.588,76.683,80.23z"
					/>
			</g>
			<g>
				<path fill="#FFFFFF" d="M75.025,87.32c0.766-0.74,1.478-1.29,2.135-1.647c0.657-0.358,1.172-0.617,1.545-0.778
					c0.372-0.16,0.887-0.276,1.543-0.35c0.862,0.029,1.442,0.143,1.741,0.34c0.3,0.196,0.496,0.422,0.591,0.678
					c0.096,0.256,0.132,0.545,0.11,0.865c-0.022,0.322,0.116,0.445,0.416,0.373c0.299-0.074,0.457,0.068,0.471,0.426
					c0.015,0.359-0.127,0.73-0.427,1.117s-0.537,0.657-0.712,0.811c-0.176,0.153-0.227,0.325-0.153,0.516
					c0.072,0.189,0.273,0.328,0.602,0.416c0.329,0.087,0.732,0.067,1.211-0.061c0.478-0.128,0.893-0.311,1.242-0.548
					c0.352-0.236,0.668-0.364,0.953-0.384c0.285-0.018,0.471,0.09,0.559,0.324c-0.008,0.43-0.167,0.782-0.477,1.057
					c-0.31,0.273-0.752,0.496-1.325,0.668c-0.572,0.172-1.034,0.264-1.386,0.278c-0.35,0.015-0.562,0.022-0.634,0.022
					c-0.818,0-1.446-0.124-1.885-0.373c-0.481-0.262-0.84-0.605-1.072-1.029c-0.599,0.162-1.136,0.373-1.609,0.636
					c-0.476,0.263-0.935,0.46-1.381,0.591c-0.444,0.132-0.938,0.197-1.478,0.197c-0.372,0-0.757-0.171-1.156-0.515
					c-0.397-0.343-0.597-0.989-0.597-1.938C73.867,88.625,74.258,88.062,75.025,87.32z M77.116,87.633
					c-0.54,0.453-0.883,0.857-1.029,1.215c-0.146,0.358-0.103,0.632,0.132,0.822c0.233,0.189,0.605,0.203,1.117,0.043
					c0.511-0.16,1.04-0.383,1.587-0.668c0.548-0.284,1.041-0.584,1.479-0.898c0.437-0.313,0.693-0.605,0.766-0.875
					c0.072-0.271,0.048-0.552-0.076-0.844c-0.125-0.291-0.416-0.416-0.876-0.372s-0.957,0.204-1.49,0.481
					C78.193,86.814,77.657,87.18,77.116,87.633z"/>
			</g>
			<g>
				<path fill="#FFFFFF" d="M91.577,84.993c0.066,0.14,0.052,0.285-0.043,0.438s-0.234,0.307-0.417,0.459
					c-0.182,0.154-0.288,0.344-0.317,0.57s-0.167,0.357-0.416,0.394c-0.248,0.037-0.519,0.004-0.81-0.098
					c-0.293-0.103-0.544-0.14-0.756-0.11s-0.457,0.201-0.734,0.516c-0.276,0.314-0.521,0.612-0.733,0.897
					c-0.212,0.284-0.364,0.569-0.46,0.854c-0.095,0.284-0.072,0.543,0.065,0.777c0.14,0.233,0.336,0.387,0.592,0.46
					s0.632,0.084,1.128,0.032c0.496-0.051,1-0.152,1.511-0.307c0.511-0.152,1.011-0.317,1.5-0.492
					c0.49-0.176,0.844-0.325,1.062-0.449c0.22-0.124,0.424-0.018,0.613,0.317c-0.059,0.321-0.193,0.54-0.405,0.657
					c-0.211,0.117-0.503,0.263-0.875,0.438c-0.373,0.175-0.768,0.328-1.184,0.46c-0.416,0.131-0.879,0.259-1.391,0.383
					c-0.511,0.125-1.065,0.215-1.665,0.273h-0.459c-0.277-0.029-0.548-0.068-0.811-0.12c-0.263-0.051-0.525-0.179-0.788-0.384
					c-0.264-0.204-0.489-0.518-0.68-0.941l-0.043-0.416c0.028-0.409,0.152-0.832,0.372-1.271c0.219-0.438,0.503-0.86,0.854-1.271
					c0.35-0.408,0.744-0.758,1.182-1.051c0.438-0.292,0.829-0.508,1.173-0.646c0.343-0.138,0.569-0.262,0.679-0.372
					c0.109-0.108,0.313-0.219,0.613-0.328c0.299-0.109,0.572-0.164,0.821-0.164c0.204,0.015,0.376,0.065,0.515,0.153
					C91.409,84.741,91.512,84.854,91.577,84.993z"/>
			</g>
			<g>
				<path fill="#FFFFFF" d="M90.96,90.041c0.008-0.371,0.232-0.672,0.673-0.902c0.442-0.23,1.163-0.626,2.163-1.188
					s1.947-1.23,2.842-2.004s1.651-1.536,2.272-2.288c0.62-0.752,1.276-1.475,1.971-2.169c0.693-0.693,1.304-1.313,1.829-1.861
					s1.015-0.916,1.467-1.106l0.264,0.022c0.232,0.613,0,1.307-0.701,2.081c-0.7,0.773-1.544,1.755-2.529,2.945
					c-0.986,1.189-1.88,2.229-2.684,3.121c-0.803,0.891-1.227,1.539-1.271,1.949c1.461-0.701,2.745-1.406,3.855-2.114
					c1.109-0.708,2.076-1.263,2.901-1.664c0.824-0.401,1.395-0.584,1.708-0.548c0.314,0.037,0.562,0.227,0.745,0.57
					c0.183,0.343,0.157,0.729-0.076,1.16c-0.234,0.431-0.654,0.631-1.26,0.602s-1.16,0.066-1.664,0.285s-1.016,0.467-1.533,0.745
					c-0.52,0.276-0.898,0.532-1.139,0.767c-0.241,0.233-0.259,0.543-0.055,0.93c0.204,0.388,0.591,0.65,1.16,0.789
					s1.285,0.201,2.146,0.187c0.862-0.015,1.625-0.073,2.289-0.176s1.209-0.236,1.632-0.405c0.424-0.168,0.745-0.365,0.964-0.591
					c0.219-0.227,0.409-0.321,0.569-0.284c0.16,0.036,0.285,0.215,0.372,0.536c-0.087,0.423-0.344,0.792-0.766,1.105
					c-0.424,0.314-1,0.562-1.73,0.745s-1.661,0.287-2.792,0.317c-1.133,0.028-2.169,0.007-3.11-0.065
					c-0.942-0.073-1.632-0.245-2.069-0.516c-0.438-0.27-0.606-0.879-0.504-1.828c-0.614,0.438-1.242,0.857-1.884,1.26
					c-0.643,0.401-1.277,0.813-1.905,1.236c-0.424,0.277-0.788,0.416-1.095,0.416c-0.161,0-0.308-0.036-0.438-0.109
					c-0.395-0.232-0.544-0.532-0.448-0.896c0.094-0.365,0.704-1.246,1.828-2.64c-1.146,0.796-2.088,1.349-2.825,1.659
					S91.004,90.399,90.96,90.041z"/>
			</g>
			<g>
				<path fill="#FFFFFF" d="M109.111,88.52c0.38-0.3,0.953-0.712,1.72-1.237s1.577-1.044,2.431-1.555s1.639-0.891,2.354-1.14
					c0.409-0.131,0.759-0.196,1.051-0.196c0.233,0,0.431,0.036,0.591,0.109c0.381,0.19,0.632,0.438,0.756,0.745
					c0.125,0.306,0.045,0.689-0.24,1.149c-0.285,0.459-0.73,0.905-1.336,1.336s-1.154,0.796-1.643,1.095
					c-0.49,0.299-0.734,0.551-0.734,0.756c0,0.204,0.212,0.387,0.636,0.547c0.423,0.161,1.073,0.172,1.949,0.033
					s1.631-0.357,2.267-0.657c0.635-0.299,1.157-0.515,1.565-0.646c0.409-0.132,0.65,0,0.724,0.394
					c0.072,0.394-0.015,0.872-0.264,1.435c-0.247,0.562-0.727,1.084-1.435,1.566s-1.536,1.036-2.485,1.664s-1.88,1.205-2.792,1.73
					c-0.913,0.525-1.661,1.156-2.245,1.895c-0.584,0.736-0.653,0.981-0.208,0.734c0.445-0.249,1.021-0.581,1.729-0.997
					c0.708-0.417,1.515-0.935,2.421-1.556c0.904-0.62,2.351-1.686,4.336-3.197s3.471-2.518,4.457-3.022
					c0.985-0.504,1.603-0.733,1.851-0.689c0.161,0.029,0.241,0.124,0.241,0.284c0,0.088-0.022,0.197-0.065,0.329
					c-0.292,0.248-0.833,0.62-1.621,1.116c-0.788,0.497-1.865,1.22-3.23,2.168c-1.365,0.949-2.693,1.932-3.986,2.946
					c-1.292,1.015-2.566,1.876-3.821,2.585c-1.256,0.707-2.344,1.361-3.264,1.959c-0.394,0.161-0.737,0.242-1.029,0.242
					c-0.175,0-0.328-0.029-0.459-0.088c-0.366-0.161-0.373-0.629-0.022-1.402c0.35-0.773,0.821-1.475,1.412-2.102
					c0.592-0.629,1.227-1.197,1.905-1.709c0.68-0.512,1.377-0.964,2.092-1.357c0.716-0.395,1.395-0.811,2.037-1.248
					c0.643-0.439,1.051-0.818,1.227-1.14s0.032-0.427-0.427-0.317c-0.46,0.109-1.077,0.219-1.851,0.328
					c-0.774,0.109-1.446,0.153-2.015,0.132c-0.569-0.022-1.066-0.179-1.49-0.472c-0.424-0.291-0.573-0.682-0.448-1.172
					c0.124-0.488,0.397-0.938,0.821-1.346c0.424-0.409,0.941-0.803,1.555-1.183c0.612-0.38,1.029-0.675,1.248-0.888
					c0.219-0.211,0.343-0.397,0.372-0.559c0.029-0.16-0.244-0.105-0.821,0.165c-0.576,0.271-1.208,0.616-1.895,1.04
					c-0.686,0.424-1.449,1.015-2.288,1.774c-0.84,0.759-2.07,1.27-3.69,1.532c0.292-0.715,0.613-1.139,0.964-1.27
					C108.367,89.034,108.732,88.818,109.111,88.52z"/>
			</g>
			<g>
				<path fill="#FFFFFF" d="M141.703,81.665c0.035-0.241,0.306-0.489,0.81-0.745c0.503-0.255,1.065-0.573,1.687-0.952
					c0.62-0.38,1.219-0.888,1.795-1.522c0.578-0.635,0.953-1.197,1.129-1.687s0.247-0.821,0.219-0.997
					c-0.029-0.175-0.113-0.288-0.252-0.339s-0.46,0.022-0.964,0.22c-0.503,0.196-1.12,0.602-1.851,1.215
					c-0.729,0.613-1.511,1.388-2.344,2.321c-0.831,0.935-1.587,1.884-2.266,2.848c-0.68,0.964-1.314,1.948-1.906,2.956
					c-0.591,1.008-1.132,2.161-1.62,3.461c-0.489,1.299-0.752,2.299-0.789,3c-0.036,0.701,0.022,1.369,0.175,2.004
					c0.154,0.635,0.385,1.227,0.691,1.773c0.307,0.548,0.776,1.073,1.412,1.578c0.635,0.504,1.362,0.904,2.179,1.204
					c0.817,0.3,1.595,0.463,2.332,0.492c0.738,0.029,1.485-0.003,2.245-0.099c0.759-0.094,1.592-0.299,2.496-0.613
					c0.905-0.313,1.578-0.627,2.017-0.941c0.438-0.314,0.635-0.592,0.591-0.832c-0.044-0.241-0.037-0.5,0.022-0.777
					c0.058-0.277,0.189-0.453,0.394-0.526s0.413-0.08,0.625-0.021c0.21,0.059,0.492,0.212,0.842,0.46
					c-0.029,0.525-0.124,0.957-0.284,1.292c-0.161,0.336-0.656,0.804-1.489,1.401c-0.832,0.6-1.76,1.103-2.781,1.512
					c-1.022,0.408-2.446,0.715-4.271,0.92c-1.212-0.059-2.062-0.168-2.551-0.328c-0.489-0.161-0.982-0.34-1.479-0.537
					s-1.044-0.496-1.643-0.898c-0.599-0.401-1.197-1.003-1.796-1.807c-0.6-0.803-1.004-1.507-1.216-2.113
					c-0.211-0.605-0.324-1.236-0.34-1.895V91.99c0-0.934,0.198-1.956,0.593-3.065c0.393-1.109,0.792-2.073,1.193-2.891
					s0.989-1.895,1.763-3.23c0.774-1.336,1.639-2.548,2.596-3.636c0.955-1.088,1.923-2.088,2.901-3
					c0.979-0.913,1.807-1.566,2.486-1.96c0.679-0.395,1.36-0.636,2.047-0.723l0.656,0.065c0.321,0.116,0.574,0.27,0.757,0.46
					c0.182,0.189,0.339,0.456,0.47,0.799c0.132,0.344,0.132,0.872,0,1.588l-0.262,0.811c-0.54,0.992-1.161,1.811-1.861,2.453
					c-0.701,0.643-2.206,1.525-4.513,2.649C141.881,82.121,141.666,81.905,141.703,81.665z"/>
			</g>
			<g>
				<path fill="#FFFFFF" d="M142.684,90.162c0.364-0.314,0.788-0.77,1.271-1.369c-1.702,0.811-2.756,1.217-3.166,1.222
					c-0.407,0.003-0.651-0.191-0.732-0.586c0.102-0.169,0.471-0.384,1.105-0.646c0.636-0.263,1.292-0.544,1.972-0.843
					c0.679-0.3,1.397-0.678,2.157-1.133c0.759-0.457,1.7-1.17,2.825-2.142c1.124-0.971,2.135-1.905,3.032-2.804
					c0.898-0.897,1.574-1.573,2.026-2.025c0.453-0.452,0.796-0.832,1.029-1.139s0.52-0.504,0.854-0.591
					c0.773,0.233,1.171,0.532,1.193,0.897c0.022,0.364-0.171,0.781-0.58,1.248c-0.409,0.468-1.212,1.223-2.409,2.267
					c-1.198,1.045-2.392,2.077-3.581,3.099c-1.189,1.022-2.004,1.699-2.442,2.031c-0.438,0.333-0.781,0.722-1.029,1.167
					c1.416-0.774,2.381-1.282,2.892-1.522s0.996-0.412,1.457-0.514c0.459-0.104,0.85-0.092,1.171,0.031
					c0.321,0.125,0.504,0.381,0.548,0.768s-0.066,0.789-0.328,1.204c-0.264,0.416-0.468,0.719-0.613,0.909
					c-0.146,0.189-0.183,0.346-0.11,0.471c0.073,0.124,0.387,0.139,0.941,0.044c0.556-0.095,1.124-0.27,1.709-0.526
					c0.584-0.254,1.059-0.471,1.424-0.646c0.364-0.175,0.635-0.227,0.811-0.153c0.175,0.073,0.306,0.357,0.394,0.854
					c-1.358,0.672-2.281,1.088-2.771,1.249s-0.991,0.281-1.506,0.361s-0.899,0.12-1.155,0.12c-0.372,0-0.75-0.065-1.133-0.197
					c-0.384-0.131-0.612-0.4-0.685-0.81c-0.073-0.409,0.131-0.821,0.613-1.238c0.482-0.415,0.723-0.696,0.723-0.843
					s-0.193-0.12-0.58,0.077c-0.387,0.196-0.848,0.427-1.38,0.69c-0.533,0.262-0.997,0.492-1.392,0.689
					c-0.394,0.197-0.857,0.431-1.39,0.7c-0.533,0.271-1.019,0.5-1.457,0.69c-0.438,0.189-0.887,0.295-1.347,0.317
					c-0.365,0-0.607-0.151-0.729-0.454C142.196,90.785,142.318,90.477,142.684,90.162z"/>
			</g>
			<g>
				<path fill="#FFFFFF" d="M154.275,87.589c0.189-0.409,0.5-0.832,0.931-1.271c0.431-0.438,0.861-0.817,1.292-1.139
					c0.432-0.321,0.873-0.54,1.325-0.657l0.504-0.021c0.453,0.015,0.847,0.139,1.184,0.372c0.335,0.233,0.477,0.646,0.426,1.237
					c-0.051,0.592-0.343,1.103-0.876,1.533c-0.532,0.431-1.135,0.741-1.806,0.931c-0.673,0.189-1.033,0.361-1.085,0.516
					c-0.052,0.152,0.059,0.32,0.328,0.502c0.271,0.184,0.876,0.301,1.818,0.352c0.941,0.051,1.712,0,2.311-0.154
					c0.599-0.152,1.084-0.316,1.456-0.492c0.372-0.175,0.664-0.292,0.876-0.351c0.212-0.058,0.383,0.052,0.515,0.329
					c-0.379,0.54-0.795,0.938-1.247,1.193c-0.453,0.256-1.019,0.485-1.698,0.689c-0.679,0.205-1.508,0.329-2.485,0.373h-0.592
					c-1.066-0.103-1.785-0.245-2.157-0.428s-0.661-0.397-0.864-0.646c-0.206-0.248-0.352-0.62-0.439-1.118
					C153.99,88.582,154.085,87.998,154.275,87.589z M155.918,87.896c0.891-0.292,1.485-0.569,1.785-0.833
					c0.299-0.262,0.427-0.504,0.383-0.723c-0.043-0.219-0.292-0.211-0.744,0.022c-0.453,0.233-0.763,0.471-0.931,0.712
					C156.242,87.314,156.079,87.589,155.918,87.896z"/>
			</g>
			<g>
				<path fill="#FFFFFF" d="M161.958,88.399c1.096-1.036,1.942-1.843,2.541-2.421c0.599-0.576,1.048-0.974,1.346-1.192
					c0.301-0.22,0.566-0.358,0.801-0.417c0.263,0.044,0.453,0.096,0.568,0.153c0.118,0.059,0.26,0.197,0.428,0.417
					c0.168,0.219,0.132,0.576-0.109,1.072c-0.24,0.496-0.624,0.913-1.149,1.248c-0.525,0.337-0.975,0.632-1.348,0.887
					c-0.371,0.257-0.704,0.508-0.996,0.757c-0.293,0.248-0.424,0.478-0.394,0.688c0.028,0.213,0.207,0.318,0.535,0.318
					c0.329,0,0.757-0.095,1.282-0.285c0.524-0.189,1.193-0.5,2.004-0.931s1.547-0.788,2.212-1.073
					c0.664-0.283,1.193-0.532,1.587-0.744c0.396-0.211,0.688-0.485,0.877-0.821s0.409-0.562,0.656-0.679
					c0.249-0.117,0.449-0.059,0.603,0.175s0.189,0.603,0.109,1.106s-0.263,0.887-0.547,1.149s-0.573,0.525-0.865,0.788
					c-0.292,0.264-0.461,0.49-0.504,0.68s0.004,0.42,0.143,0.689c0.139,0.271,0.708,0.303,1.708,0.1c1-0.205,1.727-0.413,2.18-0.625
					c0.452-0.212,1.051-0.391,1.796-0.536l0.372,0.437c-0.131,0.322-0.512,0.64-1.14,0.953c-0.627,0.314-1.485,0.604-2.572,0.865
					c-1.089,0.263-2.019,0.395-2.793,0.395c-0.788,0-1.343-0.091-1.664-0.273c-0.322-0.183-0.508-0.438-0.559-0.767
					c-0.052-0.329,0.223-0.909,0.821-1.741c-0.948,0.525-1.77,0.941-2.465,1.248c-0.693,0.307-1.383,0.603-2.068,0.887
					c-0.688,0.285-1.409,0.465-2.168,0.537c-0.204,0.015-0.402,0.021-0.592,0.021c-0.496,0-0.905-0.065-1.227-0.197
					c-0.452-0.189-0.687-0.503-0.701-0.941c-0.015,0-0.021-0.008-0.021-0.021C160.646,89.881,161.082,89.246,161.958,88.399z"/>
			</g>
			<g>
				<path fill="#FFFFFF" d="M175.839,88.596c0.293-0.131,0.737-0.455,1.336-0.975c0.6-0.518,1.304-0.984,2.113-1.401
					c0.812-0.415,1.446-0.729,1.906-0.941s0.96-0.332,1.5-0.361c0.481,0.176,0.77,0.464,0.864,0.865
					c0.096,0.401,0.06,0.831-0.109,1.292c-0.167,0.459-0.777,1.237-1.828,2.332c1.664-0.979,2.814-1.653,3.45-2.025
					c0.634-0.373,1.146-0.602,1.532-0.689s0.719,0.032,0.996,0.361c0.277,0.328,0.277,0.807,0,1.434
					c-0.277,0.628-0.368,1.096-0.273,1.402s0.796,0.277,2.103-0.088s2.289-0.701,2.945-1.008c-0.043,0.57-0.193,0.975-0.448,1.217
					c-0.256,0.24-1.052,0.576-2.388,1.006c-1.336,0.432-2.333,0.555-2.989,0.373c-0.657-0.183-1.073-0.468-1.248-0.854
					c-0.176-0.387-0.197-0.8-0.065-1.237c0.131-0.438-0.253-0.336-1.15,0.307s-1.684,1.146-2.354,1.512
					c-0.672,0.364-1.175,0.62-1.512,0.766c-0.451,0-0.807-0.076-1.062-0.229c-0.256-0.153-0.398-0.427-0.427-0.821
					c-0.029-0.395,0.164-0.76,0.58-1.096s0.817-0.686,1.204-1.051s0.624-0.737,0.712-1.117c0.088-0.379-0.135-0.5-0.668-0.361
					s-1.263,0.529-2.19,1.172c-0.927,0.643-1.539,1.045-1.839,1.205s-0.713,0.262-1.237,0.307
					C175.364,89.158,175.548,88.728,175.839,88.596z"/>
			</g>
			<g>
				<path fill="#FFFFFF" d="M178.726,101.146c1.592-1.753,2.812-2.953,3.657-3.603c0.848-0.65,1.738-1.3,2.673-1.949
					c0.935-0.65,1.981-1.3,3.143-1.949c1.16-0.65,2.16-1.201,3-1.654s1.741-0.854,2.705-1.204c-0.921-0.029-1.676-0.054-2.267-0.076
					c-0.592-0.022-1.033-0.219-1.325-0.592c-0.292-0.372-0.427-0.788-0.406-1.248c0.023-0.46,0.34-0.957,0.954-1.489
					c0.612-0.533,1.236-0.96,1.872-1.281s1.457-0.737,2.463-1.248h0.482c0.584,0.277,0.989,0.635,1.216,1.072
					c0.226,0.438,0.329,0.855,0.307,1.248c-0.021,0.395-0.124,0.764-0.307,1.107c-0.183,0.343-0.2,0.598-0.055,0.766
					s0.555,0.164,1.227-0.011s1.365-0.438,2.081-0.788c0.714-0.351,1.496-0.351,2.343,0c-1.271,0.876-2.205,1.408-2.804,1.598
					c-0.599,0.19-1.329,0.446-2.189,0.768c-0.862,0.321-1.555,0.643-2.08,0.963c-0.526,0.322-1.173,0.848-1.939,1.577
					s-1.617,1.737-2.551,3.022c-0.935,1.285-1.858,2.486-2.771,3.604c-0.913,1.116-1.665,2.028-2.256,2.736
					c-0.592,0.709-1.328,1.468-2.212,2.277c-0.884,0.812-1.577,1.33-2.081,1.556c-0.504,0.227-0.982,0.368-1.435,0.427h-0.482
					c-0.86-0.248-1.44-0.588-1.74-1.018c-0.299-0.432-0.492-1.02-0.58-1.764C177.543,103.116,177.995,102.168,178.726,101.146z
					 M179.273,103.391c-0.292,0.576-0.397,1.094-0.317,1.555c0.08,0.459,0.351,0.646,0.811,0.559
					c0.459-0.088,0.919-0.273,1.38-0.559c0.459-0.285,1.112-0.821,1.96-1.609c0.847-0.789,1.672-1.684,2.475-2.684
					s1.768-2.233,2.891-3.701c1.124-1.467,2.249-2.887,3.373-4.26c-0.906,0.526-1.862,1.092-2.869,1.697
					c-1.008,0.606-2.026,1.281-3.056,2.025c-1.028,0.745-2.058,1.644-3.088,2.695c-1.029,1.05-1.807,1.883-2.332,2.496
					S179.565,102.813,179.273,103.391z M192.337,89.461c0.344,0.256,0.789,0.322,1.337,0.197c0.547-0.124,0.978-0.387,1.292-0.788
					c0.313-0.401,0.431-0.927,0.35-1.577c-0.08-0.649-0.35-0.901-0.811-0.756c-0.459,0.146-0.894,0.388-1.302,0.723
					c-0.41,0.337-0.741,0.724-0.997,1.16C191.949,88.859,191.994,89.206,192.337,89.461z"/>
			</g>
		</g>
		<g>
			<g>
				<g>
					<path fill="#FFFFFF" d="M39.414,26.497v8.615c-4.21-3.522-8.567-5.285-13.07-5.285c-4.962,0-9.142,1.782-12.539,5.348
						c-3.419,3.544-5.127,7.879-5.127,13.008c0,5.065,1.708,9.339,5.127,12.82s7.608,5.222,12.57,5.222
						c2.564,0,4.742-0.417,6.535-1.251c1.001-0.416,2.037-0.979,3.111-1.688c1.073-0.708,2.204-1.562,3.393-2.563v8.802
						c-4.17,2.366-8.547,3.549-13.133,3.549c-6.9,0-12.789-2.407-17.668-7.223c-4.856-4.857-7.285-10.715-7.285-17.573
						c0-6.149,2.033-11.633,6.098-16.447c5.003-5.899,11.476-8.85,19.419-8.85C31.18,22.979,35.369,24.152,39.414,26.497z"/>
				</g>
				<g>
					<path fill="#FFFFFF" d="M52.691,23.917v41.432h14.195v6.849H45.405v-48.28H52.691z"/>
				</g>
				<g>
					<path fill="#FFFFFF" d="M101.646,60.472H80.978l-5.379,11.726h-7.848L91.64,20.885l23.046,51.312h-7.974L101.646,60.472z
						 M98.675,53.623l-7.16-16.416L84.01,53.623H98.675z"/>
				</g>
				<g>
					<path fill="#FFFFFF" d="M144.816,31.078l-5.91,3.503c-1.105-1.918-2.158-3.169-3.158-3.753
						c-1.043-0.667-2.388-1.001-4.033-1.001c-2.023,0-3.701,0.575-5.035,1.722c-1.335,1.127-2.001,2.545-2.001,4.255
						c0,2.357,1.751,4.257,5.253,5.695l4.815,1.972c3.919,1.586,6.785,3.521,8.6,5.805c1.812,2.284,2.72,5.085,2.72,8.401
						c0,4.444-1.48,8.115-4.44,11.016c-2.981,2.92-6.682,4.38-11.101,4.38c-4.189,0-7.65-1.246-10.381-3.737
						c-2.689-2.49-4.367-5.987-5.035-10.489l7.38-1.626c0.333,2.835,0.917,4.794,1.752,5.878c1.501,2.085,3.689,3.127,6.566,3.127
						c2.271,0,4.159-0.76,5.659-2.281c1.501-1.52,2.251-3.446,2.251-5.78c0-0.938-0.13-1.797-0.391-2.578s-0.667-1.5-1.219-2.155
						c-0.554-0.656-1.267-1.271-2.142-1.844c-0.877-0.572-1.919-1.12-3.127-1.641l-4.66-1.938
						c-6.608-2.791-9.912-6.874-9.912-12.248c0-3.624,1.386-6.655,4.159-9.093c2.771-2.458,6.222-3.688,10.35-3.688
						C137.343,22.979,141.688,25.68,144.816,31.078z"/>
				</g>
				<g>
					<path fill="#FFFFFF" d="M178.949,31.078l-5.91,3.503c-1.104-1.918-2.157-3.169-3.158-3.753
						c-1.042-0.667-2.387-1.001-4.033-1.001c-2.022,0-3.701,0.575-5.035,1.722c-1.333,1.127-2.001,2.545-2.001,4.255
						c0,2.357,1.752,4.257,5.254,5.695l4.814,1.972c3.919,1.586,6.786,3.521,8.6,5.805s2.721,5.085,2.721,8.401
						c0,4.444-1.481,8.115-4.44,11.016c-2.981,2.92-6.682,4.38-11.101,4.38c-4.19,0-7.65-1.246-10.382-3.737
						c-2.688-2.49-4.366-5.987-5.033-10.489l7.379-1.626c0.333,2.835,0.917,4.794,1.751,5.878c1.501,2.085,3.69,3.127,6.566,3.127
						c2.272,0,4.159-0.76,5.66-2.281c1.501-1.52,2.251-3.446,2.251-5.78c0-0.938-0.13-1.797-0.391-2.578
						c-0.262-0.781-0.668-1.5-1.22-2.155c-0.553-0.656-1.267-1.271-2.142-1.844c-0.876-0.572-1.918-1.12-3.127-1.641l-4.659-1.938
						c-6.608-2.791-9.913-6.874-9.913-12.248c0-3.624,1.387-6.655,4.16-9.093c2.771-2.458,6.222-3.688,10.35-3.688
						C171.476,22.979,175.822,25.68,178.949,31.078z"/>
				</g>
				<g>
					<path fill="#FFFFFF" d="M193.07,23.917v48.28h-7.285v-48.28H193.07z"/>
				</g>
				<g>
					<path fill="#FFFFFF" d="M237.146,26.497v8.615c-4.211-3.522-8.567-5.285-13.07-5.285c-4.961,0-9.141,1.782-12.538,5.348
						c-3.42,3.544-5.129,7.879-5.129,13.008c0,5.065,1.709,9.339,5.129,12.82c3.419,3.481,7.608,5.222,12.569,5.222
						c2.565,0,4.743-0.417,6.535-1.251c1.002-0.416,2.037-0.979,3.112-1.688c1.073-0.708,2.204-1.562,3.392-2.563v8.802
						c-4.169,2.366-8.546,3.549-13.133,3.549c-6.899,0-12.789-2.407-17.666-7.223c-4.858-4.857-7.286-10.715-7.286-17.573
						c0-6.149,2.032-11.633,6.097-16.447c5.004-5.899,11.477-8.85,19.418-8.85C228.913,22.979,233.103,24.152,237.146,26.497z"/>
				</g>
			</g>
			<g>
				<g>
					<path fill="#FFFFFF" d="M220.646,43.283v10.774h-1.895V43.283h-2.887v-1.781h7.661v1.781H220.646z"/>
				</g>
				<g>
					<path fill="#FFFFFF" d="M223.359,47.723c0-1.768,0.648-3.286,1.943-4.555c1.291-1.268,2.841-1.902,4.652-1.902
						c1.788,0,3.323,0.641,4.603,1.919c1.285,1.28,1.928,2.816,1.928,4.611c0,1.806-0.646,3.337-1.937,4.595
						c-1.295,1.264-2.858,1.895-4.691,1.895c-1.621,0-3.076-0.561-4.366-1.684C224.07,51.36,223.359,49.734,223.359,47.723z
						 M225.271,47.743c0,1.387,0.467,2.526,1.399,3.42c0.927,0.895,1.997,1.341,3.212,1.341c1.317,0,2.429-0.454,3.334-1.364
						c0.906-0.921,1.358-2.043,1.358-3.364c0-1.338-0.447-2.459-1.342-3.363c-0.89-0.91-1.99-1.365-3.302-1.365
						c-1.307,0-2.409,0.455-3.31,1.365C225.721,45.312,225.271,46.421,225.271,47.743z"/>
				</g>
				<g>
					<path fill="#FFFFFF" d="M239.93,41.502v7.557c0,1.078,0.177,1.866,0.528,2.365c0.526,0.721,1.267,1.08,2.221,1.08
						c0.959,0,1.702-0.359,2.228-1.08c0.353-0.482,0.529-1.271,0.529-2.365v-7.557h1.895v8.083c0,1.323-0.412,2.412-1.235,3.27
						c-0.928,0.954-2.066,1.431-3.416,1.431c-1.351,0-2.485-0.477-3.407-1.431c-0.824-0.857-1.236-1.946-1.236-3.27v-8.083H239.93z"
						/>
				</g>
				<g>
					<path fill="#FFFFFF" d="M253.76,48.707l3.887,5.351h-2.317l-3.586-5.14h-0.342v5.14h-1.896V41.502h2.221
						c1.659,0,2.856,0.312,3.594,0.935c0.813,0.694,1.221,1.61,1.221,2.749c0,0.889-0.256,1.653-0.765,2.293
						C255.266,48.118,254.594,48.527,253.76,48.707z M251.401,47.268h0.602c1.795,0,2.691-0.687,2.691-2.058
						c0-1.285-0.873-1.927-2.618-1.927h-0.675V47.268z"/>
				</g>
			</g>
			<g>
				<g>
					<path fill="#FFFFFF" d="M29.196,51.008h-5.375l-1.398,3.05h-2.042l6.213-13.345l5.994,13.345h-2.074L29.196,51.008z
						 M28.424,49.228l-1.862-4.27l-1.952,4.27H28.424z"/>
				</g>
			</g>
		</g>
		<g>
			<g>
				<g>
					<path fill="#FFFFFF" d="M157.062,113.595h-2.289v-8.241h-2.751v-1.813h-1.121v1.813h-1.741v-1.813h-1.121v1.813h-2.752v8.241
						h-2.288v1.12h3.313l-2.25,2.16l0.776,0.809l3.091-2.969h4.202l3.092,2.969l0.774-0.809l-2.249-2.16h3.313V113.595z
						 M152.022,113.595v-4.679h1.631v4.679H152.022z M150.901,113.595h-1.741v-4.679h1.741V113.595z M153.653,106.474v1.322h-1.631
						v-1.322H153.653z M150.901,106.474v1.322h-1.741v-1.322H150.901z M148.039,106.474v1.322h-1.631v-1.322H148.039z
						 M146.408,108.916h1.631v4.679h-1.631V108.916z"/>
				</g>
				<g>
					<path fill="#FFFFFF" d="M140.23,111.191h2.957v-1.119h-0.23l0.213-0.223l-2.003-1.922l2.003-1.924l-0.45-0.468h0.468v-1.12
						h-7.035v1.12h1.5l-2.358,2.265h-2.927l2.85-2.736l-0.775-0.807l-4.858,4.664h3.429l-2.916,2.27h5.564v-2.094h-1.052
						l0.979-0.762l1.809,1.736h-1.244v1.119h2.957v5.006h-2.957v1.12h7.035v-1.12h-2.957V111.191z M134.54,110.072h-1.181
						l1.181-0.921V110.072z M139.549,107.928l2.233,2.145h-1.013l0.213-0.223l-2.003-1.922l2.003-1.924l-0.449-0.468h1.507
						L139.549,107.928z M136.781,107.928l2.002-1.924l-0.449-0.468h1.519l-2.49,2.392l2.233,2.145h-1.024l0.212-0.223
						L136.781,107.928z"/>
				</g>
				<g>
					<rect x="130.632" y="111.932" fill="#FFFFFF" width="1.119" height="5.584"/>
				</g>
				<g>
					<rect x="132.586" y="111.932" fill="#FFFFFF" width="1.12" height="5.584"/>
				</g>
				<g>
					<rect x="134.54" y="111.932" fill="#FFFFFF" width="1.12" height="5.584"/>
				</g>
			</g>
			<g>
				<g>
					<path fill="#FFFFFF" d="M120.111,106.625v-1.12h-4.116l0.81-0.778l-0.775-0.808l-1.652,1.586h-7.66v1.12h6.493l-6.552,6.291
						v-2.92h-1.04v-5.689h-3.921v0.713l-0.679-0.79l-0.988,0.849l-0.988-0.849l-0.728,0.847v-0.77h-3.921v5.689h-1.107v3.139h1.121
						v-2.019h11.131v2.019h1.12v-0.017l0.675,0.702l3.588-3.443l1.749,1.668l-4.877,4.686l0.776,0.808l4.911-4.719l4.933,4.705
						l0.773-0.811l-4.896-4.671l4.42-4.247h-5.102l1.22-1.171H120.111z M100.89,108.639l0.808-0.694v0.796h2.801v1.256h-3.281
						l0.532-0.619L100.89,108.639z M100.75,109.996h-1.438l0.719-0.619L100.75,109.996z M95.514,107.619v-0.553h2.801v-0.508
						l0.575,0.669l-0.575,0.669v-0.277H95.514z M104.498,107.066v0.553h-2.801v0.221l-0.526-0.612l0.526-0.612v0.451H104.498z
						 M100.03,107.9l-0.782-0.673l0.782-0.671l0.782,0.671L100.03,107.9z M101.697,105.123v0.304h2.801v0.519h-2.801v0.566
						l-0.808-0.693L101.697,105.123z M98.314,105.427v-0.345l0.856,0.736l-0.856,0.735v-0.608h-2.801v-0.519H98.314z M95.514,108.74
						h2.801v-0.838l0.856,0.736l-0.858,0.738l0.531,0.619h-3.33V108.74z M115.928,108.916l-2.448,2.353l-1.75-1.669l0.712-0.684
						H115.928z"/>
				</g>
				<g>
					<polygon fill="#FFFFFF" points="100.533,114.232 104.33,111.81 96.602,111.81 96.602,112.93 100.491,112.93 99.412,113.618 
						99.412,114.266 94.429,114.266 94.429,115.385 99.412,115.385 99.412,116.197 96.602,116.197 96.602,117.317 100.533,117.317 
						100.533,115.385 105.602,115.385 105.602,114.266 100.533,114.266 					"/>
				</g>
			</g>
			<g>
				
					<rect x="123.653" y="110.293" transform="matrix(0.7074 0.7068 -0.7068 0.7074 115.0555 -55.5061)" fill="#FFFFFF" width="1.825" height="1.826"/>
			</g>
		</g>
		<g>
			<g>
				<path fill="#FFFFFF" d="M104.659,162.01h3.906c0.13-0.57,0.197-0.873,0.203-0.905l0.21,0.016v-0.93
					c-0.533,0.647-0.957,1.062-1.271,1.245c-0.204-0.388-0.404-0.636-0.599-0.744v1.06h-1.988v-7.076
					c-0.508,0.404-0.961,0.974-1.359,1.706c-0.841-0.809-1.657-1.441-2.45-1.9l1.391-1.528c0.631,0.254,1.437,0.796,2.419,1.626
					v-0.93h2.862l0.349-0.947l2.369,0.203c-0.061,0.221-0.151,0.469-0.275,0.744h4.085v8.103h-1.934v-0.913
					c-0.2,0.161-0.394,0.366-0.582,0.613c-0.291-0.166-0.712-0.524-1.262-1.074v0.922l0.404,0.048l-0.105,0.663h4.044v2.022h-3.049
					v0.048c0.997,0.663,2.15,1.146,3.461,1.447c-0.388,0.523-0.784,1.174-1.188,1.949c-1.624-0.28-3.13-1.064-4.521-2.354
					c-0.955,1.295-2.577,2.068-4.868,2.322c-0.266-0.707-0.67-1.396-1.214-2.07c1.99-0.195,3.311-0.643,3.963-1.343h-3.219v-1.424
					h-0.032c-0.621,1.817-1.337,3.397-2.151,4.739l-1.723-1.973c0.9-1.439,1.79-3.125,2.668-5.055
					c0.497,0.539,1.047,0.976,1.65,1.31L104.659,162.01z M100.567,158.104l1.229-1.536c0.798,0.372,1.658,0.968,2.58,1.787
					c-0.508,0.518-0.965,1.071-1.375,1.658C102.284,159.236,101.474,158.6,100.567,158.104z M107.109,155.436v0.218l2.929-0.202
					v-0.016H107.109z M107.143,156.018h-0.033v1.69h0.462l-0.429-0.614l0.332-0.219
					C107.307,156.471,107.196,156.185,107.143,156.018z M107.109,159.18v0.695c0.093-0.027,0.308-0.259,0.647-0.695H107.109z
					 M108.736,157.708h0.242v-0.85c-0.189,0.026-0.332,0.04-0.429,0.04c0.22,0.303,0.348,0.521,0.38,0.656l-0.193,0.104V157.708z
					 M110.733,156.681v1.027h0.421c-0.071-0.081-0.206-0.175-0.404-0.283c0.139-0.167,0.295-0.427,0.469-0.776
					c-0.055,0-0.134,0.005-0.239,0.016C110.875,156.676,110.792,156.681,110.733,156.681z M111.866,159.18v0.064
					c0.064,0.043,0.178,0.125,0.339,0.242c0.162,0.119,0.285,0.205,0.372,0.26v-0.566H111.866z M112.577,157.708v-1.245l-0.55,0.088
					l0.469,0.275l-0.388,0.882H112.577z M112.577,155.436h-0.485l0.438,0.662h0.048V155.436z"/>
			</g>
			<g>
				<path fill="#FFFFFF" d="M117.68,167.494v-14.445h6.486v6.527h-4.108v7.918H117.68z M120.058,155.508h1.845v-0.663h-1.845
					V155.508z M120.058,157.724h1.845v-0.646h-1.845V157.724z M125.161,153.033h6.51v12.624c0,0.372-0.181,0.735-0.541,1.088
					c-0.362,0.353-0.808,0.563-1.339,0.631s-1.063,0.122-1.597,0.166c-0.113-1.009-0.384-1.853-0.81-2.532l0.769,0.017
					c0.437,0,0.734-0.044,0.894-0.134c0.159-0.088,0.238-0.238,0.238-0.448v-4.868h-4.124V153.033z M127.434,155.508h1.852v-0.663
					h-1.852V155.508z M127.434,157.724h1.852v-0.646h-1.852V157.724z"/>
			</g>
			<g>
				<path fill="#FFFFFF" d="M140.252,164.945l-5.879,1.295l-0.696-2.273c0.906-0.075,2.017-0.223,3.332-0.444
					c0.458-1.521,0.817-3.51,1.076-5.968l2.15,0.218c-0.372,2.47-0.741,4.265-1.107,5.386c0.527-0.113,0.902-0.197,1.124-0.25
					V164.945z M133.928,155.37h2.733c-0.242-0.631-0.663-1.243-1.262-1.835l1.974-0.85c0.657,0.68,1.186,1.464,1.585,2.354
					c-0.384,0.124-0.675,0.229-0.873,0.314v0.017h2.515v2.038h-6.672V155.37z M134.105,158.071l2.006-0.299
					c0.437,1.827,0.673,3.556,0.712,5.185c-0.771,0-1.45,0.104-2.038,0.314C134.764,161.596,134.537,159.861,134.105,158.071z
					 M144.869,155.54h3.6v1.966h-3.6v2.207h3.065v7.716H145.8v-0.897h-3.179v0.897h-2.135v-7.716h2.248v-6.211
					c0-0.075-0.052-0.141-0.157-0.193c-0.105-0.055-0.158-0.121-0.158-0.203c0-0.156,0.106-0.234,0.315-0.234h2.135V155.54z
					 M145.8,164.428v-2.677h-3.179v2.677H145.8z"/>
			</g>
		</g>
		<g>
			<g>
				<path fill="#FFFFFF" d="M41.418,126.521h-1.097c0.032-1.117,0.408-2.035,1.132-2.753s1.618-1.076,2.682-1.076
					c1.054,0,1.905,0.336,2.557,1.01c0.65,0.673,0.977,1.467,0.977,2.381c0,0.643-0.155,1.246-0.466,1.809s-0.912,1.324-1.809,2.285
					l-2.851,3.04h5.281v1.095h-7.775l4.374-4.68c0.887-0.941,1.464-1.639,1.731-2.094c0.267-0.455,0.401-0.935,0.401-1.439
					c0-0.637-0.24-1.186-0.72-1.646c-0.48-0.46-1.068-0.69-1.763-0.69c-0.732,0-1.341,0.242-1.826,0.725
					C41.763,124.969,41.485,125.647,41.418,126.521z"/>
				<path fill="#FFFFFF" d="M48.119,134.605h-8.751l4.839-5.177c0.869-0.921,1.438-1.608,1.692-2.042
					c0.239-0.406,0.359-0.84,0.359-1.289c0-0.558-0.205-1.025-0.628-1.432c-0.427-0.409-0.937-0.608-1.558-0.608
					c-0.656,0-1.187,0.209-1.617,0.638c-0.431,0.43-0.682,1.051-0.742,1.848l-0.021,0.273h-1.676l0.01-0.305
					c0.033-1.189,0.442-2.184,1.22-2.954s1.749-1.162,2.889-1.162c1.132,0,2.063,0.37,2.77,1.1c0.703,0.728,1.06,1.599,1.06,2.587
					c0,0.69-0.169,1.347-0.502,1.951c-0.326,0.59-0.931,1.355-1.851,2.344l-2.387,2.543h4.895V134.605z M40.73,134.014h6.798v-0.502
					h-5.669l3.318-3.539c0.874-0.938,1.469-1.687,1.766-2.225c0.284-0.516,0.429-1.077,0.429-1.666c0-0.842-0.291-1.554-0.894-2.176
					c-0.598-0.619-1.365-0.92-2.344-0.92c-0.991,0-1.801,0.324-2.473,0.991c-0.607,0.603-0.945,1.34-1.027,2.247h0.518
					c0.107-0.814,0.405-1.469,0.887-1.948c0.541-0.537,1.225-0.81,2.034-0.81c0.77,0,1.432,0.26,1.967,0.771
					c0.538,0.517,0.812,1.143,0.812,1.859c0,0.556-0.149,1.09-0.442,1.589c-0.28,0.478-0.86,1.181-1.771,2.146L40.73,134.014z"/>
			</g>
			<g>
				<path fill="#FFFFFF" d="M49.711,128.646c0-1.494,0.162-2.65,0.485-3.467c0.324-0.816,0.782-1.436,1.374-1.857
					c0.592-0.42,1.253-0.631,1.984-0.631c0.742,0,1.414,0.211,2.016,0.636c0.603,0.423,1.079,1.06,1.429,1.907
					c0.35,0.847,0.525,1.984,0.525,3.412c0,1.424-0.173,2.557-0.518,3.398s-0.821,1.479-1.429,1.907
					c-0.605,0.429-1.281,0.644-2.023,0.644c-0.731,0-1.391-0.209-1.976-0.625c-0.587-0.416-1.045-1.036-1.374-1.86
					C49.875,131.285,49.711,130.132,49.711,128.646z M50.793,128.666c0,1.28,0.114,2.248,0.346,2.903
					c0.23,0.655,0.572,1.153,1.023,1.492s0.929,0.509,1.432,0.509c0.508,0,0.983-0.166,1.425-0.497
					c0.44-0.332,0.775-0.829,1.003-1.492c0.286-0.808,0.429-1.778,0.429-2.915c0-1.141-0.127-2.075-0.382-2.803
					c-0.254-0.727-0.605-1.259-1.054-1.596c-0.449-0.337-0.923-0.506-1.421-0.506c-0.509,0-0.985,0.169-1.432,0.506
					s-0.787,0.832-1.02,1.488C50.908,126.411,50.793,127.381,50.793,128.666z"/>
				<path fill="#FFFFFF" d="M53.555,134.891c-0.791,0-1.514-0.229-2.148-0.678c-0.629-0.447-1.127-1.118-1.477-1.992
					c-0.342-0.855-0.515-2.058-0.515-3.574c0-1.525,0.17-2.729,0.507-3.576c0.344-0.866,0.841-1.535,1.477-1.988
					c0.641-0.455,1.365-0.687,2.156-0.687c0.802,0,1.536,0.231,2.187,0.69c0.646,0.453,1.16,1.139,1.531,2.035
					c0.363,0.879,0.548,2.065,0.548,3.525c0,1.455-0.182,2.637-0.54,3.51c-0.365,0.893-0.88,1.577-1.531,2.037
					C55.094,134.656,54.355,134.891,53.555,134.891z M53.555,122.986c-0.664,0-1.275,0.195-1.812,0.578
					c-0.542,0.385-0.969,0.966-1.271,1.725c-0.309,0.777-0.466,1.908-0.466,3.357c0,1.44,0.159,2.568,0.474,3.354
					c0.307,0.768,0.733,1.35,1.27,1.729c0.532,0.378,1.141,0.569,1.806,0.569c0.676,0,1.3-0.197,1.854-0.588
					c0.557-0.395,1.003-0.992,1.324-1.778c0.329-0.802,0.496-1.908,0.496-3.286c0-1.382-0.169-2.492-0.503-3.3
					c-0.327-0.79-0.772-1.389-1.325-1.778C54.853,123.184,54.231,122.986,53.555,122.986z M53.594,133.866
					c-0.566,0-1.107-0.191-1.609-0.568c-0.497-0.374-0.875-0.922-1.125-1.63c-0.244-0.693-0.362-1.676-0.362-3.002
					c0-1.332,0.119-2.316,0.367-3.01c0.251-0.707,0.628-1.254,1.12-1.625c0.983-0.742,2.199-0.756,3.207,0
					c0.495,0.371,0.884,0.955,1.156,1.734c0.265,0.756,0.398,1.732,0.398,2.9c0,1.164-0.149,2.178-0.445,3.014
					c-0.246,0.715-0.618,1.264-1.104,1.63C54.704,133.679,54.165,133.866,53.594,133.866z M53.594,124.058
					c-0.446,0-0.856,0.146-1.253,0.446c-0.398,0.299-0.708,0.754-0.919,1.352c-0.222,0.619-0.334,1.565-0.334,2.811
					c0,1.24,0.11,2.184,0.33,2.805c0.21,0.597,0.52,1.053,0.922,1.354s0.812,0.449,1.254,0.449c0.446,0,0.854-0.144,1.247-0.438
					c0.391-0.294,0.694-0.749,0.901-1.353c0.274-0.773,0.412-1.722,0.412-2.818c0-1.102-0.122-2.012-0.364-2.705
					c-0.233-0.667-0.555-1.157-0.953-1.457C54.438,124.203,54.03,124.058,53.594,124.058z"/>
			</g>
			<g>
				<path fill="#FFFFFF" d="M60.111,122.977h2.249v11.334h-1.137v-10.225h-1.798L60.111,122.977z"/>
				<path fill="#FFFFFF" d="M62.655,134.605h-1.728v-10.225h-2.032l1.05-1.7h2.71V134.605z M61.52,134.014h0.545v-10.742h-1.788
					l-0.319,0.519h1.562V134.014z"/>
			</g>
			<g>
				<path fill="#FFFFFF" d="M66.342,122.977h7.262l-6.126,11.619l-0.947-0.481l5.285-10.06h-5.474V122.977z"/>
				<path fill="#FFFFFF" d="M67.604,134.99l-1.476-0.748l5.197-9.892h-5.28v-1.67h8.048L67.604,134.99z M66.932,133.986l0.42,0.213
					l5.761-10.928h-6.475v0.488h5.667L66.932,133.986z"/>
			</g>
			<g>
				<path fill="#FFFFFF" d="M76.444,132.615c0.264,0,0.489,0.092,0.677,0.277c0.187,0.185,0.279,0.41,0.279,0.678
					c0,0.262-0.093,0.486-0.279,0.674c-0.188,0.188-0.413,0.281-0.677,0.281c-0.266,0-0.491-0.094-0.678-0.281
					s-0.28-0.412-0.28-0.674c0-0.268,0.094-0.493,0.28-0.678C75.953,132.707,76.179,132.615,76.444,132.615z"/>
				<path fill="#FFFFFF" d="M76.444,134.821c-0.346,0-0.644-0.124-0.887-0.368s-0.367-0.541-0.367-0.883
					c0-0.348,0.125-0.646,0.369-0.889c0.242-0.24,0.54-0.363,0.885-0.363c0.343,0,0.642,0.123,0.885,0.363
					c0.244,0.242,0.368,0.541,0.368,0.889c0,0.342-0.124,0.639-0.366,0.883C77.087,134.697,76.788,134.821,76.444,134.821z
					 M76.444,132.91c-0.188,0-0.337,0.062-0.469,0.192c-0.132,0.13-0.193,0.278-0.193,0.468c0,0.185,0.062,0.333,0.194,0.466
					c0.133,0.132,0.28,0.194,0.468,0.194c0.187,0,0.335-0.062,0.468-0.194c0.132-0.134,0.193-0.281,0.193-0.466
					c0-0.189-0.061-0.338-0.192-0.468C76.781,132.972,76.632,132.91,76.444,132.91z"/>
			</g>
			<g>
				<path fill="#FFFFFF" d="M85.366,128.092c0.772,0.381,1.327,0.814,1.661,1.303s0.502,1.043,0.502,1.664
					c0,0.873-0.288,1.645-0.864,2.312c-0.705,0.817-1.714,1.226-3.027,1.226c-1.266,0-2.226-0.358-2.879-1.076
					c-0.654-0.716-0.981-1.506-0.981-2.369c0-0.631,0.172-1.199,0.514-1.705c0.343-0.507,0.914-0.957,1.712-1.354
					c-0.56-0.287-0.979-0.645-1.26-1.07s-0.421-0.884-0.421-1.371c0-0.494,0.149-0.975,0.448-1.445
					c0.298-0.471,0.711-0.84,1.237-1.109s1.096-0.404,1.708-0.404c0.597,0,1.149,0.136,1.657,0.408
					c0.509,0.271,0.907,0.643,1.195,1.109c0.287,0.468,0.433,0.958,0.433,1.472s-0.137,0.971-0.409,1.371
					C86.319,127.453,85.91,127.8,85.366,128.092z M83.711,128.662c-0.787,0-1.447,0.254-1.98,0.759
					c-0.534,0.507-0.801,1.097-0.801,1.769c0,0.416,0.114,0.809,0.343,1.18c0.228,0.369,0.546,0.654,0.955,0.854
					s0.884,0.3,1.422,0.3c0.835,0,1.497-0.243,1.99-0.73c0.491-0.488,0.738-1.059,0.738-1.711c0-0.633-0.261-1.193-0.781-1.684
					S84.448,128.662,83.711,128.662z M83.657,123.793c-0.628,0-1.149,0.184-1.562,0.551c-0.414,0.367-0.62,0.805-0.62,1.314
					c0,0.503,0.222,0.959,0.667,1.367c0.443,0.408,0.962,0.613,1.555,0.613c0.38,0,0.738-0.094,1.076-0.278s0.602-0.438,0.792-0.759
					c0.189-0.32,0.284-0.644,0.284-0.967c0-0.457-0.187-0.879-0.562-1.264C84.913,123.985,84.37,123.793,83.657,123.793z"/>
				<path fill="#FFFFFF" d="M83.638,134.891c-1.347,0-2.389-0.395-3.098-1.171c-0.702-0.77-1.058-1.634-1.058-2.569
					c0-0.688,0.19-1.318,0.564-1.872c0.297-0.438,0.752-0.841,1.355-1.197c-0.38-0.258-0.684-0.558-0.906-0.897
					c-0.312-0.473-0.469-0.989-0.469-1.533c0-0.549,0.165-1.088,0.493-1.604c0.325-0.514,0.78-0.922,1.352-1.215
					c0.566-0.289,1.188-0.437,1.844-0.437c0.644,0,1.248,0.149,1.798,0.442c0.553,0.297,0.992,0.706,1.307,1.217
					c0.315,0.512,0.476,1.059,0.476,1.626c0,0.571-0.154,1.089-0.459,1.538c-0.216,0.316-0.51,0.604-0.877,0.857
					c0.582,0.343,1.021,0.729,1.312,1.151c0.367,0.535,0.554,1.151,0.554,1.831c0,0.942-0.314,1.785-0.937,2.505
					C86.129,134.444,85.034,134.891,83.638,134.891z M83.716,122.986c-0.562,0-1.091,0.126-1.573,0.373
					c-0.478,0.244-0.854,0.582-1.123,1.004c-0.266,0.42-0.401,0.853-0.401,1.287c0,0.433,0.122,0.828,0.372,1.209
					s0.637,0.707,1.148,0.97l0.521,0.269l-0.525,0.26c-0.748,0.37-1.286,0.792-1.599,1.253c-0.307,0.454-0.462,0.972-0.462,1.54
					c0,0.795,0.295,1.504,0.903,2.171c0.592,0.649,1.487,0.978,2.66,0.978c1.233,0,2.151-0.367,2.804-1.122
					c0.533-0.618,0.792-1.311,0.792-2.118c0-0.565-0.147-1.056-0.45-1.497c-0.304-0.443-0.825-0.849-1.548-1.204l-0.516-0.253
					l0.507-0.272c0.5-0.27,0.876-0.588,1.12-0.946c0.241-0.354,0.358-0.748,0.358-1.205c0-0.456-0.131-0.898-0.389-1.317
					c-0.259-0.42-0.622-0.757-1.083-1.003C84.771,123.112,84.26,122.986,83.716,122.986z M83.649,133.82
					c-0.581,0-1.104-0.111-1.552-0.331c-0.458-0.225-0.821-0.55-1.078-0.966c-0.256-0.415-0.386-0.864-0.386-1.334
					c0-0.754,0.3-1.421,0.894-1.982c0.587-0.559,1.322-0.84,2.184-0.84c0.812,0,1.514,0.274,2.089,0.816
					c0.579,0.546,0.874,1.185,0.874,1.898c0,0.73-0.278,1.377-0.826,1.92C85.301,133.545,84.562,133.82,83.649,133.82z
					 M83.711,128.959c-0.715,0-1.296,0.221-1.776,0.677c-0.478,0.452-0.71,0.96-0.71,1.554c0,0.363,0.098,0.699,0.299,1.023
					c0.2,0.324,0.473,0.568,0.834,0.745c0.367,0.179,0.802,0.271,1.292,0.271c0.761,0,1.343-0.211,1.781-0.646
					c0.438-0.434,0.651-0.925,0.651-1.5c0-0.552-0.226-1.032-0.688-1.469C84.926,129.172,84.375,128.959,83.711,128.959z
					 M83.696,127.934c-0.666,0-1.257-0.232-1.755-0.69c-0.506-0.465-0.763-0.999-0.763-1.585c0-0.595,0.241-1.111,0.72-1.535
					c0.467-0.415,1.059-0.625,1.759-0.625c0.793,0,1.411,0.224,1.842,0.666c0.428,0.441,0.646,0.936,0.646,1.471
					c0,0.375-0.11,0.752-0.326,1.117c-0.217,0.365-0.521,0.658-0.904,0.867C84.534,127.828,84.125,127.934,83.696,127.934z
					 M83.657,124.089c-0.56,0-1.006,0.155-1.367,0.476c-0.35,0.312-0.52,0.67-0.52,1.094c0,0.42,0.187,0.796,0.57,1.149
					c0.392,0.36,0.836,0.534,1.355,0.534c0.333,0,0.638-0.078,0.934-0.241c0.294-0.16,0.516-0.373,0.679-0.649
					c0.162-0.273,0.244-0.548,0.244-0.816c0-0.381-0.156-0.727-0.478-1.059C84.756,124.248,84.292,124.089,83.657,124.089z"/>
			</g>
			<g>
				<path fill="#FFFFFF" d="M90.486,132.615c0.265,0,0.49,0.092,0.678,0.277c0.187,0.185,0.28,0.41,0.28,0.678
					c0,0.262-0.094,0.486-0.28,0.674c-0.188,0.188-0.413,0.281-0.678,0.281c-0.264,0-0.489-0.094-0.677-0.281
					c-0.187-0.188-0.279-0.412-0.279-0.674c0-0.268,0.093-0.493,0.279-0.678C89.997,132.707,90.223,132.615,90.486,132.615z"/>
				<path fill="#FFFFFF" d="M90.486,134.821c-0.344,0-0.643-0.124-0.887-0.368c-0.242-0.244-0.366-0.541-0.366-0.883
					c0-0.348,0.124-0.646,0.368-0.889c0.243-0.24,0.541-0.363,0.885-0.363c0.345,0,0.643,0.123,0.886,0.363
					c0.244,0.242,0.368,0.541,0.368,0.889c0,0.342-0.123,0.639-0.366,0.883S90.831,134.821,90.486,134.821z M90.486,132.91
					c-0.188,0-0.337,0.062-0.468,0.192c-0.132,0.13-0.192,0.278-0.192,0.468c0,0.185,0.062,0.333,0.193,0.466
					c0.132,0.132,0.28,0.194,0.467,0.194c0.188,0,0.336-0.062,0.469-0.194c0.132-0.134,0.193-0.281,0.193-0.466
					c0-0.189-0.062-0.338-0.193-0.468C90.824,132.972,90.675,132.91,90.486,132.91z"/>
			</g>
			<g>
				<path fill="#FFFFFF" d="M95.437,122.977h2.249v11.334H96.55v-10.225h-1.798L95.437,122.977z"/>
				<path fill="#FFFFFF" d="M97.981,134.605h-1.728v-10.225h-2.032l1.05-1.7h2.71V134.605z M96.845,134.014h0.546v-10.742h-1.789
					l-0.32,0.519h1.563V134.014z"/>
			</g>
			<g>
				<path fill="#FFFFFF" d="M104.27,122.977h2.25v11.334h-1.137v-10.225h-1.798L104.27,122.977z"/>
				<path fill="#FFFFFF" d="M106.815,134.605h-1.728v-10.225h-2.032l1.05-1.7h2.71V134.605z M105.679,134.014h0.544v-10.742h-1.788
					l-0.319,0.519h1.563V134.014z"/>
			</g>
			<g>
				<path fill="#FFFFFF" d="M116.66,122.691l-4.756,13.16h-1.19l4.748-13.16H116.66z"/>
				<path fill="#FFFFFF" d="M112.112,136.146h-1.819l4.961-13.751h1.827L112.112,136.146z M111.136,135.555h0.562l4.542-12.568
					h-0.57L111.136,135.555z"/>
			</g>
			<g>
				<path fill="#FFFFFF" d="M120.068,122.977h2.25v11.334h-1.137v-10.225h-1.797L120.068,122.977z"/>
				<path fill="#FFFFFF" d="M122.613,134.605h-1.727v-10.225h-2.033l1.05-1.7h2.71V134.605z M121.478,134.014h0.545v-10.742h-1.788
					l-0.32,0.519h1.563V134.014z"/>
			</g>
			<g>
				<path fill="#FFFFFF" d="M127.797,126.521h-1.098c0.031-1.117,0.409-2.035,1.133-2.753s1.618-1.076,2.682-1.076
					c1.054,0,1.905,0.336,2.557,1.01c0.65,0.673,0.977,1.467,0.977,2.381c0,0.643-0.155,1.246-0.466,1.809s-0.914,1.324-1.809,2.285
					l-2.851,3.04h5.28v1.095h-7.775l4.374-4.68c0.888-0.941,1.465-1.639,1.732-2.094c0.267-0.455,0.401-0.935,0.401-1.439
					c0-0.637-0.24-1.186-0.721-1.646s-1.067-0.69-1.763-0.69c-0.731,0-1.34,0.242-1.825,0.725
					C128.142,124.969,127.864,125.647,127.797,126.521z"/>
				<path fill="#FFFFFF" d="M134.498,134.605h-8.752l4.839-5.177c0.87-0.923,1.438-1.608,1.693-2.042
					c0.239-0.406,0.359-0.84,0.359-1.289c0-0.558-0.205-1.025-0.629-1.432c-0.426-0.409-0.937-0.608-1.558-0.608
					c-0.656,0-1.185,0.209-1.617,0.638c-0.431,0.43-0.681,1.052-0.742,1.848l-0.021,0.273h-1.676l0.009-0.305
					c0.033-1.189,0.443-2.184,1.22-2.954c0.778-0.771,1.75-1.162,2.89-1.162c1.132,0,2.063,0.37,2.769,1.1
					c0.704,0.728,1.061,1.599,1.061,2.587c0,0.69-0.17,1.347-0.503,1.951c-0.325,0.59-0.931,1.355-1.852,2.344l-2.385,2.543h4.895
					V134.605z M127.109,134.014h6.798v-0.502h-5.669l3.318-3.539c0.874-0.938,1.468-1.687,1.766-2.225
					c0.284-0.517,0.429-1.077,0.429-1.666c0-0.842-0.293-1.554-0.894-2.176c-0.599-0.619-1.365-0.92-2.344-0.92
					c-0.992,0-1.801,0.324-2.474,0.991c-0.606,0.603-0.944,1.34-1.027,2.247h0.519c0.106-0.813,0.404-1.469,0.887-1.948
					c0.54-0.537,1.224-0.81,2.033-0.81c0.771,0,1.433,0.26,1.968,0.771c0.538,0.517,0.812,1.142,0.812,1.859
					c0,0.556-0.148,1.09-0.442,1.589c-0.28,0.478-0.86,1.181-1.771,2.146L127.109,134.014z"/>
			</g>
			<g>
				<path fill="#FFFFFF" d="M142.09,122.691l-4.756,13.16h-1.19l4.747-13.16H142.09z"/>
				<path fill="#FFFFFF" d="M137.542,136.146h-1.819l4.961-13.751h1.826L137.542,136.146z M136.564,135.555h0.562l4.541-12.568
					h-0.569L136.564,135.555z"/>
			</g>
			<g>
				<path fill="#FFFFFF" d="M145.498,122.977h2.249v11.334h-1.137v-10.225h-1.797L145.498,122.977z"/>
				<path fill="#FFFFFF" d="M148.043,134.605h-1.728v-10.225h-2.032l1.05-1.7h2.71V134.605z M146.906,134.014h0.545v-10.742h-1.788
					l-0.319,0.519h1.562V134.014z"/>
			</g>
			<g>
				<path fill="#FFFFFF" d="M153.491,125.604h-1.168c0.213-0.935,0.621-1.654,1.222-2.157c0.602-0.504,1.313-0.755,2.133-0.755
					c0.597,0,1.153,0.135,1.67,0.404s0.915,0.633,1.199,1.09c0.281,0.457,0.423,0.936,0.423,1.434c0,0.977-0.49,1.749-1.47,2.318
					c0.549,0.222,1,0.545,1.354,0.971c0.498,0.602,0.746,1.275,0.746,2.02c0,0.643-0.17,1.254-0.513,1.838
					c-0.343,0.582-0.81,1.033-1.401,1.352c-0.591,0.318-1.252,0.479-1.983,0.479c-0.986,0-1.81-0.281-2.468-0.844
					c-0.659-0.562-1.09-1.389-1.292-2.478h1.12c0.197,0.735,0.48,1.267,0.849,1.595c0.473,0.416,1.074,0.624,1.806,0.624
					c0.83,0,1.497-0.247,2-0.739c0.504-0.493,0.755-1.071,0.755-1.734c0-0.441-0.126-0.855-0.377-1.24
					c-0.252-0.385-0.589-0.676-1.012-0.871c-0.423-0.194-1.078-0.314-1.966-0.361v-1.04c0.524,0,1.001-0.091,1.432-0.273
					c0.432-0.183,0.744-0.415,0.938-0.698c0.194-0.281,0.292-0.59,0.292-0.924c0-0.493-0.199-0.92-0.596-1.279
					s-0.898-0.539-1.506-0.539c-0.492,0-0.919,0.138-1.276,0.412C154.044,124.48,153.74,124.945,153.491,125.604z"/>
				<path fill="#FFFFFF" d="M155.702,134.891c-1.055,0-1.948-0.307-2.66-0.914c-0.708-0.604-1.176-1.496-1.391-2.648l-0.065-0.35
					h1.703l0.06,0.219c0.181,0.676,0.438,1.163,0.76,1.451c0.419,0.369,0.945,0.549,1.608,0.549c0.757,0,1.344-0.214,1.793-0.654
					c0.449-0.439,0.667-0.938,0.667-1.523c0-0.387-0.108-0.738-0.33-1.078c-0.223-0.342-0.513-0.591-0.888-0.764
					c-0.387-0.179-1.012-0.291-1.856-0.336l-0.281-0.014v-1.617h0.296c0.482,0,0.926-0.084,1.317-0.25
					c0.375-0.16,0.648-0.359,0.81-0.593c0.161-0.234,0.239-0.481,0.239-0.757c0-0.409-0.162-0.756-0.498-1.061
					c-0.344-0.311-0.771-0.462-1.308-0.462c-0.43,0-0.788,0.114-1.097,0.351c-0.312,0.24-0.585,0.666-0.813,1.27l-0.072,0.19h-1.742
					l0.082-0.361c0.227-0.995,0.672-1.775,1.32-2.319c0.653-0.546,1.435-0.823,2.322-0.823c0.643,0,1.25,0.147,1.807,0.438
					c0.562,0.294,1.003,0.696,1.312,1.197c0.312,0.503,0.469,1.037,0.469,1.589c0,0.922-0.394,1.686-1.17,2.277
					c0.382,0.218,0.712,0.494,0.984,0.824c0.542,0.652,0.816,1.395,0.816,2.207c0,0.691-0.188,1.361-0.555,1.987
					c-0.369,0.628-0.879,1.12-1.516,1.463C157.194,134.719,156.479,134.891,155.702,134.891z M152.309,131.57
					c0.211,0.846,0.586,1.503,1.117,1.957c0.602,0.512,1.366,0.771,2.276,0.771c0.679,0,1.298-0.148,1.844-0.441
					c0.54-0.291,0.973-0.709,1.286-1.242c0.313-0.534,0.473-1.103,0.473-1.688c0-0.68-0.223-1.279-0.679-1.83
					c-0.319-0.386-0.736-0.684-1.237-0.885l-0.562-0.227l0.523-0.304c0.892-0.519,1.324-1.192,1.324-2.063
					c0-0.439-0.128-0.869-0.381-1.277c-0.253-0.409-0.618-0.74-1.084-0.984c-0.471-0.246-0.986-0.371-1.532-0.371
					c-0.756,0-1.391,0.225-1.942,0.687c-0.469,0.393-0.814,0.941-1.027,1.635h0.582c0.255-0.608,0.568-1.058,0.932-1.337
					c0.408-0.314,0.899-0.473,1.456-0.473c0.68,0,1.254,0.207,1.705,0.615c0.459,0.416,0.692,0.92,0.692,1.498
					c0,0.393-0.116,0.761-0.344,1.092c-0.227,0.329-0.586,0.598-1.066,0.803c-0.382,0.162-0.802,0.258-1.251,0.287v0.477
					c0.79,0.059,1.378,0.18,1.793,0.371c0.472,0.218,0.854,0.547,1.135,0.977c0.283,0.434,0.426,0.904,0.426,1.402
					c0,0.742-0.283,1.396-0.844,1.945c-0.557,0.547-1.3,0.824-2.207,0.824c-0.802,0-1.476-0.234-2.001-0.697
					c-0.373-0.333-0.666-0.844-0.876-1.521H152.309z"/>
			</g>
			<g>
				<path fill="#FFFFFF" d="M167.519,122.691l-4.755,13.16h-1.191l4.747-13.16H167.519z"/>
				<path fill="#FFFFFF" d="M162.971,136.146h-1.819l4.961-13.751h1.827L162.971,136.146z M161.993,135.555h0.562l4.542-12.568
					h-0.57L161.993,135.555z"/>
			</g>
			<g>
				<path fill="#FFFFFF" d="M170.927,122.977h2.25v11.334h-1.137v-10.225h-1.797L170.927,122.977z"/>
				<path fill="#FFFFFF" d="M173.473,134.605h-1.728v-10.225h-2.032l1.05-1.7h2.71V134.605z M172.336,134.014h0.545v-10.742h-1.788
					l-0.32,0.519h1.563V134.014z"/>
			</g>
			<g>
				<path fill="#FFFFFF" d="M182.937,128.092c0.772,0.381,1.327,0.814,1.661,1.303s0.502,1.043,0.502,1.664
					c0,0.873-0.287,1.645-0.863,2.312c-0.706,0.817-1.715,1.226-3.028,1.226c-1.266,0-2.226-0.358-2.879-1.076
					c-0.654-0.716-0.981-1.506-0.981-2.369c0-0.631,0.172-1.199,0.515-1.705c0.342-0.507,0.912-0.957,1.712-1.354
					c-0.561-0.287-0.981-0.645-1.261-1.07c-0.28-0.426-0.421-0.884-0.421-1.371c0-0.494,0.149-0.975,0.448-1.445
					c0.298-0.471,0.711-0.84,1.236-1.109c0.527-0.27,1.097-0.404,1.709-0.404c0.596,0,1.149,0.136,1.658,0.408
					c0.508,0.271,0.906,0.643,1.194,1.109c0.288,0.468,0.432,0.958,0.432,1.472s-0.137,0.971-0.408,1.371
					C183.89,127.453,183.48,127.8,182.937,128.092z M181.283,128.662c-0.789,0-1.449,0.254-1.983,0.759
					c-0.533,0.507-0.8,1.097-0.8,1.769c0,0.416,0.114,0.809,0.342,1.18c0.229,0.369,0.547,0.654,0.956,0.854s0.884,0.3,1.422,0.3
					c0.835,0,1.498-0.243,1.989-0.73c0.493-0.488,0.738-1.059,0.738-1.711c0-0.633-0.26-1.193-0.78-1.684
					S182.018,128.662,181.283,128.662z M181.228,123.793c-0.628,0-1.149,0.184-1.563,0.551c-0.413,0.367-0.62,0.805-0.62,1.314
					c0,0.503,0.223,0.959,0.667,1.367s0.963,0.613,1.557,0.613c0.379,0,0.737-0.094,1.075-0.278s0.602-0.438,0.791-0.759
					c0.19-0.32,0.285-0.644,0.285-0.967c0-0.457-0.188-0.879-0.562-1.264C182.482,123.985,181.94,123.793,181.228,123.793z"/>
				<path fill="#FFFFFF" d="M181.208,134.891c-1.346,0-2.389-0.395-3.098-1.171c-0.702-0.77-1.058-1.634-1.058-2.569
					c0-0.688,0.189-1.318,0.564-1.872c0.297-0.438,0.752-0.841,1.356-1.197c-0.381-0.258-0.686-0.558-0.907-0.897
					c-0.312-0.473-0.47-0.989-0.47-1.533c0-0.549,0.167-1.088,0.494-1.604c0.325-0.514,0.78-0.922,1.353-1.215
					c0.565-0.289,1.187-0.437,1.843-0.437c0.644,0,1.248,0.149,1.798,0.442c0.553,0.297,0.991,0.706,1.307,1.217
					c0.315,0.512,0.476,1.059,0.476,1.626c0,0.571-0.154,1.089-0.46,1.538c-0.216,0.316-0.508,0.604-0.876,0.857
					c0.581,0.343,1.021,0.729,1.312,1.151c0.367,0.536,0.554,1.152,0.554,1.831c0,0.942-0.315,1.785-0.936,2.505
					C183.699,134.444,182.605,134.891,181.208,134.891z M181.286,122.986c-0.562,0-1.092,0.126-1.573,0.373
					c-0.477,0.244-0.854,0.582-1.123,1.004c-0.267,0.42-0.401,0.854-0.401,1.287c0,0.433,0.122,0.828,0.372,1.209
					s0.637,0.707,1.148,0.97l0.522,0.269l-0.526,0.26c-0.748,0.371-1.286,0.792-1.599,1.253c-0.308,0.454-0.463,0.972-0.463,1.54
					c0,0.795,0.296,1.504,0.903,2.171c0.592,0.649,1.488,0.978,2.661,0.978c1.234,0,2.151-0.367,2.804-1.122
					c0.533-0.617,0.792-1.311,0.792-2.118c0-0.564-0.147-1.055-0.45-1.497c-0.304-0.442-0.825-0.849-1.548-1.204l-0.516-0.253
					l0.506-0.272c0.5-0.27,0.877-0.588,1.121-0.945c0.24-0.354,0.357-0.749,0.357-1.206c0-0.456-0.131-0.898-0.388-1.317
					c-0.259-0.42-0.623-0.757-1.083-1.003C182.342,123.112,181.831,122.986,181.286,122.986z M181.22,133.82
					c-0.581,0-1.104-0.111-1.552-0.331c-0.459-0.225-0.821-0.55-1.078-0.966c-0.256-0.415-0.386-0.864-0.386-1.334
					c0-0.754,0.301-1.421,0.893-1.982c0.589-0.559,1.324-0.84,2.187-0.84c0.809,0,1.512,0.274,2.086,0.816
					c0.58,0.546,0.874,1.186,0.874,1.898c0,0.73-0.277,1.377-0.826,1.92C182.87,133.545,182.131,133.82,181.22,133.82z
					 M181.283,128.959c-0.717,0-1.298,0.221-1.779,0.677c-0.478,0.452-0.708,0.96-0.708,1.554c0,0.363,0.098,0.699,0.298,1.023
					s0.473,0.568,0.834,0.745c0.367,0.179,0.802,0.271,1.292,0.271c0.76,0,1.343-0.211,1.781-0.646
					c0.438-0.434,0.651-0.925,0.651-1.5c0-0.552-0.225-1.031-0.688-1.469C182.496,129.172,181.945,128.959,181.283,128.959z
					 M181.268,127.934c-0.667,0-1.258-0.232-1.757-0.69c-0.505-0.465-0.762-0.999-0.762-1.585c0-0.594,0.242-1.111,0.719-1.535
					c0.468-0.415,1.06-0.625,1.76-0.625c0.792,0,1.411,0.224,1.842,0.666c0.428,0.441,0.646,0.936,0.646,1.471
					c0,0.375-0.109,0.752-0.326,1.117s-0.521,0.658-0.904,0.867C182.105,127.828,181.695,127.934,181.268,127.934z M181.228,124.089
					c-0.559,0-1.006,0.155-1.366,0.476c-0.351,0.312-0.521,0.67-0.521,1.094c0,0.42,0.188,0.796,0.572,1.149
					c0.391,0.36,0.835,0.534,1.355,0.534c0.326,0,0.642-0.081,0.933-0.241c0.294-0.161,0.517-0.373,0.68-0.649
					c0.161-0.273,0.243-0.549,0.243-0.816c0-0.381-0.156-0.727-0.478-1.058C182.326,124.248,181.863,124.089,181.228,124.089z"/>
			</g>
			<g>
				<path fill="#FFFFFF" d="M192.948,122.691l-4.756,13.16h-1.19l4.747-13.16H192.948z"/>
				<path fill="#FFFFFF" d="M188.4,136.146h-1.819l4.961-13.751h1.827L188.4,136.146z M187.423,135.555h0.562l4.543-12.568h-0.57
					L187.423,135.555z"/>
			</g>
			<g>
				<path fill="#FFFFFF" d="M196.356,122.977h2.25v11.334h-1.137v-10.225h-1.798L196.356,122.977z"/>
				<path fill="#FFFFFF" d="M198.902,134.605h-1.728v-10.225h-2.033l1.051-1.7h2.71V134.605z M197.766,134.014h0.544v-10.742h-1.788
					l-0.319,0.519h1.563V134.014z"/>
			</g>
			<g>
				<path fill="#FFFFFF" d="M205.299,134.596l-0.941-0.602l3.098-4.641c-0.416,0.135-0.806,0.203-1.169,0.203
					c-0.91,0-1.682-0.326-2.315-0.975c-0.635-0.65-0.952-1.451-0.952-2.4c0-0.652,0.153-1.24,0.46-1.765
					c0.306-0.524,0.74-0.942,1.303-1.256s1.166-0.47,1.81-0.47c0.634,0,1.219,0.151,1.755,0.454
					c0.538,0.304,0.959,0.728,1.265,1.271c0.307,0.544,0.46,1.125,0.46,1.741c0,0.467-0.096,0.957-0.285,1.468
					c-0.188,0.512-0.527,1.126-1.016,1.845L205.299,134.596z M206.55,128.562c0.671,0,1.239-0.232,1.707-0.697
					c0.467-0.465,0.7-1.025,0.7-1.684c0-0.657-0.235-1.219-0.705-1.684s-1.039-0.697-1.708-0.697c-0.664,0-1.23,0.232-1.701,0.697
					c-0.47,0.465-0.703,1.026-0.703,1.684c0,0.658,0.234,1.219,0.705,1.684C205.316,128.33,205.884,128.562,206.55,128.562z"/>
				<path fill="#FFFFFF" d="M205.383,134.999l-1.439-0.918l2.849-4.267c-0.174,0.025-0.343,0.037-0.506,0.037
					c-0.988,0-1.839-0.357-2.527-1.063c-0.688-0.704-1.035-1.581-1.035-2.606c0-0.703,0.167-1.347,0.499-1.914
					c0.331-0.568,0.808-1.027,1.415-1.365c0.605-0.336,1.263-0.507,1.953-0.507c0.682,0,1.32,0.166,1.9,0.493
					c0.582,0.328,1.046,0.793,1.378,1.383c0.33,0.588,0.496,1.223,0.496,1.887c0,0.5-0.102,1.029-0.303,1.57
					c-0.196,0.531-0.549,1.174-1.048,1.909L205.383,134.999z M204.771,133.907l0.443,0.284l3.31-4.886
					c0.474-0.696,0.804-1.296,0.983-1.782c0.177-0.476,0.267-0.936,0.267-1.365c0-0.562-0.142-1.1-0.421-1.596
					c-0.278-0.494-0.666-0.885-1.152-1.159c-0.49-0.276-1.032-0.417-1.61-0.417c-0.589,0-1.149,0.146-1.665,0.434
					c-0.514,0.285-0.915,0.671-1.192,1.146c-0.278,0.475-0.419,1.019-0.419,1.615c0,0.878,0.284,1.596,0.867,2.193
					c0.581,0.596,1.271,0.885,2.104,0.885c0.331,0,0.693-0.062,1.076-0.188l0.812-0.266L204.771,133.907z M206.55,128.857
					c-0.743,0-1.386-0.263-1.912-0.781c-0.526-0.521-0.794-1.158-0.794-1.895s0.267-1.373,0.792-1.895
					c0.525-0.52,1.167-0.782,1.908-0.782c0.747,0,1.393,0.263,1.916,0.782c0.526,0.521,0.793,1.158,0.793,1.895
					c0,0.735-0.265,1.373-0.788,1.893C207.942,128.595,207.298,128.857,206.55,128.857z M206.544,124.097
					c-0.588,0-1.076,0.2-1.493,0.611c-0.414,0.411-0.615,0.893-0.615,1.474c0,0.58,0.202,1.062,0.617,1.473
					c0.418,0.412,0.906,0.612,1.497,0.612c0.595,0,1.084-0.2,1.498-0.611c0.412-0.411,0.614-0.894,0.614-1.474
					s-0.203-1.062-0.617-1.474C207.629,124.297,207.138,124.097,206.544,124.097z"/>
			</g>
		</g>
	</g>
	<g>
		<g>
			<g>
				<path fill="#FFFFFF" d="M162.601,13.881H151.8v-1.615h4.55v-0.399h-3.482v-1.608h3.482V9.778
					c-0.459,0.033-1.547,0.05-3.267,0.05c-0.184-0.631-0.353-1.087-0.504-1.369c3.378,0.049,5.981-0.152,7.811-0.603l1.468,1.265
					c-1.481,0.271-2.755,0.457-3.819,0.56v0.577h3.481v1.608h-3.481l0.012,0.399h4.551V13.881z M153.286,7.74V3.49h7.86v4.25
					H153.286z M154.932,6.131h4.562V5.062h-4.562V6.131z"/>
			</g>
			<g>
				<path fill="#FFFFFF" d="M165.758,12.757h-0.038c-0.069,0.581-0.236,1.085-0.503,1.511c-0.184-0.282-0.596-0.526-1.234-0.731
					c0.2-0.359,0.359-0.912,0.479-1.657c0.12-0.745,0.179-1.441,0.179-2.088V5.277h1.946v-1.64c0-0.049-0.038-0.096-0.114-0.141
					c-0.075-0.045-0.113-0.103-0.113-0.172c0-0.082,0.099-0.123,0.295-0.123h1.443v0.491h2.278v1.191h-2.278v0.393h2.413v1.8h-1.357
					v-0.78h-1.142v0.209l0.977-0.037l0.055,0.816l-1.031,0.044v0.11c0,0.041,0.045,0.061,0.136,0.061h0.944
					c0.106,0,0.19-0.107,0.253-0.325c0.307,0.155,0.679,0.252,1.116,0.289c-0.085,0.348-0.177,0.564-0.273,0.65
					c-0.096,0.086-0.209,0.129-0.341,0.129h-2.578c-0.438,0-0.656-0.163-0.656-0.491V7.39l-0.614,0.037v3.371h4.604v1.283
					c0.271-0.311,0.494-0.729,0.67-1.256c0.176-0.525,0.297-1.529,0.362-3.012h-0.995V6.31h1.02V3.706
					c0-0.058-0.041-0.112-0.12-0.163c-0.08-0.052-0.119-0.115-0.119-0.193c0-0.099,0.087-0.147,0.265-0.147h1.583v1.02l0.982-0.405
					c0.516,0.704,0.854,1.304,1.014,1.799c-0.499,0.131-0.965,0.327-1.395,0.59c-0.105-0.442-0.302-0.936-0.589-1.48h-0.013V6.31
					h1.658v1.504h-1.485c0.188,1.924,0.88,3.599,2.075,5.023c-0.701,0.822-1.064,1.3-1.093,1.431
					c-0.803-0.852-1.376-1.863-1.721-3.033h-0.023c-0.147,1.007-0.655,2.018-1.523,3.033c-0.147-0.213-0.354-0.426-0.619-0.639
					c-0.234,0.417-0.74,0.626-1.518,0.626c-0.062-0.426-0.184-0.807-0.368-1.142c0.421-0.005,0.641-0.019,0.657-0.043
					c0.016-0.024,0.024-0.078,0.024-0.16v-0.405c-0.033,0.013-0.076,0.035-0.13,0.068v0.398h-0.626v1.007h-1.081V12.96l-0.49,0.012
					v-0.325c-0.046-0.049-0.089-0.08-0.129-0.092v1.676h-1.117V12.757z M166.611,6.586V6.297h-0.614V6.61L166.611,6.586z
					 M170.7,8.342v0.872h-4.643V8.342H170.7z M166.273,10.669V9.287h4.102v1.382H166.273z M166.888,11.664l-0.013,0.35
					c0.11-0.062,0.212-0.178,0.307-0.35H166.888z M169.152,9.927h-1.695v0.178h1.695V9.927z M168.575,11.688v-0.024h-0.841v0.024
					l0.301,0.129c-0.074,0.131-0.142,0.239-0.202,0.325h0.527l-0.19-0.337L168.575,11.688z M169.331,11.664h-0.277
					c0.091,0.188,0.188,0.305,0.29,0.35L169.331,11.664z"/>
			</g>
		</g>
		<g>
			<g>
				<path fill="#FFFFFF" d="M75.424,4.346h5.204V1.913c0-0.087-0.046-0.145-0.14-0.174c-0.094-0.028-0.141-0.079-0.141-0.15
					c0-0.125,0.089-0.188,0.267-0.188h2.08v2.944h5.379v1.887h-5.17c0.154,1.267,0.731,2.482,1.732,3.646
					c1,1.164,2.305,2.118,3.913,2.862c-0.645,0.542-1.102,1.135-1.375,1.778c-0.961-0.442-1.927-1.131-2.898-2.066
					c-0.972-0.937-1.662-1.791-2.069-2.563L81.81,9.141h-0.043c-1.134,2.573-2.913,4.36-5.343,5.364
					c-0.298-0.677-0.749-1.26-1.354-1.75c1.7-0.475,2.999-1.393,3.898-2.754c0.9-1.36,1.405-2.612,1.516-3.754l-0.028-0.015h-5.032
					V4.346z M80.19,12.071l1.647-0.914c0.879,0.69,1.493,1.408,1.844,2.152c-0.854,0.403-1.439,0.703-1.757,0.9
					C81.513,13.456,80.934,12.743,80.19,12.071z"/>
			</g>
			<g>
				<path fill="#FFFFFF" d="M100.076,12.727c-0.725,0.825-1.328,1.375-1.813,1.648c-0.639-0.519-1.17-0.837-1.592-0.957
					c1.411-0.667,2.424-1.817,3.039-3.449h-0.367c-0.769,1.561-1.895,2.758-3.377,3.593c-0.558-0.609-0.979-0.962-1.267-1.059
					c0.402-0.139,0.927-0.492,1.572-1.059c0.646-0.565,1.093-1.058,1.343-1.476h-0.31c-0.562,0.821-1.327,1.521-2.297,2.103
					c-0.322-0.384-0.799-0.688-1.433-0.914c1.291-0.653,2.182-1.649,2.672-2.988h-1.152c0.048,0.207,0.071,0.418,0.071,0.634
					c0,1.253-0.807,2.05-2.419,2.391c-0.015-0.23-0.048-0.443-0.101-0.638s-0.112-0.39-0.18-0.587h-0.028v4.378h-1.815V1.668h3.852
					l0.871,0.525l-0.518,1.462l-0.856,2.238c0.351,0.438,0.646,0.905,0.886,1.404H94.9V6.557h8.424v1.612h-5.235
					c-0.028,0.135-0.064,0.237-0.107,0.31h5.177v4.169c-0.058,0.422-0.269,0.812-0.634,1.166c-0.365,0.355-0.969,0.538-1.814,0.548
					c-0.106-0.716-0.302-1.261-0.591-1.635H100.076z M92.438,5.627h0.014l0.684-2.224h-0.697V5.627z M92.438,6.218v3.204
					c0.316,0.033,0.55-0.053,0.701-0.259c0.151-0.207,0.227-0.456,0.227-0.749c0-0.634-0.305-1.366-0.914-2.196H92.438z
					 M102.352,6.341h-6.652V1.668h6.652V6.341z M97.412,3.374h3.169V3.107h-3.169V3.374z M97.412,4.95h3.169V4.699h-3.169V4.95z
					 M101.495,9.969h-0.137c-0.284,0.927-0.626,1.735-1.029,2.427l0.597-0.008c0.317-0.005,0.495-0.213,0.533-0.626
					s0.058-0.729,0.058-0.95C101.517,10.566,101.509,10.286,101.495,9.969z"/>
			</g>
			<g>
				<path fill="#FFFFFF" d="M108.53,6.427v2.967c0.428-0.067,0.756-0.146,0.986-0.238c0.076-0.479,0.115-1.1,0.115-1.857v-3.14
					h3.558c-0.082-0.796-0.133-1.677-0.152-2.642l1.901-0.101c0,0.234,0.041,1.149,0.122,2.742h3.319V6.03h-3.175
					c0.115,1.104,0.264,1.911,0.446,2.42h0.028c0.27-0.596,0.479-1.313,0.634-2.153l1.706,0.525
					c-0.293,1.522-0.763,2.854-1.41,3.996c0.263,0.533,0.432,0.8,0.503,0.8c0.053,0,0.087-0.355,0.101-1.066
					c0.456,0.442,0.944,0.714,1.463,0.813c-0.025,1.34-0.152,2.179-0.383,2.517c-0.23,0.339-0.473,0.508-0.728,0.508
					c-0.705,0-1.438-0.619-2.195-1.857c-0.796,0.878-1.5,1.512-2.109,1.9c-0.351-0.677-0.847-1.123-1.491-1.339
					c0.927-0.398,1.804-1.229,2.629-2.491c-0.226-0.591-0.422-1.308-0.591-2.152h-0.028c0,1.517-0.071,2.535-0.213,3.056
					c-0.142,0.521-0.814,0.906-2.02,1.156c0-0.557-0.142-0.979-0.424-1.268c-0.293,1.08-0.869,2.068-1.729,2.967
					c-0.547-0.696-1.13-1.109-1.75-1.239c0.821-0.729,1.342-1.413,1.562-2.052l-3.514,1.325c-0.191-1.027-0.333-1.759-0.425-2.196
					c0.466-0.081,0.944-0.194,1.434-0.338V6.427h-1.304V4.598h1.304V2.531c0-0.076-0.063-0.148-0.188-0.216
					c-0.125-0.067-0.188-0.146-0.188-0.237c0-0.139,0.12-0.209,0.36-0.209h1.843v2.729h0.93v1.829H108.53z M112.08,8.889h-0.648
					c0,0.615-0.069,1.243-0.209,1.887c0.471-0.005,0.725-0.072,0.764-0.202C112.025,10.444,112.057,9.883,112.08,8.889z
					 M111.519,7.133h1.995l-0.166-1.103h-1.829V7.133z M115.118,2.165l1.548-0.691c0.437,0.379,0.919,0.942,1.447,1.691
					c-0.518,0.163-1.061,0.435-1.627,0.813C116.142,3.369,115.685,2.765,115.118,2.165z"/>
			</g>
			<g>
				<path fill="#FFFFFF" d="M128.67,7.413h4.349v1.49h-4.91v0.41h5.37v1.714h-3.47v0.029c0.518,0.321,1.188,0.617,2.009,0.889
					s1.425,0.421,1.813,0.45c-0.494,0.475-0.868,1.056-1.122,1.742c-1.906-0.423-3.426-1.197-4.559-2.325h-0.042v2.592h-1.915
					v-2.606c0-0.033-0.005-0.051-0.015-0.051c-1.35,1.182-2.858,1.958-4.529,2.333c-0.249-0.552-0.657-1.092-1.224-1.62
					c1.685-0.336,2.895-0.804,3.629-1.403l-0.028-0.029h-3.248V9.313h5.415v-0.41h-3.744V5.426h-0.051
					c-0.163,0.23-0.465,0.466-0.907,0.706c-0.172-0.485-0.552-0.996-1.138-1.534c1.287-0.931,2.273-2.061,2.959-3.391l1.923,0.446
					c-0.087,0.211-0.24,0.461-0.46,0.749h1.914c0.102-0.25,0.212-0.639,0.331-1.166l2.182,0.237
					c-0.129,0.379-0.249,0.679-0.36,0.899l0.051,0.029h3.816V3.85h-4.039v0.41h3.196v1.166h-3.196v0.411h3.196v1.166h-3.196V7.413z
					 M124.263,3.85v0.41h2.448V3.85H124.263z M124.263,5.426v0.411h2.448V5.426H124.263z M124.263,7.003v0.41h2.448v-0.41H124.263z"
					/>
			</g>
			<g>
				<path fill="#FFFFFF" d="M146.39,14.39v-0.339h-8.546v0.339h-1.742V1.711h12.132V14.39H146.39z M138.772,4.908h2.447l0.015-0.174
					h-3.082V3.554h3.067v-0.28h-3.376v9.216h2.49c-0.369-0.533-0.738-0.965-1.108-1.296l0.396-0.137v-0.044h-1.562V9.832h5.472
					c-0.005-0.028-0.005-0.074,0-0.137s-0.01-0.115-0.043-0.158l-5.091,0.122l-0.396-1.181c0.652,0.02,1.726,0.028,3.218,0.028
					V8.284h-2.447V4.908z M140.227,6.117h0.993v-0.28h-0.993V6.117z M140.227,7.355h0.993v-0.31h-0.993V7.355z M142.999,12.489
					c-0.201-0.581-0.409-0.97-0.62-1.166c0.808,0.033,1.19-0.07,1.152-0.311h-2.312c0.321,0.341,0.553,0.617,0.692,0.828
					c-0.549,0.173-0.956,0.389-1.225,0.648H142.999z M145.511,8.284h-0.374l0.771,1.109c-0.23,0.028-0.465,0.062-0.705,0.101v0.338
					h1.044v1.181h-1.044v0.749c-0.053,0.346-0.23,0.573-0.533,0.684v0.044h1.721V3.273h-3.434v0.28h3.095v1.181h-3.109l-0.015,0.174
					h2.584V8.284z M142.956,6.117h0.972v-0.28h-0.972V6.117z M142.956,7.355h0.972v-0.31h-0.972V7.355z M142.956,8.493l0.798-0.043
					l-0.164-0.166h-0.634V8.493z"/>
			</g>
		</g>
	</g>
</g>
</svg>
