<?xml version="1.0" encoding="utf-8"?>
<!-- Generator: Adobe Illustrator 16.0.3, SVG Export Plug-In . SVG Version: 6.00 Build 0)  -->
<!DOCTYPE svg PUBLIC "-//W3C//DTD SVG 1.1//EN" "http://www.w3.org/Graphics/SVG/1.1/DTD/svg11.dtd">
<svg version="1.1" id="图层_1" xmlns="http://www.w3.org/2000/svg" xmlns:xlink="http://www.w3.org/1999/xlink" x="0px" y="0px"
	 width="156.407px" height="11.849px" viewBox="0 0 156.407 11.849" enable-background="new 0 0 156.407 11.849"
	 xml:space="preserve">
<g>
	<g>
		<path fill="#FFFFFF" d="M1.308,9.689H0.629v1.738h2.372v0.146l-2.533,0.004V9.689H0V9.545h0.468v-0.73h0.161v0.73h0.679V8.622
			h0.158v0.923h0.733V8.622h0.153v0.923h0.837v0.145H2.353v1.137H1.31L1.308,9.689z M2.199,9.689H1.466v0.991h0.733V9.689z"/>
		<path fill="#FFFFFF" d="M4.782,10.016c-0.32,0.454-0.807,0.701-1.261,0.93l-0.109-0.109c0.429-0.195,0.872-0.431,1.194-0.82H3.997
			V8.647h2.127v1.368H5.525c0.282,0.417,0.743,0.636,1.18,0.792l-0.108,0.105c-0.466-0.167-0.953-0.437-1.224-0.897H4.782z
			 M4.454,10.481h0.149v0.341c0,0.365-0.379,0.82-0.86,0.939l-0.119-0.099c0.345-0.097,0.83-0.435,0.83-0.835V10.481z M4.966,8.778
			h-0.82v0.465h0.82V8.778z M4.966,9.373h-0.82v0.513h0.82V9.373z M5.976,8.778h-0.86v0.465h0.86V8.778z M5.976,9.373h-0.86v0.513
			h0.86V9.373z M5.472,11.772v-1.3h0.147v1.3H5.472z"/>
		<path fill="#FFFFFF" d="M6.858,11.675c0.395-0.287,0.631-0.727,0.762-1.165H7.014v-0.102C7.246,10.202,7.407,9.94,7.54,9.689
			H6.956V9.552H7.76c-0.14,0.29-0.296,0.581-0.527,0.82l0.584,0.004c-0.088,0.257-0.178,0.512-0.299,0.758
			c0.124,0.156,0.299,0.28,0.478,0.353c0.188,0.076,0.388,0.127,0.608,0.123l1.256-0.011l0.259-0.021L10.03,11.74l-1.513-0.004
			c-0.414,0-0.789-0.167-1.061-0.494c-0.131,0.199-0.294,0.39-0.479,0.527L6.858,11.675z M7.206,8.626
			C7.33,8.808,7.444,8.981,7.552,9.174L7.424,9.239c-0.105-0.186-0.221-0.37-0.349-0.548L7.206,8.626z M8.531,11.353
			C8.365,10.88,8.16,10.419,7.906,9.986c0.219-0.421,0.404-0.863,0.55-1.312l0.133,0.047C8.419,9.254,8.236,9.605,8.07,9.983
			c0.254,0.443,0.487,0.98,0.6,1.3L8.531,11.353z M9.275,8.721C9.144,9.116,8.931,9.616,8.773,9.958
			c0.241,0.418,0.436,0.85,0.617,1.292c-0.046,0.02-0.086,0.047-0.129,0.069C9.08,10.851,8.869,10.39,8.61,9.962
			c0.217-0.421,0.396-0.843,0.538-1.293L9.275,8.721z M9.889,11.283c-0.167-0.53-0.348-0.887-0.565-1.318
			c0.22-0.472,0.369-0.886,0.511-1.28l0.131,0.044c-0.138,0.42-0.294,0.834-0.489,1.233c0.214,0.403,0.392,0.82,0.54,1.248
			L9.889,11.283z"/>
		<path fill="#FFFFFF" d="M11.16,10.314c-0.041,0.253-0.107,0.497-0.193,0.729c0.2,0.254,0.422,0.49,0.927,0.49
			c0.602,0,0.885,0.003,1.701-0.018l-0.064,0.155h-1.627c-0.362,0-0.772-0.13-0.99-0.479c-0.13,0.239-0.24,0.431-0.479,0.635
			l-0.097-0.112c0.254-0.214,0.417-0.49,0.524-0.773c0.062-0.159,0.102-0.323,0.138-0.494h-0.572v-0.133
			c0.231-0.247,0.435-0.52,0.599-0.789h-0.65V9.391h0.817l-0.003,0.143c-0.197,0.294-0.353,0.53-0.567,0.781H11.16z M10.888,9.229
			c-0.076-0.191-0.179-0.373-0.297-0.548l0.126-0.066c0.109,0.182,0.221,0.363,0.301,0.556L10.888,9.229z M13.171,11.308v-0.326
			h-1.586v0.344h-0.146V8.748l1.876-0.003v2.562H13.171z M11.585,8.884v1.96h1.586v-1.96H11.585z M12.017,10.335V9.29l0.737,0.004
			v1.041H12.017z M12.608,9.421l-0.454-0.004v0.791h0.457L12.608,9.421z"/>
		<path fill="#FFFFFF" d="M14.572,10.518c-0.103,0.326-0.251,0.637-0.414,0.943c-0.062,0.116-0.134,0.234-0.211,0.337l-0.141-0.073
			c0.312-0.392,0.49-0.845,0.654-1.302L14.572,10.518z M14.369,10.045c-0.148-0.206-0.327-0.37-0.52-0.537l0.124-0.083
			c0.182,0.145,0.361,0.322,0.504,0.509L14.369,10.045z M14.075,8.571c0.173,0.157,0.338,0.312,0.487,0.49l-0.118,0.112
			c-0.145-0.189-0.304-0.342-0.485-0.505L14.075,8.571z M15.37,11.242c-0.185,0.222-0.475,0.446-0.719,0.577l-0.119-0.108
			c0.258-0.138,0.519-0.32,0.723-0.557L15.37,11.242z M15.836,8.88c-0.092-0.108-0.218-0.203-0.339-0.279l0.08-0.098
			c0.128,0.047,0.32,0.232,0.381,0.293L15.901,8.88h0.975v0.509h-0.145V9.011h-1.818v0.38h-0.145V8.88H15.836z M15.051,9.48V9.349
			h1.518V9.48h-0.687v0.373h0.822v1.186h-1.783V9.854h0.816V9.48H15.051z M15.737,9.983h-0.672v0.373h0.672V9.983z M15.065,10.487
			v0.422h0.672v-0.422H15.065z M16.558,9.983h-0.676v0.373h0.676V9.983z M16.558,10.487h-0.676v0.422h0.676V10.487z M16.913,11.798
			c-0.196-0.207-0.435-0.37-0.664-0.522l0.076-0.112c0.236,0.148,0.464,0.308,0.667,0.504L16.913,11.798z"/>
		<path fill="#FFFFFF" d="M18.173,10.869h-0.156v-0.229h-0.5v0.341h-0.152V8.808h0.809V10.869z M17.514,8.949v1.55h0.507v-1.55
			H17.514z M18.398,10.154h1.914v1.579h-0.157v-0.265h-1.604v0.271h-0.153V10.154z M18.552,10.88v0.443l1.604,0.002V10.88H18.552z
			 M18.554,9.81V8.626h1.564V9.81H18.554z M18.554,10.296v0.442h1.602l0.004-0.442H18.554z M18.704,8.765v0.352h1.259V8.765H18.704z
			 M18.704,9.254v0.417l1.259-0.003V9.254H18.704z"/>
		<path fill="#FFFFFF" d="M22.326,8.576c0.436,0.416,0.955,0.696,1.484,0.907l0.127,0.05l-0.119,0.109
			c-0.556-0.247-1.107-0.523-1.578-0.962c-0.4,0.418-0.89,0.703-1.381,0.947l-0.116,0.043c-0.035-0.039-0.062-0.068-0.102-0.108
			c0.434-0.148,0.832-0.41,1.198-0.705c0.156-0.122,0.305-0.264,0.418-0.424l0.119,0.072L22.326,8.576z M23.463,9.628v0.822h-2.367
			V9.628H23.463z M21.249,9.766l-0.004,0.549h0.946V9.762L21.249,9.766z M21.339,11.833v-1.148l1.88,0.003v1.143h-0.152v-0.226
			l-1.574-0.003l-0.004,0.231H21.339z M21.488,11.199l0.004,0.27h1.574v-0.27H21.488z M23.066,10.822h-1.574v0.247h1.574V10.822z
			 M21.848,10.288c-0.099-0.134-0.214-0.287-0.346-0.41l0.113-0.088c0.142,0.123,0.258,0.273,0.358,0.425L21.848,10.288z
			 M21.63,9.275h1.263v0.132l-1.259,0.002L21.63,9.275z M23.31,9.762h-0.966l0.005,0.553h0.961V9.762z M23.081,9.86
			c-0.108,0.155-0.265,0.319-0.417,0.436l-0.095-0.112c0.145-0.128,0.283-0.25,0.389-0.406L23.081,9.86z"/>
		<path fill="#FFFFFF" d="M24.247,11.556c0.142,0,0.319,0.076,0.439-0.025c0.182-0.186,0.214-0.684,0.225-1.307
			c-0.192,0.232-0.432,0.395-0.661,0.569l-0.097-0.112c0.261-0.175,0.533-0.378,0.729-0.629c-0.036-0.271-0.109-0.536-0.206-0.697
			c-0.142,0.117-0.277,0.232-0.41,0.338l-0.102-0.108c0.159-0.12,0.304-0.231,0.453-0.363c-0.112-0.188-0.268-0.37-0.436-0.516
			l0.108-0.102c0.149,0.149,0.316,0.331,0.433,0.52c0.116-0.101,0.235-0.229,0.326-0.358c0.029,0.018,0.069,0.061,0.102,0.086
			c-0.102,0.142-0.236,0.272-0.358,0.396c0.318,0.661,0.268,1.383,0.195,1.855c-0.036,0.231-0.076,0.552-0.362,0.609
			c-0.112,0.022-0.243-0.003-0.349-0.007L24.247,11.556z M25.775,9.565c-0.043,0.051-0.076,0.124-0.123,0.171h1.592
			c0.005,0.545,0.016,1.075-0.086,1.597c-0.024,0.143-0.077,0.327-0.235,0.392c-0.14,0.041-0.295,0.016-0.446,0.009l-0.052-0.146
			c0.13,0.014,0.247,0.028,0.374,0.032c0.072,0,0.139-0.054,0.167-0.116c0.135-0.381,0.144-0.802,0.149-1.219l0.003-0.414h-1.547
			c-0.123,0.159-0.243,0.305-0.38,0.457l-0.091-0.095c0.073-0.091,0.156-0.178,0.228-0.269c0.12-0.155,0.247-0.309,0.349-0.478
			L25.775,9.565z M26.12,9.983v0.305l0.613-0.003v0.631h-0.61v0.356c0.131-0.016,0.263-0.052,0.396-0.062l-0.104-0.135l0.112-0.068
			c0.024,0.025,0.046,0.064,0.072,0.099c0.083,0.104,0.148,0.224,0.218,0.336l-0.121,0.074c-0.031-0.062-0.065-0.128-0.107-0.187
			l-0.781,0.128l-0.487,0.079l-0.054-0.129l0.715-0.11l-0.003-0.378l-0.599-0.003v-0.628l0.602-0.003V9.979L26.12,9.983z
			 M27.244,8.694l-0.002,0.763h-1.964V8.698L27.244,8.694z M25.885,8.825h-0.461v0.502h0.461V8.825z M25.521,10.423v0.366h0.458
			v-0.366H25.521z M26.497,8.825H26.03v0.502h0.467V8.825z M26.592,10.423H26.12v0.366h0.472V10.423z M27.101,8.825h-0.465
			c-0.008,0.152,0.004,0.327,0,0.502h0.465V8.825z"/>
		<path fill="#FFFFFF" d="M27.723,10.924c0.479-0.178,0.976-0.367,1.378-0.727c-0.025-0.08-0.083-0.159-0.131-0.235
			c-0.015-0.015-0.017-0.033-0.035-0.044c-0.35,0.171-0.716,0.309-1.097,0.406l-0.109-0.112c0.504-0.148,1.012-0.312,1.451-0.609
			l-1.132-0.007V9.454h2.178l-0.004,0.142h-0.794C29.305,9.7,29.177,9.784,29.04,9.863c0.14,0.17,0.235,0.367,0.326,0.563
			c0.283-0.164,0.558-0.345,0.799-0.593l0.118,0.1c-0.075,0.089-0.163,0.162-0.26,0.232l-0.226,0.158
			c0.229,0.425,0.49,0.863,0.922,1.145l-0.113,0.115c-0.422-0.29-0.701-0.748-0.938-1.169l-0.248,0.139
			c0.131,0.359,0.2,0.862-0.048,1.192c-0.046,0.066-0.146,0.103-0.231,0.1c-0.105-0.005-0.214-0.013-0.315-0.021l-0.048-0.175
			l0.349,0.055c0.047,0.007,0.088-0.004,0.12-0.059c0.148-0.229,0.159-0.548,0.095-0.819c-0.461,0.406-1.002,0.656-1.546,0.882
			c-0.045-0.03-0.091-0.07-0.132-0.106c0.494-0.186,0.966-0.431,1.41-0.74c0.071-0.061,0.158-0.126,0.22-0.199
			c-0.037-0.108-0.068-0.218-0.123-0.32c-0.156,0.125-0.32,0.237-0.494,0.32l-0.515,0.247l-0.31,0.119L27.723,10.924z M29.101,8.92
			c-0.051-0.108-0.112-0.218-0.195-0.316c0.04-0.021,0.091-0.039,0.138-0.054c0.087,0.116,0.156,0.246,0.221,0.37l1.354,0.003V9.48
			l-0.152-0.006V9.066l-2.642-0.005V9.49h-0.156V8.92H29.101z"/>
		<path fill="#FFFFFF" d="M31.555,9.555c-0.138,0.232-0.283,0.487-0.456,0.701l-0.103-0.09c0.37-0.521,0.643-1.079,0.87-1.656
			l0.128,0.068c-0.079,0.233-0.191,0.476-0.287,0.701v2.569h-0.152V9.555z M32.944,9.596l0.011,0.13l0.139-0.012l0.999-0.098
			l0.024,0.143l-1.14,0.116c0.073,0.512,0.203,1.017,0.592,1.382c0.12,0.115,0.214,0.247,0.367,0.31
			c0.031,0.014,0.057,0.018,0.075-0.041c0.038-0.123,0.069-0.246,0.113-0.371l0.134,0.136l-0.146,0.396
			c-0.021,0.035-0.044,0.064-0.084,0.075c-0.111,0.015-0.184-0.075-0.274-0.124c-0.421-0.332-0.74-0.776-0.85-1.272
			c-0.032-0.153-0.065-0.31-0.087-0.465l-0.9,0.083c-0.012-0.05-0.018-0.095-0.025-0.149L32.8,9.743l-0.029-0.524V8.513h0.164
			L32.944,9.596z M33.369,8.681c0.189,0.151,0.381,0.352,0.531,0.54l-0.113,0.091c-0.146-0.192-0.337-0.37-0.512-0.533L33.369,8.681
			z"/>
		<path fill="#FFFFFF" d="M34.456,11.323c0.182-0.069,0.356-0.163,0.533-0.244V10.03h-0.41V9.9h0.407V9.014h-0.44v-0.13h1.06v0.127
			h-0.475v0.894h0.422v0.126h-0.422v0.98l0.475-0.229v0.142l-1.051,0.518L34.456,11.323z M35.563,11.725v-0.129h0.946v-0.696h-0.809
			v-0.132h0.809v-0.512h-0.726V8.771h1.619v1.484h-0.752v0.512h0.856v0.132h-0.856v0.696h0.997v0.129H35.563z M35.93,8.902v0.525
			h0.58V8.902H35.93z M35.93,9.555v0.569h0.58V9.555H35.93z M36.651,8.902v0.525h0.606V8.902H36.651z M37.258,9.555h-0.606v0.569
			h0.606V9.555z"/>
		<path fill="#FFFFFF" d="M38.896,10.401c-0.095-0.164-0.204-0.319-0.33-0.461v1.884h-0.139V9.942
			c-0.136,0.414-0.301,0.787-0.452,1.061l-0.104-0.072c0.248-0.473,0.463-0.977,0.556-1.51h-0.489V9.286h0.489V8.547
			c0.044-0.004,0.095,0,0.139,0v0.739h0.393v0.135h-0.393V9.91l0.104-0.047c0.128,0.149,0.24,0.297,0.331,0.461L38.896,10.401z
			 M41.019,11.74c-0.033,0.044-0.064,0.079-0.127,0.069c-0.128-0.019-0.229-0.105-0.322-0.189c-0.106-0.09-0.187-0.206-0.258-0.319
			c-0.31,0.193-0.566,0.322-0.9,0.476l-0.095-0.099c0.355-0.155,0.625-0.3,0.927-0.49c-0.08-0.173-0.153-0.361-0.2-0.569h-0.744
			l-0.02,0.178c0.179,0.113,0.36,0.25,0.51,0.407l-0.078,0.098c-0.144-0.138-0.282-0.258-0.449-0.366
			c-0.087,0.335-0.269,0.621-0.5,0.875c-0.04-0.019-0.076-0.048-0.113-0.076c0.283-0.319,0.505-0.679,0.513-1.111h-0.353v-0.131
			h0.362v-0.258l0.131-0.003v0.266h0.712c-0.055-0.328-0.105-0.665-0.112-1.006l-0.015-0.683l0.003-0.305l0.146,0.007
			c-0.019,0.693,0.028,1.455,0.135,1.989h0.968v0.13h-0.942c0.032,0.153,0.091,0.326,0.17,0.477
			c0.152-0.106,0.286-0.236,0.425-0.376c0.032,0.027,0.066,0.053,0.094,0.085c-0.145,0.152-0.297,0.283-0.457,0.406
			c0.095,0.167,0.24,0.327,0.414,0.425c0.055,0.029,0.072,0,0.083-0.032c0.048-0.131,0.088-0.269,0.109-0.41l0.127,0.08
			C41.127,11.441,41.076,11.643,41.019,11.74z M39.721,10.241l-0.052-0.189c-0.215,0.023-0.425,0.065-0.632,0.108l-0.03-0.127
			c0.164-0.194,0.306-0.412,0.437-0.626c-0.134,0.007-0.258,0.014-0.402,0.029l-0.026-0.143c0.171-0.21,0.316-0.438,0.433-0.68
			c0.036,0.019,0.072,0.037,0.105,0.062c-0.102,0.218-0.229,0.436-0.385,0.632l0.352-0.026c0.073-0.123,0.138-0.25,0.203-0.377
			l0.116,0.059c-0.195,0.359-0.392,0.726-0.653,1.042c0.142-0.022,0.298-0.044,0.443-0.07C39.603,9.86,39.57,9.78,39.541,9.704
			c0.037-0.022,0.076-0.041,0.103-0.055c0.082,0.173,0.146,0.359,0.195,0.548C39.802,10.212,39.759,10.23,39.721,10.241z
			 M40.957,10.197l-0.073-0.211c-0.232,0.033-0.479,0.077-0.696,0.127l-0.036-0.134c0.16-0.17,0.312-0.374,0.446-0.591
			c-0.127,0.011-0.286,0.025-0.435,0.039l-0.026-0.134c0.182-0.21,0.326-0.45,0.428-0.697l0.113,0.059
			c-0.113,0.222-0.229,0.443-0.392,0.639l0.381-0.029l0.182-0.362c0.028,0.007,0.08,0.032,0.116,0.051
			c-0.175,0.392-0.375,0.715-0.624,1.005c0.163-0.033,0.33-0.058,0.493-0.087c-0.025-0.069-0.062-0.142-0.099-0.211l0.115-0.047
			c0.097,0.171,0.172,0.352,0.226,0.541L40.957,10.197z M40.726,10.473c-0.124-0.101-0.244-0.185-0.366-0.246l0.075-0.094
			c0.127,0.061,0.246,0.148,0.358,0.243C40.779,10.408,40.75,10.441,40.726,10.473z"/>
		<path fill="#FFFFFF" d="M41.828,9.954c-0.105,0.287-0.231,0.609-0.373,0.893l-0.113-0.108c0.215-0.424,0.425-0.853,0.49-1.339
			v-0.04l-0.467-0.005v-0.13h0.463l-0.002-0.729h0.151v0.729h0.417v0.13h-0.417v2.437h-0.156L41.828,9.954z M42.278,10.394
			c-0.071-0.179-0.134-0.36-0.225-0.53l0.123-0.057c0.085,0.17,0.156,0.348,0.232,0.521L42.278,10.394z M44.218,11.596
			c0,0.05-0.03,0.177-0.183,0.181c-0.058,0.01-0.253,0.015-0.354,0c-0.013-0.052-0.029-0.095-0.038-0.145
			c0.12-0.009,0.222,0.025,0.35,0.002c0.061-0.011,0.076-0.061,0.076-0.101v-0.385h-1.308v0.636h-0.15v-0.636h-0.407v-0.13h0.407
			l0.003-0.963h0.711l0.003-0.258h-1.03v-0.13h0.669V9.345l-0.425-0.004l-0.005-0.127l0.425-0.004V8.938h-0.572v-0.13l0.572,0.004
			l-0.005-0.332h0.154v0.328l0.596,0.004V8.474l0.151-0.004v0.338l0.566,0.004v0.126h-0.566L43.854,9.21l0.426,0.004v0.127h-0.422
			v0.327h0.705v0.127h-1.086l0.003,0.265l0.741-0.004v0.963h0.389v0.13h-0.392V11.596z M42.77,11.025h0.558v-0.37H42.77V11.025z
			 M43.327,10.193h-0.555v0.336h0.555V10.193z M43.713,8.941h-0.592l-0.003,0.272l0.595-0.004V8.941z M43.121,9.345v0.318h0.592
			V9.345H43.121z M44.075,10.193h-0.587v0.336h0.587V10.193z M44.079,10.655h-0.591v0.37h0.591V10.655z"/>
		<path fill="#FFFFFF" d="M46.562,11.181l-0.098-0.135c0.174-0.057,0.34-0.145,0.504-0.224V9.918H46.56V9.79h0.409V9.003H46.53
			V8.877h1.013v0.126H47.11V9.79h0.378v0.128H47.11v0.828l0.476-0.236v0.163L46.562,11.181z M49.641,11.73
			c-0.498-0.168-0.831-0.688-0.969-1.156h-0.225c-0.074,0.081-0.178,0.155-0.259,0.229v0.633l0.533-0.193v0.156l-0.907,0.335
			l-0.075-0.138l0.308-0.102v-0.56c-0.195,0.141-0.425,0.258-0.653,0.338l-0.123-0.118c0.356-0.097,0.69-0.311,0.973-0.58h-0.389
			V9.972h1.521v0.603h-0.533c0.021,0.124,0.073,0.24,0.134,0.345c0.145-0.053,0.302-0.141,0.446-0.228l0.123,0.116
			c-0.16,0.086-0.322,0.166-0.49,0.244c0.157,0.256,0.417,0.464,0.684,0.568L49.641,11.73z M47.575,9.723V9.596h2.09v0.127H47.575z
			 M47.761,9.37V8.638h1.706V9.37H47.761z M48.29,8.765h-0.388v0.479h0.388V8.765z M49.234,10.1h-1.238v0.348h1.238V10.1z
			 M48.807,8.765h-0.375v0.479h0.375V8.765z M49.324,8.765h-0.376v0.479h0.376V8.765z"/>
		<path fill="#FFFFFF" d="M51.063,10.793c-0.218,0.087-0.667,0.312-1.085,0.504l-0.08-0.119c0.172-0.065,0.353-0.142,0.523-0.218
			V9.94h-0.385V9.813h0.385V8.927h-0.443V8.801h1.097v0.126h-0.508v0.887h0.401V9.94h-0.401v0.951l0.496-0.226V10.793z
			 M51.96,10.594c-0.162,0.13-0.479,0.409-0.878,0.772l-0.094-0.097c0.392-0.335,0.562-0.54,0.972-0.858V9.353h-0.918V9.221h0.918
			V8.518h0.146v0.703h1.013v0.132h-1.013l0.005,2.264c0,0.105-0.06,0.168-0.142,0.187c-0.124,0.024-0.245,0.024-0.408,0.013
			l-0.05-0.138c0.109,0.004,0.238,0.015,0.349-0.007c0.064-0.011,0.101-0.048,0.101-0.102V10.594z M51.651,10.23
			c-0.17-0.181-0.333-0.374-0.529-0.53l0.077-0.098c0.221,0.166,0.412,0.393,0.54,0.53L51.651,10.23z M53.104,11.36
			c-0.265-0.248-0.497-0.487-0.911-0.797l0.07-0.094c0.425,0.283,0.652,0.529,0.918,0.78L53.104,11.36z M52.772,9.079
			c-0.134-0.115-0.242-0.257-0.456-0.388l0.094-0.095c0.184,0.127,0.324,0.254,0.458,0.393L52.772,9.079z M52.41,10.193
			c0.168-0.181,0.346-0.387,0.487-0.588l0.116,0.076c-0.149,0.2-0.326,0.4-0.497,0.587L52.41,10.193z"/>
		<path fill="#FFFFFF" d="M54.317,10.869h-0.156v-0.229H53.66v0.341h-0.153V8.808h0.811V10.869z M53.656,8.949v1.55h0.508v-1.55
			H53.656z M54.542,10.154h1.912v1.579h-0.156v-0.265h-1.604v0.271h-0.152V10.154z M54.694,10.88v0.443l1.604,0.002V10.88H54.694z
			 M54.698,9.81V8.626h1.564V9.81H54.698z M54.698,10.296v0.442h1.6l0.004-0.442H54.698z M54.847,8.765v0.352h1.26V8.765H54.847z
			 M54.847,9.254v0.417l1.26-0.003V9.254H54.847z"/>
		<path fill="#FFFFFF" d="M59.885,9.454v0.138h-2.344v0.747l1.563,0.003l-0.002,1.424h-0.157v-1.289h-1.407
			c-0.041,0.497-0.303,0.908-0.596,1.3c-0.044-0.025-0.08-0.076-0.117-0.113c0.306-0.394,0.556-0.827,0.556-1.349V8.543h0.157v0.911
			h1.07V8.434h0.155v1.021H59.885z"/>
		<path fill="#FFFFFF" d="M61.803,11.791v-1.009c-0.004-0.004-0.011,0-0.015,0c-0.345,0.45-0.831,0.762-1.335,0.951l-0.119-0.096
			c0.475-0.174,0.946-0.431,1.287-0.855l-1.27,0.003v-0.13h1.451v-0.236l0.159,0.004v0.229l1.491,0.004l-0.002,0.127h-1.329
			c0.359,0.396,0.831,0.679,1.329,0.834l-0.149,0.099c-0.5-0.185-0.959-0.49-1.336-0.912l-0.007,0.992L61.803,11.791z M60.449,9.668
			l-0.113-0.081c0.338-0.293,0.563-0.649,0.756-1.022l0.104,0.068l-0.171,0.316h2.083v0.13H61.98v0.284h1.049V9.49L61.98,9.493v0.28
			l1.049-0.005V9.9H61.98v0.283h1.227l0.004,0.131h-2.259v0.155h-0.154l-0.003-1.176C60.698,9.414,60.564,9.548,60.449,9.668z
			 M60.95,9.079v0.287h0.875V9.079H60.95z M61.825,9.496H60.95l0.002,0.272l0.873,0.005V9.496z M60.95,9.9l0.002,0.283l0.873,0.004
			V9.9H60.95z M62.074,8.839l-0.108,0.093c-0.096-0.113-0.193-0.247-0.3-0.355c0.024-0.042,0.063-0.059,0.098-0.091
			c0.094,0.071,0.155,0.17,0.238,0.26L62.074,8.839z"/>
		<path fill="#FFFFFF" d="M66.587,11.733v-0.227h-2.511v0.255h-0.135v-3.11h2.783v3.082H66.587z M64.076,11.385h2.508V8.768h-2.508
			V11.385z M64.521,10.082V9.329h0.711c0.005-0.061,0-0.122,0-0.185h-0.929V9.03h0.926l0.003-0.175h0.135v0.17h0.974v0.116
			l-0.974,0.003v0.185h0.773v0.753h-0.773l0.005,0.214c0.191,0.004,0.383-0.021,0.569-0.015c-0.063-0.036-0.156-0.069-0.223-0.109
			l0.084-0.079c0.196,0.087,0.386,0.21,0.556,0.34l-0.079,0.091c-0.063-0.039-0.124-0.091-0.19-0.134l-0.211,0.004v0.251h0.57v0.118
			h-0.57v0.312c0,0.077-0.071,0.146-0.165,0.157c-0.109,0.014-0.25,0.018-0.39,0.01l-0.039-0.123
			c0.083,0.015,0.305,0.025,0.363,0.004c0.065-0.008,0.098-0.048,0.098-0.108v-0.252h-1.513v-0.122h1.513v-0.239l-0.53,0.014
			l-0.864,0.032l-0.039-0.13l0.57-0.003l0.348-0.015l-0.003-0.225L64.521,10.082z M64.656,9.762v0.2h0.573V9.759L64.656,9.762z
			 M65.232,9.45H64.66v0.188h0.572V9.45z M65.04,11.188c-0.115-0.118-0.249-0.217-0.377-0.314l0.091-0.08
			c0.128,0.099,0.258,0.196,0.374,0.312L65.04,11.188z M66.003,9.45h-0.636v0.188h0.636V9.45z M66.003,9.762h-0.636v0.2h0.636V9.762
			z"/>
	</g>
	<g id="UMGI_x5F_BnW-bitmap.tif">
		<g>
			<path fill-rule="evenodd" clip-rule="evenodd" fill="#FFFFFF" d="M80.961,2.686c0.036-0.094,0.07-0.187,0.111-0.277
				c0.173-0.385,0.395-0.739,0.668-1.06c0.304-0.355,0.658-0.646,1.069-0.868c0.397-0.214,0.82-0.349,1.264-0.42
				c0.342-0.056,0.686-0.073,1.029-0.052c0.499,0.029,0.979,0.143,1.437,0.35c0.445,0.201,0.84,0.476,1.188,0.82
				c0.344,0.34,0.619,0.729,0.836,1.16c0.057,0.113,0.104,0.23,0.156,0.346c-0.005,0.004-0.009,0.005-0.013,0.007
				c-0.008-0.012-0.017-0.022-0.022-0.035c-0.17-0.359-0.388-0.686-0.656-0.979c-0.277-0.305-0.595-0.561-0.947-0.771
				c-0.42-0.251-0.87-0.426-1.348-0.521c-0.298-0.061-0.594-0.053-0.877,0.072c-0.11,0.048-0.213,0.11-0.297,0.198
				c-0.011,0.012-0.02,0.027-0.035,0.049c0.034,0.014,0.062,0.029,0.093,0.036c0.073,0.017,0.146,0.03,0.221,0.044
				c0.059,0.011,0.104,0.037,0.134,0.094c0.018,0.029,0.051,0.055,0.082,0.073c0.04,0.022,0.067,0.002,0.069-0.044
				c0-0.021,0-0.043,0.002-0.065c0.004-0.055,0.024-0.092,0.104-0.087C85.2,0.73,85.187,0.718,85.171,0.709
				c-0.078-0.046-0.085-0.063-0.042-0.145c0.043,0.004,0.085,0.004,0.125,0.013c0.041,0.009,0.081,0.025,0.117,0.043
				c0.023,0.01,0.04,0.028,0.061,0.043c0.076,0.056,0.095,0.056,0.183,0c0.14,0.091,0.284,0.183,0.43,0.277
				c-0.017,0.049-0.057,0.065-0.104,0.064c-0.047,0-0.094-0.011-0.14-0.017c-0.033-0.004-0.064-0.015-0.096-0.015
				c-0.02,0-0.046,0.011-0.058,0.024c-0.017,0.024-0.015,0.054,0.01,0.075s0.051,0.04,0.078,0.059
				c0.021,0.015,0.047,0.025,0.076,0.042c-0.067,0.075-0.154,0.07-0.241,0.075c0.003,0.087-0.043,0.133-0.115,0.166
				c-0.029,0.016-0.051,0.055-0.068,0.087C85.36,1.55,85.34,1.601,85.318,1.651c-0.034,0.081-0.092,0.141-0.165,0.187
				c-0.041,0.026-0.082,0.051-0.121,0.075c-0.071,0.047-0.085,0.085-0.054,0.165c0.017,0.044,0.036,0.088,0.054,0.132
				c0.024,0.059,0.034,0.12,0.021,0.183c-0.002,0.012-0.009,0.022-0.015,0.036c-0.052-0.015-0.083-0.05-0.101-0.095
				c-0.021-0.05-0.036-0.103-0.054-0.155c-0.03-0.096-0.059-0.11-0.154-0.078c-0.051,0.017-0.102,0.022-0.153,0.005
				c-0.074-0.026-0.145-0.016-0.206,0.029c-0.03,0.021-0.057,0.016-0.086,0.008c-0.072-0.02-0.145-0.017-0.214,0.007
				c-0.07,0.022-0.131,0.062-0.167,0.129c-0.054,0.1-0.107,0.199-0.11,0.314c-0.001,0.06,0.007,0.114,0.043,0.163
				c0.008,0.013,0.013,0.028,0.021,0.041c0.096,0.157,0.07,0.139,0.255,0.127c0.011-0.002,0.023-0.008,0.035-0.009
				c0.088-0.002,0.135-0.057,0.168-0.129c0.019-0.04,0.04-0.078,0.062-0.119c0.036,0.013,0.062,0.026,0.092,0.031
				c0.027,0.006,0.057,0.004,0.088,0.005c-0.038,0.106-0.072,0.207-0.112,0.317c-0.021,0-0.047,0-0.073,0
				c-0.235,0-0.47-0.003-0.705,0.002c-0.064,0-0.117-0.017-0.161-0.062c-0.046-0.048-0.099-0.076-0.171-0.077
				c0.004-0.021,0.011-0.041,0.006-0.057c-0.006-0.014-0.023-0.023-0.041-0.039c0.015-0.028,0.028-0.057,0.042-0.087
				c-0.118-0.221-0.266-0.434-0.282-0.699C83.014,2,83,2.027,83.006,2.063c0.009,0.059,0.021,0.116,0.035,0.175
				c0.013,0.048,0.03,0.095,0.042,0.143c0.015,0.067,0.022,0.134-0.014,0.205c-0.013-0.016-0.025-0.027-0.031-0.041
				c-0.017-0.046-0.031-0.094-0.05-0.141c-0.009-0.025-0.016-0.057-0.033-0.073c-0.054-0.052-0.053-0.109-0.047-0.177
				c0.011-0.124-0.013-0.243-0.065-0.356c-0.017-0.038-0.017-0.075-0.005-0.115c0.046-0.157,0.113-0.303,0.226-0.426
				c0.032-0.034,0.059-0.075,0.083-0.115c0.012-0.018,0.02-0.041,0.022-0.062c0.021-0.156,0.085-0.289,0.211-0.389
				c0.01-0.009,0.02-0.021,0.027-0.034c0.031-0.049,0.062-0.101,0.097-0.155c-0.018,0.004-0.036,0.007-0.055,0.013
				c-0.334,0.11-0.648,0.258-0.945,0.445c-0.295,0.187-0.563,0.404-0.803,0.657c-0.231,0.244-0.431,0.512-0.592,0.807
				c-0.04,0.071-0.076,0.146-0.115,0.219c-0.008,0.017-0.023,0.028-0.036,0.04L80.961,2.686z"/>
			<path fill-rule="evenodd" clip-rule="evenodd" fill="#FFFFFF" d="M85.911,7.05c-0.043,0.102-0.105,0.198-0.224,0.236
				c0,0.03,0.008,0.062-0.002,0.084c-0.012,0.021-0.044,0.031-0.066,0.046c-0.029,0.021-0.061,0.04-0.093,0.062
				c0.017,0.027,0.028,0.046,0.039,0.066c-0.006,0.004-0.011,0.011-0.016,0.012c-0.1,0.005-0.183-0.088-0.161-0.187
				c0.016-0.072,0.038-0.145,0.064-0.215c0.01-0.028,0.02-0.053,0.004-0.084c-0.024-0.051-0.01-0.101,0.023-0.14
				c0.127-0.148,0.184-0.323,0.209-0.512c0.004-0.032,0.006-0.068,0.046-0.087c0.014-0.006,0.023-0.031,0.026-0.051
				c0.008-0.046,0.012-0.094,0.016-0.142c0.005-0.05,0.007-0.104,0.012-0.155c0.003-0.021,0.007-0.049,0.02-0.063
				c0.061-0.063,0.029-0.123,0.001-0.185c-0.025-0.059-0.068-0.102-0.123-0.137c-0.104-0.064-0.187-0.152-0.289-0.243
				c0.791,0,1.563,0,2.333,0c0.006,0.042,0.018,0.079,0.018,0.118c-0.001,0.024-0.012,0.054-0.029,0.073
				c-0.059,0.063-0.091,0.14-0.122,0.221c-0.027,0.065-0.073,0.122-0.113,0.183c-0.017,0.025-0.044,0.023-0.074,0.023
				c-0.146-0.006-0.257,0.059-0.33,0.188c-0.14,0.249-0.331,0.442-0.6,0.55c-0.009,0.003-0.017,0.009-0.024,0.014
				c-0.002,0.007-0.005,0.012-0.006,0.015c-0.006,0.119-0.006,0.12-0.123,0.15c-0.098,0.023-0.19,0.058-0.275,0.112
				C86.015,7.027,85.968,7.031,85.911,7.05z"/>
			<path fill-rule="evenodd" clip-rule="evenodd" fill="#FFFFFF" d="M80.975,5.9c0.014,0.019,0.031,0.034,0.042,0.054
				c0.147,0.295,0.326,0.567,0.539,0.816c0.342,0.402,0.747,0.726,1.213,0.975c0.389,0.209,0.802,0.354,1.234,0.436
				c0.224,0.042,0.448,0.07,0.676,0.072c0.062,0.001,0.124,0.01,0.187,0.009c0.825-0.018,1.596-0.224,2.297-0.667
				c0.611-0.384,1.094-0.889,1.435-1.526c0.031-0.059,0.062-0.117,0.104-0.174c-0.006,0.018-0.012,0.037-0.019,0.055
				c-0.187,0.429-0.43,0.823-0.736,1.176c-0.285,0.328-0.614,0.606-0.983,0.834c-0.403,0.248-0.839,0.417-1.302,0.515
				c-0.384,0.082-0.772,0.098-1.161,0.072c-0.486-0.031-0.955-0.146-1.4-0.348c-0.355-0.162-0.682-0.373-0.976-0.634
				c-0.397-0.357-0.719-0.774-0.961-1.25C81.105,6.2,81.054,6.085,80.999,5.97c-0.011-0.023-0.016-0.048-0.023-0.071L80.975,5.9z"/>
			<path fill-rule="evenodd" clip-rule="evenodd" fill="#FFFFFF" d="M87.039,4.345c0.137,0.199,0.272,0.396,0.406,0.594
				c-0.049,0.019-0.572,0.024-0.676,0.006c0.029-0.037,0.057-0.072,0.088-0.11c-0.065-0.094-0.129-0.188-0.193-0.283
				c-0.029-0.04-0.055-0.083-0.084-0.123c-0.011-0.015-0.029-0.03-0.044-0.032c-0.056-0.003-0.109-0.001-0.173-0.001
				c0,0.047,0,0.086,0,0.125c0,0.045,0,0.09,0,0.135c0,0.052-0.011,0.108,0.003,0.157c0.014,0.047,0.053,0.086,0.08,0.129
				c-0.045,0.017-0.52,0.022-0.624,0.004c0.01-0.015,0.017-0.03,0.029-0.042c0.05-0.042,0.058-0.097,0.058-0.16
				c-0.003-0.377-0.003-0.754,0-1.132c0-0.065-0.007-0.122-0.059-0.168c-0.012-0.009-0.019-0.022-0.032-0.041
				c0.026-0.003,0.044-0.006,0.062-0.006c0.32-0.001,0.641-0.003,0.959,0.001c0.144,0.002,0.282,0.031,0.398,0.126
				c0.085,0.07,0.132,0.162,0.143,0.271c0.025,0.231-0.071,0.401-0.272,0.513C87.087,4.318,87.064,4.329,87.039,4.345z
				 M86.366,4.099c0.121,0,0.231,0.003,0.344-0.002c0.069-0.002,0.129-0.037,0.171-0.094c0.075-0.102,0.031-0.234-0.09-0.27
				c-0.036-0.01-0.073-0.013-0.111-0.013c-0.082-0.002-0.165-0.001-0.247,0c-0.021,0-0.043,0.003-0.066,0.005
				C86.366,3.851,86.366,3.969,86.366,4.099z"/>
			<path fill-rule="evenodd" clip-rule="evenodd" fill="#FFFFFF" d="M78.176,3.395c0.162,0,0.31,0.002,0.457-0.001
				c0.037-0.001,0.053,0.023,0.071,0.046c0.139,0.156,0.277,0.313,0.416,0.47c0.099,0.112,0.197,0.226,0.296,0.338
				c0.009,0.01,0.021,0.019,0.041,0.033c0.002-0.028,0.004-0.047,0.004-0.065c0-0.204-0.002-0.41,0.002-0.614
				c0.002-0.06-0.015-0.105-0.055-0.147c-0.013-0.013-0.022-0.03-0.041-0.054c0.184,0,0.356,0,0.538,0
				c-0.016,0.022-0.023,0.037-0.034,0.048c-0.045,0.042-0.051,0.091-0.051,0.149c0.002,0.42,0.002,0.839,0.002,1.258
				c0,0.029,0,0.06,0,0.1c-0.054,0-0.102,0-0.147,0c-0.027,0-0.056,0-0.083,0c-0.133,0-0.132-0.002-0.221-0.1
				c-0.24-0.263-0.482-0.525-0.724-0.787c-0.001-0.002-0.005-0.002-0.013-0.004c-0.004,0.016-0.008,0.031-0.008,0.046
				c0,0.225,0.002,0.45-0.001,0.675c-0.001,0.04,0.011,0.072,0.039,0.1c0.018,0.018,0.03,0.038,0.051,0.065
				c-0.184,0-0.358,0-0.532,0c0-0.008-0.001-0.015,0.001-0.017c0.071-0.061,0.08-0.14,0.079-0.229c-0.003-0.367-0.003-0.735,0-1.102
				c0-0.063-0.008-0.117-0.058-0.161C78.196,3.434,78.19,3.418,78.176,3.395z"/>
			<path fill-rule="evenodd" clip-rule="evenodd" fill="#FFFFFF" d="M75.891,3.399c0.215,0,0.421,0,0.64,0
				c-0.021,0.027-0.036,0.048-0.053,0.067c-0.026,0.031-0.04,0.064-0.04,0.107c0.002,0.261,0,0.521,0.002,0.778
				c0,0.038,0.005,0.076,0.013,0.111c0.024,0.087,0.084,0.141,0.169,0.166c0.09,0.026,0.182,0.027,0.272,0.001
				c0.118-0.034,0.183-0.121,0.184-0.25c0.001-0.187,0.001-0.374,0.001-0.562c0-0.077-0.003-0.154,0-0.232
				c0.002-0.05-0.006-0.092-0.045-0.128c-0.017-0.014-0.026-0.034-0.046-0.06c0.217,0,0.424,0,0.641,0
				c-0.012,0.019-0.018,0.036-0.03,0.046c-0.052,0.043-0.057,0.099-0.056,0.16c0.001,0.263,0.002,0.525-0.001,0.788
				c0,0.066-0.01,0.133-0.024,0.199c-0.037,0.167-0.147,0.272-0.307,0.329c-0.105,0.038-0.216,0.055-0.329,0.06
				c-0.159,0.007-0.319,0.006-0.476-0.03c-0.096-0.022-0.186-0.057-0.262-0.122c-0.092-0.079-0.139-0.182-0.154-0.3
				c-0.011-0.065-0.015-0.134-0.016-0.2c-0.002-0.245-0.002-0.489,0.001-0.733c0-0.062-0.009-0.112-0.056-0.154
				C75.909,3.432,75.903,3.418,75.891,3.399z"/>
			<path fill-rule="evenodd" clip-rule="evenodd" fill="#FFFFFF" d="M88.138,4.871c-0.037,0.037-0.074,0.072-0.111,0.109
				c0-0.179,0-0.358,0-0.545c0.062,0.031,0.115,0.061,0.171,0.087c0.175,0.081,0.356,0.131,0.548,0.131
				c0.034,0,0.068-0.008,0.103-0.016c0.053-0.012,0.084-0.051,0.086-0.101c0.004-0.046-0.022-0.083-0.067-0.099
				c-0.069-0.026-0.14-0.052-0.211-0.071c-0.134-0.036-0.264-0.079-0.385-0.146c-0.122-0.066-0.216-0.159-0.248-0.302
				c-0.05-0.216,0.04-0.399,0.243-0.488c0.055-0.022,0.113-0.039,0.172-0.053c0.216-0.053,0.429-0.026,0.641,0.033
				c0.012,0.004,0.024,0.006,0.036,0.012c0.078,0.041,0.146,0.033,0.196-0.047c0.005-0.007,0.015-0.012,0.022-0.019
				c0.017,0.058,0.019,0.422,0.003,0.498c-0.074-0.027-0.147-0.058-0.223-0.082c-0.146-0.046-0.292-0.085-0.446-0.078
				c-0.04,0.001-0.085,0.012-0.122,0.028c-0.064,0.03-0.071,0.092-0.019,0.14c0.028,0.023,0.062,0.043,0.097,0.055
				c0.106,0.036,0.214,0.067,0.321,0.101c0.103,0.032,0.201,0.073,0.29,0.135c0.101,0.069,0.17,0.158,0.188,0.284
				c0.033,0.232-0.092,0.412-0.265,0.485c-0.168,0.071-0.343,0.082-0.521,0.065C88.471,4.973,88.31,4.929,88.138,4.871z"/>
			<path fill-rule="evenodd" clip-rule="evenodd" fill="#FFFFFF" d="M85.221,3.402c0,0.135,0,0.267,0,0.413
				c-0.032-0.026-0.055-0.047-0.081-0.063c-0.021-0.015-0.047-0.03-0.072-0.031c-0.242-0.001-0.484,0-0.727,0
				c-0.007,0-0.015,0.003-0.027,0.005c0,0.094,0,0.188,0,0.289c0.021,0.002,0.043,0.005,0.064,0.005c0.12,0,0.239-0.002,0.359,0.002
				c0.05,0,0.092-0.009,0.128-0.047c0.016-0.017,0.037-0.03,0.063-0.051c0,0.171,0,0.328,0,0.493
				c-0.019-0.01-0.036-0.014-0.046-0.025c-0.043-0.054-0.099-0.059-0.16-0.058c-0.109,0.003-0.22,0-0.33,0c-0.024,0-0.049,0-0.079,0
				c0,0.098,0,0.188,0,0.287c0.028,0.001,0.055,0.003,0.082,0.003c0.212,0,0.425-0.002,0.637,0.002c0.054,0,0.097-0.012,0.134-0.05
				c0.014-0.013,0.03-0.022,0.054-0.04c0,0.144,0,0.276,0,0.414c-0.484,0-0.964,0-1.455,0c0.021-0.029,0.036-0.056,0.056-0.075
				c0.028-0.027,0.035-0.058,0.034-0.094c0-0.402-0.001-0.805,0.001-1.207c0-0.042-0.012-0.077-0.04-0.108
				c-0.017-0.018-0.031-0.037-0.047-0.057C83.824,3.393,85.09,3.386,85.221,3.402z"/>
			<path fill-rule="evenodd" clip-rule="evenodd" fill="#FFFFFF" d="M90.375,4.683c-0.023,0.051-0.046,0.101-0.07,0.152
				c0.029,0.037,0.057,0.07,0.085,0.106c-0.054,0.016-0.443,0.021-0.559,0.007c0.026-0.059,0.052-0.115,0.077-0.17
				c0.197-0.407,0.393-0.814,0.589-1.221c0.016-0.031,0.019-0.06,0-0.091c-0.012-0.019-0.017-0.04-0.028-0.066
				c0.178,0,0.348,0,0.524,0c0.252,0.511,0.504,1.024,0.758,1.539c-0.059,0.018-0.529,0.022-0.646,0.008
				c0.03-0.04,0.057-0.076,0.087-0.114c-0.023-0.052-0.047-0.101-0.071-0.15C90.874,4.683,90.63,4.683,90.375,4.683z M91.004,4.393
				c-0.088-0.188-0.169-0.363-0.254-0.546c-0.069,0.115-0.236,0.491-0.242,0.546C90.667,4.393,90.826,4.393,91.004,4.393z"/>
			<path fill-rule="evenodd" clip-rule="evenodd" fill="#FFFFFF" d="M82.906,3.517c-0.027-0.038-0.054-0.073-0.082-0.109
				c0.057-0.015,0.39-0.021,0.529-0.009c-0.009,0.058-0.629,1.396-0.721,1.553c-0.104,0-0.212,0-0.325,0
				c-0.24-0.514-0.48-1.029-0.724-1.553c0.219,0,0.425,0,0.636,0c-0.001,0.038-0.03,0.056-0.05,0.079
				c-0.021,0.023-0.025,0.044-0.012,0.074c0.115,0.257,0.228,0.514,0.341,0.772c0.005,0.009,0.011,0.015,0.022,0.032
				C82.651,4.074,82.777,3.799,82.906,3.517z"/>
			<path fill-rule="evenodd" clip-rule="evenodd" fill="#FFFFFF" d="M92.188,4.948c0.014-0.019,0.021-0.033,0.031-0.041
				c0.054-0.047,0.063-0.106,0.062-0.175c-0.003-0.378-0.003-0.755-0.001-1.132c0.001-0.059-0.008-0.107-0.053-0.147
				c-0.013-0.013-0.022-0.03-0.037-0.055c0.215,0,0.42,0,0.631,0c-0.008,0.016-0.01,0.024-0.017,0.03
				c-0.065,0.057-0.071,0.128-0.071,0.209c0.003,0.298,0.001,0.596,0.001,0.892c0,0.027,0,0.055,0,0.088
				c0.023,0.002,0.042,0.007,0.061,0.007c0.213,0,0.424,0,0.638,0.001c0.036,0,0.067-0.007,0.095-0.035
				c0.018-0.019,0.042-0.032,0.064-0.05c0.016,0.058,0.019,0.31,0.005,0.408C93.133,4.948,92.666,4.948,92.188,4.948z"/>
			<path fill-rule="evenodd" clip-rule="evenodd" fill="#FFFFFF" d="M84.755,11.682c-0.093-0.176-0.19-0.354-0.289-0.542
				c-0.006,0.022-0.012,0.036-0.012,0.048c0,0.125-0.003,0.25,0.001,0.375c0.001,0.039,0.025,0.077,0.038,0.119
				c-0.104,0-0.213,0-0.321,0c0-0.006-0.003-0.013,0-0.016c0.046-0.044,0.049-0.099,0.048-0.157c-0.002-0.226-0.002-0.45,0-0.675
				c0.001-0.062,0.001-0.124-0.051-0.182c0.036-0.001,0.071-0.001,0.107-0.001c0.064,0,0.131,0.002,0.194-0.001
				c0.034-0.001,0.055,0.012,0.07,0.043c0.08,0.154,0.164,0.308,0.246,0.462c0.02,0.037,0.04,0.073,0.066,0.12
				c0.039-0.077,0.072-0.144,0.104-0.21c0.059-0.122,0.116-0.243,0.175-0.365c0.017-0.036,0.038-0.051,0.08-0.05
				c0.098,0.003,0.198,0.001,0.297,0.001c0.002,0.009,0.005,0.017,0.003,0.018c-0.047,0.046-0.051,0.103-0.05,0.164
				c0.001,0.232,0.001,0.465,0,0.697c0,0.046,0.001,0.089,0.04,0.121c0.007,0.006,0.01,0.017,0.017,0.03c-0.138,0-0.268,0-0.417,0
				c0.093-0.072,0.069-0.16,0.07-0.242c0.002-0.095,0.001-0.19,0.001-0.301c-0.018,0.022-0.028,0.033-0.034,0.046
				c-0.066,0.137-0.133,0.273-0.198,0.412c-0.049,0.107-0.034,0.086-0.144,0.09C84.786,11.687,84.772,11.684,84.755,11.682z"/>
			<path fill-rule="evenodd" clip-rule="evenodd" fill="#FFFFFF" d="M80.538,3.399c0.218,0,0.425,0,0.643,0
				c-0.013,0.018-0.021,0.034-0.031,0.044c-0.047,0.043-0.055,0.095-0.055,0.155c0.002,0.385,0.002,0.769,0,1.152
				c0,0.062,0.008,0.114,0.057,0.154c0.011,0.009,0.017,0.023,0.025,0.036c-0.056,0.016-0.545,0.02-0.635,0.006
				c0.003-0.008,0.003-0.016,0.008-0.02c0.067-0.058,0.073-0.133,0.072-0.216c-0.003-0.37-0.003-0.739,0-1.108
				c0-0.063-0.007-0.118-0.056-0.162C80.557,3.432,80.551,3.418,80.538,3.399z"/>
			<path fill-rule="evenodd" clip-rule="evenodd" fill="#FFFFFF" d="M77.994,11.286c0.086,0.126,0.174,0.256,0.268,0.392
				c-0.08,0.016-0.15,0.006-0.221,0.008c-0.073,0.002-0.145,0.001-0.23,0.001c0.021-0.033,0.035-0.056,0.054-0.087
				c-0.059-0.087-0.117-0.18-0.183-0.268c-0.032-0.043-0.082-0.013-0.133-0.022c0,0.101-0.004,0.193,0.002,0.284
				c0.002,0.027,0.029,0.054,0.05,0.087c-0.138,0-0.271,0-0.406,0c-0.002-0.005-0.003-0.01-0.003-0.01
				c0.058-0.055,0.053-0.124,0.051-0.194c-0.001-0.207,0-0.414,0-0.621c0-0.111,0-0.111-0.054-0.199
				c0.019-0.003,0.034-0.005,0.052-0.005c0.199,0,0.399-0.002,0.599,0.001c0.056,0.001,0.114,0.011,0.168,0.026
				c0.258,0.07,0.259,0.379,0.122,0.505C78.09,11.221,78.043,11.249,77.994,11.286z M77.551,11.115c0.079,0,0.151,0.001,0.223-0.001
				c0.046,0,0.08-0.023,0.109-0.058c0.052-0.065,0.019-0.169-0.064-0.181c-0.088-0.012-0.178-0.008-0.268,0
				C77.551,10.957,77.551,11.03,77.551,11.115z"/>
			<path fill-rule="evenodd" clip-rule="evenodd" fill="#FFFFFF" d="M94.895,11.288c0.045,0.065,0.09,0.131,0.136,0.196
				c0.043,0.063,0.085,0.126,0.133,0.197c-0.154,0-0.298,0-0.451,0c0.018-0.026,0.033-0.05,0.053-0.081
				c-0.062-0.094-0.128-0.189-0.194-0.285c-0.04,0-0.078,0-0.126,0c0,0.094-0.004,0.183,0.002,0.271
				c0.003,0.03,0.031,0.06,0.052,0.095c-0.139,0-0.273,0-0.421,0c0.069-0.058,0.062-0.125,0.062-0.191
				c-0.001-0.226-0.001-0.45,0-0.674c0-0.051,0.001-0.1-0.042-0.138c-0.004-0.003-0.002-0.013-0.006-0.026c0.023,0,0.042,0,0.062,0
				c0.192,0,0.385-0.001,0.576,0c0.08,0.001,0.158,0.014,0.232,0.049c0.187,0.088,0.2,0.343,0.081,0.465
				C95.001,11.209,94.949,11.245,94.895,11.288z M94.447,11.114c0.081,0,0.159,0.004,0.235-0.001
				c0.025-0.001,0.052-0.017,0.074-0.032c0.041-0.025,0.059-0.082,0.044-0.132c-0.012-0.046-0.048-0.073-0.092-0.074
				c-0.086-0.006-0.173-0.002-0.262-0.002C94.447,10.955,94.447,11.028,94.447,11.114z"/>
			<path fill-rule="evenodd" clip-rule="evenodd" fill="#FFFFFF" d="M96.827,11.172c0.005,0.104-0.019,0.205-0.076,0.296
				c-0.082,0.125-0.201,0.19-0.342,0.223c-0.189,0.043-0.371,0.021-0.541-0.079c-0.139-0.083-0.206-0.214-0.223-0.369
				c-0.012-0.101-0.006-0.199,0.035-0.294c0.061-0.142,0.166-0.236,0.311-0.282c0.177-0.058,0.354-0.055,0.526,0.012
				C96.704,10.751,96.84,10.931,96.827,11.172z M95.968,11.178c0.001,0.019,0.001,0.052,0.007,0.083
				c0.022,0.13,0.094,0.203,0.218,0.222c0.114,0.018,0.253-0.02,0.297-0.177c0.025-0.091,0.026-0.182,0-0.272
				c-0.038-0.131-0.14-0.187-0.237-0.178c-0.017,0.002-0.033,0-0.051,0.001c-0.085,0.002-0.147,0.042-0.188,0.113
				C95.977,11.029,95.969,11.097,95.968,11.178z"/>
			<path fill-rule="evenodd" clip-rule="evenodd" fill="#FFFFFF" d="M72.346,11.224c0-0.044,0-0.088,0-0.133
				c0-0.064,0-0.129,0-0.194c-0.002-0.082,0.02-0.17-0.064-0.241c0.126,0,0.237,0,0.347,0c0.002,0.006,0.004,0.009,0.003,0.01
				c-0.057,0.057-0.046,0.128-0.046,0.196c0,0.245,0,0.489,0,0.734c0,0.026,0,0.054,0,0.09c-0.074,0-0.142,0.003-0.208-0.002
				c-0.018-0.001-0.039-0.018-0.054-0.032c-0.08-0.083-0.157-0.168-0.234-0.251c-0.092-0.1-0.182-0.198-0.281-0.306
				c-0.003,0.029-0.007,0.047-0.007,0.065c0,0.112,0,0.225,0,0.337c-0.001,0.063-0.009,0.131,0.062,0.185c-0.129,0-0.241,0-0.354,0
				c0-0.009-0.002-0.016,0-0.018c0.045-0.043,0.052-0.096,0.052-0.155c-0.003-0.215-0.001-0.43-0.001-0.645
				c0-0.115,0-0.115-0.055-0.207c0.018-0.002,0.034-0.006,0.05-0.006c0.034,0,0.069,0,0.105,0c0.167,0,0.165,0.001,0.274,0.127
				c0.131,0.15,0.262,0.3,0.394,0.449C72.334,11.227,72.34,11.225,72.346,11.224z"/>
			<path fill-rule="evenodd" clip-rule="evenodd" fill="#FFFFFF" d="M69.847,10.653c0.132,0,0.264,0,0.396,0
				c0.001,0.006,0.004,0.014,0.002,0.016c-0.048,0.046-0.05,0.104-0.05,0.164c0.004,0.15,0.001,0.301,0.002,0.45
				c0.002,0.133,0.059,0.187,0.191,0.193c0.17,0.008,0.235-0.066,0.229-0.226c-0.005-0.131-0.001-0.26-0.001-0.39
				c0-0.117,0-0.117-0.053-0.205c0.138,0,0.272,0,0.408,0c-0.051,0.095-0.051,0.095-0.051,0.227c0,0.142,0.001,0.284,0,0.427
				c0,0.029-0.001,0.06-0.006,0.089c-0.019,0.134-0.091,0.229-0.221,0.266c-0.197,0.056-0.397,0.06-0.596-0.007
				c-0.117-0.039-0.185-0.126-0.2-0.248c-0.008-0.07-0.01-0.144-0.011-0.215c-0.003-0.11,0-0.22-0.002-0.33
				c0-0.071,0.015-0.145-0.052-0.201C69.839,10.659,69.843,10.657,69.847,10.653z"/>
			<path fill-rule="evenodd" clip-rule="evenodd" fill="#FFFFFF" d="M86.772,10.653c0.14,0,0.272,0,0.404,0
				c0,0.008,0.004,0.015,0.001,0.016c-0.037,0.043-0.042,0.092-0.041,0.146c0.003,0.138,0.003,0.274,0,0.412
				c0,0.062-0.004,0.124-0.013,0.186c-0.019,0.118-0.084,0.201-0.195,0.243c-0.048,0.019-0.096,0.034-0.145,0.039
				c-0.129,0.01-0.259,0.015-0.388-0.01c-0.194-0.039-0.293-0.155-0.294-0.354c0-0.162,0-0.324,0.001-0.486
				c0.001-0.066,0.007-0.132-0.061-0.175c0.056-0.021,0.317-0.024,0.408-0.01c0.002,0.003,0.004,0.006,0.002,0.007
				c-0.049,0.054-0.047,0.12-0.045,0.188c0.001,0.147,0,0.294,0,0.441c0,0.114,0.061,0.176,0.173,0.18c0.016,0,0.029,0,0.046,0
				c0.139,0,0.199-0.061,0.2-0.2c0.001-0.165-0.003-0.33,0.003-0.495C86.831,10.729,86.791,10.702,86.772,10.653z"/>
			<path fill-rule="evenodd" clip-rule="evenodd" fill="#FFFFFF" d="M97.29,10.654c0.142,0,0.273,0,0.403,0
				c0.002,0.006,0.005,0.009,0.004,0.01c-0.059,0.059-0.046,0.132-0.046,0.204c0,0.143,0,0.284,0,0.426
				c0,0.118,0.062,0.176,0.18,0.183c0.163,0.009,0.248-0.049,0.237-0.231c-0.008-0.121-0.001-0.244-0.002-0.366
				c-0.001-0.076,0.019-0.155-0.043-0.228c0.064,0,0.131,0,0.197,0s0.133,0,0.199,0c0.001,0.011,0.004,0.018,0.001,0.02
				c-0.052,0.047-0.05,0.107-0.05,0.171c0.002,0.165,0.002,0.33,0.002,0.495c-0.002,0.19-0.098,0.31-0.285,0.346
				c-0.153,0.029-0.309,0.029-0.461-0.001c-0.184-0.036-0.279-0.155-0.279-0.343c0-0.178-0.002-0.354,0-0.531
				c0.001-0.047-0.003-0.089-0.041-0.121C97.3,10.681,97.298,10.67,97.29,10.654z"/>
			<path fill-rule="evenodd" clip-rule="evenodd" fill="#FFFFFF" d="M79.59,10.693c0.024-0.02,0.046-0.038,0.076-0.062
				c0,0.113,0,0.216,0,0.326c-0.02-0.007-0.037-0.012-0.055-0.019c-0.128-0.047-0.255-0.09-0.392-0.082
				c-0.009,0-0.016-0.001-0.022,0c-0.049,0.003-0.087,0.025-0.088,0.055c-0.003,0.043,0.027,0.064,0.06,0.078
				c0.065,0.025,0.133,0.041,0.199,0.066c0.072,0.025,0.146,0.053,0.212,0.089c0.109,0.061,0.155,0.157,0.141,0.282
				c-0.013,0.115-0.074,0.194-0.18,0.238c-0.136,0.059-0.275,0.056-0.418,0.03c-0.061-0.011-0.123-0.025-0.181-0.046
				c-0.047-0.017-0.082-0.017-0.11,0.025c-0.008,0.012-0.015,0.021-0.024,0.037c-0.019-0.063-0.021-0.275-0.008-0.369
				c0.035,0.018,0.067,0.032,0.099,0.049c0.106,0.055,0.221,0.079,0.337,0.093c0.03,0.003,0.06-0.002,0.089-0.007
				c0.038-0.007,0.064-0.023,0.067-0.067c0.002-0.043-0.022-0.064-0.058-0.077c-0.041-0.016-0.086-0.024-0.128-0.04
				c-0.091-0.034-0.184-0.065-0.271-0.108c-0.078-0.039-0.126-0.109-0.144-0.198c-0.026-0.136,0.034-0.252,0.165-0.309
				c0.139-0.059,0.285-0.069,0.432-0.037C79.457,10.655,79.523,10.675,79.59,10.693z"/>
			<path fill-rule="evenodd" clip-rule="evenodd" fill="#FFFFFF" d="M87.768,11.632c-0.021,0.023-0.042,0.047-0.07,0.08
				c0-0.132,0-0.248,0-0.367c0.071,0.03,0.137,0.064,0.208,0.088c0.069,0.023,0.144,0.041,0.217,0.05
				c0.044,0.005,0.091-0.001,0.132-0.016c0.056-0.019,0.061-0.085,0.01-0.117c-0.029-0.02-0.067-0.029-0.103-0.041
				c-0.085-0.029-0.17-0.055-0.254-0.087c-0.037-0.015-0.069-0.038-0.103-0.061c-0.148-0.095-0.179-0.393,0.059-0.486
				c0.141-0.055,0.285-0.066,0.432-0.034c0.063,0.014,0.126,0.032,0.195,0.051c0.021-0.018,0.047-0.04,0.073-0.062
				c0.017,0.057,0.019,0.242,0.006,0.329c-0.063-0.021-0.126-0.045-0.19-0.064c-0.086-0.027-0.174-0.043-0.266-0.037
				c-0.014,0.001-0.032-0.002-0.043,0.005c-0.022,0.014-0.049,0.029-0.058,0.05c-0.012,0.029,0.013,0.054,0.038,0.065
				c0.038,0.018,0.078,0.034,0.117,0.048c0.096,0.036,0.195,0.062,0.287,0.105c0.151,0.072,0.203,0.204,0.154,0.361
				c-0.029,0.089-0.094,0.146-0.18,0.18c-0.141,0.055-0.287,0.048-0.433,0.019C87.924,11.675,87.852,11.653,87.768,11.632z"/>
			<path fill-rule="evenodd" clip-rule="evenodd" fill="#FFFFFF" d="M93.449,10.694c0.023-0.02,0.045-0.037,0.075-0.063
				c0,0.116,0,0.221,0,0.335c-0.022-0.009-0.043-0.016-0.062-0.024c-0.1-0.049-0.204-0.079-0.315-0.084
				c-0.191-0.007-0.325,0.104-0.32,0.317c0.003,0.162,0.069,0.253,0.209,0.292c0.074,0.021,0.152,0.014,0.236-0.007
				c-0.006-0.098,0.032-0.197-0.056-0.284c0.127,0,0.242,0,0.367,0c0,0.049,0,0.094,0,0.137c0,0.075-0.002,0.15,0,0.225
				c0.002,0.032-0.01,0.055-0.038,0.065c-0.254,0.109-0.513,0.15-0.773,0.025c-0.177-0.082-0.26-0.23-0.269-0.425
				c-0.005-0.126,0.016-0.243,0.092-0.347c0.089-0.119,0.213-0.179,0.354-0.207c0.149-0.032,0.297-0.021,0.441,0.028
				C93.41,10.685,93.429,10.688,93.449,10.694z"/>
			<path fill-rule="evenodd" clip-rule="evenodd" fill="#FFFFFF" d="M75.667,11.671c0.077-0.053,0.062-0.128,0.062-0.199
				c0-0.209-0.002-0.419,0-0.629c0.002-0.065,0.006-0.131-0.061-0.175c0.058-0.021,0.806-0.027,0.961-0.011
				c0.009,0.086,0.003,0.174-0.002,0.265c-0.057-0.063-0.129-0.051-0.197-0.051c-0.13,0-0.26,0-0.396,0c0,0.065,0,0.125,0,0.194
				c0.103,0,0.205,0.004,0.306-0.002c0.031-0.002,0.059-0.03,0.094-0.049c0,0.103,0,0.202,0,0.315
				c-0.064-0.071-0.141-0.052-0.214-0.054c-0.06-0.001-0.119-0.001-0.186-0.001c0,0.065,0,0.126,0,0.189
				c0.021,0.003,0.04,0.005,0.059,0.005c0.109,0.001,0.22,0.001,0.33,0.001s0.11,0,0.204-0.056c0,0.089,0,0.174,0,0.266
				c-0.315,0-0.631,0-0.947,0C75.676,11.677,75.671,11.674,75.667,11.671z"/>
			<path fill-rule="evenodd" clip-rule="evenodd" fill="#FFFFFF" d="M99.317,11.386c0,0.073-0.006,0.136,0.001,0.197
				c0.004,0.032,0.029,0.06,0.044,0.09c-0.042,0.017-0.251,0.021-0.399,0.009c0-0.005-0.003-0.012-0.002-0.014
				c0.055-0.047,0.051-0.108,0.051-0.172c-0.002-0.222-0.002-0.444,0-0.666c0-0.062,0.006-0.122-0.069-0.167
				c0.032-0.006,0.049-0.012,0.062-0.012c0.178,0,0.354-0.002,0.532,0.001c0.101,0.001,0.199,0.019,0.288,0.067
				c0.103,0.056,0.158,0.142,0.161,0.259c0,0.034,0.002,0.07-0.006,0.104c-0.025,0.145-0.109,0.238-0.253,0.271
				c-0.077,0.019-0.157,0.024-0.236,0.031C99.438,11.39,99.383,11.386,99.317,11.386z M99.321,10.873c0,0.105,0,0.202,0,0.299
				c0.077,0,0.149,0.007,0.221-0.001c0.091-0.01,0.133-0.071,0.128-0.168c-0.002-0.077-0.047-0.123-0.135-0.129
				C99.466,10.869,99.396,10.873,99.321,10.873z"/>
			<path fill-rule="evenodd" clip-rule="evenodd" fill="#FFFFFF" d="M81.423,11.683c-0.149,0-0.284,0-0.418,0
				c0.01-0.038,0.01-0.038,0.042-0.078c-0.014-0.03-0.028-0.064-0.044-0.101c-0.163,0-0.325,0-0.485,0
				c-0.062,0.093-0.062,0.093-0.003,0.167c-0.047,0.019-0.272,0.022-0.363,0.005c0.027-0.06,0.053-0.118,0.079-0.176
				c0.117-0.24,0.232-0.48,0.352-0.719c0.021-0.045,0.015-0.081-0.017-0.124c0.124,0,0.233,0,0.353,0
				C81.082,10.991,81.249,11.33,81.423,11.683z M80.588,11.312c0.116-0.001,0.221,0.001,0.335-0.003
				c-0.058-0.123-0.11-0.233-0.169-0.359C80.695,11.077,80.644,11.189,80.588,11.312z"/>
			<path fill-rule="evenodd" clip-rule="evenodd" fill="#FFFFFF" d="M91.114,11.372c0,0.086,0,0.158,0,0.232
				c-0.015,0.009-0.029,0.021-0.045,0.027c-0.208,0.079-0.42,0.103-0.634,0.023c-0.188-0.07-0.29-0.21-0.316-0.408
				c-0.013-0.105,0-0.204,0.042-0.299c0.075-0.176,0.22-0.263,0.4-0.301c0.138-0.028,0.272-0.015,0.407,0.017
				c0.076,0.019,0.076,0.019,0.133-0.023c0.019,0.054,0.02,0.241,0.004,0.314c-0.041-0.018-0.082-0.037-0.122-0.054
				c-0.08-0.033-0.163-0.046-0.249-0.044c-0.165,0.002-0.267,0.09-0.29,0.253c-0.027,0.188,0.073,0.341,0.247,0.363
				c0.126,0.016,0.248-0.007,0.361-0.07C91.069,11.395,91.087,11.386,91.114,11.372z"/>
			<path fill-rule="evenodd" clip-rule="evenodd" fill="#FFFFFF" d="M74.44,10.735c0.082,0.184,0.159,0.361,0.244,0.554
				c0.033-0.069,0.062-0.127,0.087-0.184c0.048-0.102,0.092-0.206,0.142-0.306c0.021-0.044,0.033-0.082-0.01-0.119
				c-0.005-0.003-0.005-0.012-0.009-0.024c0.116,0,0.229,0,0.354,0c-0.163,0.345-0.322,0.685-0.482,1.025c-0.073,0-0.142,0-0.219,0
				c-0.157-0.338-0.315-0.678-0.479-1.026c0.146,0,0.282,0,0.426,0C74.475,10.687,74.457,10.71,74.44,10.735z"/>
			<path fill-rule="evenodd" clip-rule="evenodd" fill="#FFFFFF" d="M81.874,10.656c0.136,0,0.268,0,0.402,0
				c-0.051,0.093-0.051,0.093-0.051,0.22c0,0.169,0,0.339,0,0.509c0,0.024,0,0.049,0,0.078c0.021,0.002,0.037,0.007,0.053,0.007
				c0.13,0.001,0.261-0.002,0.389,0.003c0.053,0.003,0.078-0.038,0.124-0.057c0,0.091,0,0.176,0,0.266c-0.309,0-0.613,0-0.934,0
				c0.07-0.06,0.063-0.126,0.063-0.192c-0.002-0.226-0.002-0.45,0-0.674c0-0.051,0.002-0.1-0.041-0.137
				C81.876,10.675,81.877,10.665,81.874,10.656z"/>
			<path fill-rule="evenodd" clip-rule="evenodd" fill="#FFFFFF" d="M73.221,10.654c0.139,0,0.271,0,0.413,0
				c-0.009,0.019-0.018,0.028-0.022,0.041c-0.01,0.027-0.025,0.055-0.025,0.082c-0.002,0.261,0.001,0.52-0.003,0.779
				c-0.001,0.052,0.031,0.081,0.056,0.125c-0.143,0-0.279,0-0.415,0c0-0.006-0.003-0.013,0-0.016
				c0.044-0.043,0.053-0.095,0.052-0.155c-0.002-0.235-0.002-0.47,0-0.704c0-0.047-0.001-0.09-0.043-0.121
				C73.227,10.681,73.227,10.669,73.221,10.654z"/>
			<path fill-rule="evenodd" clip-rule="evenodd" fill="#FFFFFF" d="M89.18,10.653c0.144,0,0.276,0,0.41,0
				c0.001,0.009,0.003,0.016,0.001,0.017c-0.052,0.048-0.051,0.108-0.05,0.172c0.001,0.217,0.001,0.434,0,0.651
				c0,0.065-0.006,0.13,0.063,0.173c-0.055,0.023-0.325,0.028-0.426,0.01c0.076-0.064,0.057-0.148,0.057-0.229
				c0.001-0.196,0-0.394,0-0.591C89.235,10.743,89.235,10.743,89.18,10.653z"/>
			<path fill-rule="evenodd" clip-rule="evenodd" fill="#FFFFFF" d="M85.537,2.774c-0.033,0.036-0.066,0.054-0.113,0.037
				c-0.035-0.014-0.076-0.008-0.121-0.013c-0.021-0.044-0.062-0.063-0.113-0.074c-0.03-0.006-0.062-0.021-0.085-0.042
				c-0.047-0.037-0.093-0.066-0.155-0.058c-0.008,0-0.018-0.005-0.025-0.008c0.002-0.009,0.001-0.015,0.004-0.018
				c0.047-0.032,0.173-0.026,0.206,0.02c0.032,0.046,0.071,0.06,0.126,0.058c0.024,0,0.055,0.012,0.075,0.029
				c0.049,0.043,0.101,0.068,0.168,0.061C85.515,2.765,85.526,2.771,85.537,2.774z"/>
			<path fill-rule="evenodd" clip-rule="evenodd" fill="#FFFFFF" d="M85.656,2.957c-0.018-0.009-0.039-0.023-0.062-0.037
				c0.001-0.032,0.003-0.066,0.004-0.104c0.118-0.037,0.198,0.033,0.296,0.09C85.812,2.924,85.739,2.938,85.656,2.957z"/>
			<path fill-rule="evenodd" clip-rule="evenodd" fill="#FFFFFF" d="M93.164,3.62c0-0.122,0.087-0.209,0.209-0.216
				c0.099-0.006,0.215,0.061,0.226,0.209c0.008,0.114-0.099,0.222-0.215,0.225S93.165,3.74,93.164,3.62z M93.38,3.425
				c-0.086-0.005-0.188,0.059-0.193,0.188c-0.005,0.123,0.094,0.198,0.189,0.198c0.11,0,0.196-0.082,0.198-0.191
				C93.575,3.514,93.488,3.427,93.38,3.425z"/>
			<path fill-rule="evenodd" clip-rule="evenodd" fill="#FFFFFF" d="M86.054,2.993c-0.009-0.024-0.015-0.037-0.024-0.066
				c0.029,0.011,0.046,0.015,0.075,0.024C86.082,2.969,86.073,2.978,86.054,2.993z"/>
			<path fill-rule="evenodd" clip-rule="evenodd" fill="#FFFFFF" d="M80.958,2.683c-0.002,0.021-0.005,0.041-0.008,0.061
				c-0.006-0.001-0.011-0.003-0.017-0.004c0.01-0.019,0.018-0.036,0.027-0.054L80.958,2.683z"/>
			<path fill-rule="evenodd" clip-rule="evenodd" fill="#FFFFFF" d="M80.976,5.898c-0.008-0.018-0.018-0.035-0.026-0.053
				c0.005-0.003,0.01-0.004,0.015-0.005c0.004,0.02,0.007,0.039,0.011,0.06L80.976,5.898z"/>
			<path fill-rule="evenodd" clip-rule="evenodd" fill="#FFFFFF" d="M93.461,3.547c-0.056-0.015-0.11-0.037-0.148,0.022
				c-0.021,0.034-0.018,0.076,0.007,0.105c0.032,0.039,0.059,0.043,0.133,0.015c-0.02,0.034-0.048,0.049-0.082,0.044
				c-0.049-0.009-0.09-0.051-0.095-0.102c-0.006-0.043,0.021-0.094,0.059-0.112C93.371,3.5,93.425,3.51,93.461,3.547z"/>
		</g>
	</g>
	<g>
		<path fill="#FFFFFF" d="M108.021,8.731c0.316,0.567,0.914,0.88,1.437,1.174l-0.103,0.105c-0.508-0.29-1.079-0.615-1.421-1.142
			h-0.132c-0.272,0.386-0.661,0.647-1.032,0.909c-0.138,0.098-0.279,0.179-0.429,0.259l-0.076-0.109
			c0.477-0.283,0.975-0.618,1.353-1.059h-0.665V8.731H108.021z M107.927,10.025v0.629h0.861v0.135h-0.861l0.003,0.749h1.432v0.135
			h-3.006v-0.135h1.41v-0.749h-0.856v-0.138h0.854v-0.63l-0.949,0.004V9.887h2.073v0.139H107.927z"/>
		<path fill="#FFFFFF" d="M110.438,9.586l-0.004,2.232h-0.152V9.96c-0.103,0.323-0.24,0.647-0.498,0.916l-0.125-0.104
			c0.332-0.335,0.488-0.761,0.619-1.182l-0.524-0.004V9.451h0.531V8.825l-0.399,0.069l-0.132-0.135
			c0.342-0.047,0.685-0.098,1.004-0.203l0.105,0.109c-0.138,0.047-0.287,0.083-0.425,0.119v0.666h0.479V9.59L110.438,9.586z
			 M110.762,10.542c-0.087-0.178-0.17-0.367-0.298-0.534l0.12-0.073c0.127,0.16,0.214,0.346,0.299,0.528L110.762,10.542z
			 M110.812,11.64v-0.138h0.982l0.004-0.676l-0.841,0.003v-0.138h0.837l0.004-0.499l-0.561,0.026h-0.088l-0.083-0.138
			c0.53,0.006,1.052-0.044,1.531-0.168l0.094,0.12c-0.243,0.068-0.494,0.115-0.741,0.146v0.513h0.822v0.138h-0.822v0.673h0.971
			v0.138H110.812z M111.21,9.694V8.641l1.414,0.003v1.051H111.21z M112.467,8.778h-1.105V9.56h1.105V8.778z"/>
		<path fill="#FFFFFF" d="M113.216,10.426l0.48-0.727h-0.524V9.564h0.774l-0.566,0.851h0.571c-0.052,0.243-0.121,0.454-0.226,0.666
			c0.265,0.312,0.574,0.512,0.981,0.512h1.636l-0.075,0.131h-1.572c-0.425,0-0.763-0.229-1.051-0.52
			c-0.131,0.217-0.283,0.404-0.477,0.586l-0.111-0.1c0.349-0.305,0.621-0.7,0.719-1.148h-0.56V10.426z M113.738,9.189l-0.127,0.068
			c-0.094-0.195-0.196-0.385-0.309-0.566l0.117-0.065C113.524,8.801,113.634,8.996,113.738,9.189z M115.898,9.139v0.135h-0.668v0.28
			h0.792v1.061h-0.792v0.288h1.011v0.135h-1.011v0.439h-0.153v-0.439h-0.996v-0.138h0.996v-0.285h-0.786l0.005-1.061h0.781V9.277
			l-0.651-0.004V9.139h0.651V8.946h0.153v0.188L115.898,9.139z M116.049,9.219V8.855h-1.753v0.358l-0.153,0.005V8.717h2.055v0.502
			H116.049z M115.077,9.699h-0.629v0.297h0.629V9.699z M115.077,10.131h-0.629v0.356h0.629V10.131z M115.863,9.699h-0.633v0.297
			h0.633V9.699z M115.863,10.131h-0.633v0.356h0.633V10.131z"/>
		<path fill="#FFFFFF" d="M119.549,10.269l-0.003-0.375l-2.623-0.003v0.393l-0.151,0.004v-0.52h2.931v0.501H119.549z M118.065,9.655
			c-0.178-0.146-0.355-0.277-0.545-0.397c-0.142,0.208-0.335,0.354-0.538,0.471l-0.102-0.099c0.279-0.156,0.588-0.422,0.593-0.79
			l0.003-0.363h0.148c-0.018,0.229,0.025,0.443-0.054,0.655c0.2,0.134,0.415,0.261,0.601,0.428L118.065,9.655z M117.062,9.226
			l-0.132-0.036c0.056-0.17,0.106-0.353,0.125-0.542l0.134,0.033C117.168,8.869,117.121,9.051,117.062,9.226z M119.272,11.778
			h-0.151v-0.186h-1.765l-0.004,0.189l-0.146,0.004l0.005-0.782h0.69c0.068-0.095,0.123-0.2,0.185-0.298l-0.687-0.004v-0.53h1.684
			v0.53l-0.84,0.004l-0.182,0.298h1.214L119.272,11.778z M119.123,11.128h-1.763v0.341h1.763V11.128z M118.935,10.295h-1.386v0.283
			h1.386V10.295z M117.976,9.193l-0.136-0.059c0.059-0.167,0.106-0.35,0.138-0.531l0.136,0.062
			C118.073,8.837,118.04,9.026,117.976,9.193z M119.564,9.691c-0.215-0.146-0.43-0.309-0.658-0.426
			c-0.125,0.2-0.339,0.355-0.542,0.451l-0.103-0.105c0.243-0.112,0.517-0.312,0.582-0.589c0.04-0.164,0.025-0.36,0.029-0.546
			l0.146-0.007c-0.011,0.225,0.025,0.477-0.055,0.677c0.08,0.05,0.174,0.094,0.259,0.146c0.145,0.086,0.29,0.177,0.429,0.279
			C119.626,9.611,119.593,9.65,119.564,9.691z M118.456,9.196c-0.045-0.01-0.088-0.021-0.133-0.032
			c0.056-0.168,0.106-0.342,0.125-0.531l0.127,0.041C118.567,8.851,118.51,9.029,118.456,9.196z M119.404,9.179l-0.132-0.051
			c0.081-0.208,0.139-0.451,0.146-0.517l0.131,0.04C119.517,8.829,119.462,9.015,119.404,9.179z"/>
		<path fill="#FFFFFF" d="M121.01,10.39c-0.094-0.163-0.202-0.32-0.33-0.462v1.887h-0.138V9.931
			c-0.139,0.415-0.302,0.789-0.455,1.062l-0.102-0.073c0.247-0.473,0.462-0.978,0.557-1.513h-0.491V9.273h0.491V8.531
			c0.043-0.004,0.094,0,0.138,0v0.742h0.393v0.134h-0.393v0.492l0.105-0.049c0.127,0.15,0.24,0.298,0.331,0.462L121.01,10.39z
			 M123.138,11.73c-0.032,0.044-0.065,0.08-0.128,0.069c-0.127-0.018-0.229-0.105-0.322-0.188c-0.105-0.091-0.186-0.208-0.259-0.32
			c-0.31,0.192-0.566,0.324-0.902,0.476l-0.094-0.097c0.356-0.157,0.625-0.303,0.928-0.491c-0.081-0.175-0.153-0.364-0.2-0.571
			h-0.746l-0.018,0.178c0.177,0.114,0.359,0.252,0.509,0.407l-0.077,0.099c-0.146-0.139-0.282-0.258-0.45-0.367
			c-0.087,0.335-0.269,0.622-0.502,0.876c-0.041-0.018-0.076-0.047-0.112-0.076c0.283-0.32,0.506-0.68,0.513-1.112h-0.354V10.48
			h0.364v-0.259l0.131-0.003v0.266h0.713c-0.055-0.328-0.106-0.665-0.113-1.008l-0.014-0.684l0.003-0.306l0.146,0.007
			c-0.019,0.695,0.028,1.459,0.135,1.993h0.97v0.131h-0.944c0.032,0.153,0.091,0.328,0.17,0.477
			c0.153-0.104,0.288-0.236,0.425-0.375c0.034,0.025,0.067,0.052,0.097,0.084c-0.146,0.153-0.299,0.283-0.46,0.407
			c0.096,0.167,0.241,0.327,0.416,0.426c0.054,0.029,0.073,0,0.083-0.034c0.047-0.129,0.088-0.267,0.109-0.41l0.127,0.081
			C123.246,11.433,123.196,11.633,123.138,11.73z M121.836,10.229l-0.051-0.189c-0.215,0.022-0.426,0.065-0.634,0.108l-0.027-0.127
			c0.163-0.195,0.305-0.413,0.436-0.629c-0.134,0.008-0.259,0.015-0.403,0.029l-0.025-0.142c0.17-0.211,0.315-0.44,0.433-0.68
			c0.036,0.018,0.072,0.037,0.105,0.062c-0.103,0.218-0.229,0.437-0.386,0.633l0.353-0.025c0.072-0.123,0.139-0.25,0.204-0.378
			l0.116,0.058c-0.196,0.36-0.393,0.728-0.655,1.044c0.143-0.021,0.299-0.044,0.444-0.069c-0.025-0.077-0.058-0.156-0.087-0.232
			c0.036-0.022,0.076-0.041,0.102-0.055c0.083,0.175,0.146,0.359,0.196,0.549C121.919,10.2,121.876,10.219,121.836,10.229z
			 M123.075,10.186l-0.071-0.211c-0.233,0.033-0.48,0.076-0.698,0.127l-0.037-0.135c0.16-0.171,0.313-0.373,0.448-0.592
			c-0.128,0.011-0.288,0.025-0.438,0.04l-0.025-0.135c0.182-0.211,0.328-0.451,0.43-0.697l0.112,0.058
			c-0.112,0.222-0.229,0.443-0.393,0.64l0.382-0.029l0.182-0.363c0.028,0.007,0.08,0.032,0.116,0.051
			c-0.176,0.393-0.374,0.717-0.626,1.008c0.165-0.033,0.332-0.06,0.495-0.088c-0.025-0.068-0.062-0.142-0.099-0.211l0.117-0.047
			c0.094,0.171,0.171,0.353,0.226,0.541L123.075,10.186z M122.844,10.463c-0.125-0.103-0.244-0.187-0.367-0.248l0.076-0.095
			c0.126,0.062,0.246,0.148,0.36,0.244C122.898,10.396,122.869,10.429,122.844,10.463z"/>
		<path fill="#FFFFFF" d="M123.948,9.942c-0.105,0.287-0.233,0.611-0.374,0.894l-0.114-0.108c0.216-0.426,0.426-0.854,0.491-1.342
			v-0.04l-0.469-0.004V9.211h0.466l-0.004-0.731h0.153v0.731h0.417v0.131h-0.417v2.44h-0.157L123.948,9.942z M124.398,10.382
			c-0.072-0.179-0.134-0.36-0.225-0.531l0.122-0.058c0.085,0.171,0.158,0.349,0.234,0.524L124.398,10.382z M126.34,11.585
			c0,0.052-0.028,0.179-0.182,0.182c-0.058,0.012-0.254,0.016-0.356,0c-0.01-0.05-0.028-0.094-0.035-0.145
			c0.119-0.007,0.222,0.024,0.349,0.004c0.062-0.011,0.077-0.062,0.077-0.102v-0.386h-1.31v0.636h-0.152v-0.636h-0.408v-0.131h0.408
			l0.002-0.964h0.714l0.004-0.259h-1.033v-0.13h0.669V9.331l-0.425-0.003l-0.004-0.127l0.425-0.005V8.924h-0.574V8.793l0.574,0.003
			l-0.004-0.33h0.152v0.327l0.598,0.003V8.459l0.153-0.005v0.339l0.566,0.003v0.128h-0.566l-0.005,0.272l0.426,0.005v0.127h-0.421
			v0.327h0.705v0.127H125.6l0.003,0.266l0.742-0.004v0.964h0.389v0.131h-0.394V11.585z M124.891,11.015h0.56v-0.37h-0.56V11.015z
			 M125.45,10.183h-0.557v0.334h0.557V10.183z M125.836,8.928h-0.594l-0.004,0.273l0.598-0.005V8.928z M125.242,9.331V9.65h0.594
			V9.331H125.242z M126.199,10.183h-0.589v0.334h0.589V10.183z M126.202,10.645h-0.592v0.37h0.592V10.645z"/>
		<path fill="#FFFFFF" d="M130.005,10.463h-1.047l0.003,0.29h-0.171V9.201h1.212l0.003-0.742h0.172l-0.005,0.745l1.255-0.003v1.493
			l-0.175,0.004v-0.24h-1.075v1.36h-0.172V10.463z M128.958,9.364l0.003,0.938h1.044l-0.003-0.941L128.958,9.364z M130.177,9.364
			v0.938h1.079V9.36L130.177,9.364z"/>
		<path fill="#FFFFFF" d="M135.07,11.662c-0.019,0.062-0.055,0.116-0.118,0.116c-0.062,0.008-0.115-0.018-0.162-0.055
			c-0.283-0.266-0.518-0.596-0.684-0.935c-0.284,0.302-0.604,0.578-0.938,0.811l-0.115-0.087l0.512-0.407
			c0.182-0.146,0.327-0.302,0.477-0.473c-0.175-0.447-0.28-0.934-0.295-1.437h-1.283v0.582l0.938-0.003
			c-0.011,0.399-0.036,0.763-0.124,1.151c-0.021,0.106-0.102,0.16-0.199,0.172c-0.128,0.015-0.226,0.007-0.341,0.003l-0.066-0.142
			c0.109,0.011,0.25,0.011,0.345,0.011c0.14-0.004,0.11-0.148,0.149-0.229c0.039-0.27,0.065-0.546,0.07-0.825h-0.779
			c-0.028,0.596-0.044,1.225-0.324,1.738c-0.018,0.032-0.043,0.072-0.065,0.108c-0.043-0.015-0.09-0.04-0.134-0.062
			c0.276-0.473,0.36-1.051,0.367-1.625l0.014-1.022h1.423l-0.008-0.61l0.153-0.004c0.003,0.215,0,0.418,0.019,0.61l1.234,0.004
			v0.142h-1.225c0.015,0.448,0.095,0.888,0.252,1.288c0.25-0.292,0.468-0.608,0.649-0.928c0.045,0.018,0.088,0.044,0.133,0.076
			l-0.007,0.025c-0.213,0.338-0.438,0.68-0.714,0.989c0.151,0.353,0.378,0.677,0.676,0.955c0.045,0.03,0.054,0,0.059-0.043
			c0.051-0.162,0.105-0.33,0.152-0.498l0.127,0.052L135.07,11.662z M134.67,8.906c-0.146-0.116-0.316-0.251-0.466-0.356l0.095-0.103
			c0.155,0.109,0.312,0.233,0.462,0.354L134.67,8.906z"/>
		<path fill="#FFFFFF" d="M136.206,9.935l0.005,1.852l-0.142-0.004v-1.651c-0.142,0.211-0.339,0.463-0.524,0.654l-0.091-0.112
			l0.272-0.309l0.331-0.451c0.135-0.185,0.244-0.383,0.354-0.582h-0.879V9.189l1.034,0.004v0.146
			C136.454,9.542,136.331,9.735,136.206,9.935z M136.182,9.095c-0.095-0.186-0.214-0.367-0.332-0.545l0.11-0.08
			c0.109,0.186,0.246,0.37,0.342,0.56L136.182,9.095z M136.68,10.56c-0.131-0.156-0.291-0.312-0.433-0.454l0.105-0.091
			c0.149,0.142,0.295,0.295,0.437,0.455L136.68,10.56z M138.629,11.527c-0.051,0.052-0.091,0.095-0.163,0.095h-0.463
			c-0.123,0-0.225-0.102-0.225-0.236v-0.898h-0.316c-0.032,0.309-0.047,0.633-0.269,0.855c-0.23,0.229-0.51,0.356-0.801,0.436
			l-0.077-0.123c0.317-0.091,0.647-0.223,0.854-0.514c0.103-0.195,0.139-0.422,0.15-0.654h-0.411v-1.85h1.425v1.85h-0.414
			l0.003,0.862c0,0.08,0.052,0.131,0.146,0.131h0.363c0.073,0,0.113-0.069,0.139-0.124c0.043-0.094,0.048-0.232,0.079-0.33
			l0.132,0.058C138.741,11.236,138.728,11.4,138.629,11.527z M138.192,8.778h-1.138v0.408h1.142L138.192,8.778z M138.196,9.328
			h-1.142v0.4h1.142V9.328z M138.192,9.873l-1.138-0.004v0.48l1.138-0.004V9.873z"/>
		<path fill="#FFFFFF" d="M142.127,11.302c-0.052,0.153-0.07,0.418-0.252,0.418l-0.803,0.004c-0.138,0-0.203-0.072-0.203-0.199
			v-0.285l-0.59-0.003c-0.236,0.302-0.586,0.477-1.259,0.582l-0.058-0.112c0.371-0.062,0.891-0.168,1.156-0.47l-0.476-0.003v-1.128
			h1.868v1.128l-0.506-0.004v0.239c0,0.073,0.04,0.116,0.12,0.116l0.717,0.004c0.127,0,0.112-0.229,0.164-0.341L142.127,11.302z
			 M141.912,10.342V9.862h-2.655l0.005,0.473h-0.146l0.004-0.597h0.24c-0.022-0.319-0.043-0.672-0.065-0.989
			c0.271-0.055,0.534-0.123,0.781-0.236l0.073,0.095c-0.227,0.109-0.469,0.175-0.717,0.229l0.004,0.214l0.626-0.003l0.002,0.127
			h-0.609l0.011,0.203h0.592v0.128l-0.578,0.004l0.02,0.229l2.155,0.004c0.016-0.073,0.018-0.148,0.025-0.232h-0.573V9.386h0.581
			l0.019-0.215h-0.607V9.048h0.613l0.019-0.236l-0.672-0.004V8.685l0.814,0.003l-0.081,1.059h0.259v0.604L141.912,10.342z
			 M141.374,10.239l-1.586-0.003v0.196l1.581,0.004L141.374,10.239z M139.788,10.56v0.208l1.59,0.004V10.56H139.788z
			 M139.792,11.113h1.586v-0.219h-1.586V11.113z M140.856,9.069c-0.083-0.065-0.182-0.131-0.268-0.189
			c-0.128,0.092-0.259,0.193-0.397,0.263l-0.075-0.095c0.122-0.069,0.247-0.153,0.358-0.24c-0.09-0.059-0.185-0.113-0.283-0.16
			l0.062-0.095c0.105,0.048,0.218,0.121,0.319,0.179c0.095-0.08,0.182-0.179,0.266-0.27l0.103,0.069l-0.262,0.265
			c0.08,0.048,0.156,0.106,0.236,0.153L140.856,9.069z M140.971,9.143c-0.08,0.08-0.172,0.167-0.262,0.243
			c0.09,0.059,0.195,0.135,0.287,0.191l-0.08,0.097c-0.113-0.062-0.197-0.153-0.31-0.212c-0.117,0.088-0.251,0.179-0.382,0.24
			l-0.08-0.084c0.116-0.062,0.24-0.131,0.354-0.214l-0.267-0.146l0.059-0.101c0.108,0.051,0.211,0.116,0.319,0.164
			c0.092-0.077,0.179-0.157,0.262-0.245L140.971,9.143z"/>
	</g>
	<g>
		<g>
			<path fill="#FFFFFF" d="M145.181,11.812c0-3.737,0-7.476,0-11.215c0.025,0,0.05,0,0.074,0c3.702,0,7.405,0,11.106,0
				c0.016,0,0.036-0.012,0.046,0.009c-0.003,0.021-0.009,0.041-0.009,0.062c-0.001,3.687,0,7.375,0,11.063
				c0,0.013,0,0.027-0.001,0.04c0,0.014-0.002,0.026-0.004,0.041C152.654,11.812,148.919,11.812,145.181,11.812z"/>
			<path fill="#A1A2A5" d="M145.181,11.812c3.738,0,7.474,0,11.213,0c0.002-0.015,0.004-0.027,0.004-0.041
				c0.001-0.013,0.001-0.027,0.001-0.04c0-3.688-0.001-7.377,0-11.063c0-0.021,0.006-0.041,0.009-0.062c0,3.739,0,7.477,0,11.216
				c-0.024,0-0.048,0-0.073,0c-3.701,0-7.405,0-11.106,0C145.213,11.821,145.192,11.833,145.181,11.812z"/>
		</g>
		<g>
			<path fill="#221E1F" d="M155.854,1.17c-0.01,0.06-0.021,0.121-0.03,0.183c-0.019,0.117-0.037,0.233-0.054,0.351
				c-0.009,0.063-0.014,0.128-0.028,0.19c-0.044,0.178-0.168,0.275-0.351,0.281c-0.049,0.003-0.097-0.004-0.146-0.004
				c-0.207-0.002-0.415,0-0.622,0c-0.003,0-0.007,0-0.013,0.001c0.07,0.669,0.144,1.338,0.215,2.013
				c0.058-0.003,0.117-0.002,0.174-0.01c0.051-0.006,0.076-0.047,0.082-0.107c0-0.009,0-0.017,0-0.025c0-0.492,0-0.983,0-1.475
				c0-0.012,0-0.021,0-0.033c0.236,0,0.469,0,0.706,0c0,0.011,0,0.021,0,0.031c0,0.602,0,1.203,0,1.803
				c0,0.064,0.008,0.129,0.005,0.193c-0.006,0.092-0.037,0.174-0.115,0.23c-0.055,0.041-0.12,0.058-0.188,0.061
				c-0.057,0.002-0.111-0.004-0.168-0.005c-0.134,0-0.268,0-0.402,0c-0.01,0-0.02,0-0.03,0c0.015,0.071,0.027,0.141,0.041,0.211
				c0.008,0.033,0.013,0.068,0.023,0.101c0.029,0.076,0.086,0.115,0.167,0.115c0.059,0.001,0.113,0,0.171,0c0.157,0,0.314,0,0.475,0
				c0,0.215,0,0.428,0,0.645c-0.011,0-0.021,0-0.029,0c-0.37,0-0.739,0-1.109,0c-0.061,0-0.123,0.008-0.183,0.001
				c-0.178-0.02-0.281-0.116-0.312-0.292c-0.013-0.07-0.015-0.144-0.021-0.215c-0.018-0.168-0.032-0.337-0.049-0.505
				c-0.017-0.162-0.032-0.326-0.048-0.487c-0.017-0.168-0.033-0.336-0.049-0.503c-0.015-0.146-0.029-0.295-0.043-0.44
				c-0.016-0.166-0.033-0.334-0.049-0.498c-0.016-0.163-0.031-0.326-0.048-0.49c-0.011-0.104-0.021-0.211-0.03-0.317
				c-0.627,0-1.255,0-1.883,0c0,0.147,0,0.296,0,0.447c0.01,0,0.02,0,0.028,0c0.377,0,0.753,0,1.13-0.002
				c0.059,0,0.116-0.007,0.174-0.009c0.065,0,0.128,0.011,0.187,0.037c0.109,0.05,0.163,0.141,0.175,0.254
				c0.008,0.072,0,0.146,0,0.218c0,0.013-0.003,0.025-0.003,0.038c0,0.735,0,1.471,0.001,2.207c0,0.056,0.005,0.111,0.004,0.167
				c-0.004,0.101-0.03,0.194-0.104,0.268c-0.068,0.068-0.156,0.096-0.249,0.102c-0.069,0.004-0.14-0.001-0.21-0.001
				c-0.26,0-0.52,0-0.778,0c-0.011,0-0.021,0-0.033,0c0-0.195,0-0.386,0-0.579c0.009,0,0.018,0,0.024,0c0.145,0,0.288,0,0.432,0.001
				c0.098,0.001,0.149-0.059,0.144-0.162c-0.003-0.027-0.003-0.055-0.003-0.084c0-0.504,0-1.008,0-1.513
				c0-0.048,0.007-0.099,0-0.146c-0.015-0.112-0.086-0.173-0.199-0.177c-0.04-0.001-0.081,0.004-0.121,0.004
				c-0.19,0.001-0.38,0-0.569,0c-0.009,0-0.019,0-0.03,0c0,0.012,0,0.021,0,0.03c0,0.712,0,1.424,0,2.136
				c0,0.065,0.004,0.132-0.006,0.198c-0.021,0.156-0.123,0.26-0.281,0.282c-0.064,0.01-0.129,0.007-0.194,0.01
				c-0.01,0-0.019,0-0.028,0c-0.168,0-0.337,0-0.506,0c-0.01,0-0.02,0-0.031,0c0-0.193,0-0.385,0-0.579c0.031,0,0.063-0.002,0.094,0
				c0.112,0.007,0.171-0.052,0.164-0.164c-0.001-0.021-0.003-0.04-0.003-0.061c0-1.201,0-2.402,0-3.602c0-0.01,0-0.021,0-0.031
				c0.885,0,1.769,0,2.656,0c0-0.128,0-0.255,0-0.383c0.257,0,0.516,0,0.771,0c0.007,0,0.013,0.002,0.02,0.002
				c0,0.127,0,0.255,0,0.383c0.122,0,0.241,0.003,0.358-0.002c0.078-0.003,0.114-0.04,0.133-0.119
				c0.013-0.06,0.029-0.117,0.043-0.178c0.012,0,0.02,0,0.029,0c0.098,0,0.195,0,0.292,0c0.145,0,0.287,0,0.432,0
				C155.854,1.167,155.854,1.167,155.854,1.17z"/>
			<path fill="#221E1F" d="M152.258,11.213c-0.008-0.003-0.02-0.005-0.027-0.005c-0.417-0.001-0.834-0.001-1.25-0.001
				c-0.01,0-0.02,0-0.031,0c0-0.192,0-0.385,0-0.579c0.01,0,0.019,0,0.028,0c0.24,0,0.479-0.008,0.719,0.004
				c0.137,0.006,0.233-0.053,0.317-0.146c0.29-0.324,0.579-0.649,0.867-0.976c0.01-0.011,0.015-0.027,0.015-0.042
				c0.002-0.224,0.002-0.449,0.002-0.674c0-0.01,0-0.018,0-0.029c0.264,0,0.526,0,0.792,0c0,0.306,0,0.612,0,0.921
				c0.201,0,0.398,0,0.601,0c0,0.012,0,0.02,0,0.029c0,0.241,0,0.483,0,0.724c0,0.006-0.002,0.013,0,0.021
				c0.002,0.098,0.053,0.147,0.15,0.147c0.315,0,0.631,0,0.947,0c0.118,0,0.237,0,0.356,0c0,0.199,0,0.397,0,0.599
				c-0.008,0-0.019,0-0.028,0c-0.626,0-1.251,0.001-1.876,0c-0.051,0-0.101,0.002-0.149-0.008c-0.118-0.021-0.19-0.1-0.208-0.22
				c-0.007-0.047-0.007-0.097-0.007-0.146c0-0.27,0-0.541,0-0.81c0-0.004,0-0.005-0.001-0.01c-0.006,0.006-0.012,0.012-0.016,0.018
				c-0.264,0.328-0.527,0.654-0.79,0.983c-0.073,0.091-0.161,0.159-0.278,0.186c-0.02,0.004-0.042,0.008-0.062,0.012
				C152.305,11.213,152.281,11.213,152.258,11.213z"/>
			<path fill="#221E1F" d="M154.569,1.073c0,0.002,0,0.004-0.002,0.007c-0.007,0-0.013-0.002-0.02-0.002c-0.256,0-0.515,0-0.771,0
				c0-0.002,0-0.003,0-0.005C154.041,1.073,154.307,1.073,154.569,1.073z"/>
			<path fill="#221E1F" d="M145.841,11.056L145.841,11.056h-0.005c0-0.156,0-0.312,0-0.468c0.002,0,0.005,0,0.007,0
				C145.843,10.744,145.841,10.899,145.841,11.056z"/>
			<path fill="#221E1F" d="M147.96,5.917c0-0.121,0-0.24,0-0.362c-0.663,0-1.325,0-1.989,0c0-1.35,0-2.697,0-4.048
				c0.646,0,1.293,0,1.943,0c0-0.13,0-0.258,0-0.387c0.289,0,0.575,0,0.863,0c0,0.128,0,0.255,0,0.385c0.65,0,1.296,0,1.946,0
				c0,0.012,0,0.021,0,0.032c0,1.126,0,2.251,0,3.378c0,0.077,0.002,0.154-0.006,0.23c-0.014,0.121-0.055,0.229-0.156,0.309
				c-0.079,0.061-0.171,0.083-0.268,0.083c-0.372,0-0.743-0.004-1.115-0.004c-0.132-0.001-0.262,0-0.394,0c-0.01,0-0.019,0-0.03,0
				c0,0.128,0,0.255,0,0.384C148.489,5.917,148.226,5.917,147.96,5.917z M146.769,2.217c0,0.898,0,1.794,0,2.691
				c0.39,0,0.778,0,1.167,0c0-0.897,0-1.794,0-2.691C147.545,2.217,147.156,2.217,146.769,2.217z M148.755,4.888
				c0.005,0,0.009,0,0.012,0c0.359,0,0.719,0,1.079,0c0.033,0,0.058-0.016,0.067-0.047c0.009-0.032,0.017-0.065,0.017-0.097
				c0-0.597-0.002-1.194-0.004-1.793c0-0.235,0-0.472,0-0.708c0-0.009,0-0.018,0-0.025c-0.392,0-0.78,0-1.171,0
				C148.755,3.108,148.755,3.997,148.755,4.888z"/>
			<path fill="#221E1F" d="M149.844,9.772c0-0.936,0-1.868,0-2.804c-0.37,0-0.74,0-1.11,0c0,0.941,0,1.882,0,2.825
				c-0.224,0-0.443,0-0.665,0c0-1.155,0-2.311,0-3.468c0.812,0,1.626,0,2.44,0c0,1.148,0,2.297,0,3.446
				C150.286,9.772,150.067,9.772,149.844,9.772z"/>
			<path fill="#221E1F" d="M151.101,7.739c1.513,0,3.023,0,4.537,0c0,0.692,0,1.383,0,2.074c-0.271,0-0.54,0-0.812,0
				c0-0.469,0-0.938,0-1.408c-0.972,0-1.941,0-2.912,0c0,0.463,0,0.924,0,1.389c-0.273,0-0.543,0-0.813,0
				C151.101,9.11,151.101,8.426,151.101,7.739z"/>
			<path fill="#221E1F" d="M150.972,6.562c0.106,0,0.212,0,0.319,0c-0.029-0.095-0.057-0.186-0.085-0.279c0.012,0,0.02,0,0.027,0
				c0.269,0,0.537,0.002,0.805,0c0.019,0,0.028,0.005,0.035,0.024c0.028,0.077,0.06,0.155,0.089,0.233
				c0.005,0.013,0.01,0.021,0.025,0.021c0.247-0.002,0.495-0.002,0.742-0.002c0.002,0,0.004,0,0.009-0.001
				c-0.035-0.092-0.069-0.183-0.106-0.276c0.014,0,0.022,0,0.032,0c0.273,0,0.547,0.002,0.82,0c0.021,0,0.03,0.005,0.038,0.026
				c0.027,0.077,0.06,0.153,0.088,0.231c0.006,0.015,0.012,0.021,0.029,0.021c0.236-0.002,0.472-0.002,0.708,0
				c0.016,0,0.021-0.007,0.026-0.02c0.03-0.081,0.062-0.16,0.091-0.239c0.006-0.013,0.012-0.021,0.027-0.021
				c0.281,0,0.562,0,0.843,0c0.005,0,0.008,0.002,0.018,0.003c-0.035,0.091-0.07,0.181-0.105,0.273c0.107,0,0.212,0,0.319,0
				c0,0.322,0,0.644,0,0.965c-0.293,0-0.584,0-0.878,0c0-0.112,0-0.226,0-0.339c-1.021,0-2.04,0-3.062,0c0,0.113,0,0.224,0,0.339
				c-0.286,0-0.569,0-0.855,0C150.972,7.202,150.972,6.883,150.972,6.562z"/>
			<path fill="#221E1F" d="M148.026,11.144c0-0.18,0-0.355,0-0.535c0.01,0,0.018,0,0.028,0c0.088-0.002,0.178,0.001,0.269-0.004
				c0.105-0.008,0.182-0.064,0.23-0.159c0.046-0.085,0.089-0.172,0.135-0.258c0.096-0.188,0.191-0.376,0.288-0.564
				c0.006-0.015,0.011-0.029,0.011-0.046c0-0.716,0-1.433,0-2.147c0-0.011,0-0.021,0-0.032c0.2,0,0.399,0,0.601,0
				c0,0.009,0,0.018,0,0.026c0,0.79,0,1.579,0,2.37c0,0.016-0.004,0.032-0.011,0.045c-0.021,0.055-0.048,0.109-0.072,0.168
				c0.178,0,0.354,0,0.532,0c0,0.011,0,0.02,0,0.026c0,0.139,0,0.278,0,0.417c0,0.034-0.001,0.068,0.005,0.102
				c0.01,0.058,0.049,0.08,0.107,0.079c0.141-0.003,0.281-0.002,0.423-0.002c0,0.179,0,0.355,0,0.538c-0.009,0-0.019,0-0.026,0
				c-0.261,0-0.522,0.001-0.783-0.001c-0.05-0.001-0.102-0.009-0.15-0.022c-0.136-0.038-0.216-0.144-0.219-0.292
				c-0.003-0.158,0.001-0.316,0.001-0.474c0.001-0.055,0-0.11,0-0.171c-0.006,0.012-0.013,0.02-0.017,0.026
				c-0.111,0.206-0.226,0.412-0.338,0.617c-0.012,0.022-0.021,0.046-0.032,0.067c-0.062,0.124-0.167,0.189-0.3,0.212
				c-0.068,0.012-0.14,0.012-0.21,0.014c-0.146,0.001-0.294,0-0.441,0C148.048,11.144,148.038,11.144,148.026,11.144z"/>
			<path fill="#221E1F" d="M147.19,11.185c-0.201,0-0.399,0-0.6,0c0-1.026,0-2.052,0-3.08c-0.237,0-0.471,0-0.706,0
				c0-0.215,0-0.43,0-0.645c0.647,0,1.296,0,1.947,0c0,0.214,0,0.427,0,0.643c-0.213,0-0.426,0-0.642,0
				C147.19,9.131,147.19,10.158,147.19,11.185z"/>
			<path fill="#221E1F" d="M147.811,6.348c0,0.214,0,0.427,0,0.642c-0.636,0-1.27,0-1.906,0c0-0.213,0-0.426,0-0.642
				C146.539,6.348,147.175,6.348,147.811,6.348z"/>
			<path fill="#221E1F" d="M145.841,11.056c0-0.156,0.002-0.312,0.002-0.468c0.028,0.002,0.059,0.003,0.089,0.004
				c0.026,0.002,0.051-0.012,0.06-0.038c0.012-0.035,0.02-0.071,0.021-0.108c0.004-0.037-0.001-0.073-0.001-0.11
				c0-0.626,0-1.253,0-1.879c0-0.01,0-0.02,0-0.03c0.143,0,0.284,0,0.43,0c0,0.008,0,0.019,0,0.026c0,0.731,0,1.461,0,2.192
				c0,0.072,0,0.145-0.012,0.215c-0.022,0.134-0.108,0.202-0.243,0.202c-0.109-0.002-0.22-0.003-0.329-0.004
				C145.852,11.058,145.847,11.057,145.841,11.056z"/>
			<path fill="#221E1F" d="M147.318,8.425c0.145,0,0.286,0,0.429,0c0,0.011,0,0.021,0,0.031c0,0.673,0,1.349,0,2.023
				c0,0.013,0,0.025,0,0.038c0.004,0.058,0.026,0.081,0.085,0.091c0,0.148,0,0.297,0,0.448c-0.007,0-0.014,0.001-0.02,0.001
				c-0.081,0-0.164,0.005-0.245-0.001c-0.141-0.012-0.223-0.092-0.242-0.23c-0.005-0.054-0.007-0.108-0.007-0.162
				c0-0.735,0-1.47,0-2.205C147.318,8.448,147.318,8.438,147.318,8.425z"/>
		</g>
	</g>
</g>
</svg>
