<?xml version="1.0" encoding="utf-8"?>
<!-- Generator: Adobe Illustrator 16.0.3, SVG Export Plug-In . SVG Version: 6.00 Build 0)  -->
<!DOCTYPE svg PUBLIC "-//W3C//DTD SVG 1.1//EN" "http://www.w3.org/Graphics/SVG/1.1/DTD/svg11.dtd">
<svg version="1.1" id="图层_1" xmlns="http://www.w3.org/2000/svg" xmlns:xlink="http://www.w3.org/1999/xlink" x="0px" y="0px"
	 width="34px" height="34px" viewBox="0 0 34 34" enable-background="new 0 0 34 34" xml:space="preserve">
<g id="新建符号">
</g>
<g>
	<g opacity="0.3">
		<path fill="#666666" d="M27,0H7C3.149,0,0,3.149,0,7v20c0,3.85,3.149,7,7,7h20c3.85,0,7-3.15,7-7V7C34,3.149,30.85,0,27,0z"/>
	</g>
	<path fill="#FFFFFF" d="M24.883,15.897c-0.232,0.041-0.466-0.012-0.657-0.151c-0.537-0.391-3.35-2.309-4.299-2.397
		c-0.033-0.003-0.736-0.231-0.668,0.262c0,0-0.027,0.972,0,1.804c0.068,2.104-0.121,6.186-0.121,6.186
		c0.024,0.544,0,2.279-1.361,3.566c-0.926,0.877-3.897,2.158-6.883,1.002c-0.607-0.234-1.266-0.752-1.646-1.256
		C8.445,23.846,8.21,22.785,8.624,21.6c0.533-1.529,1.889-2.354,3.792-2.9c1.353-0.389,2.823-0.354,4.097,0.076L16.106,8.63
		c-0.015-0.151-0.021-0.318,0.021-0.504c0.105-0.446,0.453-0.74,0.926-0.753c0.371-0.008,0.744,0.008,1.109,0.047
		c4.018,0.433,7.204,3.713,7.412,7.63C25.597,15.465,25.307,15.821,24.883,15.897z"/>
</g>
</svg>
