<?xml version="1.0" encoding="utf-8"?>
<!-- Generator: Adobe Illustrator 16.0.3, SVG Export Plug-In . SVG Version: 6.00 Build 0)  -->
<!DOCTYPE svg PUBLIC "-//W3C//DTD SVG 1.1//EN" "http://www.w3.org/Graphics/SVG/1.1/DTD/svg11.dtd">
<svg version="1.1" id="图层_1" xmlns="http://www.w3.org/2000/svg" xmlns:xlink="http://www.w3.org/1999/xlink" x="0px" y="0px"
	 width="271.333px" height="60.665px" viewBox="0 0 271.333 60.665" enable-background="new 0 0 271.333 60.665"
	 xml:space="preserve">
<g>
	<rect fill="#9D8762" width="271.333" height="60.665"/>
	<g>
		<path fill="#FFFFFF" d="M9.564,13.58l0.156-0.235c2.137,0.575,3.18,1.356,3.128,2.347c-0.104,0.834-0.547,1.33-1.329,1.486
			c-0.47,0-0.757-0.26-0.86-0.782C10.503,15.301,10.137,14.362,9.564,13.58z M13.631,19.368c-0.262,0.991-0.391,1.799-0.391,2.425
			c0,0.678,0.078,1.33,0.234,1.955c0.208,0.782,0.312,1.277,0.312,1.486c0,0.99-0.469,1.511-1.407,1.564
			c-0.888,0-1.33-0.469-1.33-1.408c0-0.209,0.026-0.495,0.078-0.86c0.052-0.208,0.078-0.364,0.078-0.469
			c0.157-0.573,0.235-1.068,0.235-1.486c0.104-0.886-0.496-1.537-1.799-1.955l0.156-0.391c1.303,0.365,2.033,0.156,2.189-0.625
			l3.051-6.648l0.312,0.157L13.631,19.368z M11.05,9.591l0.156-0.235c2.19,0.418,3.285,1.122,3.285,2.112
			c-0.104,0.887-0.547,1.382-1.329,1.486c-0.418,0-0.704-0.234-0.86-0.704C12.196,11.312,11.779,10.426,11.05,9.591z M19.653,19.681
			l2.659,0.234c0.208,0,0.312,0.105,0.312,0.313c0,0.262-0.261,0.444-0.781,0.547c0,0.053,0,0.184,0,0.391
			c-0.053,0.157-0.079,0.287-0.079,0.391h3.755l1.017-1.33l1.877,1.251c0.104,0,0.156,0.078,0.156,0.234
			c0,0.157-0.183,0.262-0.547,0.313h-5.632c1.355,1.408,3.493,2.217,6.414,2.425l-0.079,0.469c-0.73,0.104-1.304,0.755-1.721,1.955
			c-2.815-0.782-4.536-2.397-5.161-4.849h-0.157c-0.469,2.712-2.894,4.38-7.273,5.006l-0.156-0.391
			c3.128-1.304,4.875-2.841,5.24-4.615h-4.928v-0.469h5.006c0.052-0.364,0.078-0.782,0.078-1.251
			C19.653,20.099,19.653,19.89,19.653,19.681z M19.263,8.887l2.502,0.235c0.208,0.052,0.313,0.156,0.313,0.312
			c0,0.209-0.234,0.366-0.704,0.469c-0.312,0.47-0.73,0.888-1.251,1.251h4.614l0.626-1.017l2.111,0.782
			c0.156,0.105,0.234,0.234,0.234,0.391c0.052,0.209-0.156,0.469-0.625,0.782v2.19c0,0.261,0,0.887,0,1.877
			c0.051,1.46,0.078,2.424,0.078,2.894c0,0.418-0.131,0.653-0.392,0.704c-0.521,0.156-1.069,0.235-1.643,0.235v-8.291h-7.586v7.978
			c0.051,0.313-0.078,0.496-0.392,0.547c-0.626,0.105-1.173,0.156-1.643,0.156c0.052-0.99,0.078-2.606,0.078-4.849v-2.346
			c0-0.99,0-1.85,0-2.581l2.269,0.547h1.33C19.341,10.322,19.366,9.565,19.263,8.887z M17.854,19.446L17.62,19.29
			c1.042-1.303,1.799-2.476,2.268-3.52h-1.877v-0.391h2.503v-1.173c0-0.208-0.026-0.599-0.078-1.173c0-0.521,0-0.86,0-1.017
			l1.955,0.235c0.208,0,0.313,0.052,0.313,0.156c0.051,0.262-0.157,0.469-0.626,0.626v2.346h0.86l0.704-0.938l1.251,0.86
			c0.052,0,0.078,0.078,0.078,0.234c0,0.157-0.156,0.235-0.469,0.235h-2.425v0.547c1.721,0.313,2.581,0.835,2.581,1.564
			c0,0.625-0.287,0.965-0.86,1.017c-0.365,0-0.601-0.156-0.704-0.469c-0.262-0.782-0.6-1.33-1.017-1.643
			c0,0.262,0.025,0.626,0.078,1.095c0,0.469,0,0.809,0,1.017c0,0.313-0.105,0.496-0.312,0.547c-0.47,0.157-0.938,0.235-1.408,0.235
			c0-0.833,0.025-1.59,0.078-2.268C19.731,18.194,18.845,18.873,17.854,19.446z M17.933,12.798l0.234-0.156
			c1.252,0.312,1.903,0.809,1.956,1.486c-0.053,0.574-0.34,0.887-0.86,0.938c-0.366,0-0.548-0.182-0.548-0.547
			C18.559,13.789,18.297,13.216,17.933,12.798z M23.095,12.563l1.408,0.625c0.156,0,0.234,0.078,0.234,0.235
			c0.051,0.261-0.156,0.391-0.626,0.391c-0.626,0.626-1.173,1.069-1.643,1.33l-0.234-0.156
			C22.651,14.154,22.938,13.345,23.095,12.563z"/>
		<path fill="#FFFFFF" d="M31.542,26.876c0.104-1.669,0.156-3.571,0.156-5.709v-5.005c0-1.981-0.027-3.467-0.078-4.458l2.659,0.234
			c0.208,0,0.312,0.078,0.312,0.235c0,0.261-0.262,0.469-0.782,0.625v7.821c0,0.469,0,1.251,0,2.346
			c0.052,1.356,0.078,2.398,0.078,3.129c0,0.312-0.183,0.521-0.547,0.625C32.767,26.876,32.167,26.927,31.542,26.876z M33.967,9.122
			l0.078-0.235c2.502,0.366,3.754,1.173,3.754,2.425c-0.053,0.991-0.548,1.513-1.486,1.564c-0.469,0.053-0.756-0.182-0.86-0.704
			C35.14,10.973,34.644,9.957,33.967,9.122z M44.447,11.312h-5.162v-0.469h4.692l0.704-1.33l2.503,1.017
			c0.207,0.053,0.312,0.183,0.312,0.391c0,0.313-0.262,0.6-0.782,0.86v6.335c0,2.347,0.025,4.511,0.078,6.492
			c0.052,1.459-1.017,2.241-3.206,2.346c0.156-1.2-0.835-1.929-2.973-2.19l0.078-0.391l2.659,0.156
			c0.782,0.053,1.146-0.235,1.096-0.86V11.312z"/>
		<path fill="#FFFFFF" d="M66.269,11.781l0.86-1.251l1.563,1.173c0.104,0.052,0.157,0.156,0.157,0.312
			c0,0.157-0.157,0.235-0.47,0.235h-4.85c0,0.209,0,0.391,0,0.547c0.052,2.712,0.313,4.98,0.782,6.805
			c0.104-0.26,0.235-0.626,0.392-1.095c0.208-0.521,0.338-0.886,0.391-1.095c0.313-0.99,0.521-2.06,0.626-3.207l2.347,0.626
			c0.207,0.052,0.312,0.156,0.312,0.312c-0.053,0.313-0.312,0.47-0.782,0.47c-0.626,2.711-1.435,4.823-2.425,6.335
			c0.208,0.469,0.47,0.887,0.782,1.251c0.364,0.418,0.651,0.418,0.86,0l1.017-2.425l0.392,0.079l-0.234,2.737
			c-0.105,0.418-0.027,0.756,0.234,1.017c0,0.053,0.025,0.105,0.078,0.156c0.156,0.157,0.234,0.364,0.234,0.626
			c-0.053,0.625-0.443,0.964-1.173,1.017c-1.304-0.105-2.53-0.965-3.676-2.581c-1.356,1.251-3.129,2.269-5.318,3.05l-0.235-0.312
			c2.138-1.46,3.728-2.972,4.771-4.537c-0.835-2.19-1.278-5.396-1.33-9.62V12.25H53.52v4.145c0,0.469,0,0.913,0,1.33h1.721v-0.078
			c0.052-0.104,0.078-0.182,0.078-0.234c0.104-0.521,0.234-1.303,0.392-2.347l2.346,0.313c0.208,0.053,0.313,0.156,0.313,0.313
			c-0.053,0.312-0.288,0.469-0.704,0.469c-0.156,0.574-0.313,1.095-0.47,1.564h1.252l0.625-0.938l1.956,0.86
			c0.207,0.105,0.312,0.235,0.312,0.391c0,0.262-0.262,0.469-0.782,0.626c-0.312,1.46-0.809,2.686-1.486,3.676
			c0.99,0.418,1.486,0.913,1.486,1.486c-0.053,0.731-0.365,1.122-0.938,1.173c-0.365,0-0.652-0.156-0.86-0.469
			c-0.105-0.104-0.234-0.235-0.391-0.391c-0.209-0.208-0.366-0.338-0.47-0.391c-1.095,0.991-2.843,1.85-5.24,2.581l-0.234-0.391
			c1.771-0.99,3.128-2.034,4.066-3.128c-0.73-0.469-1.563-0.808-2.502-1.017c0.312-0.626,0.651-1.721,1.017-3.285
			c0.051-0.156,0.078-0.26,0.078-0.313H53.52c0,3.911-1.251,6.805-3.754,8.682l-0.313-0.234c1.46-2.398,2.138-5.761,2.034-10.089
			V14.91c0-1.146-0.027-2.398-0.078-3.754l3.05,0.626h7.117c0-0.677-0.053-1.643-0.156-2.894L64,9.122
			c0.261,0,0.391,0.105,0.391,0.312c-0.052,0.313-0.339,0.548-0.86,0.704c0,0.105,0,0.653,0,1.643H66.269z M58.447,14.44l0.938-1.33
			l1.721,1.251c0.104,0.052,0.156,0.13,0.156,0.234c0,0.157-0.184,0.262-0.548,0.313h-6.726V14.44H58.447z M56.022,21.558
			c0.156,0,0.364,0.027,0.626,0.078c0.312,0.053,0.521,0.105,0.625,0.157c0.678-1.146,1.146-2.347,1.408-3.598h-1.643
			C56.727,19.499,56.387,20.619,56.022,21.558z M64.391,9.591l0.157-0.235c1.512,0,2.268,0.391,2.268,1.173
			c-0.053,0.625-0.443,0.965-1.173,1.017c-0.312-0.051-0.521-0.234-0.626-0.547C64.86,10.374,64.651,9.904,64.391,9.591z"/>
		<path fill="#FFFFFF" d="M84.57,15.848v-1.095h-9.777v0.234c0.157,5.527-1.356,9.516-4.536,11.966l-0.312-0.234
			c1.877-3.18,2.763-7.117,2.659-11.81v-1.251c0-0.938-0.027-2.215-0.078-3.833l2.894,0.782h8.76l0.704-1.251l2.269,0.86
			c0.207,0.105,0.312,0.235,0.312,0.391c0,0.313-0.234,0.626-0.704,0.938v0.86c0,0.575,0,1.435,0,2.581
			c0,0.365-0.156,0.6-0.469,0.704C85.665,15.797,85.091,15.848,84.57,15.848z M84.57,11.077h-9.777v3.207h9.777V11.077z
			 M85.117,16.317l2.19,1.564c0.156,0.105,0.234,0.234,0.234,0.391c0,0.261-0.156,0.391-0.47,0.391
			c-0.104,0-0.312-0.052-0.625-0.157c-2.19,1.304-4.536,2.243-7.039,2.816v2.033c0,0.575,0.364,0.86,1.095,0.86h4.224
			c0.573,0.053,0.964-0.26,1.173-0.938l0.86-2.972l0.392,0.078l0.156,2.425c0,0.469,0.156,0.834,0.469,1.095
			c0.313,0.209,0.47,0.47,0.47,0.782c-0.105,0.833-1.044,1.277-2.815,1.33h-6.179c-1.408,0.104-2.061-0.574-1.956-2.033v-3.989
			c0-0.104,0-0.47,0-1.095c-0.053-1.408-0.078-2.503-0.078-3.285l2.737,0.312c0.208,0,0.313,0.078,0.313,0.235
			c-0.053,0.313-0.34,0.547-0.86,0.704v3.833C82.38,19.029,84.283,17.569,85.117,16.317z"/>
		<path fill="#FFFFFF" d="M92.47,22.105l2.189,1.017c0.208,0.105,0.313,0.234,0.313,0.391c-0.053,0.312-0.366,0.418-0.938,0.312
			c-1.044,1.147-2.425,2.138-4.146,2.972l-0.234-0.313C90.957,25.077,91.896,23.618,92.47,22.105z M100.291,10.764l2.424,0.626
			c2.138-0.782,3.571-1.512,4.302-2.19l1.564,1.643c0.156,0.105,0.208,0.234,0.156,0.391c0,0.156-0.131,0.261-0.391,0.312
			c-0.209,0-0.418-0.078-0.626-0.234c-1.773,0.418-3.546,0.652-5.318,0.704v4.067h3.051l1.251-1.564l1.955,1.486
			c0.104,0.053,0.156,0.131,0.156,0.235c0,0.156-0.183,0.262-0.547,0.313h-1.799v1.877c0,0.418,0,1.356,0,2.815
			c0.051,2.347,0.078,3.962,0.078,4.85c0,0.364-0.131,0.547-0.392,0.547c-0.625,0.156-1.199,0.234-1.721,0.234
			c0.052-4.067,0.079-6.439,0.079-7.117v-3.207h-2.112c0.156,5.214-1.329,8.682-4.458,10.402l-0.312-0.234
			c1.354-1.825,2.163-3.571,2.424-5.24H89.811V21.01h1.877v-7.978v-0.469h-1.643v-0.548h1.564c0-1.303-0.027-2.215-0.078-2.737
			l2.581,0.235c0.207,0,0.312,0.078,0.312,0.234c-0.053,0.365-0.312,0.6-0.782,0.704v1.564h2.503
			c-0.053-0.312-0.078-0.782-0.078-1.408c-0.053-0.625-0.078-1.095-0.078-1.408l2.581,0.234c0.207,0.053,0.312,0.157,0.312,0.313
			c0,0.313-0.262,0.547-0.782,0.704v1.564h0.234l0.704-0.938l1.174,0.938c0.104,0,0.156,0.078,0.156,0.235
			c0,0.156-0.156,0.261-0.47,0.313h-1.799v8.447h0.313l0.86-1.251l0.938,0.704c0.156-0.939,0.234-1.981,0.234-3.129v-2.502
			C100.447,13.893,100.395,12.538,100.291,10.764z M96.146,15.066v-2.268v-0.234h-2.503v2.502H96.146z M93.643,15.535v2.503h2.503
			v-2.503H93.643z M93.643,18.507v2.503h2.503v-2.503H93.643z M96.85,24.921c-0.262-0.833-0.81-1.694-1.643-2.581l0.156-0.235
			c2.347,0.522,3.493,1.251,3.441,2.19c-0.053,0.678-0.443,1.042-1.173,1.095C97.318,25.39,97.057,25.234,96.85,24.921z"/>
		<path fill="#FFFFFF" d="M116.949,9.278l3.05,0.313c0.313,0,0.442,0.105,0.392,0.312c0,0.366-0.262,0.575-0.782,0.626
			c0.99,6.675,4.04,11.237,9.15,13.687l-0.156,0.469c-0.991,0.053-1.825,0.677-2.503,1.877c-3.963-2.66-6.205-7.221-6.726-13.688
			c-0.105,6.936-3.26,11.628-9.464,14.078l-0.313-0.391c4.744-3.389,7.222-7.821,7.431-13.296
			C117.131,11.912,117.105,10.583,116.949,9.278z"/>
		<path fill="#FFFFFF" d="M132.357,14.832c0-1.825-0.027-3.102-0.079-3.833l2.895,0.704h4.38c-0.209-0.157-0.365-0.391-0.47-0.704
			c-0.156-0.782-0.469-1.381-0.938-1.799l0.078-0.235c1.981-0.051,3.023,0.418,3.129,1.408c0,0.625-0.34,1.069-1.017,1.33h3.832
			l0.704-1.173l2.268,0.86c0.208,0.053,0.313,0.156,0.313,0.313c0,0.312-0.262,0.625-0.782,0.938v0.547c0,0.678,0,1.486,0,2.425
			c0.051,0.365-0.078,0.574-0.392,0.625c-0.574,0.105-1.147,0.156-1.72,0.156v-1.173h-10.012c0,1.043-0.026,2.008-0.078,2.894h5.553
			c-0.209-0.104-0.365-0.338-0.469-0.704c-0.156-0.677-0.47-1.251-0.938-1.721l0.156-0.235c2.033-0.051,3.05,0.418,3.05,1.408
			c-0.052,0.626-0.391,1.044-1.017,1.251h4.458l1.252-1.564l1.955,1.486c0.104,0.053,0.156,0.131,0.156,0.235
			c0,0.156-0.184,0.261-0.547,0.312h-8.135c-0.053,0.782-0.131,1.46-0.234,2.034h4.146l0.704-1.251l2.189,0.86
			c0.208,0.105,0.312,0.235,0.312,0.391c0,0.313-0.261,0.625-0.782,0.938c0,0.678-0.052,1.382-0.156,2.112
			c-0.104,2.034-1.329,3.076-3.676,3.128c0.104-0.991-0.757-1.591-2.581-1.799l0.078-0.391l2.425,0.156
			c1.042,0.157,1.615-0.26,1.721-1.251c0.104-0.833,0.156-1.616,0.156-2.347h-4.692c-0.418,2.816-2.608,4.744-6.57,5.788
			l-0.234-0.312c3.441-1.877,5.109-4.562,5.006-8.056h-3.363c-0.105,3.807-1.513,6.621-4.224,8.447l-0.391-0.313
			c1.042-1.617,1.721-3.154,2.033-4.615c0.364-1.459,0.548-3.598,0.548-6.413V14.832z M144.559,12.172h-10.012v2.502h10.012V12.172z
			"/>
		<path fill="#FFFFFF" d="M151.206,26.876c0.104-2.293,0.156-4.223,0.156-5.788v-5.005c0-0.364,0-0.939,0-1.721
			c-0.052-0.782-0.078-1.381-0.078-1.799l2.659,0.234c0.208,0.053,0.313,0.131,0.313,0.235c0,0.312-0.262,0.547-0.782,0.704v6.883
			c0,0.469,0.025,1.435,0.078,2.894c0,1.251,0,2.084,0,2.502c0,0.364-0.184,0.599-0.548,0.704c-0.053,0-0.104,0-0.156,0
			C152.38,26.824,151.832,26.876,151.206,26.876z M154.647,12.094c-0.262-1.095-0.782-2.059-1.564-2.894l0.078-0.235
			c2.66,0.313,3.962,1.069,3.911,2.269c-0.105,0.938-0.626,1.486-1.564,1.642C155.09,12.876,154.804,12.616,154.647,12.094z
			 M162.938,22.809c0.051,0.365-0.105,0.574-0.47,0.625c-0.574,0.105-1.147,0.157-1.721,0.157v-1.408h-3.207v1.33
			c0.052,0.312-0.078,0.496-0.391,0.547c-0.626,0.156-1.2,0.234-1.721,0.234c0.052-1.095,0.078-2.581,0.078-4.458v-3.05
			c0-1.459-0.026-2.502-0.078-3.128l2.737,0.704h2.19l0.704-1.173l2.268,0.86c0.208,0.053,0.312,0.156,0.312,0.313
			c0,0.312-0.261,0.625-0.781,0.938v2.581C162.86,20.124,162.886,21.767,162.938,22.809z M160.748,14.832h-3.207v3.128h3.207V14.832
			z M157.541,18.507v3.207h3.207v-3.207H157.541z M164.659,10.921l0.703-1.251l2.269,0.938c0.261,0.105,0.391,0.235,0.391,0.391
			c0,0.313-0.261,0.625-0.781,0.938v2.816c0,4.328,0.025,7.508,0.078,9.542c0.156,1.408-0.966,2.269-3.363,2.581
			c-0.053-0.938-0.938-1.617-2.659-2.033l0.078-0.469l2.503,0.156c0.833,0.053,1.225-0.338,1.173-1.173V11.39h-6.961v-0.469H164.659
			z"/>
		<path fill="#FFFFFF" d="M184.524,25.468l1.408-1.643l2.425,1.564c0.104,0.104,0.156,0.182,0.156,0.234
			c0,0.208-0.184,0.313-0.548,0.313h-17.754v-0.469h7.821v-4.302h-5.475v-0.469h5.475v-3.989h-3.598v-0.391
			c-1.2,0.782-2.659,1.513-4.38,2.19l-0.234-0.391c3.962-2.867,6.647-5.917,8.056-9.151l2.737,0.626
			c0.208,0,0.312,0.105,0.312,0.312c0,0.262-0.261,0.47-0.782,0.626c2.347,2.452,5.267,3.938,8.76,4.458l-0.078,0.391
			c-0.782,0.262-1.356,0.991-1.721,2.19c-3.546-1.355-5.996-3.571-7.352-6.648c-1.513,2.19-3.285,3.963-5.318,5.318h6.257
			l1.251-1.643l2.112,1.486c0.104,0.052,0.156,0.156,0.156,0.312c0,0.157-0.184,0.262-0.548,0.313h-3.44v3.989h2.268l1.252-1.721
			l2.268,1.643c0.104,0.053,0.156,0.156,0.156,0.313c0,0.156-0.156,0.234-0.469,0.234h-5.475v4.302H184.524z"/>
		<path fill="#FFFFFF" d="M197.117,16.396l1.017-1.33l1.877,1.251l0.078,0.078c0,0.053,0,0.105,0,0.157
			c0,0.261-0.156,0.391-0.469,0.391h-3.989v2.268h1.174l0.938-1.33l1.721,1.33c0.104,0.052,0.156,0.131,0.156,0.234
			c0,0.157-0.184,0.235-0.548,0.235h-3.441v1.721c0,1.513,0.026,2.581,0.078,3.207c0,1.199-0.834,1.929-2.503,2.19
			c0-0.887-0.625-1.46-1.877-1.721l0.157-0.313l1.251,0.079c0.626,0.105,0.938-0.182,0.938-0.86v-2.659
			c-0.053,0.209-0.312,0.365-0.782,0.469c-0.678,1.513-1.669,2.842-2.972,3.989l-0.313-0.235c0.834-1.615,1.381-3.311,1.643-5.083
			l2.112,0.547c0.104,0,0.182,0.053,0.234,0.156l0.078,0.078v-1.564h-3.441v-0.469h3.441v-2.268h-3.832v-0.548h5.162
			c0.469-1.303,0.729-2.581,0.781-3.832l2.425,0.625c0.156,0,0.234,0.105,0.234,0.313c-0.052,0.312-0.312,0.469-0.781,0.469
			c-0.575,0.991-1.227,1.799-1.956,2.424H197.117z M196.726,11.859l0.939-1.33l1.721,1.251c0.104,0,0.156,0.078,0.156,0.234
			c0,0.157-0.184,0.262-0.548,0.313h-8.682v-0.469H196.726z M191.095,12.954l0.234-0.156c1.825,0.469,2.711,1.122,2.659,1.956
			c-0.104,0.834-0.547,1.304-1.329,1.408c-0.47,0-0.704-0.26-0.704-0.782C191.799,14.44,191.512,13.633,191.095,12.954z
			 M192.581,9.2l0.234-0.235c1.929,0.105,2.867,0.6,2.815,1.486c-0.104,0.782-0.574,1.226-1.407,1.33
			c-0.366,0-0.601-0.208-0.704-0.626C193.311,10.426,192.997,9.774,192.581,9.2z M195.709,21.01l0.157-0.313
			c2.137,0.626,3.18,1.356,3.128,2.19c-0.053,0.887-0.443,1.382-1.173,1.486c-0.313,0-0.548-0.235-0.704-0.704
			C196.855,22.627,196.387,21.741,195.709,21.01z M200.324,13.893c0-0.886-0.027-1.877-0.078-2.972l2.502,0.547
			c1.355-0.677,2.503-1.486,3.441-2.424l2.112,1.642c0.156,0.157,0.234,0.287,0.234,0.391c0,0.262-0.131,0.391-0.391,0.391
			c-0.053,0-0.209-0.025-0.47-0.078c0.156,0.053,0.078,0.027-0.234-0.078c-1.617,0.521-3.285,0.834-5.006,0.938v3.363
			c0,0.312,0,0.6,0,0.86h3.207l1.173-1.564l1.955,1.486c0.104,0,0.156,0.079,0.156,0.235s-0.183,0.261-0.547,0.313h-1.877v4.692
			c0,2.347,0.025,3.833,0.078,4.458c0,0.312-0.156,0.495-0.47,0.547c-0.574,0.156-1.147,0.234-1.721,0.234
			c0.104-1.617,0.156-3.232,0.156-4.849v-5.083h-2.111c-0.053,4.589-1.669,7.899-4.85,9.933l-0.312-0.312
			c1.252-1.616,2.06-3.129,2.425-4.537c0.417-1.408,0.626-3.52,0.626-6.335V13.893z"/>
		<path fill="#FFFFFF" d="M218,9.278l2.269,1.643c0.156,0.105,0.234,0.209,0.234,0.313c0,0.261-0.156,0.391-0.47,0.391
			c-0.262,0-0.469-0.051-0.625-0.156c-0.262,0.105-0.653,0.262-1.174,0.469c-0.626,0.262-1.069,0.444-1.329,0.547v3.754
			c0,0.418-0.027,0.782-0.078,1.095h4.849V13.58c0-1.981-0.026-3.389-0.078-4.224l2.894,0.235c0.157,0.052,0.235,0.156,0.235,0.312
			c-0.053,0.313-0.313,0.548-0.782,0.704v6.726h0.938l1.407-1.72l2.19,1.642c0.156,0.053,0.208,0.131,0.156,0.235
			c0,0.209-0.184,0.313-0.548,0.313h-4.145v2.268c0,2.972,0.025,4.901,0.078,5.788c0.051,0.364-0.105,0.573-0.47,0.625
			c-0.678,0.157-1.329,0.235-1.955,0.235c0.052-1.304,0.078-3.52,0.078-6.648v-2.268h-4.849c-0.157,4.485-2.321,7.56-6.492,9.229
			l-0.312-0.313c2.919-2.346,4.431-5.318,4.536-8.916h-4.38v-0.47h4.458c0-0.312,0-0.625,0-0.938v-3.207
			c-1.251,0.313-2.529,0.547-3.832,0.704l-0.156-0.313C214.141,12.172,216.592,10.739,218,9.278z"/>
		<path fill="#FFFFFF" d="M232.626,8.965l2.425,0.704c0.207,0,0.312,0.105,0.312,0.313c0,0.209-0.262,0.365-0.782,0.469
			c-0.991,1.513-2.008,2.815-3.05,3.911l2.502,0.078c0.313-0.626,0.6-1.408,0.86-2.347l2.425,0.939
			c0.156,0.105,0.234,0.234,0.234,0.391c-0.052,0.312-0.34,0.417-0.86,0.312c-1.043,1.721-2.346,3.416-3.91,5.084l4.224-0.313
			l0.078,0.391c-1.513,0.782-3.103,1.46-4.771,2.034c0,0.678-0.131,1.017-0.391,1.017c-0.209-0.051-0.34-0.156-0.391-0.313
			l-1.018-2.737c0.782-0.104,1.303-0.391,1.564-0.86c0.573-0.886,1.095-1.772,1.564-2.659c-0.835,0.313-1.617,0.574-2.347,0.782
			c0,0.469-0.156,0.73-0.469,0.782c-0.156,0-0.262-0.13-0.313-0.391l-0.782-2.112c0.573-0.051,0.912-0.208,1.018-0.469
			c0.573-1.042,1.095-2.216,1.563-3.52C232.521,9.826,232.626,9.331,232.626,8.965z M231.766,24.921c0,0.469-0.156,0.704-0.47,0.704
			c-0.156,0.052-0.262-0.078-0.312-0.391l-0.938-2.425c1.771-0.208,3.962-0.677,6.569-1.408l0.156,0.312
			C234.998,23.122,233.33,24.191,231.766,24.921z M233.877,26.642c3.336-3.285,4.9-8.525,4.693-15.721h-2.112v-0.469h6.805
			l0.704-1.173l2.189,1.017c0.208,0.105,0.313,0.235,0.313,0.391c0,0.313-0.287,0.548-0.86,0.704l-1.408,3.989h1.017l0.704-1.095
			l2.189,1.095c0.208,0.105,0.313,0.235,0.313,0.391c0,0.313-0.262,0.522-0.782,0.625c-0.521,2.243-1.435,4.172-2.737,5.788
			c1.095,0.782,2.45,1.46,4.066,2.033l-0.156,0.391c-0.938,0.313-1.564,1.017-1.877,2.112c-1.564-0.834-2.815-1.747-3.754-2.737
			c-1.564,1.199-3.625,2.19-6.179,2.972l-0.235-0.312c2.503-1.564,4.302-2.972,5.397-4.224c-0.888-1.459-1.486-3.493-1.799-6.101
			c-0.366,4.902-2.452,8.421-6.258,10.559L233.877,26.642z M242.559,14.206l1.017-3.285h-2.894c0,0.469-0.027,1.122-0.078,1.955
			c0,0.887-0.027,1.539-0.078,1.956c0.677,2.555,1.643,4.536,2.894,5.944c0.99-1.512,1.694-3.154,2.112-4.927h-1.174l-0.86,0.782
			c-0.521-0.313-1.069-0.677-1.643-1.095c-0.209-0.156-0.209-0.312,0-0.469C242.168,14.858,242.402,14.571,242.559,14.206z"/>
	</g>
	<g>
		<path fill="#FFFFFF" d="M11.91,50.208c0.052-1.2,0.078-2.319,0.078-3.362s0-2.139,0-3.285v-3.441
			c-0.678,0.887-1.46,1.721-2.346,2.502l-0.313-0.312c2.034-3.648,3.311-7.039,3.833-10.168l2.737,0.705
			c0.208,0,0.312,0.104,0.312,0.312c-0.053,0.312-0.312,0.469-0.782,0.469c-0.521,1.408-1.069,2.581-1.643,3.52l0.86,0.078
			c0.157,0,0.235,0.078,0.235,0.234c0,0.313-0.235,0.548-0.704,0.705v8.603c2.346-3.022,3.884-6.151,4.614-9.386h-3.676v-0.469
			h4.692v-0.391c0-1.929-0.026-3.311-0.078-4.146l2.815,0.312c0.208,0,0.313,0.078,0.313,0.235c0,0.312-0.262,0.547-0.782,0.703
			v3.285h2.425l1.251-1.643l2.19,1.564c0.156,0.053,0.207,0.156,0.156,0.312c0,0.156-0.156,0.234-0.47,0.234h-4.849
			c1.721,3.391,3.727,5.658,6.022,6.805l-0.157,0.391c-0.678,0.105-1.356,0.783-2.033,2.034c-2.139-1.825-3.572-4.9-4.302-9.229
			h-0.234v5.788v2.659h0.469l1.096-1.408l1.799,1.252c0.104,0.053,0.156,0.156,0.156,0.312s-0.184,0.262-0.548,0.312h-2.972
			c0,0.939,0.025,1.982,0.078,3.129c0,0.312-0.156,0.495-0.47,0.548c-0.678,0.156-1.329,0.234-1.955,0.234
			c0-0.626,0.025-1.407,0.078-2.347c0-0.729,0-1.251,0-1.564h-3.285v-0.469h3.285c0-0.938,0-1.693,0-2.268v-2.816
			c-0.991,2.347-2.79,4.459-5.396,6.336l-0.234-0.234v2.424c0,0.417-0.184,0.651-0.548,0.704
			C13.005,50.13,12.431,50.208,11.91,50.208z"/>
		<path fill="#FFFFFF" d="M31.072,46.297c0,0.47-0.183,0.705-0.547,0.705c-0.157,0-0.235-0.13-0.235-0.392l-0.625-2.269
			c0.782,0.053,2.581-0.129,5.396-0.547c0-0.26,0.025-0.651,0.078-1.174c0-0.416,0-0.703,0-0.859h-2.425l-0.626,0.703
			c-0.104-0.051-0.312-0.156-0.625-0.312c-0.418-0.26-0.731-0.442-0.938-0.547c-0.209-0.157-0.209-0.313,0-0.47
			c0.26-0.208,0.391-0.47,0.391-0.782l0.234-3.363c0.104-0.677,0.104-1.277,0-1.799l2.347,0.234c0.208,0,0.312,0.078,0.312,0.234
			c0,0.262-0.261,0.47-0.782,0.626l-0.391,4.928h1.721l0.47-7.118h-4.615v-0.469h4.302l0.704-1.173l1.955,0.782
			c0.208,0.105,0.313,0.234,0.313,0.391c0,0.312-0.262,0.6-0.782,0.86l-0.392,5.944l0.626,0.234
			c1.929-2.659,3.207-5.475,3.832-8.447l2.737,0.627c0.208,0,0.313,0.104,0.313,0.312c0,0.312-0.313,0.496-0.938,0.547h-0.078
			c1.563,2.451,3.623,4.146,6.179,5.084l-0.156,0.391c-0.626,0.105-1.2,0.731-1.721,1.877c-2.243-1.407-3.781-3.598-4.615-6.569
			c-0.938,2.139-2.139,3.911-3.598,5.319h3.52l0.938-1.33l1.721,1.173c0.156,0.053,0.235,0.157,0.235,0.313
			s-0.184,0.261-0.548,0.312h-5.944v-0.391c-0.365,0.365-0.757,0.703-1.173,1.016c0.156,0.105,0.234,0.235,0.234,0.392
			c0,0.262-0.262,0.522-0.782,0.782c-0.156,2.295-0.287,4.172-0.391,5.631c-0.209,1.512-1.305,2.347-3.285,2.503
			c0.104-1.044-0.757-1.669-2.581-1.877v-0.313l2.347,0.157c0.989,0.052,1.512-0.286,1.563-1.017
			c0.104-0.887,0.183-1.799,0.235-2.738C34.148,44.994,32.845,45.621,31.072,46.297z M44.682,41.214l2.659,0.782
			c0.208,0.053,0.312,0.156,0.312,0.312c0,0.312-0.262,0.496-0.782,0.547c-0.782,2.243-1.747,4.199-2.894,5.867h1.408l1.251-1.408
			l1.955,1.33c0.104,0.104,0.156,0.182,0.156,0.234c0,0.207-0.183,0.312-0.547,0.312H37.017v-0.469h6.179
			C44.029,46.115,44.525,43.613,44.682,41.214z M37.721,42.621l0.312-0.234c1.929,1.252,2.842,2.451,2.737,3.598
			c-0.104,0.939-0.547,1.486-1.329,1.643c-0.47,0-0.731-0.26-0.782-0.781C38.71,45.49,38.397,44.082,37.721,42.621z M40.458,41.605
			l0.234-0.235c1.981,1.147,2.945,2.295,2.895,3.441c-0.053,0.991-0.47,1.538-1.252,1.643c-0.469,0-0.73-0.286-0.782-0.86
			C41.604,44.186,41.24,42.855,40.458,41.605z"/>
		<path fill="#FFFFFF" d="M57.821,50.208c0.051-1.669,0.078-3.884,0.078-6.647v-3.285c-1.982,2.346-4.614,4.38-7.899,6.101
			l-0.234-0.392c4.015-3.545,6.986-7.324,8.916-11.34h-8.447v-0.47h14.392l1.329-1.799l2.269,1.642
			c0.104,0.053,0.156,0.157,0.156,0.313s-0.184,0.262-0.548,0.313h-6.179c-0.678,1.303-1.407,2.529-2.189,3.676l1.251,0.078
			c0.208,0,0.313,0.078,0.313,0.234c0,0.312-0.262,0.547-0.782,0.703v9.934c0,0.417-0.156,0.651-0.47,0.704
			C59.099,50.13,58.447,50.208,57.821,50.208z M65.721,44.89c-0.938-2.034-2.295-3.702-4.067-5.005l0.156-0.235
			c4.119,0.991,6.205,2.374,6.258,4.146c-0.105,0.99-0.601,1.564-1.486,1.721C66.269,45.516,65.981,45.308,65.721,44.89z"/>
		<path fill="#FFFFFF" d="M84.022,41.057l1.643-2.189l2.815,2.111c0.104,0.053,0.156,0.131,0.156,0.235
			c0,0.261-0.209,0.392-0.625,0.392H70.101v-0.549H84.022z"/>
		<path fill="#FFFFFF" d="M89.811,45.828l-0.235-0.234c1.303-2.45,2.269-5.188,2.895-8.213h-2.425v-0.469h2.815v-1.017
			c0-0.261,0-0.808,0-1.643c-0.053-0.989-0.078-1.643-0.078-1.956l2.503,0.235c0.208,0.053,0.312,0.156,0.312,0.313
			c-0.052,0.312-0.312,0.547-0.782,0.703v3.363h0.392l0.704-1.174l1.485,1.096l0.078,0.078c0,0.053,0,0.105,0,0.156
			c-0.052,0.156-0.209,0.262-0.469,0.312h-2.19v1.877c1.981,0.627,2.973,1.436,2.973,2.426c-0.105,0.834-0.548,1.303-1.33,1.407
			c-0.365,0-0.6-0.235-0.703-0.704c-0.157-1.095-0.47-2.006-0.939-2.737v9.698c0,0.364-0.13,0.573-0.391,0.626
			c-0.574,0.156-1.147,0.234-1.721,0.234c0.052-1.772,0.104-4.118,0.156-7.039v-1.485C92.13,43.144,91.113,44.525,89.811,45.828z
			 M97.24,36.208h5.632c0.521-1.459,0.86-2.815,1.017-4.067l2.581,0.705c0.207,0.052,0.312,0.156,0.312,0.312
			c0,0.312-0.287,0.469-0.86,0.469c-0.574,0.835-1.304,1.695-2.189,2.581h1.799l1.017-1.485l1.955,1.407
			c0.156,0.053,0.208,0.131,0.156,0.235c0,0.156-0.183,0.261-0.547,0.312h-4.693v3.598h1.486l1.017-1.33l1.799,1.252
			c0.104,0,0.156,0.078,0.156,0.234s-0.183,0.262-0.547,0.312h-3.911v3.754h2.034l1.251-1.643l2.111,1.486
			c0.104,0.053,0.157,0.156,0.157,0.313c0,0.156-0.184,0.261-0.548,0.312h-5.006c0,2.243,0.026,3.755,0.078,4.536
			c0,0.365-0.209,0.548-0.625,0.548c-0.575,0.156-1.174,0.208-1.799,0.156c0.051-0.521,0.078-1.382,0.078-2.581
			c0.051-1.199,0.078-2.084,0.078-2.659h-4.85v-0.47h4.85c0-0.729,0-1.303,0-1.721v-2.033h-3.441v-0.469h3.441v-3.598H97.24V36.208z
			 M98.492,32.532l0.234-0.235c1.98,0.47,2.972,1.201,2.972,2.19c-0.053,0.938-0.521,1.435-1.407,1.486
			c-0.418,0.052-0.653-0.157-0.704-0.626C99.481,34.253,99.117,33.314,98.492,32.532z"/>
		<path fill="#FFFFFF" d="M116.089,49.27v-1.877h-2.973v1.408c0,0.363-0.156,0.572-0.469,0.625
			c-0.521,0.156-1.069,0.234-1.643,0.234c0.052-1.146,0.078-3.232,0.078-6.256v-3.129c0-1.615-0.026-3.207-0.078-4.771l2.111,0.548
			c0.261-1.355,0.339-2.632,0.235-3.833l2.659,0.392c0.208,0.053,0.312,0.156,0.312,0.313c-0.053,0.312-0.34,0.521-0.86,0.625
			c-0.469,0.938-1.017,1.826-1.643,2.659h0.078h1.799l0.704-1.173l2.19,0.86c0.156,0.104,0.234,0.234,0.234,0.391
			c0,0.262-0.234,0.548-0.704,0.86v5.24c0,3.077,0.025,5.137,0.078,6.18c0,0.312-0.131,0.494-0.391,0.547
			C117.235,49.217,116.662,49.27,116.089,49.27z M116.089,36.678h-2.973v4.849h2.973V36.678z M113.116,41.996v4.928h2.973v-4.928
			H113.116z M125.083,36.208l0.704-1.173l2.189,0.938c0.208,0.104,0.313,0.234,0.313,0.392c0,0.312-0.262,0.6-0.782,0.859
			c0,3.754-0.053,6.779-0.156,9.072c0.051,2.348-1.304,3.65-4.067,3.911c-0.053-0.991-1.069-1.669-3.05-2.033v-0.47l2.737,0.156
			c1.564,0.262,2.319-0.338,2.268-1.799c0.157-2.24,0.235-5.369,0.235-9.385h-3.833c-0.469,1.043-0.913,1.904-1.329,2.58
			c2.189,1.096,3.232,2.243,3.128,3.441c-0.053,0.992-0.496,1.514-1.329,1.564c-0.47,0-0.731-0.285-0.782-0.859
			c-0.156-1.616-0.601-2.867-1.33-3.755c-0.365,0.626-0.86,1.278-1.485,1.956l-0.392-0.235c1.252-3.128,2.007-5.579,2.269-7.353
			c0.051-0.26,0.104-0.65,0.156-1.172c0.052-0.261,0.078-0.47,0.078-0.627l2.659,0.627c0.208,0,0.312,0.104,0.312,0.312
			c0.052,0.312-0.234,0.521-0.86,0.625c-0.104,0.312-0.261,0.73-0.469,1.252c-0.209,0.521-0.365,0.912-0.47,1.173H125.083z"/>
		<path fill="#FFFFFF" d="M132.67,43.482c0.051-0.783,0.078-2.138,0.078-4.067v-1.799c0-0.626,0-1.46,0-2.503l2.894,0.782h1.096
			c0.156-0.782,0.234-1.408,0.234-1.878h-6.805v-0.469h14.704l1.407-1.721l2.19,1.643c0.156,0.053,0.208,0.131,0.156,0.234
			c0,0.156-0.184,0.262-0.547,0.312h-8.291c-0.782,0.836-1.486,1.461-2.111,1.878h5.318l0.704-1.251l2.268,0.938
			c0.208,0.053,0.312,0.184,0.312,0.392c0,0.261-0.261,0.548-0.781,0.86v2.111c0,1.617,0.025,2.738,0.078,3.363
			c0,0.365-0.156,0.574-0.47,0.626c-0.574,0.052-1.147,0.078-1.721,0.078v-0.626h-7.273l2.189,0.469
			c0.208,0,0.313,0.105,0.313,0.313c-0.053,0.313-0.287,0.47-0.704,0.47c-0.053,0.053-0.105,0.131-0.156,0.234
			c-0.105,0.105-0.184,0.184-0.235,0.234h4.38l0.939-1.017l2.268,1.251c0.208,0.156,0.313,0.313,0.313,0.47
			c0,0.313-0.366,0.522-1.096,0.626c-0.678,0.678-1.435,1.304-2.268,1.877c1.615,0.365,3.832,0.496,6.647,0.391v0.391
			c-0.678,0.157-1.173,0.834-1.485,2.034c-3.234-0.313-5.736-0.888-7.509-1.721c-2.503,1.146-5.71,1.825-9.62,2.034l-0.078-0.313
			c3.076-0.731,5.735-1.591,7.978-2.581c-0.679-0.521-1.304-1.121-1.877-1.799c-0.991,1.043-2.399,1.904-4.224,2.581l-0.234-0.313
			c2.085-1.771,3.52-3.648,4.302-5.631h-1.096v0.312c0,0.313-0.156,0.496-0.469,0.548C133.765,43.404,133.19,43.482,132.67,43.482z
			 M143.385,36.365h-8.525v1.563h8.525V36.365z M134.859,38.398v1.486h8.525v-1.486H134.859z M134.859,40.354v1.564h8.525v-1.564
			H134.859z M142.056,44.576h-4.928c-0.156,0.209-0.34,0.444-0.548,0.705c0.99,0.574,1.981,1.016,2.973,1.329
			C140.438,46.037,141.273,45.359,142.056,44.576z"/>
		<path fill="#FFFFFF" d="M163.017,34.331l1.407-1.799l2.19,1.643c0.104,0.052,0.156,0.156,0.156,0.312
			c0,0.157-0.184,0.262-0.548,0.313h-6.491V36.6c0,1.355-0.078,2.58-0.234,3.676h4.927l1.486-1.877l2.581,1.799
			c0.052,0.053,0.078,0.131,0.078,0.234c0,0.156-0.184,0.262-0.548,0.312h-7.664c1.824,3.703,4.666,6.18,8.524,7.431l-0.156,0.312
			c-1.095,0.208-1.877,0.782-2.346,1.721c-3.808-1.772-6.05-4.927-6.727-9.464h-0.234c-0.679,4.799-3.807,7.979-9.386,9.542
			l-0.234-0.391c4.327-2.397,6.752-5.448,7.273-9.151h-7.039v-0.469h7.117c0.156-1.096,0.234-2.294,0.234-3.598v-1.877h-5.865v-0.47
			H163.017z"/>
		<path fill="#FFFFFF" d="M174.592,44.812h-0.626c-0.052-2.972-0.34-5.396-0.86-7.274c-0.052-0.207-0.104-0.469-0.156-0.781
			c-0.209-0.99-0.312-1.615-0.312-1.877c0-0.939,0.547-1.408,1.643-1.408c1.042,0.053,1.59,0.469,1.643,1.252
			c0,0.261-0.078,0.809-0.235,1.643c-0.104,0.521-0.183,0.912-0.234,1.172C175.087,38.998,174.8,41.423,174.592,44.812z
			 M174.279,46.61c1.042,0.053,1.564,0.601,1.564,1.643c-0.053,0.886-0.575,1.354-1.564,1.407c-0.991-0.053-1.514-0.521-1.564-1.407
			C172.715,47.158,173.235,46.61,174.279,46.61z"/>
	</g>
</g>
</svg>
