<?xml version="1.0" encoding="utf-8"?>
<!-- Generator: Adobe Illustrator 16.0.3, SVG Export Plug-In . SVG Version: 6.00 Build 0)  -->
<!DOCTYPE svg PUBLIC "-//W3C//DTD SVG 1.1//EN" "http://www.w3.org/Graphics/SVG/1.1/DTD/svg11.dtd">
<svg version="1.1" id="图层_1" xmlns="http://www.w3.org/2000/svg" xmlns:xlink="http://www.w3.org/1999/xlink" x="0px" y="0px"
	 width="18px" height="18px" viewBox="0 0 18 18" enable-background="new 0 0 18 18" xml:space="preserve">
<g>
	<g>
		<path fill="#9D8762" d="M10.743,0.467c-0.044-0.009-0.087-0.015-0.13-0.018c-0.394-0.014-0.738,0.255-0.815,0.64
			C9.754,1.297,9.794,1.511,9.913,1.691c0.118,0.179,0.298,0.301,0.509,0.345c1.687,0.347,3.142,1.33,4.09,2.771
			s1.281,3.158,0.935,4.841c-0.044,0.209-0.003,0.424,0.115,0.602c0.119,0.18,0.299,0.301,0.51,0.346
			c0.043,0.008,0.089,0.014,0.133,0.018c0.167,0.004,0.329-0.041,0.472-0.131c0.18-0.119,0.301-0.299,0.344-0.506
			C17.91,5.625,15.1,1.364,10.743,0.467z M12.123,12.479c0.046,0.031,1.104,0.709,1.918,1.541c0.307,0.316,0.818,0.842,0.804,1.455
			c-0.012,0.418-0.249,0.836-0.724,1.279c-0.118,0.115-1.177,1.102-2.869,1.102c-0.463,0-0.939-0.072-1.414-0.217
			c-0.5-0.15-1.01-0.385-1.51-0.693C6.35,15.78,4.822,14.278,3.37,12.077C0.877,8.293,0.805,5.051,0.816,4.442
			c0.003-2.82,2.357-3.928,2.627-4.047c0.37-0.17,0.69-0.252,0.989-0.252c0.142,0,0.276,0.021,0.404,0.059
			c0.261,0.078,0.618,0.28,0.861,0.804c0.33,0.708,0.643,1.728,0.856,2.794C6.78,4.905,6.158,5.217,5.557,5.514L5.534,5.526
			c0,0-1.064,0.443-1.25,0.521C4.1,6.122,4.004,6.331,4.067,6.518c0.428,1.297,1.085,2.641,1.895,3.887
			c0.795,1.227,1.744,2.357,2.739,3.275c0.072,0.062,0.162,0.102,0.261,0.102l0.031-0.004c0.104-0.008,0.202-0.061,0.27-0.145
			c0.161-0.209,0.41-0.506,0.671-0.756c0.497-0.471,0.945-0.699,1.371-0.699c0.115,0,0.234,0.018,0.344,0.053
			C11.756,12.257,11.93,12.351,12.123,12.479z M8.756,7.024C8.545,6.981,8.365,6.86,8.247,6.68C8.128,6.5,8.088,6.287,8.131,6.079
			c0.081-0.385,0.423-0.653,0.816-0.637c0.043,0,0.086,0.006,0.133,0.016c1.86,0.381,3.062,2.203,2.678,4.061
			c-0.043,0.207-0.164,0.387-0.344,0.506c-0.142,0.092-0.304,0.135-0.472,0.129c-0.043-0.002-0.086-0.004-0.13-0.016
			c-0.211-0.045-0.391-0.166-0.509-0.346c-0.119-0.178-0.159-0.391-0.116-0.602c0.099-0.479,0.006-0.971-0.266-1.382
			C9.652,7.403,9.239,7.123,8.756,7.024z M9.589,4.52C9.155,4.43,8.878,4.008,8.967,3.577C9.048,3.192,9.39,2.922,9.783,2.938
			C9.826,2.94,9.869,2.944,9.916,2.956c1.507,0.309,2.803,1.186,3.65,2.473c0.847,1.283,1.143,2.816,0.833,4.321
			c-0.044,0.209-0.165,0.391-0.345,0.506c-0.142,0.094-0.304,0.139-0.471,0.131c-0.044-0.002-0.087-0.01-0.134-0.018
			c-0.431-0.09-0.711-0.512-0.621-0.943c0.223-1.084,0.011-2.192-0.603-3.118C11.613,5.375,10.677,4.743,9.589,4.52z"/>
	</g>
</g>
</svg>
